<svg width="24" height="24" viewBox="0 0 24 24" fill="none" xmlns="http://www.w3.org/2000/svg">
<path d="M2.74927 20.8329C2.3221 20.8329 1.95143 20.6758 1.63727 20.3617C1.3231 20.0475 1.16602 19.6768 1.16602 19.2497V6.85391C1.16602 6.43791 1.3231 6.06999 1.63727 5.75016C1.95143 5.43032 2.3221 5.27041 2.74927 5.27041H6.24927L7.57702 3.71491C7.71868 3.53457 7.89535 3.39807 8.10702 3.30541C8.31868 3.21274 8.54527 3.16641 8.78677 3.16641H13.795C14.0109 3.16641 14.1961 3.24399 14.3508 3.39916C14.5053 3.55416 14.5825 3.73999 14.5825 3.95666C14.5825 4.17982 14.5053 4.36774 14.3508 4.52041C14.1961 4.67324 14.0109 4.74966 13.795 4.74966H8.78677L6.98252 6.85391H2.74927V19.2497H19.2493V10.2039C19.2493 9.98807 19.3266 9.80282 19.4813 9.64816C19.6361 9.49366 19.8236 9.41641 20.0438 9.41641C20.2641 9.41641 20.4507 9.49366 20.6035 9.64816C20.7562 9.80282 20.8325 9.98807 20.8325 10.2039V19.2497C20.8325 19.6768 20.6727 20.0475 20.353 20.3617C20.0332 20.6758 19.6653 20.8329 19.2493 20.8329H2.74927ZM19.2493 4.74966H17.9618C17.7396 4.74966 17.5514 4.67232 17.3973 4.51766C17.2431 4.36282 17.166 4.17532 17.166 3.95516C17.166 3.73482 17.2431 3.54824 17.3973 3.39541C17.5514 3.24274 17.7396 3.16641 17.9618 3.16641H19.2493V1.85391C19.2493 1.63807 19.3266 1.45282 19.4813 1.29816C19.6361 1.14366 19.8236 1.06641 20.0438 1.06641C20.2641 1.06641 20.4507 1.14366 20.6035 1.29816C20.7562 1.45282 20.8325 1.63807 20.8325 1.85391V3.16641H22.145C22.3609 3.16641 22.5461 3.24399 22.7008 3.39916C22.8553 3.55416 22.9325 3.73999 22.9325 3.95666C22.9325 4.17982 22.8553 4.36774 22.7008 4.52041C22.5461 4.67324 22.3609 4.74966 22.145 4.74966H20.8325V6.03716C20.8325 6.25932 20.7549 6.44749 20.5998 6.60166C20.4448 6.75582 20.2589 6.83291 20.0423 6.83291C19.8191 6.83291 19.6312 6.75582 19.4785 6.60166C19.3257 6.44749 19.2493 6.25932 19.2493 6.03716V4.74966ZM10.993 17.2997C12.2 17.2997 13.2132 16.8901 14.0325 16.0709C14.852 15.2516 15.2618 14.2376 15.2618 13.0289C15.2618 11.8261 14.8522 10.8177 14.033 10.0039C13.214 9.18991 12.2002 8.78291 10.9915 8.78291C9.78285 8.78291 8.77293 9.18991 7.96177 10.0039C7.1506 10.8177 6.74502 11.8274 6.74502 13.0329C6.74502 14.2386 7.15127 15.2511 7.96377 16.0704C8.7761 16.8899 9.78585 17.2997 10.993 17.2997ZM10.9858 15.7164C10.2253 15.7164 9.59227 15.4612 9.08677 14.9509C8.58127 14.4406 8.32852 13.803 8.32852 13.0382C8.32852 12.2733 8.58127 11.6368 9.08677 11.1287C9.59227 10.6205 10.2253 10.3664 10.9858 10.3664C11.7518 10.3664 12.3921 10.6205 12.9068 11.1287C13.4213 11.6368 13.6785 12.2733 13.6785 13.0382C13.6785 13.803 13.4213 14.4406 12.9068 14.9509C12.3921 15.4612 11.7518 15.7164 10.9858 15.7164Z" fill="#141414"/>
</svg>
