<svg width="24" height="24" viewBox="0 0 24 24" fill="none" xmlns="http://www.w3.org/2000/svg">
    <path d="M12.0048 21.8329C10.6474 21.8329 9.37152 21.5738 8.17702 21.0556C6.98252 20.5373 5.9411 19.8331 5.05277 18.9431C4.16427 18.0529 3.46102 17.0116 2.94302 15.8191C2.42502 14.6264 2.16602 13.3522 2.16602 11.9964C2.16602 10.639 2.42568 9.36177 2.94502 8.16461C3.46435 6.96761 4.16727 5.92628 5.05377 5.04061C5.9401 4.15494 6.98227 3.45444 8.18027 2.93911C9.37827 2.42394 10.6513 2.16636 11.9993 2.16636C12.6311 2.16636 13.2456 2.22469 13.8428 2.34136C14.4399 2.45803 15.0171 2.62744 15.5743 2.84961C15.8714 2.97178 16.0562 3.13553 16.1285 3.34086C16.2007 3.54619 16.202 3.74344 16.1325 3.93261C16.0632 4.12178 15.9417 4.26844 15.768 4.37261C15.5944 4.47678 15.4034 4.47886 15.195 4.37886C14.6895 4.17053 14.1733 4.01353 13.6463 3.90786C13.1193 3.80236 12.5703 3.74961 11.9993 3.74961C9.71527 3.74961 7.76927 4.55169 6.16127 6.15586C4.55327 7.76003 3.74927 9.70528 3.74927 11.9916C3.74927 14.2778 4.55402 16.2257 6.16352 17.8354C7.77318 19.4449 9.7211 20.2496 12.0073 20.2496C14.2936 20.2496 16.2389 19.4456 17.843 17.8376C19.4472 16.2296 20.2493 14.2836 20.2493 11.9996C20.2493 11.6173 20.2243 11.239 20.1743 10.8649C20.1243 10.4909 20.0479 10.1219 19.945 9.75786C19.8729 9.52803 19.9004 9.33153 20.0275 9.16836C20.1549 9.00536 20.3135 8.89828 20.5035 8.84711C20.6937 8.79594 20.887 8.81828 21.0835 8.91411C21.2802 9.00994 21.4202 9.19953 21.5035 9.48286C21.6119 9.88569 21.6938 10.295 21.7493 10.7109C21.8048 11.1269 21.8325 11.5564 21.8325 11.9996C21.8325 13.3489 21.5748 14.6232 21.0593 15.8224C20.5438 17.0215 19.8424 18.0635 18.9553 18.9484C18.0679 19.833 17.0267 20.5349 15.8315 21.0541C14.6363 21.5733 13.3608 21.8329 12.0048 21.8329ZM20.2118 4.78711H18.8325C18.6104 4.78711 18.4236 4.71111 18.2723 4.55911C18.1208 4.40728 18.045 4.21978 18.045 3.99661C18.045 3.77361 18.1208 3.58569 18.2723 3.43286C18.4236 3.28019 18.6104 3.20386 18.8325 3.20386H20.2118V1.83286C20.2118 1.61069 20.2878 1.42253 20.4398 1.26836C20.5916 1.11419 20.7791 1.03711 21.0023 1.03711C21.2253 1.03711 21.4132 1.11419 21.566 1.26836C21.7187 1.42253 21.795 1.61069 21.795 1.83286V3.20386H23.166C23.3882 3.20386 23.5764 3.28119 23.7305 3.43586C23.8847 3.59053 23.9618 3.77944 23.9618 4.00261C23.9618 4.22561 23.8847 4.41211 23.7305 4.56211C23.5764 4.71211 23.3882 4.78711 23.166 4.78711H21.795V6.16636C21.795 6.38853 21.7177 6.57528 21.563 6.72661C21.4083 6.87811 21.2194 6.95386 20.9963 6.95386C20.7733 6.95386 20.5868 6.87811 20.4368 6.72661C20.2868 6.57528 20.2118 6.38853 20.2118 6.16636V4.78711ZM15.5473 10.7664C15.9264 10.7664 16.2494 10.6336 16.516 10.3681C16.7827 10.1028 16.916 9.78061 16.916 9.40161C16.916 9.02244 16.7834 8.69953 16.518 8.43286C16.2525 8.16619 15.9303 8.03286 15.5513 8.03286C15.1721 8.03286 14.8492 8.16553 14.5825 8.43086C14.3159 8.69636 14.1825 9.01861 14.1825 9.39761C14.1825 9.77678 14.3153 10.0997 14.5808 10.3664C14.8461 10.633 15.1683 10.7664 15.5473 10.7664ZM8.44727 10.7664C8.82643 10.7664 9.14935 10.6336 9.41602 10.3681C9.68268 10.1028 9.81602 9.78061 9.81602 9.40161C9.81602 9.02244 9.68327 8.69953 9.41777 8.43286C9.15243 8.16619 8.83027 8.03286 8.45127 8.03286C8.0721 8.03286 7.74918 8.16553 7.48252 8.43086C7.21585 8.69636 7.08252 9.01861 7.08252 9.39761C7.08252 9.77678 7.21518 10.0997 7.48052 10.3664C7.74602 10.633 8.06827 10.7664 8.44727 10.7664ZM11.989 17.3829C12.929 17.3829 13.7962 17.1663 14.5905 16.7331C15.3849 16.3001 16.031 15.7012 16.529 14.9364C16.6287 14.7452 16.6225 14.5579 16.5105 14.3746C16.3985 14.1913 16.2305 14.0996 16.0065 14.0996H7.99627C7.76493 14.0996 7.59443 14.1913 7.48477 14.3746C7.37493 14.5579 7.37285 14.7432 7.47852 14.9304C7.97018 15.6987 8.61393 16.2995 9.40977 16.7329C10.2056 17.1662 11.0653 17.3829 11.989 17.3829Z"
          fill="currentColor"/>
</svg>
