<svg width="24" height="24" viewBox="0 0 24 24" fill="none" xmlns="http://www.w3.org/2000/svg">
    <path fill-rule="evenodd" clip-rule="evenodd"
          d="M4.5365 20.0018L6.5385 18H20.1923C20.6974 18 21.125 17.825 21.475 17.475C21.825 17.125 22 16.6974 22 16.1923V4.80775C22 4.30258 21.825 3.875 21.475 3.525C21.125 3.175 20.6974 3 20.1923 3H4.80775C4.30258 3 3.875 3.175 3.525 3.525C3.175 3.875 3 4.30258 3 4.80775V19.3538C3 19.7569 3.18492 20.0369 3.55475 20.1938C3.92475 20.3504 4.252 20.2864 4.5365 20.0018ZM16.0128 6.51051C16.0099 6.49619 15.9894 6.49619 15.9865 6.51051C15.8345 7.25386 15.2536 7.83477 14.5103 7.9867C14.496 7.98963 14.496 8.01009 14.5103 8.01302C15.2536 8.16496 15.8345 8.74587 15.9865 9.48921C15.9894 9.50353 16.0099 9.50353 16.0128 9.48921C16.1647 8.74587 16.7456 8.16496 17.489 8.01302C17.5033 8.01009 17.5033 7.98963 17.489 7.9867C16.7456 7.83477 16.1647 7.25386 16.0128 6.51051ZM10.6989 8.6623C10.6546 8.44572 10.3452 8.44572 10.3009 8.6623C10.0293 9.99105 8.9909 11.0295 7.66215 11.301C7.44557 11.3453 7.44557 11.6548 7.66215 11.699C8.9909 11.9706 10.0293 13.009 10.3009 14.3378C10.3452 14.5544 10.6546 14.5544 10.6989 14.3378C10.9705 13.009 12.0089 11.9706 13.3376 11.699C13.5542 11.6548 13.5542 11.3453 13.3376 11.301C12.0089 11.0295 10.9705 9.99105 10.6989 8.6623Z"
          stroke="currentColor" stroke-width="1.5"/>
</svg>
