<svg width="24" height="24" viewBox="0 0 24 24" fill="none" xmlns="http://www.w3.org/2000/svg">
    <path d="M4.30775 18.5C3.80258 18.5 3.375 18.325 3.025 17.975C2.675 17.625 2.5 17.1974 2.5 16.6923V5.30775C2.5 4.80258 2.675 4.375 3.025 4.025C3.375 3.675 3.80258 3.5 4.30775 3.5H19.6923C20.1974 3.5 20.625 3.675 20.975 4.025C21.325 4.375 21.5 4.80258 21.5 5.30775V19.8538C21.5 20.2589 21.3151 20.5394 20.9452 20.6952C20.5752 20.8509 20.248 20.7864 19.9635 20.5018L17.9615 18.5H4.30775ZM18.6 17L20 18.3848V5.30775C20 5.23075 19.9679 5.16025 19.9038 5.09625C19.8398 5.03208 19.7693 5 19.6923 5H4.30775C4.23075 5 4.16025 5.03208 4.09625 5.09625C4.03208 5.16025 4 5.23075 4 5.30775V16.6923C4 16.7692 4.03208 16.8398 4.09625 16.9038C4.16025 16.9679 4.23075 17 4.30775 17H18.6Z"
          fill="currentColor"/>
    <path d="M11.6693 16C11.4045 16 11.1762 15.9083 10.9844 15.7248C10.7925 15.5413 10.6882 15.3172 10.6714 15.0524H12.6673C12.6505 15.3172 12.5462 15.5413 12.3543 15.7248C12.1625 15.9083 11.9341 16 11.6693 16ZM10.0968 14.3265C9.9852 14.3265 9.89181 14.2889 9.81659 14.2137C9.74128 14.1384 9.70362 14.0449 9.70362 13.9334C9.70362 13.8218 9.74128 13.7284 9.81659 13.6532C9.89181 13.5779 9.9852 13.5402 10.0968 13.5402H13.2419C13.3535 13.5402 13.4469 13.5779 13.5221 13.6532C13.5974 13.7284 13.6351 13.8218 13.6351 13.9334C13.6351 14.0449 13.5974 14.1384 13.5221 14.2137C13.4469 14.2889 13.3535 14.3265 13.2419 14.3265H10.0968ZM9.78422 12.8145C9.23521 12.4731 8.80062 12.027 8.48042 11.4762C8.16014 10.9256 8 10.3233 8 9.66934C8 8.64787 8.35619 7.78094 9.06856 7.06856C9.78094 6.35619 10.6479 6 11.6693 6C12.6908 6 13.5577 6.35619 14.2701 7.06856C14.9825 7.78094 15.3387 8.64787 15.3387 9.66934C15.3387 10.3233 15.1785 10.9256 14.8583 11.4762C14.5381 12.027 14.1035 12.4731 13.5545 12.8145H9.78422Z"
          fill="currentColor"/>
    <path d="M3.25 16.6924C3.25004 17.0026 3.38792 17.2548 3.56543 17.4326V17.4336C3.74328 17.6118 3.99653 17.75 4.30762 17.75C3.99684 17.75 3.76177 17.6504 3.55566 17.4443C3.34956 17.2382 3.25003 17.0032 3.25 16.6924ZM11.6689 6.75C12.4946 6.75 13.1707 7.02909 13.7402 7.59863C14.3096 8.16806 14.5888 8.8435 14.5889 9.66895C14.5889 10.1941 14.4618 10.6666 14.21 11.0996C13.986 11.4848 13.6939 11.8049 13.3281 12.0645H10.0107C9.64496 11.8049 9.3529 11.4848 9.12891 11.0996C8.87705 10.6666 8.75 10.1941 8.75 9.66895C8.75009 8.84345 9.02918 8.16808 9.59863 7.59863C10.1681 7.02918 10.8435 6.75009 11.6689 6.75ZM4.30762 4.25C3.99709 4.25004 3.7442 4.38768 3.56641 4.56543C3.38818 4.74328 3.25004 4.99652 3.25 5.30762C3.25003 4.99684 3.34956 4.76177 3.55566 4.55566C3.76177 4.34956 3.99684 4.25003 4.30762 4.25ZM19.4727 18.918L20.5898 20.0234C20.5779 20.0259 20.5709 20.0274 20.5674 20.0273C20.5653 20.0266 20.5616 20.0253 20.5566 20.0225L20.4941 19.9717L18.2725 17.75H18.292L19.4727 18.918ZM19.6924 4.25C20.0032 4.25003 20.2382 4.34956 20.4443 4.55566C20.6504 4.76177 20.75 4.99684 20.75 5.30762C20.75 5.03537 20.6439 4.80763 20.498 4.63574L20.4336 4.56543C20.2558 4.38767 20.0029 4.25004 19.6924 4.25Z"
          stroke="currentColor" stroke-width="1.5"/>
</svg>
