<svg width="24" height="24" viewBox="0 0 24 24" fill="none" xmlns="http://www.w3.org/2000/svg">
    <path d="M12.0012 21.8335C10.6404 21.8335 9.36164 21.5751 8.16497 21.0582C6.96814 20.5416 5.92705 19.8402 5.04172 18.9542C4.15639 18.0682 3.45605 17.0277 2.94072 15.8325C2.42555 14.6373 2.16797 13.3602 2.16797 12.0012C2.16797 10.6411 2.42639 9.36241 2.94322 8.16524C3.45989 6.96808 4.16122 5.92666 5.04722 5.04099C5.93322 4.15549 6.9738 3.45508 8.16897 2.93974C9.36414 2.42458 10.6412 2.16699 12.0002 2.16699C13.3604 2.16699 14.6391 2.42541 15.8362 2.94224C17.0334 3.45891 18.0748 4.16024 18.9605 5.04624C19.846 5.93224 20.5464 6.97333 21.0617 8.16949C21.5769 9.36549 21.8345 10.6435 21.8345 12.0035V13.3327C21.8345 14.2599 21.5086 15.0447 20.8567 15.687C20.2047 16.3292 19.4085 16.6502 18.468 16.6502C17.8753 16.6502 17.3216 16.5092 16.8067 16.2272C16.2921 15.9454 15.8846 15.5531 15.5845 15.0502C15.1485 15.5864 14.614 15.9871 13.981 16.2522C13.3481 16.5176 12.6895 16.6502 12.005 16.6502C10.7096 16.6502 9.60739 16.1996 8.69822 15.2982C7.78905 14.3967 7.33447 13.2959 7.33447 11.9957C7.33447 10.6956 7.78905 9.59074 8.69822 8.68124C9.60739 7.77174 10.7084 7.31699 12.0012 7.31699C13.2941 7.31699 14.3951 7.77191 15.3042 8.68174C16.2134 9.59158 16.668 10.6964 16.668 11.9962V13.3335C16.668 13.8182 16.8436 14.2282 17.1947 14.5637C17.5459 14.8992 17.9675 15.067 18.4595 15.067C18.9516 15.067 19.3733 14.8992 19.7245 14.5637C20.0756 14.2282 20.2512 13.8182 20.2512 13.3335V12.0002C20.2512 9.69891 19.4516 7.74858 17.8522 6.14924C16.2529 4.54991 14.3026 3.75024 12.0012 3.75024C9.69989 3.75024 7.74955 4.54991 6.15022 6.14924C4.55089 7.74858 3.75122 9.69891 3.75122 12.0002C3.75122 14.3016 4.55089 16.2519 6.15022 17.8512C7.74955 19.4506 9.69989 20.2502 12.0012 20.2502H16.397C16.6128 20.2502 16.7981 20.3278 16.9527 20.483C17.1072 20.6382 17.1845 20.8241 17.1845 21.0407C17.1845 21.2637 17.1072 21.4517 16.9527 21.6045C16.7981 21.7572 16.6128 21.8335 16.397 21.8335H12.0012ZM12.0002 15.067C12.8564 15.067 13.5845 14.769 14.1845 14.173C14.7845 13.5772 15.0845 12.8536 15.0845 12.0022C15.0845 11.1342 14.7848 10.4002 14.1855 9.80024C13.5861 9.20024 12.8584 8.90024 12.0022 8.90024C11.1461 8.90024 10.418 9.19958 9.81797 9.79824C9.21797 10.3969 8.91797 11.1302 8.91797 11.9982C8.91797 12.8496 9.21764 13.5738 9.81697 14.171C10.4163 14.7683 11.1441 15.067 12.0002 15.067Z"
          fill="currentColor"/>
</svg>
