<svg width="24" height="24" viewBox="0 0 24 24" fill="none" xmlns="http://www.w3.org/2000/svg">
    <path d="M7.51562 19.5625C6.74479 19.5625 6.15885 19.3672 5.75781 18.9766C5.35677 18.5859 5.15625 18.0052 5.15625 17.2344V8.89062H6.41406V17.2969C6.41406 17.6458 6.50781 17.9141 6.69531 18.1016C6.88281 18.2891 7.15104 18.3828 7.5 18.3828H16.1016C16.4453 18.3828 16.7109 18.2891 16.8984 18.1016C17.0911 17.9141 17.1875 17.6458 17.1875 17.2969V8.89062H18.4453V17.2344C18.4453 18 18.2448 18.5781 17.8438 18.9688C17.4427 19.3646 16.8568 19.5625 16.0859 19.5625H7.51562ZM9.22656 12.625C9.0599 12.625 8.92448 12.5729 8.82031 12.4688C8.72135 12.3646 8.67188 12.2266 8.67188 12.0547V11.8047C8.67188 11.6328 8.72135 11.4974 8.82031 11.3984C8.92448 11.2943 9.0599 11.2422 9.22656 11.2422H14.3828C14.5495 11.2422 14.6849 11.2943 14.7891 11.3984C14.8932 11.4974 14.9453 11.6328 14.9453 11.8047V12.0547C14.9453 12.2266 14.8932 12.3646 14.7891 12.4688C14.6849 12.5729 14.5495 12.625 14.3828 12.625H9.22656ZM5.47656 9.47656C4.9974 9.47656 4.63021 9.33594 4.375 9.05469C4.11979 8.77344 3.99219 8.39583 3.99219 7.92188V6.73438C3.99219 6.25521 4.125 5.8776 4.39062 5.60156C4.65625 5.32031 5.01823 5.17969 5.47656 5.17969H18.125C18.6042 5.17969 18.9714 5.32031 19.2266 5.60156C19.4818 5.8776 19.6094 6.25521 19.6094 6.73438V7.92188C19.6094 8.39583 19.4818 8.77344 19.2266 9.05469C18.9714 9.33594 18.6042 9.47656 18.125 9.47656H5.47656ZM5.79688 8.29688H17.8125C18.0104 8.29688 18.1484 8.2526 18.2266 8.16406C18.3099 8.07552 18.3516 7.9349 18.3516 7.74219V6.91406C18.3516 6.71615 18.3099 6.57552 18.2266 6.49219C18.1484 6.40365 18.0104 6.35938 17.8125 6.35938H5.79688C5.59896 6.35938 5.45833 6.40365 5.375 6.49219C5.29167 6.57552 5.25 6.71615 5.25 6.91406V7.74219C5.25 7.9349 5.29167 8.07552 5.375 8.16406C5.45833 8.2526 5.59896 8.29688 5.79688 8.29688Z"
          fill="currentColor"/>
</svg>
