<svg width="24" height="24" viewBox="0 0 24 24" fill="none" xmlns="http://www.w3.org/2000/svg">
    <path d="M7.51562 19.5625C6.74479 19.5625 6.15885 19.3672 5.75781 18.9766C5.35677 18.5859 5.15625 18.0052 5.15625 17.2344V9.75781H18.4453V17.2344C18.4453 18 18.2448 18.5781 17.8438 18.9688C17.4427 19.3646 16.8568 19.5625 16.0859 19.5625H7.51562ZM9.22656 12.5781H14.3828C14.5495 12.5781 14.6849 12.526 14.7891 12.4219C14.8932 12.3177 14.9453 12.1797 14.9453 12.0078V11.7656C14.9453 11.5938 14.8932 11.4583 14.7891 11.3594C14.6849 11.2552 14.5495 11.2031 14.3828 11.2031H9.22656C9.0599 11.2031 8.92448 11.2552 8.82031 11.3594C8.72135 11.4583 8.67188 11.5938 8.67188 11.7656V12.0078C8.67188 12.1797 8.72135 12.3177 8.82031 12.4219C8.92448 12.526 9.0599 12.5781 9.22656 12.5781ZM5.32031 8.6875C4.8776 8.6875 4.54427 8.5651 4.32031 8.32031C4.10156 8.07031 3.99219 7.72656 3.99219 7.28906V6.57812C3.99219 6.14062 4.10938 5.79948 4.34375 5.55469C4.57812 5.30469 4.90365 5.17969 5.32031 5.17969H18.2812C18.724 5.17969 19.0547 5.30469 19.2734 5.55469C19.4974 5.79948 19.6094 6.14062 19.6094 6.57812V7.28906C19.6094 7.72656 19.4974 8.07031 19.2734 8.32031C19.0547 8.5651 18.724 8.6875 18.2812 8.6875H5.32031Z"
          fill="currentColor"/>
</svg>
