<svg width="24" height="24" viewBox="0 0 24 24" fill="none" xmlns="http://www.w3.org/2000/svg">
    <path d="M10.7734 18.5234C10.5807 18.5234 10.401 18.4818 10.2344 18.3984C10.0677 18.3203 9.89062 18.1927 9.70312 18.0156L3.53906 12.1953C3.38802 12.0547 3.28385 11.9115 3.22656 11.7656C3.16927 11.6198 3.14062 11.4844 3.14062 11.3594C3.14062 11.2292 3.16927 11.0911 3.22656 10.9453C3.28385 10.7995 3.38802 10.6562 3.53906 10.5156L9.70312 4.75C9.91146 4.55208 10.0911 4.41146 10.2422 4.32812C10.3932 4.23958 10.5651 4.19531 10.7578 4.19531C11.0339 4.19531 11.2578 4.28906 11.4297 4.47656C11.6016 4.66406 11.6875 4.88802 11.6875 5.14844V8.10156H11.9141C13.3203 8.10156 14.5312 8.31771 15.5469 8.75C16.5677 9.18229 17.4036 9.80729 18.0547 10.625C18.7109 11.4427 19.1953 12.4297 19.5078 13.5859C19.8255 14.737 19.9844 16.0339 19.9844 17.4766C19.9844 17.8151 19.901 18.0729 19.7344 18.25C19.5729 18.4323 19.388 18.5234 19.1797 18.5234C19.013 18.5234 18.8438 18.4896 18.6719 18.4219C18.5052 18.3542 18.3542 18.1953 18.2188 17.9453C17.7656 17.0911 17.2422 16.4245 16.6484 15.9453C16.0547 15.4609 15.3698 15.1198 14.5938 14.9219C13.8177 14.724 12.9245 14.625 11.9141 14.625H11.6875V17.6094C11.6875 17.875 11.6016 18.0938 11.4297 18.2656C11.2578 18.4375 11.0391 18.5234 10.7734 18.5234Z"
          fill="currentColor"/>
</svg>
