<svg width="24" height="24" viewBox="0 0 24 24" fill="none" xmlns="http://www.w3.org/2000/svg">
    <path d="M5.95312 18.7031C5.16667 18.7031 4.55208 18.487 4.10938 18.0547C3.66667 17.6224 3.44531 17.013 3.44531 16.2266V8.48438C3.44531 7.70312 3.67448 7.09635 4.13281 6.66406C4.59635 6.23177 5.20312 6.01562 5.95312 6.01562H14.4219C15.2083 6.01562 15.8099 6.23177 16.2266 6.66406C16.6432 7.09635 16.8516 7.70312 16.8516 8.48438V16.2266C16.8516 17.013 16.6302 17.6224 16.1875 18.0547C15.7448 18.487 15.1302 18.7031 14.3438 18.7031H5.95312ZM17.9141 14.6641V10.0469L20.7578 7.59375C20.8932 7.47396 21.0339 7.38021 21.1797 7.3125C21.3307 7.24479 21.4766 7.21094 21.6172 7.21094C21.9193 7.21094 22.1615 7.3125 22.3438 7.51562C22.5312 7.71354 22.625 7.97396 22.625 8.29688V16.4219C22.625 16.7448 22.5312 17.0078 22.3438 17.2109C22.1615 17.4089 21.9193 17.5078 21.6172 17.5078C21.4766 17.5078 21.3307 17.474 21.1797 17.4062C21.0339 17.3333 20.8932 17.2396 20.7578 17.125L17.9141 14.6641ZM7.46875 15.6719C7.55729 15.6719 7.63542 15.6589 7.70312 15.6328C7.77083 15.6016 7.83594 15.5573 7.89844 15.5L11.1875 12.1953L12.4297 10.8516L12.2891 13.1484V14.2266C12.2891 14.3828 12.3411 14.5182 12.4453 14.6328C12.5495 14.7474 12.6797 14.8047 12.8359 14.8047C13.0026 14.8047 13.1458 14.75 13.2656 14.6406C13.3854 14.526 13.4453 14.388 13.4453 14.2266V9.75C13.4453 9.53646 13.3906 9.3776 13.2812 9.27344C13.1771 9.16406 13.0182 9.10938 12.8047 9.10938H8.3125C8.15104 9.10938 8.01302 9.16927 7.89844 9.28906C7.78906 9.40365 7.73438 9.54427 7.73438 9.71094C7.73438 9.8724 7.79167 10.0052 7.90625 10.1094C8.02083 10.2083 8.15625 10.2578 8.3125 10.2578H9.40625L11.7188 10.125L10.3516 11.3672L7.0625 14.6641C6.99479 14.7318 6.94531 14.8021 6.91406 14.875C6.88281 14.9479 6.86719 15.026 6.86719 15.1094C6.86719 15.2708 6.92448 15.4062 7.03906 15.5156C7.15365 15.6198 7.29688 15.6719 7.46875 15.6719Z"
          fill="currentColor"/>
</svg>
