<svg width="24" height="24" viewBox="0 0 24 24" fill="none" xmlns="http://www.w3.org/2000/svg">
    <path d="M13.0625 19.5234C12.7969 19.5234 12.5755 19.4375 12.3984 19.2656C12.2266 19.0938 12.1406 18.875 12.1406 18.6094V15.625H11.9141C10.9089 15.625 10.0182 15.724 9.24219 15.9219C8.46615 16.1198 7.78125 16.4609 7.1875 16.9453C6.59375 17.4245 6.07031 18.0911 5.61719 18.9453C5.48177 19.1953 5.32812 19.3542 5.15625 19.4219C4.98958 19.4896 4.82292 19.5234 4.65625 19.5234C4.44792 19.5234 4.26042 19.4323 4.09375 19.25C3.93229 19.0729 3.85156 18.8151 3.85156 18.4766C3.85156 17.0339 4.00781 15.737 4.32031 14.5859C4.63802 13.4297 5.1224 12.4427 5.77344 11.625C6.42969 10.8073 7.26562 10.1823 8.28125 9.75C9.30208 9.31771 10.513 9.10156 11.9141 9.10156H12.1406V6.14844C12.1406 5.88802 12.2266 5.66406 12.3984 5.47656C12.5755 5.28906 12.8021 5.19531 13.0781 5.19531C13.2656 5.19531 13.4349 5.23958 13.5859 5.32812C13.7422 5.41146 13.9245 5.55208 14.1328 5.75L20.2969 11.5156C20.4479 11.6562 20.5521 11.7995 20.6094 11.9453C20.6667 12.0911 20.6953 12.2292 20.6953 12.3594C20.6953 12.4844 20.6667 12.6198 20.6094 12.7656C20.5521 12.9115 20.4479 13.0547 20.2969 13.1953L14.1328 19.0156C13.9453 19.1927 13.7656 19.3203 13.5938 19.3984C13.4271 19.4818 13.25 19.5234 13.0625 19.5234ZM13.5078 17.8438C13.5547 17.8438 13.599 17.8203 13.6406 17.7734L19.2109 12.5078C19.2422 12.4766 19.263 12.4505 19.2734 12.4297C19.2839 12.4036 19.2891 12.3802 19.2891 12.3594C19.2891 12.3125 19.263 12.263 19.2109 12.2109L13.6484 6.875C13.6276 6.85938 13.6042 6.84635 13.5781 6.83594C13.5573 6.82031 13.5365 6.8125 13.5156 6.8125C13.4375 6.8125 13.3984 6.84896 13.3984 6.92188V10.0234C13.3984 10.1953 13.3125 10.2812 13.1406 10.2812H12.0938C11.0208 10.2812 10.0911 10.4193 9.30469 10.6953C8.51823 10.9661 7.85417 11.3438 7.3125 11.8281C6.77083 12.3073 6.33073 12.862 5.99219 13.4922C5.65885 14.1224 5.41146 14.7969 5.25 15.5156C5.08854 16.2292 4.99219 16.9531 4.96094 17.6875C4.96094 17.7448 4.97917 17.7734 5.01562 17.7734C5.03646 17.7734 5.05208 17.7682 5.0625 17.7578C5.07292 17.7422 5.08333 17.7214 5.09375 17.6953C5.55208 16.7161 6.36979 15.9297 7.54688 15.3359C8.72396 14.7422 10.2396 14.4453 12.0938 14.4453H13.1406C13.3125 14.4453 13.3984 14.5312 13.3984 14.7031V17.7266C13.3984 17.8047 13.4349 17.8438 13.5078 17.8438Z"
          fill="currentColor"/>
</svg>
