<svg width="24" height="24" viewBox="0 0 24 24" fill="none" xmlns="http://www.w3.org/2000/svg">
    <path d="M12.5 20.3281C11.401 20.3281 10.3698 20.1198 9.40625 19.7031C8.44271 19.2917 7.59635 18.7214 6.86719 17.9922C6.13802 17.263 5.5651 16.4167 5.14844 15.4531C4.73698 14.4896 4.53125 13.4583 4.53125 12.3594C4.53125 11.2604 4.73698 10.2292 5.14844 9.26562C5.5651 8.30208 6.13802 7.45573 6.86719 6.72656C7.59635 5.99219 8.44271 5.41927 9.40625 5.00781C10.3698 4.59635 11.401 4.39062 12.5 4.39062C13.599 4.39062 14.6302 4.59635 15.5938 5.00781C16.5573 5.41927 17.4036 5.99219 18.1328 6.72656C18.862 7.45573 19.4323 8.30208 19.8438 9.26562C20.2604 10.2292 20.4688 11.2604 20.4688 12.3594C20.4688 13.4583 20.2604 14.4896 19.8438 15.4531C19.4323 16.4167 18.862 17.263 18.1328 17.9922C17.4036 18.7214 16.5573 19.2917 15.5938 19.7031C14.6302 20.1198 13.599 20.3281 12.5 20.3281ZM12.5 19C13.4167 19 14.276 18.8281 15.0781 18.4844C15.8802 18.1406 16.5859 17.6641 17.1953 17.0547C17.8047 16.4453 18.2812 15.7396 18.625 14.9375C18.9688 14.1354 19.1406 13.276 19.1406 12.3594C19.1406 11.4427 18.9688 10.5833 18.625 9.78125C18.2812 8.97396 17.8047 8.26823 17.1953 7.66406C16.5859 7.05469 15.8802 6.57812 15.0781 6.23438C14.276 5.89062 13.4167 5.71875 12.5 5.71875C11.5833 5.71875 10.724 5.89062 9.92188 6.23438C9.11979 6.57812 8.41406 7.05469 7.80469 7.66406C7.19531 8.26823 6.71875 8.97396 6.375 9.78125C6.03125 10.5833 5.85938 11.4427 5.85938 12.3594C5.85938 13.276 6.03125 14.1354 6.375 14.9375C6.71875 15.7396 7.19531 16.4453 7.80469 17.0547C8.41406 17.6641 9.11979 18.1406 9.92188 18.4844C10.724 18.8281 11.5833 19 12.5 19ZM7.28906 13.0547C7.11198 13.0547 7.0026 12.987 6.96094 12.8516C6.92448 12.7109 6.95312 12.5703 7.04688 12.4297L8.29688 10.6719C8.41146 10.5156 8.54688 10.4401 8.70312 10.4453C8.85938 10.4505 8.98958 10.526 9.09375 10.6719L10.3594 12.4297C10.4583 12.5703 10.487 12.7109 10.4453 12.8516C10.4036 12.987 10.2943 13.0547 10.1172 13.0547H7.28906ZM12.4844 16.7344C11.8802 16.7344 11.3125 16.6224 10.7812 16.3984C10.2552 16.1693 9.79167 15.8542 9.39062 15.4531C8.98958 15.0521 8.67448 14.5885 8.44531 14.0625C8.22135 13.5312 8.10938 12.9635 8.10938 12.3594H9.33594C9.33594 12.9375 9.47656 13.4661 9.75781 13.9453C10.0443 14.4193 10.4245 14.7995 10.8984 15.0859C11.3776 15.3672 11.9062 15.5078 12.4844 15.5078C12.8594 15.5078 13.2083 15.4479 13.5312 15.3281C13.8594 15.2031 14.1536 15.0391 14.4141 14.8359C14.612 14.6953 14.7943 14.638 14.9609 14.6641C15.1276 14.6901 15.2552 14.7604 15.3438 14.875C15.4427 14.9948 15.4818 15.1458 15.4609 15.3281C15.4401 15.5104 15.3333 15.6745 15.1406 15.8203C14.8021 16.0964 14.4036 16.3177 13.9453 16.4844C13.487 16.651 13 16.7344 12.4844 16.7344ZM17.6797 11.6562C17.8568 11.6562 17.9661 11.7266 18.0078 11.8672C18.0495 12.0078 18.0208 12.1458 17.9219 12.2812L16.6719 14.0469C16.5573 14.2031 16.4219 14.2786 16.2656 14.2734C16.1146 14.2682 15.987 14.1927 15.8828 14.0469L14.6094 12.2812C14.5104 12.1458 14.4818 12.0078 14.5234 11.8672C14.5651 11.7266 14.6771 11.6562 14.8594 11.6562H17.6797ZM12.4844 7.98438C13.0885 7.98438 13.6536 8.09896 14.1797 8.32812C14.7109 8.55208 15.1771 8.86458 15.5781 9.26562C15.9792 9.66667 16.2917 10.1328 16.5156 10.6641C16.7448 11.1901 16.8594 11.7552 16.8594 12.3594H15.6328C15.6328 11.7812 15.4896 11.2552 15.2031 10.7812C14.9219 10.3021 14.5417 9.92188 14.0625 9.64062C13.5885 9.35417 13.0625 9.21094 12.4844 9.21094C12.1094 9.21094 11.7604 9.27344 11.4375 9.39844C11.1146 9.51823 10.8203 9.67969 10.5547 9.88281C10.3568 10.0234 10.1745 10.0807 10.0078 10.0547C9.84115 10.0286 9.71354 9.95833 9.625 9.84375C9.53125 9.71875 9.49219 9.56771 9.50781 9.39062C9.52865 9.20833 9.63802 9.04167 9.83594 8.89062C10.1693 8.61979 10.5651 8.40104 11.0234 8.23438C11.4818 8.06771 11.9688 7.98438 12.4844 7.98438Z"
          fill="currentColor"/>
</svg>
