<svg width="24" height="24" viewBox="0 0 24 24" fill="none" xmlns="http://www.w3.org/2000/svg">
    <path d="M12.5 20C11.4657 20 10.4951 19.8039 9.58824 19.4118C8.68137 19.0245 7.8848 18.4877 7.19853 17.8015C6.51225 17.1103 5.97304 16.3137 5.58088 15.4118C5.19363 14.5049 5 13.5343 5 12.5C5 11.4657 5.19363 10.4951 5.58088 9.58824C5.97304 8.68137 6.51225 7.8848 7.19853 7.19853C7.8848 6.51225 8.68137 5.97549 9.58824 5.58824C10.4951 5.19608 11.4657 5 12.5 5C13.5343 5 14.5049 5.19608 15.4118 5.58824C16.3186 5.97549 17.1152 6.51225 17.8015 7.19853C18.4877 7.8848 19.0245 8.68137 19.4118 9.58824C19.8039 10.4951 20 11.4657 20 12.5C20 13.5343 19.8039 14.5049 19.4118 15.4118C19.0245 16.3137 18.4877 17.1103 17.8015 17.8015C17.1152 18.4877 16.3186 19.0245 15.4118 19.4118C14.5049 19.8039 13.5343 20 12.5 20ZM12.5368 16.7353C13.0123 16.7353 13.473 16.6593 13.9191 16.5074C14.3701 16.3505 14.7598 16.1373 15.0882 15.8676C15.2696 15.7206 15.3799 15.5564 15.4191 15.375C15.4583 15.1936 15.4093 15.0343 15.2721 14.8971C15.1397 14.7549 14.9926 14.6887 14.8309 14.6985C14.6691 14.7083 14.5123 14.7696 14.3603 14.8824C14.0907 15.0931 13.8113 15.2549 13.5221 15.3676C13.2328 15.4804 12.9044 15.5368 12.5368 15.5368C12.0368 15.5368 11.5711 15.4338 11.1397 15.2279C10.7132 15.0221 10.3505 14.7426 10.0515 14.3897C9.75735 14.0319 9.55392 13.6275 9.44118 13.1765H10.2426C10.4191 13.1765 10.527 13.1103 10.5662 12.9779C10.6054 12.8407 10.576 12.7034 10.4779 12.5662L9.25 10.8603C9.14706 10.7181 9.01961 10.6446 8.86765 10.6397C8.71569 10.6348 8.58578 10.7083 8.47794 10.8603L7.25735 12.5662C7.16422 12.7034 7.1348 12.8407 7.16912 12.9779C7.20833 13.1103 7.31618 13.1765 7.49265 13.1765H8.29412C8.41667 13.8824 8.67647 14.5025 9.07353 15.0368C9.47059 15.5711 9.96569 15.9877 10.5588 16.2868C11.1569 16.5858 11.8162 16.7353 12.5368 16.7353ZM12.5221 8.23529C12.0515 8.23529 11.5907 8.31373 11.1397 8.47059C10.6887 8.62255 10.299 8.83578 9.97059 9.11029C9.78922 9.25245 9.67892 9.41422 9.63971 9.59559C9.60539 9.77696 9.65441 9.93627 9.78677 10.0735C9.91912 10.2157 10.0662 10.2819 10.2279 10.2721C10.3946 10.2623 10.5515 10.201 10.6985 10.0882C10.973 9.87745 11.2525 9.71814 11.5368 9.61029C11.826 9.49755 12.1544 9.44118 12.5221 9.44118C13.027 9.44118 13.4926 9.54412 13.9191 9.75C14.3456 9.95588 14.7059 10.2377 15 10.5956C15.299 10.9485 15.5049 11.348 15.6176 11.7941H14.7794C14.598 11.7941 14.4877 11.8627 14.4485 12C14.4093 12.1373 14.4387 12.2721 14.5368 12.4044L15.7721 14.1176C15.8701 14.2549 15.9951 14.326 16.1471 14.3309C16.3039 14.3358 16.4363 14.2647 16.5441 14.1176L17.7574 12.4044C17.8554 12.2672 17.8848 12.1324 17.8456 12C17.8113 11.8627 17.7034 11.7941 17.5221 11.7941H16.7647C16.6422 11.0931 16.3824 10.4755 15.9853 9.94118C15.5882 9.40686 15.0907 8.9902 14.4926 8.69118C13.8995 8.38725 13.2426 8.23529 12.5221 8.23529Z"
          fill="currentColor"/>
</svg>
