<svg width="24" height="24" viewBox="0 0 24 24" fill="none" xmlns="http://www.w3.org/2000/svg">
<path d="M12.8047 18.5234C12.612 18.5234 12.4323 18.4818 12.2656 18.3984C12.099 18.3203 11.9219 18.1927 11.7344 18.0156L5.57031 12.1953C5.41927 12.0547 5.3151 11.9115 5.25781 11.7656C5.20052 11.6198 5.17188 11.4844 5.17188 11.3594C5.17188 11.2292 5.20052 11.0911 5.25781 10.9453C5.3151 10.7995 5.41927 10.6562 5.57031 10.5156L11.7344 4.75C11.9427 4.55208 12.1224 4.41146 12.2734 4.32812C12.4245 4.23958 12.5964 4.19531 12.7891 4.19531C13.0651 4.19531 13.2891 4.28906 13.4609 4.47656C13.6328 4.66406 13.7188 4.88802 13.7188 5.14844V8.10156H13.9453C15.3516 8.10156 16.5625 8.31771 17.5781 8.75C18.599 9.18229 19.4349 9.80729 20.0859 10.625C20.7422 11.4427 21.2266 12.4297 21.5391 13.5859C21.8568 14.737 22.0156 16.0339 22.0156 17.4766C22.0156 17.8151 21.9323 18.0729 21.7656 18.25C21.6042 18.4323 21.4193 18.5234 21.2109 18.5234C21.0443 18.5234 20.875 18.4896 20.7031 18.4219C20.5365 18.3542 20.3854 18.1953 20.25 17.9453C19.7969 17.0911 19.2734 16.4245 18.6797 15.9453C18.0859 15.4609 17.401 15.1198 16.625 14.9219C15.849 14.724 14.9557 14.625 13.9453 14.625H13.7188V17.6094C13.7188 17.875 13.6328 18.0938 13.4609 18.2656C13.2891 18.4375 13.0703 18.5234 12.8047 18.5234ZM12.3594 16.8438C12.4271 16.8438 12.4609 16.8047 12.4609 16.7266V13.7031C12.4609 13.5312 12.5495 13.4453 12.7266 13.4453H13.7734C15.0078 13.4453 16.0938 13.5807 17.0312 13.8516C17.9688 14.1172 18.75 14.4948 19.375 14.9844C20 15.474 20.4661 16.0443 20.7734 16.6953C20.7839 16.7214 20.7943 16.7422 20.8047 16.7578C20.8151 16.7682 20.8281 16.7734 20.8438 16.7734C20.8854 16.7734 20.9062 16.7448 20.9062 16.6875C20.875 15.9531 20.776 15.2292 20.6094 14.5156C20.4479 13.7969 20.2005 13.1224 19.8672 12.4922C19.5339 11.862 19.0964 11.3073 18.5547 10.8281C18.013 10.3438 17.349 9.96615 16.5625 9.69531C15.776 9.41927 14.8464 9.28125 13.7734 9.28125H12.7266C12.5495 9.28125 12.4609 9.19531 12.4609 9.02344V5.92188C12.4609 5.84896 12.4245 5.8125 12.3516 5.8125C12.3255 5.8125 12.3021 5.82031 12.2812 5.83594C12.2604 5.84635 12.2396 5.85938 12.2188 5.875L6.65625 11.2109C6.59896 11.263 6.57031 11.3125 6.57031 11.3594C6.57031 11.3802 6.57552 11.4036 6.58594 11.4297C6.60156 11.4505 6.625 11.4766 6.65625 11.5078L12.2188 16.7734C12.2656 16.8203 12.3125 16.8438 12.3594 16.8438ZM8.91406 18.5234C8.72135 18.5234 8.53906 18.4818 8.36719 18.3984C8.20052 18.3203 8.02604 18.1927 7.84375 18.0156L1.67188 12.1953C1.52604 12.0547 1.42448 11.9115 1.36719 11.7656C1.3099 11.6198 1.28125 11.4844 1.28125 11.3594C1.28125 11.2292 1.30729 11.0911 1.35938 10.9453C1.41667 10.7995 1.52083 10.6562 1.67188 10.5156L7.84375 4.75C8.05208 4.55208 8.23177 4.41146 8.38281 4.32812C8.53385 4.23958 8.70573 4.19531 8.89844 4.19531C9.16927 4.19531 9.39062 4.28906 9.5625 4.47656C9.73958 4.66406 9.82812 4.88802 9.82812 5.14844V7.10938L8.57031 8.10156V5.92188C8.57031 5.84896 8.53385 5.8125 8.46094 5.8125C8.4349 5.8125 8.41146 5.82031 8.39062 5.83594C8.36979 5.84635 8.34896 5.85938 8.32812 5.875L2.76562 11.2109C2.70833 11.263 2.67969 11.3125 2.67969 11.3594C2.67969 11.3802 2.6849 11.4036 2.69531 11.4297C2.71094 11.4505 2.73438 11.4766 2.76562 11.5078L8.32812 16.7734C8.375 16.8203 8.41927 16.8438 8.46094 16.8438C8.53385 16.8438 8.57031 16.8047 8.57031 16.7266V14.6016L9.82812 15.6016V17.6094C9.82812 17.875 9.74219 18.0938 9.57031 18.2656C9.39844 18.4375 9.17969 18.5234 8.91406 18.5234Z" fill="#141414"/>
</svg>
