<svg width="24" height="24" viewBox="0 0 24 24" fill="none" xmlns="http://www.w3.org/2000/svg">
<path d="M13.0625 19.5234C12.7969 19.5234 12.5755 19.4375 12.3984 19.2656C12.2266 19.0938 12.1406 18.875 12.1406 18.6094V15.625H11.9141C10.9089 15.625 10.0182 15.724 9.24219 15.9219C8.46615 16.1198 7.78125 16.4609 7.1875 16.9453C6.59375 17.4245 6.07031 18.0911 5.61719 18.9453C5.48177 19.1953 5.32812 19.3542 5.15625 19.4219C4.98958 19.4896 4.82292 19.5234 4.65625 19.5234C4.44792 19.5234 4.26042 19.4323 4.09375 19.25C3.93229 19.0729 3.85156 18.8151 3.85156 18.4766C3.85156 17.0339 4.00781 15.737 4.32031 14.5859C4.63802 13.4297 5.1224 12.4427 5.77344 11.625C6.42969 10.8073 7.26562 10.1823 8.28125 9.75C9.30208 9.31771 10.513 9.10156 11.9141 9.10156H12.1406V6.14844C12.1406 5.88802 12.2266 5.66406 12.3984 5.47656C12.5755 5.28906 12.8021 5.19531 13.0781 5.19531C13.2656 5.19531 13.4349 5.23958 13.5859 5.32812C13.7422 5.41146 13.9245 5.55208 14.1328 5.75L20.2969 11.5156C20.4479 11.6562 20.5521 11.7995 20.6094 11.9453C20.6667 12.0911 20.6953 12.2292 20.6953 12.3594C20.6953 12.4844 20.6667 12.6198 20.6094 12.7656C20.5521 12.9115 20.4479 13.0547 20.2969 13.1953L14.1328 19.0156C13.9453 19.1927 13.7656 19.3203 13.5938 19.3984C13.4271 19.4818 13.25 19.5234 13.0625 19.5234Z" fill="#141414"/>
</svg>
