<svg width="24" height="24" viewBox="0 0 24 24" fill="none" xmlns="http://www.w3.org/2000/svg">
    <path d="M12.3672 20.3281C11.2786 20.3281 10.2526 20.1198 9.28906 19.7031C8.33073 19.2865 7.48438 18.7109 6.75 17.9766C6.01562 17.2422 5.4401 16.3958 5.02344 15.4375C4.60677 14.474 4.39844 13.4479 4.39844 12.3594C4.39844 11.2708 4.60677 10.2474 5.02344 9.28906C5.4401 8.32552 6.01302 7.47656 6.74219 6.74219C7.47656 6.00781 8.32292 5.43229 9.28125 5.01562C10.2448 4.59896 11.2708 4.39062 12.3594 4.39062C13.4479 4.39062 14.474 4.59896 15.4375 5.01562C16.401 5.43229 17.25 6.00781 17.9844 6.74219C18.7188 7.47656 19.2943 8.32552 19.7109 9.28906C20.1276 10.2474 20.3359 11.2708 20.3359 12.3594C20.3359 13.4479 20.1276 14.474 19.7109 15.4375C19.2943 16.3958 18.7188 17.2422 17.9844 17.9766C17.25 18.7109 16.401 19.2865 15.4375 19.7031C14.4792 20.1198 13.4557 20.3281 12.3672 20.3281ZM12.3672 19C13.2891 19 14.151 18.8281 14.9531 18.4844C15.7552 18.1406 16.4609 17.6667 17.0703 17.0625C17.6797 16.4531 18.1536 15.7474 18.4922 14.9453C18.8359 14.1432 19.0078 13.2812 19.0078 12.3594C19.0078 11.4375 18.8359 10.5755 18.4922 9.77344C18.1484 8.97135 17.6719 8.26562 17.0625 7.65625C16.4583 7.04688 15.7526 6.57292 14.9453 6.23438C14.1432 5.89062 13.2812 5.71875 12.3594 5.71875C11.4375 5.71875 10.5755 5.89062 9.77344 6.23438C8.97135 6.57292 8.26823 7.04688 7.66406 7.65625C7.0599 8.26562 6.58594 8.97135 6.24219 9.77344C5.90365 10.5755 5.73438 11.4375 5.73438 12.3594C5.73438 13.2812 5.90365 14.1432 6.24219 14.9453C6.58594 15.7474 7.0599 16.4531 7.66406 17.0625C8.27344 17.6667 8.97917 18.1406 9.78125 18.4844C10.5833 18.8281 11.4453 19 12.3672 19ZM12.375 8.375C12.5417 8.375 12.6797 8.42969 12.7891 8.53906C12.8984 8.64844 12.9531 8.78906 12.9531 8.96094V12.8672L12.8984 14.5234L13.6875 13.5781L14.6094 12.6406C14.7135 12.526 14.8516 12.4688 15.0234 12.4688C15.1849 12.4688 15.3203 12.5234 15.4297 12.6328C15.5391 12.7422 15.5938 12.875 15.5938 13.0312C15.5938 13.1979 15.5417 13.3333 15.4375 13.4375L12.8281 16.0391C12.6823 16.1849 12.5312 16.2578 12.375 16.2578C12.2188 16.2578 12.0677 16.1849 11.9219 16.0391L9.3125 13.4375C9.20833 13.3385 9.15625 13.2031 9.15625 13.0312C9.15625 12.875 9.20833 12.7422 9.3125 12.6328C9.42188 12.5234 9.55729 12.4688 9.71875 12.4688C9.88021 12.4688 10.0182 12.526 10.1328 12.6406L11.0625 13.5781L11.8438 14.5156L11.7891 12.8672V8.96094C11.7891 8.78906 11.8438 8.64844 11.9531 8.53906C12.0625 8.42969 12.2031 8.375 12.375 8.375Z"
          fill="currentColor"/>
</svg>
