<svg width="24" height="24" viewBox="0 0 24 24" fill="none" xmlns="http://www.w3.org/2000/svg">
    <path d="M12.3672 20.3281C11.2786 20.3281 10.2526 20.1198 9.28906 19.7031C8.33073 19.2865 7.48438 18.7109 6.75 17.9766C6.01562 17.2422 5.4401 16.3958 5.02344 15.4375C4.60677 14.474 4.39844 13.4479 4.39844 12.3594C4.39844 11.2708 4.60677 10.2474 5.02344 9.28906C5.4401 8.32552 6.01302 7.47656 6.74219 6.74219C7.47656 6.00781 8.32292 5.43229 9.28125 5.01562C10.2448 4.59896 11.2708 4.39062 12.3594 4.39062C13.4479 4.39062 14.474 4.59896 15.4375 5.01562C16.401 5.43229 17.25 6.00781 17.9844 6.74219C18.7188 7.47656 19.2943 8.32552 19.7109 9.28906C20.1276 10.2474 20.3359 11.2708 20.3359 12.3594C20.3359 13.4479 20.1276 14.474 19.7109 15.4375C19.2943 16.3958 18.7188 17.2422 17.9844 17.9766C17.25 18.7109 16.401 19.2865 15.4375 19.7031C14.4792 20.1198 13.4557 20.3281 12.3672 20.3281ZM12.3672 19C13.2891 19 14.151 18.8281 14.9531 18.4844C15.7552 18.1406 16.4609 17.6667 17.0703 17.0625C17.6797 16.4531 18.1536 15.7474 18.4922 14.9453C18.8359 14.1432 19.0078 13.2812 19.0078 12.3594C19.0078 11.4375 18.8359 10.5755 18.4922 9.77344C18.1484 8.97135 17.6719 8.26562 17.0625 7.65625C16.4583 7.04688 15.7526 6.57292 14.9453 6.23438C14.1432 5.89062 13.2812 5.71875 12.3594 5.71875C11.4375 5.71875 10.5755 5.89062 9.77344 6.23438C8.97135 6.57292 8.26823 7.04688 7.66406 7.65625C7.0599 8.26562 6.58594 8.97135 6.24219 9.77344C5.90365 10.5755 5.73438 11.4375 5.73438 12.3594C5.73438 13.2812 5.90365 14.1432 6.24219 14.9453C6.58594 15.7474 7.0599 16.4531 7.66406 17.0625C8.27344 17.6667 8.97917 18.1406 9.78125 18.4844C10.5833 18.8281 11.4453 19 12.3672 19ZM12.375 16.2578C12.2031 16.2578 12.0625 16.2031 11.9531 16.0938C11.8438 15.9844 11.7891 15.8438 11.7891 15.6719V11.7656L11.8438 10.1172L11.0625 11.0547L10.1328 11.9922C10.0182 12.1068 9.88021 12.1641 9.71875 12.1641C9.55729 12.1641 9.42188 12.112 9.3125 12.0078C9.20833 11.8984 9.15625 11.763 9.15625 11.6016C9.15625 11.4349 9.20833 11.2995 9.3125 11.1953L11.9219 8.60156C12.0677 8.45052 12.2188 8.375 12.375 8.375C12.5312 8.375 12.6823 8.45052 12.8281 8.60156L15.4375 11.1953C15.5417 11.3047 15.5938 11.4401 15.5938 11.6016C15.5938 11.763 15.5391 11.8984 15.4297 12.0078C15.3203 12.112 15.1849 12.1641 15.0234 12.1641C14.8516 12.1641 14.7135 12.1068 14.6094 11.9922L13.6875 11.0547L12.8984 10.1094L12.9531 11.7656V15.6719C12.9531 15.8438 12.8984 15.9844 12.7891 16.0938C12.6797 16.2031 12.5417 16.2578 12.375 16.2578Z"
          fill="currentColor"/>
</svg>
