<svg width="24" height="24" viewBox="0 0 24 24" fill="none" xmlns="http://www.w3.org/2000/svg">
    <path d="M19.5 12.3594C19.5 12.5573 19.4219 12.7318 19.2656 12.8828L14.0703 18.0625C13.9193 18.2083 13.75 18.2812 13.5625 18.2812C13.3698 18.2812 13.2083 18.2161 13.0781 18.0859C12.9479 17.9609 12.8828 17.8021 12.8828 17.6094C12.8828 17.5156 12.8984 17.4271 12.9297 17.3438C12.9609 17.2552 13.0078 17.1797 13.0703 17.1172L14.8203 15.3359L17.9219 12.5156L18.0781 12.8984L15.5625 13.0547H5.67969C5.47656 13.0547 5.3099 12.9896 5.17969 12.8594C5.05469 12.7292 4.99219 12.5625 4.99219 12.3594C4.99219 12.1562 5.05469 11.9896 5.17969 11.8594C5.3099 11.7292 5.47656 11.6641 5.67969 11.6641H15.5625L18.0781 11.8203L17.9219 12.2109L14.8203 9.38281L13.0703 7.60156C13.0078 7.53906 12.9609 7.46615 12.9297 7.38281C12.8984 7.29427 12.8828 7.20312 12.8828 7.10938C12.8828 6.91667 12.9479 6.75781 13.0781 6.63281C13.2083 6.5026 13.3698 6.4375 13.5625 6.4375C13.6562 6.4375 13.7448 6.45573 13.8281 6.49219C13.9167 6.52865 14.0026 6.58854 14.0859 6.67188L19.2656 11.8359C19.4219 11.987 19.5 12.1615 19.5 12.3594Z"
          fill="currentColor"/>
</svg>
