<svg width="24" height="24" viewBox="0 0 24 24" fill="none" xmlns="http://www.w3.org/2000/svg">
    <path d="M12.3672 20.3281C11.2786 20.3281 10.2526 20.1198 9.28906 19.7031C8.33073 19.2865 7.48438 18.7109 6.75 17.9766C6.01562 17.2422 5.4401 16.3958 5.02344 15.4375C4.60677 14.474 4.39844 13.4479 4.39844 12.3594C4.39844 11.2708 4.60677 10.2474 5.02344 9.28906C5.4401 8.32552 6.01302 7.47656 6.74219 6.74219C7.47656 6.00781 8.32292 5.43229 9.28125 5.01562C10.2448 4.59896 11.2708 4.39062 12.3594 4.39062C13.4479 4.39062 14.474 4.59896 15.4375 5.01562C16.401 5.43229 17.25 6.00781 17.9844 6.74219C18.7188 7.47656 19.2943 8.32552 19.7109 9.28906C20.1276 10.2474 20.3359 11.2708 20.3359 12.3594C20.3359 13.4479 20.1276 14.474 19.7109 15.4375C19.2943 16.3958 18.7188 17.2422 17.9844 17.9766C17.25 18.7109 16.401 19.2865 15.4375 19.7031C14.4792 20.1198 13.4557 20.3281 12.3672 20.3281ZM12.3672 19C13.2891 19 14.151 18.8281 14.9531 18.4844C15.7552 18.1406 16.4609 17.6667 17.0703 17.0625C17.6797 16.4531 18.1536 15.7474 18.4922 14.9453C18.8359 14.1432 19.0078 13.2812 19.0078 12.3594C19.0078 11.4375 18.8359 10.5755 18.4922 9.77344C18.1484 8.97135 17.6719 8.26562 17.0625 7.65625C16.4583 7.04688 15.7526 6.57292 14.9453 6.23438C14.1432 5.89062 13.2812 5.71875 12.3594 5.71875C11.4375 5.71875 10.5755 5.89062 9.77344 6.23438C8.97135 6.57292 8.26823 7.04688 7.66406 7.65625C7.0599 8.26562 6.58594 8.97135 6.24219 9.77344C5.90365 10.5755 5.73438 11.4375 5.73438 12.3594C5.73438 13.2812 5.90365 14.1432 6.24219 14.9453C6.58594 15.7474 7.0599 16.4531 7.66406 17.0625C8.27344 17.6667 8.97917 18.1406 9.78125 18.4844C10.5833 18.8281 11.4453 19 12.3672 19ZM12.3984 16.7109C11.6536 16.7109 10.974 16.5573 10.3594 16.25C9.74479 15.9375 9.23438 15.5078 8.82812 14.9609C8.42188 14.4089 8.15625 13.7708 8.03125 13.0469H7.20312C7.02083 13.0469 6.90885 12.9792 6.86719 12.8438C6.83073 12.7031 6.86198 12.5625 6.96094 12.4219L8.21094 10.6641C8.32031 10.5078 8.45312 10.4323 8.60938 10.4375C8.76562 10.4427 8.89583 10.5182 9 10.6641L10.2734 12.4219C10.3724 12.5625 10.401 12.7031 10.3594 12.8438C10.3177 12.9792 10.2057 13.0469 10.0234 13.0469H9.20312C9.31771 13.5104 9.52865 13.9271 9.83594 14.2969C10.1432 14.6615 10.5156 14.9505 10.9531 15.1641C11.3958 15.3776 11.8776 15.4844 12.3984 15.4844C12.7734 15.4844 13.1094 15.4271 13.4062 15.3125C13.7083 15.1927 14 15.0234 14.2812 14.8047C14.4323 14.6901 14.5911 14.6276 14.7578 14.6172C14.9297 14.6068 15.0833 14.6745 15.2188 14.8203C15.3542 14.9661 15.401 15.1302 15.3594 15.3125C15.3229 15.4948 15.2109 15.6615 15.0234 15.8125C14.6849 16.0938 14.2839 16.3151 13.8203 16.4766C13.3568 16.6328 12.8828 16.7109 12.3984 16.7109ZM12.3828 7.96094C13.1224 7.96094 13.7995 8.11719 14.4141 8.42969C15.0286 8.73698 15.5391 9.16667 15.9453 9.71875C16.3516 10.2656 16.6198 10.901 16.75 11.625H17.5312C17.7135 11.625 17.8229 11.6953 17.8594 11.8359C17.901 11.9714 17.8698 12.1094 17.7656 12.25L16.5156 14.0156C16.4062 14.1719 16.2734 14.2474 16.1172 14.2422C15.9609 14.2318 15.8307 14.1562 15.7266 14.0156L14.4609 12.25C14.362 12.1094 14.3307 11.9714 14.3672 11.8359C14.4089 11.6953 14.5208 11.625 14.7031 11.625H15.5703C15.4557 11.1615 15.2448 10.7474 14.9375 10.3828C14.6302 10.013 14.2552 9.72396 13.8125 9.51562C13.375 9.30208 12.8984 9.19531 12.3828 9.19531C12.0026 9.19531 11.6641 9.2526 11.3672 9.36719C11.0703 9.48177 10.7812 9.64844 10.5 9.86719C10.3438 9.98177 10.1823 10.0469 10.0156 10.0625C9.84896 10.0729 9.69531 10.0026 9.55469 9.85156C9.42448 9.71094 9.3776 9.54948 9.41406 9.36719C9.45052 9.17969 9.5625 9.01302 9.75 8.86719C10.0885 8.58594 10.4896 8.36458 10.9531 8.20312C11.4167 8.04167 11.8932 7.96094 12.3828 7.96094Z"
          fill="currentColor"/>
</svg>
