<svg width="24" height="24" viewBox="0 0 24 24" fill="none" xmlns="http://www.w3.org/2000/svg">
    <path d="M2.55463 11.3828L4.30463 8.89844C4.43484 8.71615 4.58328 8.6276 4.74994 8.63281C4.91661 8.63281 5.06244 8.72135 5.18744 8.89844L6.93744 11.3906C7.08848 11.6042 7.12755 11.7917 7.05463 11.9531C6.98692 12.1146 6.81505 12.1953 6.539 12.1953H5.37494C5.4739 13.0182 5.71088 13.7812 6.08588 14.4844C6.46609 15.1875 6.95046 15.8047 7.539 16.3359C8.12755 16.862 8.79682 17.2708 9.54682 17.5625C10.302 17.8542 11.1041 18 11.9531 18C12.9635 18 13.901 17.7943 14.7656 17.3828C15.6354 16.9766 16.3723 16.4245 16.9765 15.7266C17.1015 15.5807 17.2499 15.4922 17.4218 15.4609C17.5937 15.4297 17.7551 15.4688 17.9062 15.5781C18.0572 15.6875 18.1406 15.8359 18.1562 16.0234C18.1718 16.2109 18.1067 16.388 17.9609 16.5547C17.2265 17.3984 16.3385 18.0703 15.2968 18.5703C14.2604 19.0755 13.1458 19.3281 11.9531 19.3281C10.9322 19.3281 9.96869 19.1458 9.06244 18.7812C8.15619 18.4167 7.34369 17.9089 6.62494 17.2578C5.90619 16.6068 5.32025 15.849 4.86713 14.9844C4.41921 14.1198 4.14057 13.1901 4.03119 12.1953H2.95307C2.67182 12.1953 2.49734 12.1146 2.42963 11.9531C2.36192 11.7865 2.40359 11.5964 2.55463 11.3828ZM5.95307 6.16406C6.68744 5.32031 7.57286 4.64844 8.60932 4.14844C9.65098 3.64323 10.7656 3.39062 11.9531 3.39062C12.9687 3.39062 13.9296 3.57552 14.8359 3.94531C15.7473 4.3099 16.5624 4.81771 17.2812 5.46875C17.9999 6.11979 18.5833 6.8776 19.0312 7.74219C19.4843 8.60677 19.7656 9.53646 19.8749 10.5312H20.9453C21.2265 10.5312 21.401 10.612 21.4687 10.7734C21.5416 10.9349 21.4999 11.125 21.3437 11.3438L19.6015 13.8281C19.4713 14.0104 19.3229 14.1016 19.1562 14.1016C18.9895 14.0964 18.8437 14.0052 18.7187 13.8281L16.9687 11.3359C16.8176 11.1224 16.776 10.9349 16.8437 10.7734C16.9166 10.612 17.0911 10.5312 17.3671 10.5312H18.5312C18.427 9.70833 18.1874 8.94531 17.8124 8.24219C17.4374 7.53906 16.9557 6.92448 16.3671 6.39844C15.7786 5.86719 15.1067 5.45573 14.3515 5.16406C13.6015 4.86719 12.802 4.71875 11.9531 4.71875C10.9531 4.71875 10.0182 4.92448 9.14838 5.33594C8.2838 5.74219 7.54682 6.29427 6.93744 6.99219C6.81244 7.13802 6.664 7.22656 6.49213 7.25781C6.32025 7.28385 6.1588 7.24219 6.00775 7.13281C5.8515 7.02344 5.76557 6.8776 5.74994 6.69531C5.73432 6.50781 5.80203 6.33073 5.95307 6.16406Z"
          fill="currentColor"/>
</svg>
