<svg width="24" height="24" viewBox="0 0 24 24" fill="none" xmlns="http://www.w3.org/2000/svg">
    <path d="M5.41406 18.7812C4.46094 18.7812 3.71354 18.5182 3.17188 17.9922C2.63542 17.4609 2.36719 16.7188 2.36719 15.7656V8.94531C2.36719 7.9974 2.64583 7.26042 3.20312 6.73438C3.76562 6.20312 4.5026 5.9375 5.41406 5.9375H13.5781C14.5312 5.9375 15.276 6.20312 15.8125 6.73438C16.3542 7.26042 16.625 7.9974 16.625 8.94531V15.7656C16.625 16.7188 16.3542 17.4609 15.8125 17.9922C15.276 18.5182 14.5312 18.7812 13.5781 18.7812H5.41406ZM5.63281 17.6016H13.3594C14 17.6016 14.4948 17.4349 14.8438 17.1016C15.1927 16.7682 15.3672 16.263 15.3672 15.5859V9.13281C15.3672 8.45573 15.1927 7.95052 14.8438 7.61719C14.4948 7.27865 14 7.10938 13.3594 7.10938H5.63281C4.99219 7.10938 4.4974 7.27865 4.14844 7.61719C3.79948 7.95052 3.625 8.45573 3.625 9.13281V15.5859C3.625 16.263 3.79948 16.7682 4.14844 17.1016C4.4974 17.4349 4.99219 17.6016 5.63281 17.6016ZM16.4453 10.1719L19.5781 7.52344C19.7344 7.39323 19.8958 7.28906 20.0625 7.21094C20.2292 7.1276 20.3932 7.08594 20.5547 7.08594C20.8984 7.08594 21.1745 7.20052 21.3828 7.42969C21.5911 7.65885 21.6953 7.95573 21.6953 8.32031V16.3984C21.6953 16.763 21.5911 17.0599 21.3828 17.2891C21.1745 17.5182 20.8984 17.6328 20.5547 17.6328C20.3932 17.6328 20.2292 17.5938 20.0625 17.5156C19.8958 17.4323 19.7344 17.3255 19.5781 17.1953L16.4453 14.5391V13.0625L20.1641 16.1328C20.2005 16.1536 20.2318 16.1745 20.2578 16.1953C20.2891 16.2109 20.3203 16.2188 20.3516 16.2188C20.4401 16.2188 20.4844 16.1589 20.4844 16.0391V8.67969C20.4844 8.55469 20.4401 8.49219 20.3516 8.49219C20.3203 8.49219 20.2891 8.5026 20.2578 8.52344C20.2318 8.53906 20.2005 8.5599 20.1641 8.58594L16.4453 11.6562V10.1719ZM12.1016 9.21094C12.2682 9.21094 12.4062 9.26302 12.5156 9.36719C12.6302 9.47135 12.6875 9.59896 12.6875 9.75C12.6875 9.91146 12.6224 10.0573 12.4922 10.1875L9.29688 13.3906L7.97656 14.6016L10.2109 14.4609H11.2812C11.4375 14.4609 11.5703 14.5104 11.6797 14.6094C11.7891 14.7083 11.8438 14.8359 11.8438 14.9922C11.8438 15.1536 11.7891 15.2917 11.6797 15.4062C11.5755 15.5156 11.4427 15.5703 11.2812 15.5703H6.92969C6.72135 15.5703 6.5651 15.5208 6.46094 15.4219C6.36198 15.3177 6.3125 15.1615 6.3125 14.9531V10.6094C6.3125 10.4531 6.36979 10.3229 6.48438 10.2188C6.59896 10.1094 6.73438 10.0547 6.89062 10.0547C7.04688 10.0547 7.17448 10.1094 7.27344 10.2188C7.3724 10.3281 7.42188 10.4583 7.42188 10.6094V11.6641L7.28906 13.8984L8.5 12.5859L11.6953 9.38281C11.7526 9.32552 11.8125 9.28385 11.875 9.25781C11.9427 9.22656 12.0182 9.21094 12.1016 9.21094Z"
          fill="currentColor"/>
</svg>
