<svg width="24" height="24" viewBox="0 0 24 24" fill="none" xmlns="http://www.w3.org/2000/svg">
<path d="M5.88965 17.3672C5.17415 17.3672 4.63639 17.1895 4.27637 16.834C3.9209 16.4831 3.74316 15.9544 3.74316 15.248V8.09082C3.74316 7.389 3.9209 6.86263 4.27637 6.51172C4.63639 6.15625 5.17415 5.97852 5.88965 5.97852H7.79688C8.06576 5.97852 8.264 5.94661 8.3916 5.88281C8.51921 5.81445 8.6582 5.69596 8.80859 5.52734L9.35547 4.91211C9.52865 4.72526 9.71549 4.58171 9.91602 4.48145C10.1211 4.38118 10.3991 4.33105 10.75 4.33105H13.4775C13.8285 4.33105 14.1064 4.38118 14.3115 4.48145C14.5166 4.58171 14.7035 4.72526 14.8721 4.91211L15.4189 5.52734C15.5238 5.64128 15.6172 5.73242 15.6992 5.80078C15.7858 5.86458 15.8838 5.91016 15.9932 5.9375C16.1025 5.96484 16.2484 5.97852 16.4307 5.97852H18.3857C19.0967 5.97852 19.6322 6.15625 19.9922 6.51172C20.3522 6.86263 20.5322 7.389 20.5322 8.09082V15.248C20.5322 15.9544 20.3522 16.4831 19.9922 16.834C19.6322 17.1895 19.0967 17.3672 18.3857 17.3672H5.88965ZM7.39355 11.3379C7.30697 11.4609 7.27962 11.584 7.31152 11.707C7.34798 11.8255 7.44596 11.8848 7.60547 11.8848H8.33008C8.43945 12.5182 8.67188 13.0765 9.02734 13.5596C9.38281 14.0426 9.82943 14.4186 10.3672 14.6875C10.9049 14.9564 11.4997 15.0908 12.1514 15.0908C12.5752 15.0908 12.9899 15.0225 13.3955 14.8857C13.8011 14.7445 14.152 14.5508 14.4482 14.3047C14.6123 14.1771 14.7103 14.0335 14.7422 13.874C14.7786 13.71 14.7376 13.5641 14.6191 13.4365C14.5007 13.3089 14.3662 13.2497 14.2158 13.2588C14.07 13.2633 13.931 13.3158 13.7988 13.416C13.5527 13.612 13.2975 13.7624 13.0332 13.8672C12.7734 13.9674 12.4795 14.0176 12.1514 14.0176C11.6956 14.0176 11.2741 13.9242 10.8867 13.7373C10.5039 13.5505 10.1781 13.2975 9.90918 12.9785C9.6403 12.6549 9.45573 12.2904 9.35547 11.8848H10.0732C10.2327 11.8848 10.3307 11.8255 10.3672 11.707C10.4036 11.584 10.3763 11.4609 10.2852 11.3379L9.17773 9.7998C9.08659 9.6722 8.97266 9.60612 8.83594 9.60156C8.69922 9.59701 8.58301 9.66309 8.4873 9.7998L7.39355 11.3379ZM9.66309 9.08887C9.78613 9.22103 9.92057 9.28255 10.0664 9.27344C10.2122 9.26432 10.3512 9.20964 10.4834 9.10938C10.7295 8.91341 10.9824 8.7653 11.2422 8.66504C11.5065 8.56478 11.805 8.51465 12.1377 8.51465C12.5889 8.51465 13.0059 8.60807 13.3887 8.79492C13.776 8.97721 14.1042 9.23014 14.373 9.55371C14.6419 9.87272 14.8265 10.235 14.9268 10.6406H14.168C14.0085 10.6406 13.9105 10.7021 13.874 10.8252C13.8376 10.9437 13.8649 11.0645 13.9561 11.1875L15.0635 12.7324C15.1546 12.86 15.2686 12.9261 15.4053 12.9307C15.542 12.9352 15.6582 12.8691 15.7539 12.7324L16.8477 11.1875C16.9342 11.0645 16.9616 10.9437 16.9297 10.8252C16.8978 10.7021 16.7998 10.6406 16.6357 10.6406H15.9521C15.8428 10.0072 15.6104 9.45117 15.2549 8.97266C14.8994 8.48958 14.4528 8.11361 13.915 7.84473C13.3773 7.57129 12.7848 7.43457 12.1377 7.43457C11.7093 7.43457 11.2923 7.50521 10.8867 7.64648C10.4811 7.78776 10.1302 7.98145 9.83398 8.22754C9.66992 8.35514 9.56966 8.50098 9.5332 8.66504C9.5013 8.82454 9.5446 8.96582 9.66309 9.08887Z" fill="#141414"/>
</svg>
