<svg width="24" height="24" viewBox="0 0 24 24" fill="none" xmlns="http://www.w3.org/2000/svg">
    <path d="M6.41406 18.7812C5.46094 18.7812 4.71354 18.5182 4.17188 17.9922C3.63542 17.4609 3.36719 16.7188 3.36719 15.7656V8.94531C3.36719 7.9974 3.64583 7.26042 4.20312 6.73438C4.76562 6.20312 5.5026 5.9375 6.41406 5.9375H14.5781C15.5312 5.9375 16.276 6.20312 16.8125 6.73438C17.3542 7.26042 17.625 7.9974 17.625 8.94531V15.7656C17.625 16.7188 17.3542 17.4609 16.8125 17.9922C16.276 18.5182 15.5312 18.7812 14.5781 18.7812H6.41406ZM6.63281 17.6016H14.3594C15 17.6016 15.4948 17.4349 15.8438 17.1016C16.1927 16.7682 16.3672 16.263 16.3672 15.5859V9.13281C16.3672 8.45573 16.1927 7.95052 15.8438 7.61719C15.4948 7.27865 15 7.10938 14.3594 7.10938H6.63281C5.99219 7.10938 5.4974 7.27865 5.14844 7.61719C4.79948 7.95052 4.625 8.45573 4.625 9.13281V15.5859C4.625 16.263 4.79948 16.7682 5.14844 17.1016C5.4974 17.4349 5.99219 17.6016 6.63281 17.6016ZM17.4453 10.1719L20.5781 7.52344C20.7344 7.39323 20.8958 7.28906 21.0625 7.21094C21.2292 7.1276 21.3932 7.08594 21.5547 7.08594C21.8984 7.08594 22.1745 7.20052 22.3828 7.42969C22.5911 7.65885 22.6953 7.95573 22.6953 8.32031V16.3984C22.6953 16.763 22.5911 17.0599 22.3828 17.2891C22.1745 17.5182 21.8984 17.6328 21.5547 17.6328C21.3932 17.6328 21.2292 17.5938 21.0625 17.5156C20.8958 17.4323 20.7344 17.3255 20.5781 17.1953L17.4453 14.5391V13.0625L21.1641 16.1328C21.2005 16.1536 21.2318 16.1745 21.2578 16.1953C21.2891 16.2109 21.3203 16.2188 21.3516 16.2188C21.4401 16.2188 21.4844 16.1589 21.4844 16.0391V8.67969C21.4844 8.55469 21.4401 8.49219 21.3516 8.49219C21.3203 8.49219 21.2891 8.5026 21.2578 8.52344C21.2318 8.53906 21.2005 8.5599 21.1641 8.58594L17.4453 11.6562V10.1719ZM7.89062 15.5703C7.72917 15.5703 7.59115 15.5208 7.47656 15.4219C7.36719 15.3177 7.3125 15.1875 7.3125 15.0312C7.3125 14.8698 7.375 14.7266 7.5 14.6016L10.6953 11.3984L12.0234 10.1875L9.78125 10.3203H8.71094C8.5599 10.3203 8.42969 10.2708 8.32031 10.1719C8.21094 10.0729 8.15625 9.94531 8.15625 9.78906C8.15625 9.63281 8.20833 9.4974 8.3125 9.38281C8.41667 9.26823 8.54948 9.21094 8.71094 9.21094H13.0703C13.2786 9.21094 13.4323 9.26302 13.5312 9.36719C13.6354 9.47135 13.6875 9.625 13.6875 9.82812V14.1719C13.6875 14.3333 13.6302 14.4661 13.5156 14.5703C13.401 14.6745 13.263 14.7266 13.1016 14.7266C12.9505 14.7266 12.8229 14.6719 12.7188 14.5625C12.6198 14.4531 12.5703 14.3229 12.5703 14.1719V13.1172L12.7109 10.8906L11.5 12.1953L8.30469 15.4062C8.2474 15.4635 8.1849 15.5052 8.11719 15.5312C8.04948 15.5573 7.97396 15.5703 7.89062 15.5703Z"
          fill="currentColor"/>
</svg>
