<svg width="24" height="24" viewBox="0 0 24 24" fill="none" xmlns="http://www.w3.org/2000/svg">
<path d="M4.99219 12.3594C4.99219 12.1615 5.07292 11.987 5.23438 11.8359L10.4062 6.67188C10.4896 6.58854 10.5729 6.52865 10.6562 6.49219C10.7448 6.45573 10.8359 6.4375 10.9297 6.4375C11.1224 6.4375 11.2839 6.5026 11.4141 6.63281C11.5495 6.75781 11.6172 6.91667 11.6172 7.10938C11.6172 7.20312 11.599 7.29427 11.5625 7.38281C11.5312 7.46615 11.4844 7.53906 11.4219 7.60156L9.67188 9.38281L6.57812 12.2109L6.41406 11.8203L8.92969 11.6641H18.8125C19.0156 11.6641 19.1797 11.7292 19.3047 11.8594C19.4349 11.9896 19.5 12.1562 19.5 12.3594C19.5 12.5625 19.4349 12.7292 19.3047 12.8594C19.1797 12.9896 19.0156 13.0547 18.8125 13.0547H8.92969L6.41406 12.8984L6.57812 12.5156L9.67188 15.3359L11.4219 17.1172C11.4844 17.1797 11.5312 17.2552 11.5625 17.3438C11.599 17.4271 11.6172 17.5156 11.6172 17.6094C11.6172 17.8021 11.5495 17.9609 11.4141 18.0859C11.2839 18.2161 11.1224 18.2812 10.9297 18.2812C10.7422 18.2812 10.5729 18.2083 10.4219 18.0625L5.23438 12.8828C5.07292 12.7318 4.99219 12.5573 4.99219 12.3594Z" fill="#141414"/>
</svg>
