<svg width="24" height="24" viewBox="0 0 24 24" fill="none" xmlns="http://www.w3.org/2000/svg">
    <path d="M12.3672 20.3281C11.2786 20.3281 10.2526 20.1198 9.28906 19.7031C8.33073 19.2865 7.48438 18.7109 6.75 17.9766C6.01562 17.2422 5.4401 16.3958 5.02344 15.4375C4.60677 14.474 4.39844 13.4479 4.39844 12.3594C4.39844 11.2708 4.60677 10.2474 5.02344 9.28906C5.4401 8.32552 6.01302 7.47656 6.74219 6.74219C7.47656 6.00781 8.32292 5.43229 9.28125 5.01562C10.2448 4.59896 11.2708 4.39062 12.3594 4.39062C13.4479 4.39062 14.474 4.59896 15.4375 5.01562C16.401 5.43229 17.25 6.00781 17.9844 6.74219C18.7188 7.47656 19.2943 8.32552 19.7109 9.28906C20.1276 10.2474 20.3359 11.2708 20.3359 12.3594C20.3359 13.4479 20.1276 14.474 19.7109 15.4375C19.2943 16.3958 18.7188 17.2422 17.9844 17.9766C17.25 18.7109 16.401 19.2865 15.4375 19.7031C14.4792 20.1198 13.4557 20.3281 12.3672 20.3281ZM12.4062 16.8594C12.9115 16.8594 13.401 16.7786 13.875 16.6172C14.3542 16.4505 14.7682 16.224 15.1172 15.9375C15.3099 15.7812 15.4271 15.6068 15.4688 15.4141C15.5104 15.2214 15.4583 15.0521 15.3125 14.9062C15.1719 14.7552 15.0156 14.6849 14.8438 14.6953C14.6719 14.7057 14.5052 14.7708 14.3438 14.8906C14.0573 15.1146 13.7604 15.2865 13.4531 15.4062C13.1458 15.526 12.7969 15.5859 12.4062 15.5859C11.875 15.5859 11.3802 15.4766 10.9219 15.2578C10.4688 15.0391 10.0833 14.7422 9.76562 14.3672C9.45312 13.987 9.23698 13.5573 9.11719 13.0781H9.96875C10.1562 13.0781 10.2708 13.0078 10.3125 12.8672C10.3542 12.7214 10.3229 12.5755 10.2188 12.4297L8.91406 10.6172C8.80469 10.4661 8.66927 10.388 8.50781 10.3828C8.34635 10.3776 8.20833 10.4557 8.09375 10.6172L6.79688 12.4297C6.69792 12.5755 6.66667 12.7214 6.70312 12.8672C6.74479 13.0078 6.85938 13.0781 7.04688 13.0781H7.89844C8.02865 13.8281 8.30469 14.487 8.72656 15.0547C9.14844 15.6224 9.67448 16.0651 10.3047 16.3828C10.9401 16.7005 11.6406 16.8594 12.4062 16.8594ZM12.3906 7.82812C11.8906 7.82812 11.401 7.91146 10.9219 8.07812C10.4427 8.23958 10.0286 8.46615 9.67969 8.75781C9.48698 8.90885 9.36979 9.08073 9.32812 9.27344C9.29167 9.46615 9.34375 9.63542 9.48438 9.78125C9.625 9.93229 9.78125 10.0026 9.95312 9.99219C10.1302 9.98177 10.2969 9.91667 10.4531 9.79688C10.7448 9.57292 11.0417 9.40365 11.3438 9.28906C11.651 9.16927 12 9.10938 12.3906 9.10938C12.9271 9.10938 13.4219 9.21875 13.875 9.4375C14.3281 9.65625 14.7109 9.95573 15.0234 10.3359C15.3411 10.7109 15.5599 11.1354 15.6797 11.6094H14.7891C14.5964 11.6094 14.4792 11.6823 14.4375 11.8281C14.3958 11.974 14.4271 12.1172 14.5312 12.2578L15.8438 14.0781C15.9479 14.224 16.0807 14.2995 16.2422 14.3047C16.4089 14.3099 16.5495 14.2344 16.6641 14.0781L17.9531 12.2578C18.0573 12.112 18.0885 11.9688 18.0469 11.8281C18.0104 11.6823 17.8958 11.6094 17.7031 11.6094H16.8984C16.7682 10.8646 16.4922 10.2083 16.0703 9.64062C15.6484 9.07292 15.1198 8.63021 14.4844 8.3125C13.8542 7.98958 13.1562 7.82812 12.3906 7.82812Z"
          fill="currentColor"/>
</svg>
