<svg width="24" height="24" viewBox="0 0 24 24" fill="none" xmlns="http://www.w3.org/2000/svg">
    <path d="M12.3672 20.3281C11.2786 20.3281 10.2526 20.1198 9.28906 19.7031C8.33073 19.2865 7.48438 18.7109 6.75 17.9766C6.01562 17.2422 5.4401 16.3958 5.02344 15.4375C4.60677 14.474 4.39844 13.4479 4.39844 12.3594C4.39844 11.2708 4.60677 10.2474 5.02344 9.28906C5.4401 8.32552 6.01302 7.47656 6.74219 6.74219C7.47656 6.00781 8.32292 5.43229 9.28125 5.01562C10.2448 4.59896 11.2708 4.39062 12.3594 4.39062C13.4479 4.39062 14.474 4.59896 15.4375 5.01562C16.401 5.43229 17.25 6.00781 17.9844 6.74219C18.7188 7.47656 19.2943 8.32552 19.7109 9.28906C20.1276 10.2474 20.3359 11.2708 20.3359 12.3594C20.3359 13.4479 20.1276 14.474 19.7109 15.4375C19.2943 16.3958 18.7188 17.2422 17.9844 17.9766C17.25 18.7109 16.401 19.2865 15.4375 19.7031C14.4792 20.1198 13.4557 20.3281 12.3672 20.3281ZM12.3828 16.3828C12.5599 16.3828 12.7031 16.3281 12.8125 16.2188C12.9271 16.1042 12.9844 15.9557 12.9844 15.7734V11.7656L12.9219 10.0469L13.7344 11.0234L14.6797 11.9844C14.7891 12.1042 14.9323 12.1641 15.1094 12.1641C15.276 12.1641 15.4167 12.1094 15.5312 12C15.6458 11.8854 15.7031 11.7448 15.7031 11.5781C15.7031 11.4115 15.6484 11.2708 15.5391 11.1562L12.8516 8.48438C12.7005 8.32812 12.5443 8.25 12.3828 8.25C12.2214 8.25 12.0651 8.32812 11.9141 8.48438L9.22656 11.1562C9.11719 11.2656 9.0625 11.4062 9.0625 11.5781C9.0625 11.7448 9.11719 11.8854 9.22656 12C9.34115 12.1094 9.48177 12.1641 9.64844 12.1641C9.8151 12.1641 9.95833 12.1042 10.0781 11.9844L11.0312 11.0234L11.8359 10.0547L11.7734 11.7656V15.7734C11.7734 15.9557 11.8307 16.1042 11.9453 16.2188C12.0599 16.3281 12.2057 16.3828 12.3828 16.3828Z"
          fill="currentColor"/>
</svg>
