<svg width="24" height="24" viewBox="0 0 24 24" fill="none" xmlns="http://www.w3.org/2000/svg">
    <path d="M4.65625 16.6562C4.65625 16.3958 4.73177 16.1432 4.88281 15.8984C5.03385 15.6536 5.22135 15.4141 5.44531 15.1797C5.67448 14.9453 5.90104 14.7109 6.125 14.4766C6.29688 14.2995 6.42969 14.0677 6.52344 13.7812C6.6224 13.4948 6.69531 13.1901 6.74219 12.8672C6.78906 12.5443 6.82292 12.2318 6.84375 11.9297C6.85938 10.9036 6.96615 10.0026 7.16406 9.22656C7.36198 8.44531 7.67188 7.79427 8.09375 7.27344C8.52083 6.7526 9.08073 6.36719 9.77344 6.11719C9.90365 5.60677 10.1667 5.17448 10.5625 4.82031C10.9635 4.46615 11.4505 4.28906 12.0234 4.28906C12.6016 4.28906 13.0885 4.46615 13.4844 4.82031C13.8854 5.17448 14.151 5.60677 14.2812 6.11719C14.974 6.36719 15.5312 6.7526 15.9531 7.27344C16.375 7.79427 16.6849 8.44531 16.8828 9.22656C17.0859 10.0026 17.1953 10.9036 17.2109 11.9297C17.2318 12.2318 17.2656 12.5443 17.3125 12.8672C17.3594 13.1901 17.4297 13.4948 17.5234 13.7812C17.6224 14.0677 17.7578 14.2995 17.9297 14.4766C18.1536 14.7109 18.3776 14.9453 18.6016 15.1797C18.8307 15.4141 19.0208 15.6536 19.1719 15.8984C19.3229 16.1432 19.3984 16.3958 19.3984 16.6562C19.3984 16.9427 19.2943 17.1719 19.0859 17.3438C18.8776 17.5156 18.5885 17.6016 18.2188 17.6016H14.9219C14.901 18.1068 14.763 18.5729 14.5078 19C14.2578 19.4323 13.9193 19.7786 13.4922 20.0391C13.0651 20.2995 12.5755 20.4297 12.0234 20.4297C11.4766 20.4297 10.9896 20.2969 10.5625 20.0312C10.1354 19.7708 9.79427 19.4271 9.53906 19C9.28906 18.5729 9.15365 18.1068 9.13281 17.6016H5.83594C5.46615 17.6016 5.17708 17.5156 4.96875 17.3438C4.76042 17.1719 4.65625 16.9427 4.65625 16.6562ZM6.17188 16.4219H17.875V16.3281C17.8281 16.2552 17.75 16.1589 17.6406 16.0391C17.5365 15.9141 17.4141 15.7786 17.2734 15.6328C17.138 15.487 17 15.3385 16.8594 15.1875C16.7188 15.0312 16.5964 14.8516 16.4922 14.6484C16.388 14.4401 16.2995 14.2057 16.2266 13.9453C16.1589 13.6849 16.1016 13.3958 16.0547 13.0781C16.013 12.7604 15.9844 12.4115 15.9688 12.0312C15.9479 10.8958 15.8281 9.99479 15.6094 9.32812C15.3958 8.66146 15.1094 8.16667 14.75 7.84375C14.3958 7.51562 13.9948 7.28906 13.5469 7.16406C13.4531 7.14323 13.3776 7.10677 13.3203 7.05469C13.2682 6.9974 13.2422 6.91927 13.2422 6.82031C13.2266 6.41406 13.1094 6.08333 12.8906 5.82812C12.6771 5.56771 12.388 5.4375 12.0234 5.4375C11.6641 5.4375 11.375 5.56771 11.1562 5.82812C10.9427 6.08333 10.8281 6.41406 10.8125 6.82031C10.8073 6.91927 10.7786 6.9974 10.7266 7.05469C10.6745 7.10677 10.599 7.14323 10.5 7.16406C10.0521 7.28906 9.64844 7.51562 9.28906 7.84375C8.9349 8.16667 8.65104 8.66146 8.4375 9.32812C8.22396 9.99479 8.10677 10.8958 8.08594 12.0312C8.0651 12.4115 8.03385 12.7604 7.99219 13.0781C7.95052 13.3958 7.89323 13.6849 7.82031 13.9453C7.7474 14.2057 7.65885 14.4401 7.55469 14.6484C7.45052 14.8516 7.32812 15.0312 7.1875 15.1875C7.05208 15.3385 6.91406 15.487 6.77344 15.6328C6.63802 15.7786 6.51562 15.9141 6.40625 16.0391C6.29688 16.1589 6.21875 16.2552 6.17188 16.3281V16.4219ZM10.3516 17.6016C10.3776 18.1328 10.5443 18.5521 10.8516 18.8594C11.1641 19.1719 11.5547 19.3281 12.0234 19.3281C12.4974 19.3281 12.888 19.1719 13.1953 18.8594C13.5026 18.5521 13.6719 18.1328 13.7031 17.6016H10.3516Z"
          fill="currentColor"/>
</svg>
