<svg width="24" height="24" viewBox="0 0 24 24" fill="none" xmlns="http://www.w3.org/2000/svg">
<path d="M12.0312 20.4297C11.4792 20.4297 10.9896 20.2969 10.5625 20.0312C10.1354 19.7708 9.79427 19.4271 9.53906 19C9.28906 18.5729 9.15365 18.1068 9.13281 17.6016H5.84375C5.46875 17.6016 5.17708 17.5156 4.96875 17.3438C4.76042 17.1719 4.65625 16.9427 4.65625 16.6562C4.65625 16.3958 4.73177 16.1432 4.88281 15.8984C5.03385 15.6536 5.22135 15.4141 5.44531 15.1797C5.67448 14.9453 5.90365 14.7109 6.13281 14.4766C6.30469 14.2995 6.4375 14.0677 6.53125 13.7812C6.625 13.4948 6.69531 13.1901 6.74219 12.8672C6.78906 12.5443 6.82292 12.2318 6.84375 11.9297C6.84896 11.4661 6.8724 11.0286 6.91406 10.6172C6.96094 10.2057 7.02604 9.82292 7.10938 9.46875L8.20312 10.5625C8.17188 10.7812 8.14583 11.013 8.125 11.2578C8.10417 11.5026 8.09115 11.7604 8.08594 12.0312C8.07031 12.4115 8.04167 12.7604 8 13.0781C7.95833 13.3958 7.90104 13.6849 7.82812 13.9453C7.75521 14.2057 7.66667 14.4401 7.5625 14.6484C7.45833 14.8516 7.33594 15.0312 7.19531 15.1875C7.0599 15.3385 6.92188 15.487 6.78125 15.6328C6.64062 15.7786 6.51562 15.9141 6.40625 16.0391C6.30208 16.1589 6.22656 16.2552 6.17969 16.3281V16.4219H14.0625L15.4141 17.7734H14.9062C14.8594 18.2578 14.7083 18.7005 14.4531 19.1016C14.1979 19.5026 13.862 19.8229 13.4453 20.0625C13.0286 20.3073 12.5573 20.4297 12.0312 20.4297ZM12.0312 19.3281C12.5 19.3281 12.888 19.1719 13.1953 18.8594C13.5078 18.5521 13.6771 18.1328 13.7031 17.6016H10.3516C10.3828 18.1328 10.5521 18.5521 10.8594 18.8594C11.1667 19.1719 11.5573 19.3281 12.0312 19.3281ZM8.67969 6.71094C8.83594 6.58594 9.00521 6.47396 9.1875 6.375C9.36979 6.27083 9.5651 6.1849 9.77344 6.11719C9.90365 5.60677 10.1667 5.17448 10.5625 4.82031C10.9635 4.46615 11.4531 4.28906 12.0312 4.28906C12.6042 4.28906 13.0885 4.46615 13.4844 4.82031C13.8854 5.17448 14.1536 5.60677 14.2891 6.11719C15.3307 6.49219 16.0781 7.1849 16.5312 8.19531C16.9844 9.20573 17.2214 10.5417 17.2422 12.2031C17.2526 12.4792 17.276 12.737 17.3125 12.9766C17.349 13.2161 17.401 13.4427 17.4688 13.6562C17.5417 13.8646 17.6328 14.0651 17.7422 14.2578C17.8568 14.4453 17.9948 14.6276 18.1562 14.8047C18.4375 15.0911 18.7083 15.3828 18.9688 15.6797C19.2344 15.9714 19.3672 16.2734 19.3672 16.5859C19.3672 16.8099 19.2995 17 19.1641 17.1562L16.3906 14.2969C16.2969 14.1198 16.224 13.9349 16.1719 13.7422C16.125 13.5443 16.0885 13.3229 16.0625 13.0781C16.0365 12.8333 16.0156 12.5521 16 12.2344C15.9844 11.0469 15.8672 10.1068 15.6484 9.41406C15.4297 8.71615 15.138 8.19792 14.7734 7.85938C14.4141 7.52083 14.0078 7.28906 13.5547 7.16406C13.4557 7.14323 13.3802 7.10677 13.3281 7.05469C13.276 6.9974 13.2474 6.91927 13.2422 6.82031C13.2266 6.41406 13.1094 6.08333 12.8906 5.82812C12.6771 5.56771 12.3906 5.4375 12.0312 5.4375C11.6667 5.4375 11.375 5.56771 11.1562 5.82812C10.9427 6.08333 10.8281 6.41406 10.8125 6.82031C10.8125 6.91927 10.7839 6.9974 10.7266 7.05469C10.6745 7.10677 10.6016 7.14323 10.5078 7.16406C10.3359 7.21094 10.1719 7.27083 10.0156 7.34375C9.86458 7.41667 9.71875 7.50521 9.57812 7.60938L8.67969 6.71094ZM4.8125 5.875C4.69792 5.76042 4.64062 5.61979 4.64062 5.45312C4.64062 5.28125 4.69792 5.13802 4.8125 5.02344C4.93229 4.90885 5.07552 4.85156 5.24219 4.85156C5.41406 4.85156 5.55729 4.90885 5.67188 5.02344L19.7031 19.0469C19.8177 19.1615 19.875 19.3021 19.875 19.4688C19.875 19.6354 19.8177 19.7786 19.7031 19.8984C19.5885 20.013 19.4453 20.0703 19.2734 20.0703C19.1068 20.0703 18.9661 20.013 18.8516 19.8984L4.8125 5.875Z" fill="#141414"/>
</svg>
