<svg width="24" height="24" viewBox="0 0 24 24" fill="none" xmlns="http://www.w3.org/2000/svg">
<path d="M7.71875 20.7266C7.45833 20.7266 7.25521 20.6432 7.10938 20.4766C6.96354 20.3099 6.89062 20.0755 6.89062 19.7734V6.21094C6.89062 5.46615 7.07552 4.90625 7.44531 4.53125C7.8151 4.15625 8.36719 3.96875 9.10156 3.96875H15.2109C15.9453 3.96875 16.4974 4.15625 16.8672 4.53125C17.237 4.90625 17.4219 5.46615 17.4219 6.21094V19.7734C17.4219 20.0755 17.349 20.3099 17.2031 20.4766C17.0573 20.6432 16.8542 20.7266 16.5938 20.7266C16.401 20.7266 16.2214 20.6615 16.0547 20.5312C15.8932 20.401 15.6354 20.1667 15.2812 19.8281L12.2266 16.8203C12.1797 16.7682 12.1328 16.7682 12.0859 16.8203L9.03125 19.8281C8.67708 20.1719 8.41667 20.4062 8.25 20.5312C8.08333 20.6615 7.90625 20.7266 7.71875 20.7266ZM8.35938 18.6172L11.7422 15.3359C11.8672 15.2161 12.0052 15.1562 12.1562 15.1562C12.3073 15.1562 12.4453 15.2161 12.5703 15.3359L15.9531 18.6172C16.0104 18.6693 16.0625 18.6875 16.1094 18.6719C16.1615 18.6615 16.1875 18.6172 16.1875 18.5391V6.22656C16.1875 5.88802 16.099 5.63281 15.9219 5.46094C15.75 5.28906 15.4948 5.20312 15.1562 5.20312H9.16406C8.82031 5.20312 8.5599 5.28906 8.38281 5.46094C8.21094 5.63281 8.125 5.88802 8.125 6.22656V18.5391C8.125 18.6172 8.14844 18.6615 8.19531 18.6719C8.2474 18.6875 8.30208 18.6693 8.35938 18.6172Z" fill="#141414"/>
</svg>
