<svg width="24" height="24" viewBox="0 0 24 24" fill="none" xmlns="http://www.w3.org/2000/svg">
    <path d="M7.71875 20.7266C7.45833 20.7266 7.25521 20.6432 7.10938 20.4766C6.96354 20.3099 6.89062 20.0755 6.89062 19.7734V6.21094C6.89062 5.46615 7.07552 4.90625 7.44531 4.53125C7.8151 4.15625 8.36719 3.96875 9.10156 3.96875H15.2109C15.9453 3.96875 16.4974 4.15625 16.8672 4.53125C17.237 4.90625 17.4219 5.46615 17.4219 6.21094V19.7734C17.4219 20.0755 17.349 20.3099 17.2031 20.4766C17.0573 20.6432 16.8542 20.7266 16.5938 20.7266C16.401 20.7266 16.2214 20.6615 16.0547 20.5312C15.8932 20.401 15.6354 20.1667 15.2812 19.8281L12.2266 16.8203C12.1797 16.7682 12.1328 16.7682 12.0859 16.8203L9.03125 19.8281C8.67708 20.1719 8.41667 20.4062 8.25 20.5312C8.08333 20.6615 7.90625 20.7266 7.71875 20.7266Z"
          fill="currentColor"/>
</svg>
