<svg width="24" height="24" viewBox="0 0 24 24" fill="none" xmlns="http://www.w3.org/2000/svg">
<path d="M6.00098 19.7578C5.08105 19.7578 4.38965 19.5293 3.92676 19.0723C3.46973 18.6211 3.24121 17.9414 3.24121 17.0332V6.30176C3.24121 5.39355 3.46973 4.71387 3.92676 4.2627C4.38965 3.80566 5.08105 3.57715 6.00098 3.57715H18.0068C18.9268 3.57715 19.6152 3.80566 20.0723 4.2627C20.5293 4.71387 20.7578 5.39355 20.7578 6.30176V17.0332C20.7578 17.9414 20.5293 18.6211 20.0723 19.0723C19.6152 19.5293 18.9268 19.7578 18.0068 19.7578H6.00098ZM5.86914 18.3428H18.1211C18.5137 18.3428 18.8154 18.2373 19.0264 18.0264C19.2373 17.8213 19.3428 17.5166 19.3428 17.1123V8.82422C19.3428 8.41992 19.2373 8.11523 19.0264 7.91016C18.8154 7.69922 18.5137 7.59375 18.1211 7.59375H5.86914C5.48242 7.59375 5.18359 7.69922 4.97266 7.91016C4.76172 8.11523 4.65625 8.41992 4.65625 8.82422V17.1123C4.65625 17.5166 4.76172 17.8213 4.97266 18.0264C5.18359 18.2373 5.48242 18.3428 5.86914 18.3428ZM10.29 10.7578C10.1377 10.7578 10.0293 10.7285 9.96484 10.6699C9.90625 10.6113 9.87695 10.5059 9.87695 10.3535V9.83496C9.87695 9.68262 9.90625 9.58008 9.96484 9.52734C10.0293 9.46875 10.1377 9.43945 10.29 9.43945H10.8086C10.9609 9.43945 11.0664 9.46875 11.125 9.52734C11.1895 9.58008 11.2217 9.68262 11.2217 9.83496V10.3535C11.2217 10.5059 11.1895 10.6113 11.125 10.6699C11.0664 10.7285 10.9609 10.7578 10.8086 10.7578H10.29ZM13.208 10.7578C13.0557 10.7578 12.9502 10.7285 12.8916 10.6699C12.833 10.6113 12.8037 10.5059 12.8037 10.3535V9.83496C12.8037 9.68262 12.833 9.58008 12.8916 9.52734C12.9502 9.46875 13.0557 9.43945 13.208 9.43945H13.7266C13.8848 9.43945 13.9932 9.46875 14.0518 9.52734C14.1104 9.58008 14.1396 9.68262 14.1396 9.83496V10.3535C14.1396 10.5059 14.1104 10.6113 14.0518 10.6699C13.9932 10.7285 13.8848 10.7578 13.7266 10.7578H13.208ZM16.1348 10.7578C15.9766 10.7578 15.8682 10.7285 15.8096 10.6699C15.751 10.6113 15.7217 10.5059 15.7217 10.3535V9.83496C15.7217 9.68262 15.751 9.58008 15.8096 9.52734C15.8682 9.46875 15.9766 9.43945 16.1348 9.43945H16.6445C16.8027 9.43945 16.9111 9.46875 16.9697 9.52734C17.0283 9.58008 17.0576 9.68262 17.0576 9.83496V10.3535C17.0576 10.5059 17.0283 10.6113 16.9697 10.6699C16.9111 10.7285 16.8027 10.7578 16.6445 10.7578H16.1348ZM7.37207 13.6318C7.21387 13.6318 7.10547 13.6025 7.04688 13.5439C6.98828 13.4854 6.95898 13.3799 6.95898 13.2275V12.7178C6.95898 12.5596 6.98828 12.4541 7.04688 12.4014C7.10547 12.3428 7.21387 12.3135 7.37207 12.3135H7.89062C8.04297 12.3135 8.14844 12.3428 8.20703 12.4014C8.26562 12.4541 8.29492 12.5596 8.29492 12.7178V13.2275C8.29492 13.3799 8.26562 13.4854 8.20703 13.5439C8.14844 13.6025 8.04297 13.6318 7.89062 13.6318H7.37207ZM10.29 13.6318C10.1377 13.6318 10.0293 13.6025 9.96484 13.5439C9.90625 13.4854 9.87695 13.3799 9.87695 13.2275V12.7178C9.87695 12.5596 9.90625 12.4541 9.96484 12.4014C10.0293 12.3428 10.1377 12.3135 10.29 12.3135H10.8086C10.9609 12.3135 11.0664 12.3428 11.125 12.4014C11.1895 12.4541 11.2217 12.5596 11.2217 12.7178V13.2275C11.2217 13.3799 11.1895 13.4854 11.125 13.5439C11.0664 13.6025 10.9609 13.6318 10.8086 13.6318H10.29ZM13.208 13.6318C13.0557 13.6318 12.9502 13.6025 12.8916 13.5439C12.833 13.4854 12.8037 13.3799 12.8037 13.2275V12.7178C12.8037 12.5596 12.833 12.4541 12.8916 12.4014C12.9502 12.3428 13.0557 12.3135 13.208 12.3135H13.7266C13.8848 12.3135 13.9932 12.3428 14.0518 12.4014C14.1104 12.4541 14.1396 12.5596 14.1396 12.7178V13.2275C14.1396 13.3799 14.1104 13.4854 14.0518 13.5439C13.9932 13.6025 13.8848 13.6318 13.7266 13.6318H13.208ZM16.1348 13.6318C15.9766 13.6318 15.8682 13.6025 15.8096 13.5439C15.751 13.4854 15.7217 13.3799 15.7217 13.2275V12.7178C15.7217 12.5596 15.751 12.4541 15.8096 12.4014C15.8682 12.3428 15.9766 12.3135 16.1348 12.3135H16.6445C16.8027 12.3135 16.9111 12.3428 16.9697 12.4014C17.0283 12.4541 17.0576 12.5596 17.0576 12.7178V13.2275C17.0576 13.3799 17.0283 13.4854 16.9697 13.5439C16.9111 13.6025 16.8027 13.6318 16.6445 13.6318H16.1348ZM7.37207 16.5059C7.21387 16.5059 7.10547 16.4795 7.04688 16.4268C6.98828 16.3682 6.95898 16.2598 6.95898 16.1016V15.5918C6.95898 15.4336 6.98828 15.3281 7.04688 15.2754C7.10547 15.2168 7.21387 15.1875 7.37207 15.1875H7.89062C8.04297 15.1875 8.14844 15.2168 8.20703 15.2754C8.26562 15.3281 8.29492 15.4336 8.29492 15.5918V16.1016C8.29492 16.2598 8.26562 16.3682 8.20703 16.4268C8.14844 16.4795 8.04297 16.5059 7.89062 16.5059H7.37207ZM10.29 16.5059C10.1377 16.5059 10.0293 16.4795 9.96484 16.4268C9.90625 16.3682 9.87695 16.2598 9.87695 16.1016V15.5918C9.87695 15.4336 9.90625 15.3281 9.96484 15.2754C10.0293 15.2168 10.1377 15.1875 10.29 15.1875H10.8086C10.9609 15.1875 11.0664 15.2168 11.125 15.2754C11.1895 15.3281 11.2217 15.4336 11.2217 15.5918V16.1016C11.2217 16.2598 11.1895 16.3682 11.125 16.4268C11.0664 16.4795 10.9609 16.5059 10.8086 16.5059H10.29ZM13.208 16.5059C13.0557 16.5059 12.9502 16.4795 12.8916 16.4268C12.833 16.3682 12.8037 16.2598 12.8037 16.1016V15.5918C12.8037 15.4336 12.833 15.3281 12.8916 15.2754C12.9502 15.2168 13.0557 15.1875 13.208 15.1875H13.7266C13.8848 15.1875 13.9932 15.2168 14.0518 15.2754C14.1104 15.3281 14.1396 15.4336 14.1396 15.5918V16.1016C14.1396 16.2598 14.1104 16.3682 14.0518 16.4268C13.9932 16.4795 13.8848 16.5059 13.7266 16.5059H13.208Z" fill="#141414"/>
</svg>
