<svg width="24" height="24" viewBox="0 0 24 24" fill="none" xmlns="http://www.w3.org/2000/svg">
<path d="M4.44531 19.5625C3.6276 19.5625 3.01302 19.3594 2.60156 18.9531C2.19531 18.5521 1.99219 17.9479 1.99219 17.1406V8.96094C1.99219 8.15885 2.19531 7.55729 2.60156 7.15625C3.01302 6.75 3.6276 6.54688 4.44531 6.54688H6.625C6.93229 6.54688 7.15885 6.51042 7.30469 6.4375C7.45052 6.35938 7.60938 6.22396 7.78125 6.03125L8.40625 5.32812C8.60417 5.11458 8.81771 4.95052 9.04688 4.83594C9.28125 4.72135 9.59896 4.66406 10 4.66406H13.1172C13.5182 4.66406 13.8359 4.72135 14.0703 4.83594C14.3047 4.95052 14.5182 5.11458 14.7109 5.32812L15.3359 6.03125C15.4557 6.16146 15.5625 6.26562 15.6562 6.34375C15.7552 6.41667 15.8672 6.46875 15.9922 6.5C16.1172 6.53125 16.2839 6.54688 16.4922 6.54688H18.7266C19.5391 6.54688 20.151 6.75 20.5625 7.15625C20.974 7.55729 21.1797 8.15885 21.1797 8.96094V17.1406C21.1797 17.9479 20.974 18.5521 20.5625 18.9531C20.151 19.3594 19.5391 19.5625 18.7266 19.5625H4.44531ZM4.46094 18.3047H18.7031C19.0885 18.3047 19.388 18.2031 19.6016 18C19.8151 17.7917 19.9219 17.4844 19.9219 17.0781V9.03125C19.9219 8.625 19.8151 8.32031 19.6016 8.11719C19.388 7.90885 19.0885 7.80469 18.7031 7.80469H16.1797C15.8255 7.80469 15.5391 7.76562 15.3203 7.6875C15.1068 7.60417 14.901 7.45312 14.7031 7.23438L14.0938 6.54688C13.8698 6.29688 13.6719 6.13021 13.5 6.04688C13.3281 5.96354 13.0703 5.92188 12.7266 5.92188H10.3906C10.0469 5.92188 9.78906 5.96354 9.61719 6.04688C9.44531 6.13021 9.2474 6.29688 9.02344 6.54688L8.41406 7.23438C8.21615 7.45312 8.00781 7.60417 7.78906 7.6875C7.57552 7.76562 7.29167 7.80469 6.9375 7.80469H4.46094C4.07552 7.80469 3.77604 7.90885 3.5625 8.11719C3.35417 8.32031 3.25 8.625 3.25 9.03125V17.0781C3.25 17.4844 3.35417 17.7917 3.5625 18C3.77604 18.2031 4.07552 18.3047 4.46094 18.3047ZM11.5859 17.1797C10.9922 17.1797 10.4375 17.0703 9.92188 16.8516C9.40625 16.6328 8.95312 16.3281 8.5625 15.9375C8.17708 15.5469 7.8724 15.0938 7.64844 14.5781C7.42969 14.0625 7.32031 13.5052 7.32031 12.9062C7.32031 12.3125 7.42969 11.7578 7.64844 11.2422C7.8724 10.7266 8.17708 10.2734 8.5625 9.88281C8.95312 9.49219 9.40625 9.1875 9.92188 8.96875C10.4375 8.75 10.9922 8.64062 11.5859 8.64062C12.3724 8.64062 13.0885 8.83073 13.7344 9.21094C14.3802 9.59115 14.8932 10.1042 15.2734 10.75C15.6536 11.3958 15.8438 12.1146 15.8438 12.9062C15.8438 13.5052 15.7344 14.0625 15.5156 14.5781C15.2969 15.0938 14.9922 15.5469 14.6016 15.9375C14.2109 16.3281 13.7578 16.6328 13.2422 16.8516C12.7266 17.0703 12.1745 17.1797 11.5859 17.1797ZM11.5859 15.9922C12.1536 15.9922 12.6693 15.8542 13.1328 15.5781C13.6016 15.3021 13.974 14.9323 14.25 14.4688C14.526 14 14.6641 13.4792 14.6641 12.9062C14.6641 12.3385 14.526 11.8229 14.25 11.3594C13.974 10.8906 13.6016 10.5182 13.1328 10.2422C12.6693 9.96094 12.1536 9.82031 11.5859 9.82031C11.0182 9.82031 10.5 9.96094 10.0312 10.2422C9.56771 10.5182 9.19531 10.8906 8.91406 11.3594C8.63802 11.8229 8.5 12.3385 8.5 12.9062C8.5 13.4792 8.63802 14 8.91406 14.4688C9.19531 14.9323 9.56771 15.3021 10.0312 15.5781C10.5 15.8542 11.0182 15.9922 11.5859 15.9922ZM16.1641 10.0312C16.1641 9.77083 16.2604 9.54427 16.4531 9.35156C16.6458 9.15885 16.8776 9.0625 17.1484 9.0625C17.4089 9.0625 17.6354 9.15885 17.8281 9.35156C18.0208 9.54427 18.1172 9.77083 18.1172 10.0312C18.1172 10.3021 18.0208 10.5312 17.8281 10.7188C17.6354 10.9062 17.4089 11 17.1484 11C16.8776 11 16.6458 10.9089 16.4531 10.7266C16.2604 10.5391 16.1641 10.3073 16.1641 10.0312Z" fill="currentColor"/>
</svg>
