<svg width="24" height="24" viewBox="0 0 24 24" fill="none" xmlns="http://www.w3.org/2000/svg">
<path d="M4.44531 19.5625C3.6276 19.5625 3.01302 19.3594 2.60156 18.9531C2.19531 18.5521 1.99219 17.9479 1.99219 17.1406V8.96094C1.99219 8.15885 2.19531 7.55729 2.60156 7.15625C3.01302 6.75 3.6276 6.54688 4.44531 6.54688H6.625C6.93229 6.54688 7.15885 6.51042 7.30469 6.4375C7.45052 6.35938 7.60938 6.22396 7.78125 6.03125L8.40625 5.32812C8.60417 5.11458 8.81771 4.95052 9.04688 4.83594C9.28125 4.72135 9.59896 4.66406 10 4.66406H13.1172C13.5182 4.66406 13.8359 4.72135 14.0703 4.83594C14.3047 4.95052 14.5182 5.11458 14.7109 5.32812L15.3359 6.03125C15.4557 6.16146 15.5625 6.26562 15.6562 6.34375C15.7552 6.41667 15.8672 6.46875 15.9922 6.5C16.1172 6.53125 16.2839 6.54688 16.4922 6.54688H18.7266C19.5391 6.54688 20.151 6.75 20.5625 7.15625C20.974 7.55729 21.1797 8.15885 21.1797 8.96094V17.1406C21.1797 17.9479 20.974 18.5521 20.5625 18.9531C20.151 19.3594 19.5391 19.5625 18.7266 19.5625H4.44531ZM11.5859 17.2578C12.1745 17.2578 12.7266 17.1484 13.2422 16.9297C13.7578 16.7109 14.2109 16.4062 14.6016 16.0156C14.9922 15.625 15.2969 15.1719 15.5156 14.6562C15.7344 14.1406 15.8438 13.5833 15.8438 12.9844C15.8438 12.1927 15.6536 11.474 15.2734 10.8281C14.8932 10.1823 14.3802 9.66927 13.7344 9.28906C13.0885 8.90885 12.3724 8.71875 11.5859 8.71875C10.9922 8.71875 10.4375 8.82812 9.92188 9.04688C9.40625 9.26562 8.95312 9.57031 8.5625 9.96094C8.17708 10.3516 7.8724 10.8047 7.64844 11.3203C7.42969 11.8359 7.32031 12.3906 7.32031 12.9844C7.32031 13.5833 7.42969 14.1406 7.64844 14.6562C7.8724 15.1719 8.17708 15.625 8.5625 16.0156C8.95312 16.4062 9.40625 16.7109 9.92188 16.9297C10.4375 17.1484 10.9922 17.2578 11.5859 17.2578ZM11.5859 16.0703C11.0182 16.0703 10.5 15.9323 10.0312 15.6562C9.56771 15.3802 9.19531 15.0104 8.91406 14.5469C8.63802 14.0781 8.5 13.5573 8.5 12.9844C8.5 12.4167 8.63802 11.901 8.91406 11.4375C9.19531 10.9688 9.56771 10.5964 10.0312 10.3203C10.5 10.0391 11.0182 9.89844 11.5859 9.89844C12.1536 9.89844 12.6693 10.0391 13.1328 10.3203C13.6016 10.5964 13.974 10.9688 14.25 11.4375C14.526 11.901 14.6641 12.4167 14.6641 12.9844C14.6641 13.5573 14.526 14.0781 14.25 14.5469C13.974 15.0104 13.6016 15.3802 13.1328 15.6562C12.6693 15.9323 12.1536 16.0703 11.5859 16.0703ZM16.3672 10.1094C16.3672 10.3906 16.4661 10.6302 16.6641 10.8281C16.8672 11.0208 17.1068 11.1146 17.3828 11.1094C17.6484 11.1094 17.8802 11.013 18.0781 10.8203C18.2812 10.6276 18.3828 10.3906 18.3828 10.1094C18.3828 9.84375 18.2812 9.61198 18.0781 9.41406C17.8802 9.21094 17.6484 9.10938 17.3828 9.10938C17.1068 9.10938 16.8672 9.21094 16.6641 9.41406C16.4661 9.61198 16.3672 9.84375 16.3672 10.1094Z" fill="currentColor"/>
</svg>
