<svg width="24" height="24" viewBox="0 0 24 24" fill="none" xmlns="http://www.w3.org/2000/svg">
<path d="M5.16504 18.4082C4.69564 18.4082 4.34017 18.2943 4.09863 18.0664C3.86165 17.8431 3.74316 17.5081 3.74316 17.0615V10.9639C3.74316 10.5173 3.86165 10.18 4.09863 9.95215C4.34017 9.72428 4.69564 9.61035 5.16504 9.61035H7.19531C7.66927 9.61035 8.02474 9.72428 8.26172 9.95215C8.50326 10.18 8.62402 10.5173 8.62402 10.9639V17.0615C8.62402 17.5081 8.50326 17.8431 8.26172 18.0664C8.02474 18.2943 7.66927 18.4082 7.19531 18.4082H5.16504ZM11.3105 18.4082C10.8411 18.4082 10.4857 18.2943 10.2441 18.0664C10.0072 17.8431 9.88867 17.5081 9.88867 17.0615V8.97461C9.88867 8.52799 10.0072 8.19076 10.2441 7.96289C10.4857 7.73503 10.8411 7.62109 11.3105 7.62109H13.3477C13.8171 7.62109 14.1702 7.73503 14.4072 7.96289C14.6488 8.19076 14.7695 8.52799 14.7695 8.97461V17.0615C14.7695 17.5081 14.6488 17.8431 14.4072 18.0664C14.1702 18.2943 13.8171 18.4082 13.3477 18.4082H11.3105ZM17.4561 18.4082C16.9912 18.4082 16.638 18.2943 16.3965 18.0664C16.1595 17.8431 16.041 17.5081 16.041 17.0615V6.97852C16.041 6.5319 16.1595 6.19466 16.3965 5.9668C16.638 5.73893 16.9912 5.625 17.4561 5.625H19.4932C19.9671 5.625 20.3226 5.73893 20.5596 5.9668C20.8011 6.19466 20.9219 6.5319 20.9219 6.97852V17.0615C20.9219 17.5081 20.8011 17.8431 20.5596 18.0664C20.3226 18.2943 19.9671 18.4082 19.4932 18.4082H17.4561Z" fill="currentColor"/>
</svg>
