<svg width="24" height="24" viewBox="0 0 24 24" fill="none" xmlns="http://www.w3.org/2000/svg">
<path d="M11.2526 8.26934C11.2526 8.97011 10.6846 9.53819 9.98379 9.53819C9.28303 9.53819 8.71494 8.97011 8.71494 8.26934C8.71494 7.56857 9.28303 7.00049 9.98379 7.00049C10.6846 7.00049 11.2526 7.56857 11.2526 8.26934Z" fill="currentColor"/>
<path d="M15.4822 8.26934C15.4822 8.97011 14.9141 9.53819 14.2133 9.53819C13.5125 9.53819 12.9444 8.97011 12.9444 8.26934C12.9444 7.56857 13.5125 7.00049 14.2133 7.00049C14.9141 7.00049 15.4822 7.56857 15.4822 8.26934Z" fill="currentColor"/>
<path d="M16.2019 11.6566C15.7907 12.3662 15.201 12.9558 14.4914 13.367C13.7818 13.7782 12.977 13.9965 12.1568 14.0004C11.3367 14.0043 10.5299 13.7936 9.81638 13.3892C9.10289 12.9848 8.50761 12.4008 8.08965 11.6952C7.91108 11.3937 8.01071 11.0046 8.31218 10.826C8.61364 10.6474 9.00279 10.7471 9.18136 11.0485C9.48651 11.5637 9.92113 11.9901 10.442 12.2854C10.963 12.5806 11.552 12.7344 12.1508 12.7316C12.7496 12.7288 13.3372 12.5693 13.8553 12.2691C14.3734 11.9689 14.8039 11.5384 15.1041 11.0204C15.2798 10.7172 15.668 10.6139 15.9712 10.7896C16.2743 10.9653 16.3776 11.3535 16.2019 11.6566Z" fill="currentColor"/>
<path fill-rule="evenodd" clip-rule="evenodd" d="M3.51797 20.4004L6.06422 17.8504H20.2512C20.6784 17.8504 21.0491 17.6933 21.3632 17.3791C21.6774 17.0648 21.8345 16.6941 21.8345 16.2671V3.73364C21.8345 3.30664 21.6774 2.93597 21.3632 2.62164C21.0491 2.30747 20.6784 2.15039 20.2512 2.15039H3.75122C3.32405 2.15039 2.95339 2.30747 2.63922 2.62164C2.32505 2.93597 2.16797 3.30664 2.16797 3.73364V19.8461C2.16797 20.1988 2.33047 20.4419 2.65547 20.5754C2.98047 20.7087 3.26797 20.6504 3.51797 20.4004ZM20.2512 16.2671H5.39697L3.75122 18.0086V3.73364H20.2512V16.2671Z" fill="currentColor"/>
</svg>
