<svg width="24" height="24" viewBox="0 0 24 24" fill="none" xmlns="http://www.w3.org/2000/svg">
<path d="M12.3672 20.3281C11.2786 20.3281 10.2526 20.1198 9.28906 19.7031C8.33073 19.2865 7.48438 18.7109 6.75 17.9766C6.01562 17.2422 5.4401 16.3958 5.02344 15.4375C4.60677 14.474 4.39844 13.4479 4.39844 12.3594C4.39844 11.2708 4.60677 10.2474 5.02344 9.28906C5.4401 8.32552 6.01302 7.47656 6.74219 6.74219C7.47656 6.00781 8.32292 5.43229 9.28125 5.01562C10.2448 4.59896 11.2708 4.39062 12.3594 4.39062C13.4479 4.39062 14.474 4.59896 15.4375 5.01562C16.401 5.43229 17.25 6.00781 17.9844 6.74219C18.7188 7.47656 19.2943 8.32552 19.7109 9.28906C20.1276 10.2474 20.3359 11.2708 20.3359 12.3594C20.3359 13.4479 20.1276 14.474 19.7109 15.4375C19.2943 16.3958 18.7188 17.2422 17.9844 17.9766C17.25 18.7109 16.401 19.2865 15.4375 19.7031C14.4792 20.1198 13.4557 20.3281 12.3672 20.3281ZM11.4922 16.1719C11.6276 16.1719 11.75 16.1406 11.8594 16.0781C11.9688 16.0156 12.0651 15.9219 12.1484 15.7969L15.8203 10.0078C15.8672 9.92969 15.9115 9.84635 15.9531 9.75781C15.9948 9.66927 16.0156 9.58073 16.0156 9.49219C16.0156 9.3099 15.9479 9.16667 15.8125 9.0625C15.6771 8.95312 15.526 8.89844 15.3594 8.89844C15.1302 8.89844 14.9427 9.01823 14.7969 9.25781L11.4609 14.6172L9.875 12.5703C9.77604 12.4401 9.67969 12.3516 9.58594 12.3047C9.4974 12.2578 9.39583 12.2344 9.28125 12.2344C9.10417 12.2344 8.95573 12.2995 8.83594 12.4297C8.71615 12.5547 8.65625 12.7057 8.65625 12.8828C8.65625 12.9714 8.67188 13.0599 8.70312 13.1484C8.73958 13.2318 8.78646 13.3125 8.84375 13.3906L10.8047 15.7969C10.9089 15.9323 11.0156 16.0286 11.125 16.0859C11.2344 16.1432 11.3568 16.1719 11.4922 16.1719Z" fill="currentColor"/>
</svg>
