<svg width="24" height="24" viewBox="0 0 24 24" fill="none" xmlns="http://www.w3.org/2000/svg">
<path d="M10.0859 19.2578C9.77865 19.2578 9.50781 19.1068 9.27344 18.8047L5.21875 13.6406C5.14062 13.5469 5.08333 13.4531 5.04688 13.3594C5.01042 13.2604 4.99219 13.1641 4.99219 13.0703C4.99219 12.8568 5.0625 12.6823 5.20312 12.5469C5.34375 12.4062 5.52344 12.3359 5.74219 12.3359C6.0026 12.3359 6.22656 12.4635 6.41406 12.7188L10.0547 17.4844L17.0703 6.30469C17.1641 6.15885 17.2604 6.05729 17.3594 6C17.4583 5.9375 17.5859 5.90625 17.7422 5.90625C17.9557 5.90625 18.1276 5.97135 18.2578 6.10156C18.388 6.23177 18.4531 6.40365 18.4531 6.61719C18.4531 6.71094 18.4375 6.80469 18.4062 6.89844C18.375 6.98698 18.3255 7.08594 18.2578 7.19531L10.875 18.8203C10.6823 19.112 10.4193 19.2578 10.0859 19.2578Z" fill="currentColor"/>
</svg>
