<svg width="24" height="24" viewBox="0 0 24 24" fill="none" xmlns="http://www.w3.org/2000/svg">
<path d="M7 12.3594C7 12.2604 7.01823 12.1693 7.05469 12.0859C7.09115 11.9974 7.14583 11.9167 7.21875 11.8438L13.4141 5.78125C13.5547 5.64583 13.724 5.57812 13.9219 5.57812C14.0573 5.57812 14.1771 5.60938 14.2812 5.67188C14.3906 5.73438 14.4766 5.82031 14.5391 5.92969C14.6068 6.03385 14.6406 6.15365 14.6406 6.28906C14.6406 6.48177 14.5703 6.65104 14.4297 6.79688L8.74219 12.3594L14.4297 17.9219C14.5703 18.0677 14.6406 18.237 14.6406 18.4297C14.6406 18.5651 14.6068 18.6849 14.5391 18.7891C14.4766 18.8984 14.3906 18.9844 14.2812 19.0469C14.1771 19.1094 14.0573 19.1406 13.9219 19.1406C13.724 19.1406 13.5547 19.0703 13.4141 18.9297L7.21875 12.875C7.14583 12.8021 7.09115 12.724 7.05469 12.6406C7.01823 12.5521 7 12.4583 7 12.3594Z" fill="#141414"/>
</svg>
