<svg width="24" height="24" viewBox="0 0 24 24" fill="none" xmlns="http://www.w3.org/2000/svg">
<path d="M11.7812 16.5234C11.5833 16.5234 11.4062 16.4479 11.25 16.2969L5.20312 10.1094C5.13542 10.0417 5.08333 9.96615 5.04688 9.88281C5.01042 9.79427 4.99219 9.70052 4.99219 9.60156C4.99219 9.46615 5.02344 9.34375 5.08594 9.23438C5.14844 9.125 5.23177 9.03906 5.33594 8.97656C5.44531 8.91406 5.56771 8.88281 5.70312 8.88281C5.90104 8.88281 6.07031 8.95052 6.21094 9.08594L12.1953 15.2031H11.3594L17.3438 9.08594C17.4896 8.95052 17.6589 8.88281 17.8516 8.88281C17.987 8.88281 18.1068 8.91406 18.2109 8.97656C18.3203 9.03906 18.4062 9.125 18.4688 9.23438C18.5312 9.34375 18.5625 9.46615 18.5625 9.60156C18.5625 9.79427 18.4922 9.96094 18.3516 10.1016L12.3047 16.2969C12.237 16.3698 12.1562 16.4271 12.0625 16.4688C11.974 16.5052 11.8802 16.5234 11.7812 16.5234Z" fill="currentColor"/>
</svg>
