<svg width="24" height="24" viewBox="0 0 24 24" fill="none" xmlns="http://www.w3.org/2000/svg">
<path d="M5.20312 14.6484L11.25 8.46094C11.3958 8.30469 11.5729 8.22656 11.7812 8.22656C11.8802 8.22656 11.974 8.2474 12.0625 8.28906C12.1562 8.33073 12.237 8.38802 12.3047 8.46094L18.3516 14.6484C18.4922 14.7839 18.5625 14.9531 18.5625 15.1562C18.5625 15.2917 18.5312 15.4141 18.4688 15.5234C18.4062 15.6276 18.3203 15.7109 18.2109 15.7734C18.1068 15.8359 17.987 15.8672 17.8516 15.8672C17.6432 15.8672 17.474 15.7995 17.3438 15.6641L11.3594 9.55469H12.1953L6.21094 15.6641C6.08594 15.7995 5.91667 15.8672 5.70312 15.8672C5.56771 15.8672 5.44531 15.8359 5.33594 15.7734C5.23177 15.7109 5.14844 15.6276 5.08594 15.5234C5.02344 15.4141 4.99219 15.2917 4.99219 15.1562C4.99219 15.0573 5.01042 14.9635 5.04688 14.875C5.08333 14.7865 5.13542 14.7109 5.20312 14.6484Z" fill="currentColor"/>
</svg>
