<svg width="24" height="24" viewBox="0 0 24 24" fill="none" xmlns="http://www.w3.org/2000/svg">
<path d="M8.28125 12.2031H12.3594C12.5156 12.2031 12.6458 12.151 12.75 12.0469C12.8542 11.9427 12.9062 11.8125 12.9062 11.6562V6.39062C12.9062 6.23958 12.8542 6.11198 12.75 6.00781C12.6458 5.90365 12.5156 5.85156 12.3594 5.85156C12.2083 5.85156 12.0807 5.90365 11.9766 6.00781C11.8724 6.11198 11.8203 6.23958 11.8203 6.39062V11.1172H8.28125C8.125 11.1172 7.99479 11.1693 7.89062 11.2734C7.78646 11.3776 7.73438 11.5052 7.73438 11.6562C7.73438 11.8125 7.78646 11.9427 7.89062 12.0469C7.99479 12.151 8.125 12.2031 8.28125 12.2031ZM12.3672 19.3281C11.2786 19.3281 10.2526 19.1198 9.28906 18.7031C8.33073 18.2865 7.48438 17.7109 6.75 16.9766C6.01562 16.2422 5.4401 15.3958 5.02344 14.4375C4.60677 13.474 4.39844 12.4479 4.39844 11.3594C4.39844 10.2708 4.60677 9.2474 5.02344 8.28906C5.4401 7.32552 6.01302 6.47656 6.74219 5.74219C7.47656 5.00781 8.32292 4.43229 9.28125 4.01562C10.2448 3.59896 11.2708 3.39062 12.3594 3.39062C13.4479 3.39062 14.474 3.59896 15.4375 4.01562C16.401 4.43229 17.25 5.00781 17.9844 5.74219C18.7188 6.47656 19.2943 7.32552 19.7109 8.28906C20.1276 9.2474 20.3359 10.2708 20.3359 11.3594C20.3359 12.4479 20.1276 13.474 19.7109 14.4375C19.2943 15.3958 18.7188 16.2422 17.9844 16.9766C17.25 17.7109 16.401 18.2865 15.4375 18.7031C14.4792 19.1198 13.4557 19.3281 12.3672 19.3281Z" fill="#141414"/>
</svg>
