<svg width="24" height="24" viewBox="0 0 24 24" fill="none" xmlns="http://www.w3.org/2000/svg">
<path d="M15.2275 2.25C17.1766 2.25 18.7568 3.83027 18.7568 5.7793V10.5391C18.7568 10.7398 18.7087 10.9352 18.6221 11.1123C19.2427 10.9471 19.9321 11.1069 20.4189 11.5938L21.2051 12.3799C21.9319 13.1068 21.9319 14.2857 21.2051 15.0127L14.1992 22.0186C14.04 22.1777 13.8332 22.2806 13.6104 22.3125L11.3398 22.6367C10.6524 22.7347 10.0639 22.1454 10.1621 21.458L10.4756 19.2598L9.63965 20.0615C9.3966 20.2942 9.07284 20.4238 8.73633 20.4238H5.7793C3.83039 20.4238 2.2502 18.8444 2.25 16.8955V5.7793C2.25 3.83027 3.83027 2.25 5.7793 2.25H15.2275Z" fill="white" stroke="#141414" stroke-width="1.5"/>
</svg>
