<svg width="24" height="24" viewBox="0 0 24 24" fill="none" xmlns="http://www.w3.org/2000/svg">
<path d="M19.2861 4.33008C20.3981 4.33027 21.3306 5.09153 21.5947 6.12012L21.6895 6.49023L20.5264 7.65332L21.6699 6.51074V17.4287C21.6698 18.7451 20.6025 19.8123 19.2861 19.8125H4.71387C3.3975 19.8123 2.33015 18.7451 2.33008 17.4287V6.71387C2.3303 5.39759 3.39759 4.3303 4.71387 4.33008H19.2861ZM9.53613 16.3213C9.62401 16.3359 9.71229 16.3412 9.80078 16.3398C9.71295 16.3413 9.62459 16.336 9.53613 16.3213ZM10.0635 16.3145C9.98961 16.3275 9.91498 16.3348 9.83984 16.3379C9.91435 16.3349 9.9889 16.3276 10.0635 16.3145ZM8.99805 16.127C9.04806 16.1584 9.10129 16.1877 9.15918 16.2129C9.10125 16.1877 9.04802 16.1584 8.99805 16.127ZM8.72461 15.8838C8.75295 15.9197 8.78434 15.9531 8.81738 15.9854C8.78432 15.9531 8.75293 15.9197 8.72461 15.8838ZM3.35938 13.0566L2.99902 13.2852H3L3.16406 13.1816C3.49466 12.9712 3.97248 12.6682 4.46973 12.3535C4.06497 12.6096 3.67174 12.8578 3.35938 13.0566ZM8.84082 11.7236H8.8418H8.84082ZM8.27637 10.9961C8.48752 11.1014 8.66111 11.2622 8.76562 11.4932C8.66041 11.2606 8.48586 11.1005 8.27637 10.9961ZM11.0869 15.8633C11.1614 15.813 11.2349 15.7597 11.3076 15.7041C11.2339 15.7605 11.1604 15.8136 11.0869 15.8633Z" stroke="#141414" stroke-width="1.33929"/>
</svg>
