<svg width="24" height="24" viewBox="0 0 24 24" fill="none" xmlns="http://www.w3.org/2000/svg">
<path d="M20.125 16.8125C20.125 16.9948 20.0677 17.138 19.9531 17.2422C19.8438 17.3464 19.6927 17.3984 19.5 17.3984H7.36719C7.17969 17.3984 7.02865 17.3438 6.91406 17.2344C6.80469 17.1198 6.75 16.9688 6.75 16.7812V4.72656C6.75 4.53385 6.80729 4.3776 6.92188 4.25781C7.03646 4.13281 7.1875 4.07031 7.375 4.07031C7.56771 4.07031 7.72135 4.13281 7.83594 4.25781C7.95052 4.3776 8.00781 4.53385 8.00781 4.72656V15.9922C8.00781 16.1432 8.08333 16.2188 8.23438 16.2188H19.5C19.6927 16.2188 19.8438 16.2708 19.9531 16.375C20.0677 16.4792 20.125 16.625 20.125 16.8125ZM2.99219 8.41406C2.99219 8.23698 3.04688 8.09635 3.15625 7.99219C3.27083 7.88281 3.42188 7.82812 3.60938 7.82812H15.75C15.9375 7.82812 16.0859 7.88542 16.1953 8C16.3099 8.11458 16.3672 8.26562 16.3672 8.45312V20.5C16.3672 20.6979 16.3099 20.8568 16.1953 20.9766C16.0807 21.0964 15.9271 21.1562 15.7344 21.1562C15.5469 21.1562 15.3958 21.0964 15.2812 20.9766C15.1667 20.8568 15.1094 20.6979 15.1094 20.5V9.23438C15.1094 9.08333 15.0339 9.00781 14.8828 9.00781H3.60938C3.42188 9.00781 3.27083 8.95573 3.15625 8.85156C3.04688 8.7474 2.99219 8.60156 2.99219 8.41406Z" fill="currentColor"/>
</svg>
