<svg width="24" height="24" viewBox="0 0 24 24" fill="none" xmlns="http://www.w3.org/2000/svg">
<path d="M6.8623 20.6572C6.15592 20.6572 5.625 20.4772 5.26953 20.1172C4.91862 19.7617 4.74316 19.2262 4.74316 18.5107V9.01562C4.74316 8.30469 4.91862 7.76921 5.26953 7.40918C5.625 7.04915 6.15592 6.86914 6.8623 6.86914H9.34375V11.8184C9.34375 12.2559 9.44857 12.5817 9.6582 12.7959C9.86784 13.0055 10.1937 13.1104 10.6357 13.1104H15.4072V18.5107C15.4072 19.2217 15.2295 19.7572 14.874 20.1172C14.5231 20.4772 13.9945 20.6572 13.2881 20.6572H6.8623ZM10.6289 12.1738C10.3919 12.1738 10.2734 12.0576 10.2734 11.8252V7.04004C10.4056 7.0765 10.5378 7.14486 10.6699 7.24512C10.8066 7.34538 10.9502 7.47298 11.1006 7.62793L14.751 11.3467C14.9059 11.5016 15.0244 11.6452 15.1064 11.7773C15.1885 11.9095 15.2477 12.0417 15.2842 12.1738H10.6289ZM16.3369 17.2461V13.2949C16.3369 12.8301 16.2799 12.3949 16.166 11.9893C16.0566 11.5791 15.8105 11.1826 15.4277 10.7998L11.5449 6.92383C11.1621 6.54102 10.7702 6.28125 10.3691 6.14453C9.9681 6.00781 9.52832 5.93945 9.0498 5.93945H8.05859V5.5498C8.05859 4.86621 8.23861 4.34668 8.59863 3.99121C8.95866 3.63574 9.48503 3.45801 10.1777 3.45801H13.8213V7.49805C13.8213 7.85352 13.917 8.12923 14.1084 8.3252C14.3044 8.5166 14.5824 8.6123 14.9424 8.6123H18.7227V15.0996C18.7227 15.4551 18.6771 15.7673 18.5859 16.0361C18.4993 16.305 18.3672 16.5283 18.1895 16.7061C18.0117 16.8838 17.7907 17.0182 17.5264 17.1094C17.262 17.2005 16.9544 17.2461 16.6035 17.2461H16.3369ZM15.0723 7.75781C14.8171 7.75781 14.6895 7.62565 14.6895 7.36133L14.6826 3.73828C14.7874 3.75195 14.89 3.79525 14.9902 3.86816C15.0951 3.94108 15.2067 4.03906 15.3252 4.16211L18.2168 7.1084C18.3398 7.23145 18.4355 7.3431 18.5039 7.44336C18.5768 7.54362 18.6224 7.64844 18.6406 7.75781H15.0723Z" fill="#141414"/>
</svg>
