<svg width="24" height="24" viewBox="0 0 24 24" fill="none" xmlns="http://www.w3.org/2000/svg">
<path d="M9.48341 15.5166L18.3584 6.6416C18.5282 6.47493 18.7262 6.3916 18.9524 6.3916C19.1787 6.3916 19.3752 6.47519 19.5419 6.64235C19.7086 6.80969 19.7919 7.00827 19.7919 7.2381C19.7919 7.4681 19.7086 7.66644 19.5419 7.8331L10.0669 17.3166C9.90024 17.4833 9.70574 17.5666 9.48341 17.5666C9.26124 17.5666 9.06682 17.4833 8.90016 17.3166L4.43341 12.8499C4.26674 12.6825 4.18757 12.4837 4.19591 12.2534C4.20424 12.0232 4.29207 11.8248 4.45941 11.6581C4.62657 11.4914 4.82516 11.4081 5.05516 11.4081C5.28516 11.4081 5.48349 11.4914 5.65016 11.6581L9.48341 15.5166Z" fill="currentColor"/>
</svg>
