<svg width="24" height="24" viewBox="0 0 24 24" fill="none" xmlns="http://www.w3.org/2000/svg">
<mask id="mask0_4911_710095" style="mask-type:alpha" maskUnits="userSpaceOnUse" x="0" y="0" width="24" height="24">
<rect width="24" height="24" fill="#D9D9D9"/>
</mask>
<g mask="url(#mask0_4911_710095)">
<path d="M1.92316 12.8772C1.7745 12.7284 1.70116 12.5543 1.70316 12.355C1.705 12.1556 1.7835 11.9784 1.93866 11.8232C2.09383 11.6784 2.2695 11.6034 2.46566 11.5982C2.66166 11.5932 2.83725 11.6682 2.99241 11.8232L6.71566 15.5465L6.96566 15.2965C7.063 15.3426 7.16525 15.4 7.27242 15.4685C7.37942 15.5371 7.48483 15.6234 7.58867 15.7272C7.74383 15.8822 7.81883 16.0578 7.81366 16.254C7.8085 16.4501 7.72833 16.6258 7.57317 16.781L7.33291 17.0215C7.15208 17.192 6.94116 17.2797 6.70016 17.2847C6.45916 17.2899 6.24825 17.2021 6.06741 17.0215L1.92316 12.8772ZM12.3502 15.531L21.0232 6.85798C21.172 6.70931 21.3461 6.6359 21.5454 6.63773C21.7447 6.63973 21.922 6.71823 22.0772 6.87323C22.222 7.0284 22.297 7.20406 22.3022 7.40023C22.3072 7.5964 22.2322 7.77206 22.0772 7.92723L12.9829 17.0215C12.8021 17.2021 12.5912 17.2925 12.3502 17.2925C12.1092 17.2925 11.8982 17.2021 11.7174 17.0215L7.57317 12.8772C7.43483 12.7387 7.364 12.5672 7.36067 12.3627C7.3575 12.1582 7.42833 11.9784 7.57317 11.8232C7.72833 11.6682 7.90658 11.5907 8.10791 11.5907C8.30908 11.5907 8.48725 11.6682 8.64242 11.8232L12.3502 15.531ZM16.4117 7.94248L12.5309 11.8232C12.3924 11.9617 12.2209 12.0326 12.0164 12.0357C11.8119 12.0391 11.6322 11.9682 11.4772 11.8232C11.322 11.6682 11.2444 11.4901 11.2444 11.2887C11.2444 11.0874 11.322 10.9092 11.4772 10.7542L15.3579 6.87323C15.4964 6.7349 15.6678 6.66406 15.8722 6.66073C16.0767 6.65756 16.2565 6.7284 16.4117 6.87323C16.5668 7.0284 16.6444 7.20665 16.6444 7.40798C16.6444 7.60915 16.5668 7.78731 16.4117 7.94248Z" fill="currentColor"/>
</g>
</svg>
