<svg width="24" height="24" viewBox="0 0 24 24" fill="none" xmlns="http://www.w3.org/2000/svg">
<mask id="mask0_4911_709989" style="mask-type:alpha" maskUnits="userSpaceOnUse" x="0" y="0" width="24" height="24">
<rect width="24" height="24" fill="#D9D9D9"/>
</mask>
<g mask="url(#mask0_4911_709989)">
<path d="M9.55123 15.515L18.1897 6.87653C18.3384 6.7277 18.5124 6.6517 18.7117 6.64853C18.9111 6.64537 19.0883 6.72137 19.2435 6.87653C19.3986 7.0317 19.4762 7.20987 19.4762 7.41103C19.4762 7.61237 19.3986 7.79061 19.2435 7.94578L10.184 17.0208C10.0031 17.2014 9.79223 17.2918 9.55123 17.2918C9.31023 17.2918 9.09931 17.2014 8.91848 17.0208L4.74348 12.8458C4.59481 12.6969 4.52148 12.5203 4.52348 12.3158C4.52531 12.1114 4.60381 11.9317 4.75898 11.7765C4.91414 11.6214 5.09231 11.5438 5.29348 11.5438C5.49481 11.5438 5.67306 11.6214 5.82823 11.7765L9.55123 15.515Z" fill="#141414"/>
</g>
</svg>
