<svg width="24" height="24" viewBox="0 0 24 24" fill="none" xmlns="http://www.w3.org/2000/svg">
<path d="M5.88281 13.8359C5.60677 13.8359 5.35677 13.7708 5.13281 13.6406C4.90885 13.5052 4.72917 13.3255 4.59375 13.1016C4.46354 12.8776 4.39844 12.6302 4.39844 12.3594C4.39844 12.0833 4.46354 11.8333 4.59375 11.6094C4.72917 11.3854 4.90885 11.2083 5.13281 11.0781C5.35677 10.9427 5.60677 10.875 5.88281 10.875C6.15365 10.875 6.40104 10.9427 6.625 11.0781C6.84896 11.2083 7.02604 11.3854 7.15625 11.6094C7.29167 11.8333 7.35938 12.0833 7.35938 12.3594C7.35938 12.6302 7.29167 12.8776 7.15625 13.1016C7.02604 13.3255 6.84896 13.5052 6.625 13.6406C6.40104 13.7708 6.15365 13.8359 5.88281 13.8359ZM11.6875 13.8359C11.4115 13.8359 11.1615 13.7708 10.9375 13.6406C10.7135 13.5052 10.5339 13.3255 10.3984 13.1016C10.2682 12.8776 10.2031 12.6302 10.2031 12.3594C10.2031 12.0833 10.2682 11.8333 10.3984 11.6094C10.5339 11.3854 10.7135 11.2083 10.9375 11.0781C11.1615 10.9427 11.4115 10.875 11.6875 10.875C11.9583 10.875 12.2057 10.9427 12.4297 11.0781C12.6536 11.2083 12.8307 11.3854 12.9609 11.6094C13.0964 11.8333 13.1641 12.0833 13.1641 12.3594C13.1641 12.6302 13.0964 12.8776 12.9609 13.1016C12.8307 13.3255 12.6536 13.5052 12.4297 13.6406C12.2057 13.7708 11.9583 13.8359 11.6875 13.8359ZM17.4922 13.8359C17.2161 13.8359 16.9661 13.7708 16.7422 13.6406C16.5182 13.5052 16.3385 13.3255 16.2031 13.1016C16.0729 12.8776 16.0078 12.6302 16.0078 12.3594C16.0078 12.0833 16.0729 11.8333 16.2031 11.6094C16.3385 11.3854 16.5182 11.2083 16.7422 11.0781C16.9661 10.9427 17.2161 10.875 17.4922 10.875C17.763 10.875 18.0104 10.9427 18.2344 11.0781C18.4583 11.2083 18.638 11.3854 18.7734 11.6094C18.9089 11.8333 18.9766 12.0833 18.9766 12.3594C18.9766 12.6302 18.9089 12.8776 18.7734 13.1016C18.638 13.3255 18.4583 13.5052 18.2344 13.6406C18.0104 13.7708 17.763 13.8359 17.4922 13.8359Z" fill="currentColor"/>
</svg>
