<svg width="24" height="24" viewBox="0 0 24 24" fill="none" xmlns="http://www.w3.org/2000/svg">
<path d="M11.9873 12.8301C11.764 12.8301 11.5452 12.7367 11.3311 12.5498L4.50195 6.53418C4.86654 6.2972 5.3291 6.17871 5.88965 6.17871H18.0918C18.6523 6.17871 19.1126 6.2972 19.4727 6.53418L12.6436 12.5498C12.4339 12.7367 12.2152 12.8301 11.9873 12.8301ZM3.9209 16.8564C3.86621 16.7288 3.82292 16.583 3.79102 16.4189C3.75911 16.2549 3.74316 16.0635 3.74316 15.8447V8.29785C3.74316 8.06087 3.75911 7.85807 3.79102 7.68945C3.82747 7.52083 3.86621 7.40234 3.90723 7.33398L8.97949 11.8047L3.9209 16.8564ZM5.68457 17.9639C5.43392 17.9639 5.21061 17.9365 5.01465 17.8818C4.82324 17.8271 4.66374 17.7542 4.53613 17.6631L9.73828 12.4609L10.7363 13.3496C10.9368 13.5228 11.1419 13.6549 11.3516 13.7461C11.5612 13.8327 11.7731 13.876 11.9873 13.876C12.2015 13.876 12.4134 13.8327 12.623 13.7461C12.8372 13.6549 13.0446 13.5228 13.2451 13.3496L14.2432 12.4609L19.4453 17.6631C19.3177 17.7542 19.1559 17.8271 18.96 17.8818C18.7686 17.9365 18.5475 17.9639 18.2969 17.9639H5.68457ZM20.0605 16.8564L15.002 11.8047L20.0742 7.33398C20.1107 7.40234 20.1471 7.52083 20.1836 7.68945C20.2201 7.85807 20.2383 8.06087 20.2383 8.29785V15.8447C20.2383 16.0635 20.2201 16.2549 20.1836 16.4189C20.1517 16.583 20.1107 16.7288 20.0605 16.8564Z" fill="#141414"/>
</svg>
