<svg width="24" height="24" viewBox="0 0 24 24" fill="none" xmlns="http://www.w3.org/2000/svg">
<path d="M5.88965 17.9639C5.17871 17.9639 4.64323 17.7861 4.2832 17.4307C3.92318 17.0752 3.74316 16.5465 3.74316 15.8447V8.29785C3.74316 7.59147 3.91406 7.06283 4.25586 6.71191C4.59766 6.35645 5.07389 6.17871 5.68457 6.17871H18.0918C18.8027 6.17871 19.3382 6.35645 19.6982 6.71191C20.0583 7.06283 20.2383 7.59147 20.2383 8.29785V15.8447C20.2383 16.5465 20.0674 17.0752 19.7256 17.4307C19.3838 17.7861 18.9076 17.9639 18.2969 17.9639H5.88965ZM5.84863 16.918H18.126C18.4678 16.918 18.7298 16.8268 18.9121 16.6445C19.099 16.4622 19.1924 16.1956 19.1924 15.8447V8.29785C19.1924 7.94694 19.099 7.68034 18.9121 7.49805C18.7298 7.31576 18.4678 7.22461 18.126 7.22461H5.84863C5.51139 7.22461 5.24935 7.31576 5.0625 7.49805C4.88021 7.68034 4.78906 7.94466 4.78906 8.29102V15.8379C4.78906 16.1934 4.88021 16.4622 5.0625 16.6445C5.24935 16.8268 5.51139 16.918 5.84863 16.918ZM11.9873 13.8691C11.7686 13.8691 11.5544 13.8281 11.3447 13.7461C11.1351 13.6595 10.9323 13.5273 10.7363 13.3496L4.30371 7.55957L5.01465 6.8418L11.3311 12.5361C11.5407 12.723 11.7594 12.8164 11.9873 12.8164C12.2197 12.8164 12.4385 12.723 12.6436 12.5361L18.96 6.8418L19.6709 7.55957L13.2383 13.3496C13.0423 13.5273 12.8395 13.6595 12.6299 13.7461C12.4202 13.8281 12.2061 13.8691 11.9873 13.8691ZM5.11719 17.0889L4.40625 16.3711L9.25977 11.5176L9.9707 12.2285L5.11719 17.0889ZM18.8711 17.0957L14.0039 12.2285L14.7217 11.5176L19.582 16.3779L18.8711 17.0957Z" fill="#141414"/>
</svg>
