<svg width="24" height="24" viewBox="0 0 24 24" fill="none" xmlns="http://www.w3.org/2000/svg">
<path d="M5.72656 19.7422C5.28385 19.7422 4.90365 19.6484 4.58594 19.4609C4.26823 19.2734 4.02344 19.0182 3.85156 18.6953C3.67969 18.3776 3.59375 18.0208 3.59375 17.625C3.59375 17.2448 3.69531 16.8802 3.89844 16.5312L9.96094 5.96875C10.1589 5.61458 10.4219 5.34896 10.75 5.17188C11.0781 4.98958 11.4219 4.89844 11.7812 4.89844C12.1406 4.89844 12.4818 4.98958 12.8047 5.17188C13.1328 5.34896 13.3984 5.61458 13.6016 5.96875L19.6641 16.5312C19.763 16.7031 19.8385 16.8828 19.8906 17.0703C19.9427 17.2578 19.9688 17.4427 19.9688 17.625C19.9688 18.0208 19.8828 18.3776 19.7109 18.6953C19.5391 19.0182 19.2943 19.2734 18.9766 19.4609C18.6589 19.6484 18.2786 19.7422 17.8359 19.7422H5.72656ZM5.73438 18.5156H17.8203C18.0911 18.5156 18.3047 18.4245 18.4609 18.2422C18.6224 18.0651 18.7031 17.8568 18.7031 17.6172C18.7031 17.4505 18.6615 17.2865 18.5781 17.125L12.5234 6.5625C12.4401 6.41667 12.3307 6.3125 12.1953 6.25C12.0651 6.18229 11.9271 6.14844 11.7812 6.14844C11.6354 6.14844 11.4948 6.18229 11.3594 6.25C11.224 6.3125 11.1146 6.41667 11.0312 6.5625L4.97656 17.1172C4.9349 17.2005 4.90365 17.2865 4.88281 17.375C4.86719 17.4635 4.85938 17.5443 4.85938 17.6172C4.85938 17.8568 4.9375 18.0651 5.09375 18.2422C5.25 18.4245 5.46354 18.5156 5.73438 18.5156ZM11.7812 14.4688C11.3802 14.4688 11.1745 14.263 11.1641 13.8516L11.0625 9.71875C11.0573 9.52083 11.1198 9.35677 11.25 9.22656C11.3854 9.09635 11.5599 9.03125 11.7734 9.03125C11.9818 9.03125 12.1536 9.09896 12.2891 9.23438C12.4297 9.36458 12.4974 9.52865 12.4922 9.72656L12.375 13.8516C12.3698 14.263 12.1719 14.4688 11.7812 14.4688ZM11.7812 17.0078C11.5521 17.0078 11.3542 16.9297 11.1875 16.7734C11.0208 16.612 10.9375 16.4193 10.9375 16.1953C10.9375 15.9714 11.0208 15.7812 11.1875 15.625C11.3542 15.4635 11.5521 15.3828 11.7812 15.3828C12.0104 15.3828 12.2083 15.4609 12.375 15.6172C12.5417 15.7734 12.625 15.9661 12.625 16.1953C12.625 16.4245 12.5391 16.6172 12.3672 16.7734C12.2005 16.9297 12.0052 17.0078 11.7812 17.0078Z" fill="currentColor"/>
</svg>
