<svg width="24" height="24" viewBox="0 0 24 24" fill="none" xmlns="http://www.w3.org/2000/svg">
<path d="M12.3672 20.3281C11.2786 20.3281 10.2526 20.1198 9.28906 19.7031C8.33073 19.2865 7.48438 18.7109 6.75 17.9766C6.01562 17.2422 5.4401 16.3958 5.02344 15.4375C4.60677 14.474 4.39844 13.4479 4.39844 12.3594C4.39844 11.2708 4.60677 10.2474 5.02344 9.28906C5.4401 8.32552 6.01302 7.47656 6.74219 6.74219C7.47656 6.00781 8.32292 5.43229 9.28125 5.01562C10.2448 4.59896 11.2708 4.39062 12.3594 4.39062C13.4479 4.39062 14.474 4.59896 15.4375 5.01562C16.401 5.43229 17.25 6.00781 17.9844 6.74219C18.7188 7.47656 19.2943 8.32552 19.7109 9.28906C20.1276 10.2474 20.3359 11.2708 20.3359 12.3594C20.3359 13.4479 20.1276 14.474 19.7109 15.4375C19.2943 16.3958 18.7188 17.2422 17.9844 17.9766C17.25 18.7109 16.401 19.2865 15.4375 19.7031C14.4792 20.1198 13.4557 20.3281 12.3672 20.3281ZM12.3672 13.8125C12.7734 13.8125 12.9792 13.599 12.9844 13.1719L13.1016 8.92188C13.1068 8.71875 13.0365 8.54948 12.8906 8.41406C12.75 8.27344 12.5729 8.20312 12.3594 8.20312C12.1406 8.20312 11.9609 8.27083 11.8203 8.40625C11.6849 8.54167 11.6198 8.71094 11.625 8.91406L11.7266 13.1719C11.737 13.599 11.9505 13.8125 12.3672 13.8125ZM12.3672 16.4297C12.6016 16.4297 12.8047 16.349 12.9766 16.1875C13.1536 16.026 13.2422 15.8281 13.2422 15.5938C13.2422 15.3594 13.1536 15.1615 12.9766 15C12.8047 14.8333 12.6016 14.75 12.3672 14.75C12.1276 14.75 11.9219 14.8333 11.75 15C11.5781 15.1667 11.4922 15.3646 11.4922 15.5938C11.4922 15.8281 11.5781 16.026 11.75 16.1875C11.9271 16.349 12.1328 16.4297 12.3672 16.4297Z" fill="currentColor"/>
</svg>
