<svg width="24" height="24" viewBox="0 0 24 24" fill="none" xmlns="http://www.w3.org/2000/svg">
<path d="M11.7393 17.9295C10.8278 17.9295 9.96419 17.8178 9.14844 17.5945C8.33724 17.3758 7.58301 17.0864 6.88574 16.7264C6.19303 16.3618 5.57096 15.9607 5.01953 15.5232C4.4681 15.0857 3.99642 14.6482 3.60449 14.2107C3.21257 13.7687 2.91178 13.3608 2.70215 12.9871C2.49707 12.6088 2.39453 12.3035 2.39453 12.0711C2.39453 11.866 2.47656 11.604 2.64062 11.285C2.80469 10.9614 3.04167 10.6082 3.35156 10.2254C3.66602 9.84257 4.04655 9.4552 4.49316 9.06327C4.94434 8.66679 5.45475 8.29309 6.02441 7.94218L6.87207 8.78984C6.36621 9.09062 5.91048 9.40735 5.50488 9.74003C5.10384 10.0727 4.75977 10.394 4.47266 10.7039C4.1901 11.0138 3.97135 11.2895 3.81641 11.531C3.66602 11.7726 3.59082 11.9526 3.59082 12.0711C3.59082 12.2306 3.68652 12.4585 3.87793 12.7547C4.06934 13.0509 4.34277 13.379 4.69824 13.7391C5.05827 14.0945 5.48438 14.4545 5.97656 14.8191C6.46875 15.1837 7.0179 15.521 7.62402 15.8309C8.23014 16.1362 8.87956 16.3823 9.57227 16.5691C10.265 16.756 10.9873 16.8494 11.7393 16.8494C12.1995 16.8494 12.6462 16.8129 13.0791 16.74C13.512 16.6671 13.9313 16.5691 14.3369 16.4461L15.2324 17.3416C14.7038 17.5239 14.1478 17.6674 13.5645 17.7723C12.9811 17.8771 12.3727 17.9295 11.7393 17.9295ZM11.7393 6.21269C12.6598 6.21269 13.528 6.32434 14.3438 6.54765C15.1641 6.7664 15.9206 7.05806 16.6133 7.42265C17.306 7.78267 17.9258 8.18144 18.4727 8.61894C19.0241 9.05644 19.4935 9.49622 19.8809 9.93827C20.2682 10.3758 20.5645 10.7837 20.7695 11.1619C20.9746 11.5356 21.0771 11.8387 21.0771 12.0711C21.0771 12.2716 20.9974 12.5291 20.8379 12.8435C20.6829 13.158 20.4574 13.5021 20.1611 13.8758C19.8649 14.2449 19.5026 14.6232 19.0742 15.0105C18.6504 15.3979 18.1696 15.767 17.6318 16.118L16.791 15.2771C17.265 14.9855 17.6911 14.6824 18.0693 14.368C18.4476 14.0535 18.7712 13.7482 19.04 13.4519C19.3135 13.1512 19.5208 12.8823 19.6621 12.6453C19.8079 12.4038 19.8809 12.2124 19.8809 12.0711C19.8809 11.9344 19.7829 11.7247 19.5869 11.4422C19.3955 11.1596 19.1221 10.8383 18.7666 10.4783C18.4111 10.1137 17.9873 9.74687 17.4951 9.37773C17.0029 9.00859 16.4538 8.66679 15.8477 8.35234C15.2415 8.03333 14.5921 7.77812 13.8994 7.58671C13.2067 7.39075 12.4867 7.29277 11.7393 7.29277C11.3154 7.29277 10.9076 7.32467 10.5156 7.38847C10.1283 7.45227 9.74544 7.53886 9.36719 7.64823L8.46484 6.75273C8.9707 6.58411 9.49251 6.45195 10.0303 6.35624C10.5726 6.26054 11.1423 6.21269 11.7393 6.21269ZM11.7393 15.8992C11.2015 15.8992 10.7002 15.799 10.2354 15.5984C9.77051 15.3979 9.36263 15.1222 9.01172 14.7713C8.66081 14.4158 8.38737 14.0079 8.19141 13.5476C7.99544 13.0828 7.89518 12.5906 7.89062 12.0711C7.89062 11.7657 7.9248 11.4718 7.99316 11.1892C8.06152 10.9021 8.15951 10.631 8.28711 10.3758L13.4141 15.5027C13.1589 15.6258 12.89 15.7238 12.6074 15.7967C12.3294 15.865 12.04 15.8992 11.7393 15.8992ZM15.2461 13.5682L10.2354 8.55741C10.4632 8.45715 10.7025 8.37968 10.9531 8.32499C11.2083 8.2703 11.4704 8.24296 11.7393 8.24296C12.2679 8.24296 12.7646 8.34094 13.2295 8.53691C13.6943 8.73287 14.1022 9.00631 14.4531 9.35722C14.804 9.70357 15.0775 10.1092 15.2734 10.574C15.474 11.0389 15.5742 11.5379 15.5742 12.0711C15.5742 12.3354 15.5446 12.5952 15.4854 12.8504C15.4307 13.101 15.3509 13.3403 15.2461 13.5682ZM17.0576 17.991L5.62109 6.56816C5.52083 6.4679 5.4707 6.34485 5.4707 6.19902C5.4707 6.04862 5.52083 5.9233 5.62109 5.82304C5.72591 5.71822 5.85124 5.66809 5.99707 5.67265C6.14746 5.67265 6.27279 5.72278 6.37305 5.82304L17.8027 17.2459C17.9076 17.3507 17.9622 17.4715 17.9668 17.6082C17.9714 17.7495 17.9167 17.8771 17.8027 17.991C17.6979 18.1049 17.5726 18.1596 17.4268 18.1551C17.2855 18.1505 17.1624 18.0958 17.0576 17.991Z" fill="currentColor"/>
</svg>
