<svg width="24" height="24" viewBox="0 0 24 24" fill="none" xmlns="http://www.w3.org/2000/svg">
<path d="M11.7393 17.8818C10.8369 17.8818 9.98242 17.7725 9.17578 17.5537C8.36914 17.335 7.62174 17.0456 6.93359 16.6855C6.24544 16.3255 5.62565 15.929 5.07422 15.4961C4.52734 15.0632 4.05794 14.6279 3.66602 14.1904C3.27865 13.7529 2.98242 13.3496 2.77734 12.9805C2.57227 12.6068 2.46973 12.3037 2.46973 12.0713C2.46973 11.8389 2.57227 11.5381 2.77734 11.1689C2.98242 10.7952 3.27865 10.3896 3.66602 9.95215C4.05794 9.51465 4.52734 9.07943 5.07422 8.64648C5.62565 8.21354 6.24544 7.81706 6.93359 7.45703C7.62174 7.09701 8.36914 6.80762 9.17578 6.58887C9.98242 6.37012 10.8369 6.26074 11.7393 6.26074C12.6507 6.26074 13.5098 6.37012 14.3164 6.58887C15.1276 6.80762 15.8773 7.09701 16.5654 7.45703C17.2536 7.81706 17.8711 8.21354 18.418 8.64648C18.9648 9.07943 19.4297 9.51465 19.8125 9.95215C20.1999 10.3896 20.4938 10.7952 20.6943 11.1689C20.8994 11.5381 21.002 11.8389 21.002 12.0713C21.002 12.3037 20.8994 12.6068 20.6943 12.9805C20.4938 13.3496 20.1999 13.7529 19.8125 14.1904C19.4297 14.6279 18.9648 15.0632 18.418 15.4961C17.8757 15.929 17.2604 16.3255 16.5723 16.6855C15.8841 17.0456 15.1344 17.335 14.3232 17.5537C13.512 17.7725 12.6507 17.8818 11.7393 17.8818ZM11.7393 15.8789C12.2679 15.8789 12.7624 15.7809 13.2227 15.585C13.6875 15.3844 14.0931 15.1087 14.4395 14.7578C14.7904 14.4023 15.0638 13.9967 15.2598 13.541C15.4603 13.0807 15.5605 12.5908 15.5605 12.0713C15.5605 11.5381 15.4603 11.0413 15.2598 10.5811C15.0638 10.1208 14.7904 9.71745 14.4395 9.37109C14.0931 9.02018 13.6875 8.74902 13.2227 8.55762C12.7624 8.36165 12.2679 8.26367 11.7393 8.26367C11.2061 8.26367 10.707 8.36165 10.2422 8.55762C9.7819 8.74902 9.3763 9.02018 9.02539 9.37109C8.67448 9.71745 8.40104 10.1208 8.20508 10.5811C8.00911 11.0413 7.91113 11.5381 7.91113 12.0713C7.91113 12.5908 8.00911 13.0807 8.20508 13.541C8.4056 13.9967 8.67904 14.4023 9.02539 14.7578C9.3763 15.1087 9.7819 15.3844 10.2422 15.585C10.707 15.7809 11.2061 15.8789 11.7393 15.8789ZM11.7393 13.4453C11.3564 13.4453 11.0283 13.3109 10.7549 13.042C10.4814 12.7686 10.3447 12.445 10.3447 12.0713C10.3447 11.693 10.4814 11.3695 10.7549 11.1006C11.0283 10.8271 11.3564 10.6904 11.7393 10.6904C12.1175 10.6904 12.4434 10.8271 12.7168 11.1006C12.9902 11.3695 13.127 11.693 13.127 12.0713C13.127 12.445 12.9902 12.7686 12.7168 13.042C12.4434 13.3109 12.1175 13.4453 11.7393 13.4453Z" fill="currentColor"/>
</svg>
