<svg width="24" height="24" viewBox="0 0 24 24" fill="none" xmlns="http://www.w3.org/2000/svg">
<path d="M11.7393 17.8816C10.8369 17.8816 9.98242 17.7723 9.17578 17.5535C8.36914 17.3348 7.62174 17.0454 6.93359 16.6853C6.24544 16.3253 5.62565 15.9288 5.07422 15.4959C4.52734 15.0629 4.05794 14.6277 3.66602 14.1902C3.27865 13.7527 2.98242 13.3494 2.77734 12.9803C2.57227 12.6066 2.46973 12.3035 2.46973 12.0711C2.46973 11.866 2.54948 11.604 2.70898 11.285C2.87305 10.9659 3.10775 10.6173 3.41309 10.2391C3.71842 9.8608 4.08529 9.48027 4.51367 9.09745C4.94661 8.71008 5.43197 8.34778 5.96973 8.01054L8.30762 10.3621C8.18001 10.6173 8.08203 10.8907 8.01367 11.1824C7.94531 11.4695 7.91113 11.7657 7.91113 12.0711C7.91113 12.5906 8.00911 13.0805 8.20508 13.5408C8.4056 13.9965 8.67904 14.4021 9.02539 14.7576C9.3763 15.1085 9.7819 15.3842 10.2422 15.5848C10.707 15.7807 11.2061 15.8787 11.7393 15.8787C12.04 15.8787 12.3317 15.8445 12.6143 15.7762C12.9014 15.7078 13.1702 15.6075 13.4209 15.4754L15.2119 17.2664C14.6969 17.4578 14.1478 17.6082 13.5645 17.7176C12.9811 17.8269 12.3727 17.8816 11.7393 17.8816ZM17.7002 16.0154L15.2393 13.5271C15.3441 13.3084 15.4238 13.076 15.4785 12.8299C15.5332 12.5838 15.5605 12.3309 15.5605 12.0711C15.5605 11.5379 15.4603 11.0411 15.2598 10.5809C15.0638 10.1206 14.7904 9.71724 14.4395 9.37089C14.0931 9.01998 13.6875 8.74882 13.2227 8.55741C12.7624 8.36145 12.2679 8.26347 11.7393 8.26347C11.4749 8.26347 11.2197 8.29081 10.9736 8.3455C10.7275 8.39563 10.4928 8.46855 10.2695 8.56425L8.49219 6.78691C8.98893 6.62284 9.50846 6.49524 10.0508 6.40409C10.5931 6.30839 11.1559 6.26054 11.7393 6.26054C12.6507 6.26054 13.5098 6.36991 14.3164 6.58866C15.1276 6.80741 15.8773 7.0968 16.5654 7.45683C17.2536 7.81685 17.8711 8.21334 18.418 8.64628C18.9648 9.07922 19.4297 9.51444 19.8125 9.95194C20.1999 10.3894 20.4938 10.795 20.6943 11.1687C20.8994 11.5379 21.002 11.8387 21.002 12.0711C21.002 12.3445 20.8652 12.7068 20.5918 13.158C20.3184 13.6092 19.9333 14.09 19.4365 14.6004C18.9443 15.1062 18.3656 15.5779 17.7002 16.0154ZM9.55859 11.9139C9.55859 11.8683 9.55859 11.8204 9.55859 11.7703C9.56315 11.7202 9.56771 11.67 9.57227 11.6199L12.0264 14.074C11.9762 14.0786 11.9284 14.0831 11.8828 14.0877C11.8372 14.0877 11.7917 14.0877 11.7461 14.0877C11.3451 14.0877 10.9782 13.9897 10.6455 13.7937C10.3174 13.5978 10.0531 13.3357 9.85254 13.0076C9.65658 12.6795 9.55859 12.3149 9.55859 11.9139ZM13.9131 11.9275C13.9131 11.9731 13.9108 12.0187 13.9062 12.0642C13.9062 12.1098 13.904 12.1531 13.8994 12.1941L11.4795 9.77421C11.5205 9.76965 11.5615 9.76737 11.6025 9.76737C11.6481 9.76282 11.6937 9.76054 11.7393 9.76054C12.1449 9.76054 12.5117 9.85852 12.8398 10.0545C13.168 10.2459 13.4277 10.5079 13.6191 10.8406C13.8151 11.1687 13.9131 11.531 13.9131 11.9275ZM17.0576 17.991L5.62109 6.56816C5.52083 6.4679 5.4707 6.34485 5.4707 6.19902C5.4707 6.04862 5.52083 5.9233 5.62109 5.82304C5.72591 5.71822 5.85124 5.66809 5.99707 5.67265C6.14746 5.67265 6.27279 5.72278 6.37305 5.82304L17.8027 17.2459C17.9076 17.3507 17.9622 17.4715 17.9668 17.6082C17.9714 17.7495 17.9167 17.8771 17.8027 17.991C17.6979 18.1049 17.5726 18.1596 17.4268 18.1551C17.2855 18.1505 17.1624 18.0958 17.0576 17.991Z" fill="currentColor"/>
</svg>
