<svg width="24" height="24" viewBox="0 0 24 24" fill="none" xmlns="http://www.w3.org/2000/svg">
<path d="M11.7393 17.9297C10.8278 17.9297 9.96419 17.818 9.14844 17.5947C8.33724 17.376 7.58301 17.0866 6.88574 16.7266C6.19303 16.362 5.57096 15.9609 5.01953 15.5234C4.4681 15.0859 3.99642 14.6484 3.60449 14.2109C3.21257 13.7689 2.91178 13.361 2.70215 12.9873C2.49707 12.609 2.39453 12.3037 2.39453 12.0713C2.39453 11.8389 2.49707 11.5358 2.70215 11.1621C2.91178 10.7839 3.21257 10.376 3.60449 9.93848C3.99642 9.49642 4.4681 9.05664 5.01953 8.61914C5.57552 8.18164 6.19987 7.78288 6.89258 7.42285C7.58984 7.05827 8.34408 6.7666 9.15527 6.54785C9.97103 6.32454 10.8324 6.21289 11.7393 6.21289C12.6553 6.21289 13.5212 6.32454 14.3369 6.54785C15.1572 6.7666 15.9137 7.05827 16.6064 7.42285C17.3037 7.78288 17.9258 8.18164 18.4727 8.61914C19.0241 9.05664 19.4935 9.49642 19.8809 9.93848C20.2682 10.376 20.5645 10.7839 20.7695 11.1621C20.9746 11.5358 21.0771 11.8389 21.0771 12.0713C21.0771 12.3037 20.9746 12.609 20.7695 12.9873C20.5645 13.361 20.2682 13.7689 19.8809 14.2109C19.4935 14.6484 19.0241 15.0859 18.4727 15.5234C17.9258 15.9609 17.306 16.362 16.6133 16.7266C15.9206 17.0866 15.1641 17.376 14.3438 17.5947C13.528 17.818 12.6598 17.9297 11.7393 17.9297ZM11.7393 16.8496C12.4867 16.8496 13.2044 16.7562 13.8926 16.5693C14.5853 16.3825 15.2347 16.1364 15.8408 15.8311C16.4469 15.5212 16.9961 15.1839 17.4883 14.8193C17.985 14.4548 18.4111 14.0947 18.7666 13.7393C19.1221 13.3792 19.3955 13.0511 19.5869 12.7549C19.7829 12.4587 19.8809 12.2308 19.8809 12.0713C19.8809 11.9346 19.7829 11.7249 19.5869 11.4424C19.3955 11.1598 19.1221 10.8385 18.7666 10.4785C18.4111 10.1139 17.985 9.74707 17.4883 9.37793C16.9961 9.00879 16.4469 8.66699 15.8408 8.35254C15.2347 8.03353 14.5853 7.77832 13.8926 7.58691C13.2044 7.39095 12.4867 7.29297 11.7393 7.29297C10.9873 7.29297 10.265 7.39095 9.57227 7.58691C8.87956 7.77832 8.23014 8.03353 7.62402 8.35254C7.0179 8.66699 6.46875 9.00879 5.97656 9.37793C5.48438 9.74707 5.05827 10.1139 4.69824 10.4785C4.34277 10.8385 4.06934 11.1598 3.87793 11.4424C3.68652 11.7249 3.59082 11.9346 3.59082 12.0713C3.59082 12.2308 3.68652 12.4587 3.87793 12.7549C4.06934 13.0511 4.34277 13.3792 4.69824 13.7393C5.05827 14.0947 5.48438 14.4548 5.97656 14.8193C6.46875 15.1839 7.0179 15.5212 7.62402 15.8311C8.23014 16.1364 8.87956 16.3825 9.57227 16.5693C10.265 16.7562 10.9873 16.8496 11.7393 16.8496ZM11.7393 15.8994C11.2015 15.8994 10.7002 15.7992 10.2354 15.5986C9.77051 15.3981 9.36263 15.1224 9.01172 14.7715C8.66081 14.416 8.38509 14.0081 8.18457 13.5479C7.98861 13.083 7.89062 12.5908 7.89062 12.0713C7.89062 11.5381 7.98861 11.0391 8.18457 10.5742C8.38509 10.1094 8.66081 9.70378 9.01172 9.35742C9.36263 9.00651 9.77051 8.73307 10.2354 8.53711C10.7002 8.34115 11.2015 8.24316 11.7393 8.24316C12.2679 8.24316 12.7646 8.34115 13.2295 8.53711C13.6943 8.73307 14.1022 9.00651 14.4531 9.35742C14.804 9.70378 15.0775 10.1094 15.2734 10.5742C15.474 11.0391 15.5742 11.5381 15.5742 12.0713C15.5742 12.5908 15.474 13.083 15.2734 13.5479C15.0775 14.0081 14.804 14.416 14.4531 14.7715C14.1022 15.1224 13.6943 15.3981 13.2295 15.5986C12.7646 15.7992 12.2679 15.8994 11.7393 15.8994ZM11.7393 13.3428C12.0902 13.3428 12.391 13.2174 12.6416 12.9668C12.8923 12.7161 13.0176 12.4176 13.0176 12.0713C13.0176 11.7204 12.8923 11.4219 12.6416 11.1758C12.391 10.9251 12.0902 10.7998 11.7393 10.7998C11.3838 10.7998 11.0807 10.9251 10.8301 11.1758C10.5794 11.4219 10.4541 11.7204 10.4541 12.0713C10.4541 12.4176 10.5794 12.7161 10.8301 12.9668C11.0807 13.2174 11.3838 13.3428 11.7393 13.3428Z" fill="currentColor"/>
</svg>
