<svg width="24" height="24" viewBox="0 0 24 24" fill="none" xmlns="http://www.w3.org/2000/svg">
<path d="M12.3672 20.3281C11.2786 20.3281 10.2526 20.1198 9.28906 19.7031C8.33073 19.2865 7.48438 18.7109 6.75 17.9766C6.01562 17.2422 5.4401 16.3958 5.02344 15.4375C4.60677 14.474 4.39844 13.4479 4.39844 12.3594C4.39844 11.2708 4.60677 10.2474 5.02344 9.28906C5.4401 8.32552 6.01302 7.47656 6.74219 6.74219C7.47656 6.00781 8.32292 5.43229 9.28125 5.01562C10.2448 4.59896 11.2708 4.39062 12.3594 4.39062C13.4479 4.39062 14.474 4.59896 15.4375 5.01562C16.401 5.43229 17.25 6.00781 17.9844 6.74219C18.7188 7.47656 19.2943 8.32552 19.7109 9.28906C20.1276 10.2474 20.3359 11.2708 20.3359 12.3594C20.3359 13.4479 20.1276 14.474 19.7109 15.4375C19.2943 16.3958 18.7188 17.2422 17.9844 17.9766C17.25 18.7109 16.401 19.2865 15.4375 19.7031C14.4792 20.1198 13.4557 20.3281 12.3672 20.3281ZM12.3672 16.3828C12.9245 16.3828 13.4141 16.2812 13.8359 16.0781C14.263 15.875 14.5938 15.6432 14.8281 15.3828C15.0625 15.1224 15.1797 14.9036 15.1797 14.7266C15.1797 14.6276 15.1406 14.5599 15.0625 14.5234C14.9844 14.487 14.9036 14.487 14.8203 14.5234C14.5286 14.6849 14.1927 14.8411 13.8125 14.9922C13.4323 15.138 12.9505 15.2109 12.3672 15.2109C11.7786 15.2109 11.2943 15.1354 10.9141 14.9844C10.5391 14.8333 10.2031 14.6797 9.90625 14.5234C9.82292 14.487 9.74219 14.487 9.66406 14.5234C9.58594 14.5599 9.54688 14.6276 9.54688 14.7266C9.54688 14.9036 9.66406 15.1224 9.89844 15.3828C10.138 15.6432 10.4688 15.875 10.8906 16.0781C11.3125 16.2812 11.8047 16.3828 12.3672 16.3828ZM9.97656 11.625C10.2318 11.625 10.4557 11.5234 10.6484 11.3203C10.8464 11.112 10.9453 10.8464 10.9453 10.5234C10.9453 10.1953 10.849 9.92708 10.6562 9.71875C10.4635 9.51042 10.237 9.40625 9.97656 9.40625C9.72135 9.40625 9.5 9.51042 9.3125 9.71875C9.125 9.92708 9.03125 10.1953 9.03125 10.5234C9.03125 10.8464 9.125 11.112 9.3125 11.3203C9.50521 11.5234 9.72656 11.625 9.97656 11.625ZM14.75 11.625C15.0052 11.625 15.2292 11.5234 15.4219 11.3203C15.6198 11.112 15.7188 10.8464 15.7188 10.5234C15.7188 10.1953 15.6224 9.92708 15.4297 9.71875C15.237 9.51042 15.0104 9.40625 14.75 9.40625C14.4948 9.40625 14.2708 9.51042 14.0781 9.71875C13.8906 9.92708 13.7969 10.1953 13.7969 10.5234C13.7969 10.8464 13.8932 11.112 14.0859 11.3203C14.2786 11.5234 14.5 11.625 14.75 11.625Z" fill="#141414"/>
</svg>
