<svg width="24" height="24" viewBox="0 0 24 24" fill="none" xmlns="http://www.w3.org/2000/svg">
<path d="M10.9688 20.7109C10.6667 20.7109 10.4062 20.625 10.1875 20.4531C9.97396 20.2865 9.83333 20.0573 9.76562 19.7656L9.42188 18.3047L9.17188 18.2188L7.90625 19C7.65104 19.1615 7.38542 19.224 7.10938 19.1875C6.83333 19.151 6.58854 19.026 6.375 18.8125L5.28906 17.7266C5.07031 17.513 4.94271 17.2682 4.90625 16.9922C4.875 16.7161 4.9401 16.4531 5.10156 16.2031L5.89062 14.9375L5.80469 14.7031L4.34375 14.3594C4.05729 14.2917 3.82812 14.1484 3.65625 13.9297C3.48438 13.7109 3.39844 13.4531 3.39844 13.1562V11.6094C3.39844 11.3125 3.48177 11.0547 3.64844 10.8359C3.82031 10.6172 4.05208 10.474 4.34375 10.4062L5.78906 10.0547L5.88281 9.80469L5.09375 8.53906C4.93229 8.28906 4.86719 8.02865 4.89844 7.75781C4.9349 7.48177 5.0625 7.23438 5.28125 7.01562L6.36719 5.92188C6.58073 5.71354 6.82292 5.59115 7.09375 5.55469C7.36979 5.51823 7.63542 5.57812 7.89062 5.73438L9.15625 6.51562L9.42188 6.41406L9.76562 4.95312C9.83333 4.66667 9.97396 4.4375 10.1875 4.26562C10.4062 4.09375 10.6667 4.00781 10.9688 4.00781H12.5469C12.849 4.00781 13.1068 4.09375 13.3203 4.26562C13.5391 4.4375 13.6823 4.66667 13.75 4.95312L14.0859 6.41406L14.3516 6.51562L15.625 5.73438C15.875 5.57812 16.138 5.51823 16.4141 5.55469C16.6901 5.59115 16.9323 5.71354 17.1406 5.92188L18.2344 7.01562C18.4479 7.23438 18.5729 7.48177 18.6094 7.75781C18.6458 8.02865 18.5833 8.28906 18.4219 8.53906L17.625 9.80469L17.7266 10.0547L19.1719 10.4062C19.4583 10.474 19.6875 10.6172 19.8594 10.8359C20.0312 11.0547 20.1172 11.3125 20.1172 11.6094V13.1562C20.1172 13.4531 20.0312 13.7109 19.8594 13.9297C19.6875 14.1484 19.4583 14.2917 19.1719 14.3594L17.7109 14.7031L17.6172 14.9375L18.4141 16.2031C18.5755 16.4531 18.638 16.7161 18.6016 16.9922C18.5651 17.2682 18.4401 17.513 18.2266 17.7266L17.1328 18.8125C16.9193 19.026 16.6745 19.151 16.3984 19.1875C16.1224 19.224 15.8594 19.1615 15.6094 19L14.3359 18.2188L14.0859 18.3047L13.75 19.7656C13.6823 20.0573 13.5391 20.2865 13.3203 20.4531C13.1068 20.625 12.849 20.7109 12.5469 20.7109H10.9688ZM11.0938 19.4922H12.4219C12.5521 19.4922 12.625 19.4323 12.6406 19.3125L13.1172 17.375C13.3568 17.3177 13.5833 17.2448 13.7969 17.1562C14.0104 17.0625 14.2005 16.9635 14.3672 16.8594L16.0703 17.9062C16.1693 17.974 16.2682 17.9609 16.3672 17.8672L17.2812 16.9453C17.3698 16.8672 17.3802 16.7708 17.3125 16.6562L16.2656 14.9688C16.3594 14.8021 16.4505 14.612 16.5391 14.3984C16.6328 14.1849 16.7109 13.9583 16.7734 13.7188L18.7188 13.2578C18.8385 13.237 18.8984 13.1615 18.8984 13.0312V11.7266C18.8984 11.6016 18.8385 11.526 18.7188 11.5L16.7812 11.0312C16.7188 10.776 16.638 10.5391 16.5391 10.3203C16.4401 10.1016 16.3542 9.91927 16.2812 9.77344L17.3203 8.08594C17.3932 7.97135 17.3854 7.86979 17.2969 7.78125L16.375 6.875C16.2812 6.79167 16.1797 6.77865 16.0703 6.83594L14.375 7.86719C14.2031 7.77344 14.0104 7.68229 13.7969 7.59375C13.5885 7.5 13.362 7.42188 13.1172 7.35938L12.6406 5.40625C12.625 5.28646 12.5521 5.22656 12.4219 5.22656H11.0938C10.9635 5.22656 10.888 5.28646 10.8672 5.40625L10.4062 7.34375C10.1719 7.40625 9.9401 7.48438 9.71094 7.57812C9.48698 7.67188 9.29167 7.76562 9.125 7.85938L7.4375 6.83594C7.33333 6.77865 7.23438 6.79167 7.14062 6.875L6.21094 7.78125C6.1276 7.86979 6.11979 7.97135 6.1875 8.08594L7.22656 9.77344C7.15885 9.91927 7.07292 10.1016 6.96875 10.3203C6.86979 10.5391 6.78906 10.776 6.72656 11.0312L4.79688 11.5C4.67708 11.526 4.61719 11.6016 4.61719 11.7266V13.0312C4.61719 13.1615 4.67708 13.237 4.79688 13.2578L6.73438 13.7188C6.79688 13.9583 6.875 14.1849 6.96875 14.3984C7.0625 14.612 7.15365 14.8021 7.24219 14.9688L6.19531 16.6562C6.13281 16.7708 6.14323 16.8672 6.22656 16.9453L7.14844 17.8672C7.2474 17.9609 7.34375 17.974 7.4375 17.9062L9.14062 16.8594C9.30729 16.9635 9.4974 17.0625 9.71094 17.1562C9.92969 17.2448 10.1589 17.3177 10.3984 17.375L10.8672 19.3125C10.888 19.4323 10.9635 19.4922 11.0938 19.4922ZM11.7578 15.3438C11.2109 15.3438 10.7109 15.2083 10.2578 14.9375C9.8099 14.6667 9.45052 14.3073 9.17969 13.8594C8.90885 13.4062 8.77344 12.9062 8.77344 12.3594C8.77344 11.8177 8.90885 11.3229 9.17969 10.875C9.45052 10.4219 9.8099 10.0625 10.2578 9.79688C10.7109 9.52604 11.2109 9.39062 11.7578 9.39062C12.3047 9.39062 12.8021 9.52604 13.25 9.79688C13.7031 10.0625 14.0625 10.4219 14.3281 10.875C14.599 11.3229 14.7344 11.8177 14.7344 12.3594C14.7344 12.9062 14.599 13.4062 14.3281 13.8594C14.0625 14.3125 13.7031 14.6745 13.25 14.9453C12.8021 15.2109 12.3047 15.3438 11.7578 15.3438ZM11.7578 14.1328C12.0755 14.1328 12.3672 14.0521 12.6328 13.8906C12.8984 13.7292 13.1094 13.5156 13.2656 13.25C13.4271 12.9792 13.5078 12.6823 13.5078 12.3594C13.5078 12.0365 13.4271 11.7422 13.2656 11.4766C13.1094 11.2109 12.8984 11 12.6328 10.8438C12.3672 10.6823 12.0755 10.6016 11.7578 10.6016C11.4349 10.6016 11.138 10.6823 10.8672 10.8438C10.6016 11 10.388 11.2109 10.2266 11.4766C10.0703 11.7422 9.99219 12.0365 9.99219 12.3594C9.99219 12.6875 10.0703 12.987 10.2266 13.2578C10.388 13.5234 10.6016 13.737 10.8672 13.8984C11.138 14.0547 11.4349 14.1328 11.7578 14.1328Z" fill="#141414"/>
</svg>
