<svg width="24" height="24" viewBox="0 0 24 24" fill="none" xmlns="http://www.w3.org/2000/svg">
<path d="M11.8436 14.5847C11.9489 14.69 12.0819 14.7427 12.2428 14.7427C12.4038 14.7427 12.5369 14.69 12.6422 14.5847C12.7474 14.4796 12.7999 14.3465 12.7999 14.1855V10.157C12.7999 9.99595 12.7474 9.86288 12.6422 9.75774C12.5369 9.65245 12.4038 9.59981 12.2428 9.59981C12.0819 9.59981 11.9489 9.65245 11.8436 9.75774C11.7383 9.86288 11.6856 9.99595 11.6856 10.157V14.1855C11.6856 14.3465 11.7383 14.4796 11.8436 14.5847Z" fill="#141414"/>
<path d="M6.21214 14.5177C6.35357 14.6677 6.54 14.7427 6.77143 14.7427H9.40007C9.6315 14.7427 9.81793 14.6677 9.95936 14.5177C10.1008 14.3677 10.1715 14.1855 10.1715 13.9712V12.7284C10.1715 12.5674 10.1189 12.4343 10.0136 12.3292C9.90829 12.2239 9.77521 12.1712 9.61436 12.1712C9.45336 12.1712 9.32021 12.2239 9.21493 12.3292C9.10979 12.4343 9.05721 12.5674 9.05721 12.7284V13.6284H7.11429V10.7141H9.61436C9.77521 10.7141 9.90829 10.6615 10.0136 10.5562C10.1189 10.451 10.1715 10.318 10.1715 10.157C10.1715 9.99595 10.1189 9.86288 10.0136 9.75774C9.90829 9.65245 9.77521 9.59981 9.61436 9.59981H6.77143C6.54 9.59981 6.35357 9.67481 6.21214 9.82481C6.07071 9.97481 6 10.157 6 10.3712V13.9712C6 14.1855 6.07071 14.3677 6.21214 14.5177Z" fill="#141414"/>
<path d="M14.415 14.5847C14.5203 14.69 14.6534 14.7427 14.8142 14.7427C14.9752 14.7427 15.1084 14.69 15.2136 14.5847C15.3188 14.4796 15.3714 14.3465 15.3714 14.1855V12.9712H16.5429C16.7039 12.9712 16.8369 12.9186 16.9421 12.8135C17.0474 12.7082 17.1 12.575 17.1 12.414C17.1 12.2532 17.0474 12.1201 16.9421 12.0148C16.8369 11.9095 16.7039 11.8569 16.5429 11.8569H15.3714V10.7141H17.4429C17.6039 10.7141 17.7369 10.6615 17.8421 10.5562C17.9474 10.451 18 10.318 18 10.157C18 9.99595 17.9474 9.86288 17.8421 9.75774C17.7369 9.65245 17.6039 9.59981 17.4429 9.59981H14.8142C14.6534 9.59981 14.5203 9.65245 14.415 9.75774C14.3097 9.86288 14.2571 9.99595 14.2571 10.157V14.1855C14.2571 14.3465 14.3097 14.4796 14.415 14.5847Z" fill="#141414"/>
<path fill-rule="evenodd" clip-rule="evenodd" d="M1.80078 7.19981C1.80078 5.87432 2.8753 4.7998 4.20078 4.7998H19.8008C21.1263 4.7998 22.2008 5.87432 22.2008 7.1998V16.7998C22.2008 18.1253 21.1263 19.1998 19.8008 19.1998H4.20078C2.87529 19.1998 1.80078 18.1253 1.80078 16.7998V7.19981ZM4.20078 5.9998H19.8008C20.4635 5.9998 21.0008 6.53706 21.0008 7.1998V16.7998C21.0008 17.4625 20.4635 17.9998 19.8008 17.9998H4.20078C3.53804 17.9998 3.00078 17.4625 3.00078 16.7998V7.19981C3.00078 6.53706 3.53804 5.9998 4.20078 5.9998Z" fill="#141414"/>
</svg>
