<svg width="24" height="24" viewBox="0 0 24 24" fill="none" xmlns="http://www.w3.org/2000/svg">
<path fill-rule="evenodd" clip-rule="evenodd" d="M4.20078 4.7998C2.8753 4.7998 1.80078 5.87432 1.80078 7.19981V16.7998C1.80078 18.1253 2.87529 19.1998 4.20078 19.1998H19.8008C21.1263 19.1998 22.2008 18.1253 22.2008 16.7998V7.1998C22.2008 5.87432 21.1263 4.7998 19.8008 4.7998H4.20078ZM11.8436 14.5847C11.9489 14.6899 12.0819 14.7426 12.2428 14.7426C12.4038 14.7426 12.5369 14.6899 12.6422 14.5847C12.7474 14.4795 12.7999 14.3464 12.7999 14.1854V10.1569C12.7999 9.99587 12.7474 9.8628 12.6422 9.75766C12.5369 9.65237 12.4038 9.59973 12.2428 9.59973C12.0819 9.59973 11.9489 9.65237 11.8436 9.75766C11.7383 9.8628 11.6856 9.99587 11.6856 10.1569V14.1854C11.6856 14.3464 11.7383 14.4795 11.8436 14.5847ZM6.21214 14.5176C6.35357 14.6676 6.54 14.7426 6.77143 14.7426H9.40007C9.6315 14.7426 9.81793 14.6676 9.95936 14.5176C10.1008 14.3676 10.1715 14.1854 10.1715 13.9712V12.7283C10.1715 12.5673 10.1189 12.4342 10.0136 12.3291C9.90829 12.2238 9.77521 12.1712 9.61436 12.1712C9.45336 12.1712 9.32021 12.2238 9.21493 12.3291C9.10979 12.4342 9.05721 12.5673 9.05721 12.7283V13.6283H7.11429V10.714H9.61436C9.77521 10.714 9.90829 10.6614 10.0136 10.5561C10.1189 10.4509 10.1715 10.3179 10.1715 10.1569C10.1715 9.99587 10.1189 9.8628 10.0136 9.75766C9.90829 9.65237 9.77521 9.59973 9.61436 9.59973H6.77143C6.54 9.59973 6.35357 9.67473 6.21214 9.82473C6.07071 9.97473 6 10.1569 6 10.3712V13.9712C6 14.1854 6.07071 14.3676 6.21214 14.5176ZM14.415 14.5847C14.5203 14.6899 14.6534 14.7426 14.8142 14.7426C14.9752 14.7426 15.1084 14.6899 15.2136 14.5847C15.3188 14.4795 15.3714 14.3464 15.3714 14.1854V12.9711H16.5429C16.7039 12.9711 16.8369 12.9185 16.9421 12.8134C17.0474 12.7081 17.1 12.5749 17.1 12.4139C17.1 12.2531 17.0474 12.12 16.9421 12.0147C16.8369 11.9094 16.7039 11.8568 16.5429 11.8568H15.3714V10.714H17.4429C17.6039 10.714 17.7369 10.6614 17.8421 10.5561C17.9474 10.4509 18 10.3179 18 10.1569C18 9.99587 17.9474 9.8628 17.8421 9.75766C17.7369 9.65237 17.6039 9.59973 17.4429 9.59973H14.8142C14.6534 9.59973 14.5203 9.65237 14.415 9.75766C14.3097 9.8628 14.2571 9.99587 14.2571 10.1569V14.1854C14.2571 14.3464 14.3097 14.4795 14.415 14.5847Z" fill="currentColor"/>
</svg>
