<svg width="24" height="24" viewBox="0 0 24 24" fill="none" xmlns="http://www.w3.org/2000/svg">
<path d="M12.3672 19.8906C11.8255 19.8906 11.3151 19.7031 10.8359 19.3281C10.362 18.9531 9.94271 18.4271 9.57812 17.75C9.21875 17.0729 8.9349 16.2786 8.72656 15.3672C8.52344 14.4505 8.42188 13.4531 8.42188 12.375C8.42188 11.2969 8.52344 10.2995 8.72656 9.38281C8.9349 8.46094 9.21875 7.66146 9.57812 6.98438C9.9375 6.30208 10.3542 5.77344 10.8281 5.39844C11.3073 5.02344 11.8203 4.83594 12.3672 4.83594C12.9141 4.83594 13.4245 5.02344 13.8984 5.39844C14.3776 5.77344 14.7969 6.30208 15.1562 6.98438C15.5208 7.66146 15.8047 8.46094 16.0078 9.38281C16.2109 10.2995 16.3125 11.2969 16.3125 12.375C16.3125 13.4531 16.2083 14.4505 16 15.3672C15.7969 16.2786 15.513 17.0729 15.1484 17.75C14.7891 18.4271 14.3698 18.9531 13.8906 19.3281C13.4167 19.7031 12.9089 19.8906 12.3672 19.8906ZM12.3672 5.78125C11.987 5.78125 11.6224 5.95833 11.2734 6.3125C10.9245 6.66146 10.6146 7.14062 10.3438 7.75C10.0729 8.35938 9.85938 9.0625 9.70312 9.85938C9.54688 10.651 9.46875 11.4896 9.46875 12.375C9.46875 13.25 9.54688 14.0807 9.70312 14.8672C9.85938 15.6536 10.0729 16.3542 10.3438 16.9688C10.6146 17.5781 10.9245 18.0573 11.2734 18.4062C11.6224 18.7604 11.987 18.9375 12.3672 18.9375C12.7474 18.9375 13.112 18.7604 13.4609 18.4062C13.8099 18.0573 14.1198 17.5781 14.3906 16.9688C14.6615 16.3542 14.875 15.6536 15.0312 14.8672C15.1875 14.0807 15.2656 13.25 15.2656 12.375C15.2656 11.4896 15.1875 10.651 15.0312 9.85938C14.875 9.0625 14.6615 8.35938 14.3906 7.75C14.1198 7.14062 13.8099 6.66146 13.4609 6.3125C13.112 5.95833 12.7474 5.78125 12.3672 5.78125ZM11.8594 4.94531H12.8828V19.7422H11.8594V4.94531ZM12.3672 15.2969C13.1693 15.2969 13.9297 15.3646 14.6484 15.5C15.3672 15.6302 16.013 15.8203 16.5859 16.0703C17.1641 16.3151 17.6354 16.6042 18 16.9375L17.2109 17.5859C16.8672 17.3151 16.4531 17.0859 15.9688 16.8984C15.4896 16.7057 14.9453 16.5625 14.3359 16.4688C13.7318 16.3698 13.0755 16.3203 12.3672 16.3203C11.6589 16.3203 11 16.3698 10.3906 16.4688C9.78646 16.5625 9.24219 16.7057 8.75781 16.8984C8.27865 17.0859 7.86719 17.3151 7.52344 17.5859L6.73438 16.9375C7.09896 16.6042 7.56771 16.3151 8.14062 16.0703C8.71875 15.8203 9.36719 15.6302 10.0859 15.5C10.8047 15.3646 11.5651 15.2969 12.3672 15.2969ZM19.5781 11.8438V12.8672H5.15625V11.8438H19.5781ZM12.3672 9.46094C11.5651 9.46094 10.8047 9.39583 10.0859 9.26562C9.36719 9.13021 8.71875 8.9401 8.14062 8.69531C7.56771 8.44531 7.09896 8.15365 6.73438 7.82031L7.52344 7.17188C7.86719 7.44271 8.27865 7.67448 8.75781 7.86719C9.24219 8.05469 9.78646 8.19792 10.3906 8.29688C11 8.39062 11.6589 8.4375 12.3672 8.4375C13.0755 8.4375 13.7318 8.39062 14.3359 8.29688C14.9453 8.19792 15.4896 8.05469 15.9688 7.86719C16.4531 7.67448 16.8672 7.44271 17.2109 7.17188L18 7.82031C17.6354 8.15365 17.1641 8.44531 16.5859 8.69531C16.013 8.9401 15.3672 9.13021 14.6484 9.26562C13.9297 9.39583 13.1693 9.46094 12.3672 9.46094ZM12.3672 20.3281C11.2786 20.3281 10.2526 20.1198 9.28906 19.7031C8.33073 19.2865 7.48438 18.7109 6.75 17.9766C6.01562 17.2422 5.4401 16.3958 5.02344 15.4375C4.60677 14.474 4.39844 13.4479 4.39844 12.3594C4.39844 11.2708 4.60677 10.2474 5.02344 9.28906C5.4401 8.32552 6.01302 7.47656 6.74219 6.74219C7.47656 6.00781 8.32292 5.43229 9.28125 5.01562C10.2448 4.59896 11.2708 4.39062 12.3594 4.39062C13.4479 4.39062 14.474 4.59896 15.4375 5.01562C16.401 5.43229 17.25 6.00781 17.9844 6.74219C18.7188 7.47656 19.2943 8.32552 19.7109 9.28906C20.1276 10.2474 20.3359 11.2708 20.3359 12.3594C20.3359 13.4479 20.1276 14.474 19.7109 15.4375C19.2943 16.3958 18.7188 17.2422 17.9844 17.9766C17.25 18.7109 16.401 19.2865 15.4375 19.7031C14.4792 20.1198 13.4557 20.3281 12.3672 20.3281ZM12.3672 19.2656C13.3099 19.2656 14.1979 19.0833 15.0312 18.7188C15.8646 18.3594 16.599 17.862 17.2344 17.2266C17.8698 16.5911 18.3672 15.8568 18.7266 15.0234C19.0911 14.1901 19.2734 13.3021 19.2734 12.3594C19.2734 11.4167 19.0911 10.5286 18.7266 9.69531C18.3672 8.86198 17.8672 8.1276 17.2266 7.49219C16.5911 6.85677 15.8568 6.35938 15.0234 6C14.1901 5.63542 13.3021 5.45312 12.3594 5.45312C11.4167 5.45312 10.5286 5.63542 9.69531 6C8.86198 6.35938 8.1276 6.85677 7.49219 7.49219C6.86198 8.1276 6.36458 8.86198 6 9.69531C5.64062 10.5286 5.46094 11.4167 5.46094 12.3594C5.46094 13.3021 5.64062 14.1901 6 15.0234C6.36458 15.8568 6.86458 16.5911 7.5 17.2266C8.13542 17.862 8.86979 18.3594 9.70312 18.7188C10.5365 19.0833 11.4245 19.2656 12.3672 19.2656Z" fill="currentColor"/>
</svg>
