<svg width="24" height="24" viewBox="0 0 24 24" fill="none" xmlns="http://www.w3.org/2000/svg">
<path d="M20.0469 9.35156C20.0469 10.1484 19.9089 10.8698 19.6328 11.5156C19.362 12.1615 18.9922 12.6745 18.5234 13.0547C18.0547 13.4349 17.5312 13.625 16.9531 13.625H15.8281C16.0573 13.3438 16.2812 13.0026 16.5 12.6016C16.7188 12.1953 16.9036 11.7292 17.0547 11.2031C17.2057 10.6719 17.2839 10.0807 17.2891 9.42969C17.3047 8.54948 17.151 7.73698 16.8281 6.99219C16.5052 6.24219 15.9922 5.61198 15.2891 5.10156H16.6641C17.3099 5.10156 17.8854 5.29688 18.3906 5.6875C18.901 6.07292 19.3047 6.58854 19.6016 7.23438C19.8984 7.875 20.0469 8.58073 20.0469 9.35156ZM16.2422 9.40625C16.2318 10.0208 16.1693 10.5703 16.0547 11.0547C15.9401 11.5391 15.7708 11.9948 15.5469 12.4219C15.3281 12.8438 15.0521 13.276 14.7188 13.7188C14.1302 14.5052 13.4792 15.362 12.7656 16.2891C12.0573 17.2161 11.4115 18.2448 10.8281 19.375C10.6771 19.6667 10.5208 19.901 10.3594 20.0781C10.1979 20.2552 9.97917 20.3438 9.70312 20.3438C9.39583 20.3438 9.13802 20.2422 8.92969 20.0391C8.72656 19.8411 8.625 19.5573 8.625 19.1875C8.625 18.8438 8.6901 18.474 8.82031 18.0781C8.95052 17.6875 9.10156 17.2943 9.27344 16.8984C9.44531 16.5026 9.59635 16.1302 9.72656 15.7812C9.85677 15.4271 9.92188 15.1198 9.92188 14.8594C9.92188 14.5677 9.8151 14.3385 9.60156 14.1719C9.39323 14.0052 9.11458 13.9219 8.76562 13.9219H6.01562C5.75521 13.9219 5.52344 13.862 5.32031 13.7422C5.11719 13.6172 4.95573 13.4505 4.83594 13.2422C4.71615 13.0339 4.65625 12.8047 4.65625 12.5547C4.65625 12.3307 4.69271 12.1328 4.76562 11.9609C4.83854 11.7891 4.9349 11.6536 5.05469 11.5547C5.17969 11.4453 5.1875 11.3438 5.07812 11.25C4.97917 11.1562 4.90104 11.0234 4.84375 10.8516C4.78646 10.6745 4.75781 10.4948 4.75781 10.3125C4.75781 10.0573 4.8125 9.82812 4.92188 9.625C5.03646 9.41667 5.18229 9.26302 5.35938 9.16406C5.49479 9.08594 5.51823 8.98438 5.42969 8.85938C5.24219 8.63021 5.14844 8.33594 5.14844 7.97656C5.14844 7.66927 5.23438 7.40625 5.40625 7.1875C5.58333 6.96875 5.79167 6.8099 6.03125 6.71094C6.13021 6.66927 6.14583 6.59635 6.07812 6.49219C6.03125 6.40885 5.98958 6.3125 5.95312 6.20312C5.92188 6.08854 5.90625 5.95573 5.90625 5.80469C5.90625 5.4349 6.02865 5.15104 6.27344 4.95312C6.52344 4.75521 6.79948 4.61979 7.10156 4.54688C7.3151 4.48438 7.60417 4.4375 7.96875 4.40625C8.33854 4.36979 8.77865 4.35417 9.28906 4.35938L10.3438 4.36719C11.2552 4.3776 12.0755 4.51042 12.8047 4.76562C13.5339 5.02083 14.1562 5.3776 14.6719 5.83594C15.1875 6.28906 15.5807 6.82031 15.8516 7.42969C16.1224 8.03385 16.2526 8.69271 16.2422 9.40625Z" fill="#141414"/>
</svg>
