<svg width="24" height="24" viewBox="0 0 24 24" fill="none" xmlns="http://www.w3.org/2000/svg">
<path d="M11.75 18.7734C11.6719 18.7734 11.5781 18.75 11.4688 18.7031C11.3646 18.6615 11.2708 18.6146 11.1875 18.5625C9.71875 17.625 8.44531 16.6432 7.36719 15.6172C6.28906 14.5859 5.45573 13.5286 4.86719 12.4453C4.28385 11.3568 3.99219 10.2578 3.99219 9.14844C3.99219 8.45573 4.10156 7.82292 4.32031 7.25C4.54427 6.67188 4.85417 6.17188 5.25 5.75C5.64583 5.32812 6.10677 5.0026 6.63281 4.77344C7.15885 4.54427 7.72917 4.42969 8.34375 4.42969C9.10938 4.42969 9.78125 4.625 10.3594 5.01562C10.9375 5.40625 11.401 5.92188 11.75 6.5625C12.1042 5.91667 12.5703 5.40104 13.1484 5.01562C13.7266 4.625 14.3958 4.42969 15.1562 4.42969C15.7708 4.42969 16.3411 4.54427 16.8672 4.77344C17.3984 5.0026 17.8594 5.32812 18.25 5.75C18.6458 6.17188 18.9531 6.67188 19.1719 7.25C19.3958 7.82292 19.5078 8.45573 19.5078 9.14844C19.5078 10.2578 19.2135 11.3568 18.625 12.4453C18.0417 13.5286 17.2109 14.5859 16.1328 15.6172C15.0599 16.6432 13.7891 17.625 12.3203 18.5625C12.237 18.6146 12.1406 18.6615 12.0312 18.7031C11.9271 18.75 11.8333 18.7734 11.75 18.7734Z" fill="#141414"/>
</svg>
