<svg width="24" height="24" viewBox="0 0 24 24" fill="none" xmlns="http://www.w3.org/2000/svg">
    <path d="M12.3672 20.3281C11.2786 20.3281 10.2526 20.1198 9.28906 19.7031C8.33073 19.2865 7.48438 18.7109 6.75 17.9766C6.01562 17.2422 5.4401 16.3958 5.02344 15.4375C4.60677 14.474 4.39844 13.4479 4.39844 12.3594C4.39844 11.2708 4.60677 10.2474 5.02344 9.28906C5.4401 8.32552 6.01302 7.47656 6.74219 6.74219C7.47656 6.00781 8.32292 5.43229 9.28125 5.01562C10.2448 4.59896 11.2708 4.39062 12.3594 4.39062C13.4479 4.39062 14.474 4.59896 15.4375 5.01562C16.401 5.43229 17.25 6.00781 17.9844 6.74219C18.7188 7.47656 19.2943 8.32552 19.7109 9.28906C20.1276 10.2474 20.3359 11.2708 20.3359 12.3594C20.3359 13.4479 20.1276 14.474 19.7109 15.4375C19.2943 16.3958 18.7188 17.2422 17.9844 17.9766C17.25 18.7109 16.401 19.2865 15.4375 19.7031C14.4792 20.1198 13.4557 20.3281 12.3672 20.3281ZM12.3672 19C13.2891 19 14.151 18.8281 14.9531 18.4844C15.7552 18.1406 16.4609 17.6667 17.0703 17.0625C17.6797 16.4531 18.1536 15.7474 18.4922 14.9453C18.8359 14.1432 19.0078 13.2812 19.0078 12.3594C19.0078 11.4375 18.8359 10.5755 18.4922 9.77344C18.1484 8.97135 17.6719 8.26562 17.0625 7.65625C16.4583 7.04688 15.7526 6.57292 14.9453 6.23438C14.1432 5.89062 13.2812 5.71875 12.3594 5.71875C11.4375 5.71875 10.5755 5.89062 9.77344 6.23438C8.97135 6.57292 8.26823 7.04688 7.66406 7.65625C7.0599 8.26562 6.58594 8.97135 6.24219 9.77344C5.90365 10.5755 5.73438 11.4375 5.73438 12.3594C5.73438 13.2812 5.90365 14.1432 6.24219 14.9453C6.58594 15.7474 7.0599 16.4531 7.66406 17.0625C8.27344 17.6667 8.97917 18.1406 9.78125 18.4844C10.5833 18.8281 11.4453 19 12.3672 19ZM11 16.7266C10.8385 16.7266 10.7031 16.6745 10.5938 16.5703C10.4844 16.4661 10.4297 16.3359 10.4297 16.1797C10.4297 16.0234 10.4844 15.8932 10.5938 15.7891C10.7031 15.6849 10.8385 15.6328 11 15.6328H11.9688V12.0469H11.1328C10.9714 12.0469 10.8359 11.9948 10.7266 11.8906C10.6172 11.7865 10.5625 11.6562 10.5625 11.5C10.5625 11.3438 10.6172 11.2135 10.7266 11.1094C10.8359 11.0052 10.9714 10.9531 11.1328 10.9531H12.6016C12.7995 10.9531 12.9505 11.0182 13.0547 11.1484C13.1589 11.2734 13.2109 11.4427 13.2109 11.6562V15.6328H14.1797C14.3411 15.6328 14.4766 15.6849 14.5859 15.7891C14.6953 15.8932 14.75 16.0234 14.75 16.1797C14.75 16.3359 14.6953 16.4661 14.5859 16.5703C14.4766 16.6745 14.3411 16.7266 14.1797 16.7266H11ZM12.2969 9.64844C12.0156 9.64844 11.776 9.54948 11.5781 9.35156C11.3802 9.15365 11.2812 8.91406 11.2812 8.63281C11.2812 8.34635 11.3802 8.10417 11.5781 7.90625C11.776 7.70833 12.0156 7.60938 12.2969 7.60938C12.5833 7.60938 12.8229 7.70833 13.0156 7.90625C13.2135 8.10417 13.3125 8.34635 13.3125 8.63281C13.3125 8.91406 13.2135 9.15365 13.0156 9.35156C12.8229 9.54948 12.5833 9.64844 12.2969 9.64844Z"
          fill="currentColor"/>
</svg>
