<svg width="24" height="24" viewBox="0 0 24 24" fill="none" xmlns="http://www.w3.org/2000/svg">
<path d="M4.44531 18.5312C3.6276 18.5312 3.01302 18.3307 2.60156 17.9297C2.19531 17.5234 1.99219 16.9167 1.99219 16.1094V8.60156C1.99219 7.79948 2.19531 7.19792 2.60156 6.79688C3.01302 6.39062 3.6276 6.1875 4.44531 6.1875H19.2031C20.0156 6.1875 20.6276 6.39062 21.0391 6.79688C21.4505 7.19792 21.6562 7.79948 21.6562 8.60156V16.1094C21.6562 16.9115 21.4505 17.5156 21.0391 17.9219C20.6276 18.3281 20.0156 18.5312 19.2031 18.5312H4.44531ZM4.46094 17.2734H19.1797C19.5651 17.2734 19.8646 17.1693 20.0781 16.9609C20.2917 16.7526 20.3984 16.4453 20.3984 16.0391V8.67188C20.3984 8.26562 20.2917 7.96094 20.0781 7.75781C19.8646 7.54948 19.5651 7.44531 19.1797 7.44531H4.46094C4.07031 7.44531 3.77083 7.54948 3.5625 7.75781C3.35417 7.96094 3.25 8.26562 3.25 8.67188V16.0391C3.25 16.4453 3.35417 16.7526 3.5625 16.9609C3.77083 17.1693 4.07031 17.2734 4.46094 17.2734ZM5.16406 10.5391C4.9349 10.5391 4.82031 10.4245 4.82031 10.1953V9.47656C4.82031 9.24219 4.9349 9.125 5.16406 9.125H5.88281C6.11719 9.125 6.23438 9.24219 6.23438 9.47656V10.1953C6.23438 10.4245 6.11719 10.5391 5.88281 10.5391H5.16406ZM7.67969 10.5391C7.44531 10.5391 7.32812 10.4245 7.32812 10.1953V9.47656C7.32812 9.24219 7.44531 9.125 7.67969 9.125H8.39844C8.6276 9.125 8.74219 9.24219 8.74219 9.47656V10.1953C8.74219 10.4245 8.6276 10.5391 8.39844 10.5391H7.67969ZM10.1953 10.5391C9.96094 10.5391 9.84375 10.4245 9.84375 10.1953V9.47656C9.84375 9.24219 9.96094 9.125 10.1953 9.125H10.9062C11.1406 9.125 11.2578 9.24219 11.2578 9.47656V10.1953C11.2578 10.4245 11.1406 10.5391 10.9062 10.5391H10.1953ZM12.7031 10.5391C12.474 10.5391 12.3594 10.4245 12.3594 10.1953V9.47656C12.3594 9.24219 12.474 9.125 12.7031 9.125H13.4219C13.6562 9.125 13.7734 9.24219 13.7734 9.47656V10.1953C13.7734 10.4245 13.6562 10.5391 13.4219 10.5391H12.7031ZM15.2188 10.5391C14.9844 10.5391 14.8672 10.4245 14.8672 10.1953V9.47656C14.8672 9.24219 14.9844 9.125 15.2188 9.125H15.9375C16.1667 9.125 16.2812 9.24219 16.2812 9.47656V10.1953C16.2812 10.4245 16.1667 10.5391 15.9375 10.5391H15.2188ZM17.7344 10.5391C17.5 10.5391 17.3828 10.4245 17.3828 10.1953V9.47656C17.3828 9.24219 17.5 9.125 17.7344 9.125H18.4453C18.6797 9.125 18.7969 9.24219 18.7969 9.47656V10.1953C18.7969 10.4245 18.6797 10.5391 18.4453 10.5391H17.7344ZM5.16406 13.0547C4.9349 13.0547 4.82031 12.9375 4.82031 12.7031V11.9922C4.82031 11.7578 4.9349 11.6406 5.16406 11.6406H5.88281C6.11719 11.6406 6.23438 11.7578 6.23438 11.9922V12.7031C6.23438 12.9375 6.11719 13.0547 5.88281 13.0547H5.16406ZM7.67969 13.0547C7.44531 13.0547 7.32812 12.9375 7.32812 12.7031V11.9922C7.32812 11.7578 7.44531 11.6406 7.67969 11.6406H8.39844C8.6276 11.6406 8.74219 11.7578 8.74219 11.9922V12.7031C8.74219 12.9375 8.6276 13.0547 8.39844 13.0547H7.67969ZM10.1953 13.0547C9.96094 13.0547 9.84375 12.9375 9.84375 12.7031V11.9922C9.84375 11.7578 9.96094 11.6406 10.1953 11.6406H10.9062C11.1406 11.6406 11.2578 11.7578 11.2578 11.9922V12.7031C11.2578 12.9375 11.1406 13.0547 10.9062 13.0547H10.1953ZM12.7031 13.0547C12.474 13.0547 12.3594 12.9375 12.3594 12.7031V11.9922C12.3594 11.7578 12.474 11.6406 12.7031 11.6406H13.4219C13.6562 11.6406 13.7734 11.7578 13.7734 11.9922V12.7031C13.7734 12.9375 13.6562 13.0547 13.4219 13.0547H12.7031ZM15.2188 13.0547C14.9844 13.0547 14.8672 12.9375 14.8672 12.7031V11.9922C14.8672 11.7578 14.9844 11.6406 15.2188 11.6406H15.9375C16.1667 11.6406 16.2812 11.7578 16.2812 11.9922V12.7031C16.2812 12.9375 16.1667 13.0547 15.9375 13.0547H15.2188ZM17.7344 13.0547C17.5 13.0547 17.3828 12.9375 17.3828 12.7031V11.9922C17.3828 11.7578 17.5 11.6406 17.7344 11.6406H18.4453C18.6797 11.6406 18.7969 11.7578 18.7969 11.9922V12.7031C18.7969 12.9375 18.6797 13.0547 18.4453 13.0547H17.7344ZM5.16406 15.5703C4.9349 15.5703 4.82031 15.4531 4.82031 15.2188V14.5C4.82031 14.2708 4.9349 14.1562 5.16406 14.1562H5.88281C6.11719 14.1562 6.23438 14.2708 6.23438 14.5V15.2188C6.23438 15.4531 6.11719 15.5703 5.88281 15.5703H5.16406ZM7.75781 15.5703C7.47135 15.5703 7.32812 15.4271 7.32812 15.1406V14.5781C7.32812 14.2969 7.47135 14.1562 7.75781 14.1562H15.8594C16.1406 14.1562 16.2812 14.2969 16.2812 14.5781V15.1406C16.2812 15.4271 16.1406 15.5703 15.8594 15.5703H7.75781ZM17.7344 15.5703C17.5 15.5703 17.3828 15.4531 17.3828 15.2188V14.5C17.3828 14.2708 17.5 14.1562 17.7344 14.1562H18.4453C18.6797 14.1562 18.7969 14.2708 18.7969 14.5V15.2188C18.7969 15.4531 18.6797 15.5703 18.4453 15.5703H17.7344Z" fill="currentColor"/>
</svg>
