<svg width="24" height="24" viewBox="0 0 24 24" fill="none" xmlns="http://www.w3.org/2000/svg">
<path d="M4.44531 18.5312C3.6276 18.5312 3.01302 18.3307 2.60156 17.9297C2.19531 17.5234 1.99219 16.9167 1.99219 16.1094V8.60156C1.99219 7.79948 2.19531 7.19792 2.60156 6.79688C3.01302 6.39062 3.6276 6.1875 4.44531 6.1875H19.2031C20.0156 6.1875 20.6276 6.39062 21.0391 6.79688C21.4505 7.19792 21.6562 7.79948 21.6562 8.60156V16.1094C21.6562 16.9115 21.4505 17.5156 21.0391 17.9219C20.6276 18.3281 20.0156 18.5312 19.2031 18.5312H4.44531ZM4.95312 10.4844H5.69531C5.9401 10.4844 6.0625 10.3646 6.0625 10.125V9.38281C6.0625 9.14323 5.9401 9.02344 5.69531 9.02344H4.95312C4.71875 9.02344 4.60156 9.14323 4.60156 9.38281V10.125C4.60156 10.3646 4.71875 10.4844 4.95312 10.4844ZM7.54688 10.4844H8.28906C8.52865 10.4844 8.64844 10.3646 8.64844 10.125V9.38281C8.64844 9.14323 8.52865 9.02344 8.28906 9.02344H7.54688C7.30729 9.02344 7.1875 9.14323 7.1875 9.38281V10.125C7.1875 10.3646 7.30729 10.4844 7.54688 10.4844ZM10.1406 10.4844H10.875C11.1198 10.4844 11.2422 10.3646 11.2422 10.125V9.38281C11.2422 9.14323 11.1198 9.02344 10.875 9.02344H10.1406C9.90104 9.02344 9.78125 9.14323 9.78125 9.38281V10.125C9.78125 10.3646 9.90104 10.4844 10.1406 10.4844ZM12.7344 10.4844H13.4766C13.7161 10.4844 13.8359 10.3646 13.8359 10.125V9.38281C13.8359 9.14323 13.7161 9.02344 13.4766 9.02344H12.7344C12.4948 9.02344 12.375 9.14323 12.375 9.38281V10.125C12.375 10.3646 12.4948 10.4844 12.7344 10.4844ZM15.3281 10.4844H16.0703C16.3047 10.4844 16.4219 10.3646 16.4219 10.125V9.38281C16.4219 9.14323 16.3047 9.02344 16.0703 9.02344H15.3281C15.0833 9.02344 14.9609 9.14323 14.9609 9.38281V10.125C14.9609 10.3646 15.0833 10.4844 15.3281 10.4844ZM17.9219 10.4844H18.6562C18.8958 10.4844 19.0156 10.3646 19.0156 10.125V9.38281C19.0156 9.14323 18.8958 9.02344 18.6562 9.02344H17.9219C17.6771 9.02344 17.5547 9.14323 17.5547 9.38281V10.125C17.5547 10.3646 17.6771 10.4844 17.9219 10.4844ZM4.95312 13.0781H5.69531C5.9401 13.0781 6.0625 12.9583 6.0625 12.7188V11.9766C6.0625 11.737 5.9401 11.6172 5.69531 11.6172H4.95312C4.71875 11.6172 4.60156 11.737 4.60156 11.9766V12.7188C4.60156 12.9583 4.71875 13.0781 4.95312 13.0781ZM7.54688 13.0781H8.28906C8.52865 13.0781 8.64844 12.9583 8.64844 12.7188V11.9766C8.64844 11.737 8.52865 11.6172 8.28906 11.6172H7.54688C7.30729 11.6172 7.1875 11.737 7.1875 11.9766V12.7188C7.1875 12.9583 7.30729 13.0781 7.54688 13.0781ZM10.1406 13.0781H10.875C11.1198 13.0781 11.2422 12.9583 11.2422 12.7188V11.9766C11.2422 11.737 11.1198 11.6172 10.875 11.6172H10.1406C9.90104 11.6172 9.78125 11.737 9.78125 11.9766V12.7188C9.78125 12.9583 9.90104 13.0781 10.1406 13.0781ZM12.7344 13.0781H13.4766C13.7161 13.0781 13.8359 12.9583 13.8359 12.7188V11.9766C13.8359 11.737 13.7161 11.6172 13.4766 11.6172H12.7344C12.4948 11.6172 12.375 11.737 12.375 11.9766V12.7188C12.375 12.9583 12.4948 13.0781 12.7344 13.0781ZM15.3281 13.0781H16.0703C16.3047 13.0781 16.4219 12.9583 16.4219 12.7188V11.9766C16.4219 11.737 16.3047 11.6172 16.0703 11.6172H15.3281C15.0833 11.6172 14.9609 11.737 14.9609 11.9766V12.7188C14.9609 12.9583 15.0833 13.0781 15.3281 13.0781ZM17.9219 13.0781H18.6562C18.8958 13.0781 19.0156 12.9583 19.0156 12.7188V11.9766C19.0156 11.737 18.8958 11.6172 18.6562 11.6172H17.9219C17.6771 11.6172 17.5547 11.737 17.5547 11.9766V12.7188C17.5547 12.9583 17.6771 13.0781 17.9219 13.0781ZM4.95312 15.6719H5.69531C5.9401 15.6719 6.0625 15.5521 6.0625 15.3125V14.5703C6.0625 14.3307 5.9401 14.2109 5.69531 14.2109H4.95312C4.71875 14.2109 4.60156 14.3307 4.60156 14.5703V15.3125C4.60156 15.5521 4.71875 15.6719 4.95312 15.6719ZM7.63281 15.6719H15.9844C16.276 15.6719 16.4219 15.5234 16.4219 15.2266V14.6484C16.4219 14.3568 16.276 14.2109 15.9844 14.2109H7.63281C7.33594 14.2109 7.1875 14.3568 7.1875 14.6484V15.2266C7.1875 15.5234 7.33594 15.6719 7.63281 15.6719ZM17.9219 15.6719H18.6562C18.8958 15.6719 19.0156 15.5521 19.0156 15.3125V14.5703C19.0156 14.3307 18.8958 14.2109 18.6562 14.2109H17.9219C17.6771 14.2109 17.5547 14.3307 17.5547 14.5703V15.3125C17.5547 15.5521 17.6771 15.6719 17.9219 15.6719Z" fill="currentColor"/>
</svg>
