<svg width="24" height="24" viewBox="0 0 24 24" fill="none" xmlns="http://www.w3.org/2000/svg">
<path d="M7.60059 16.8838C7.40137 16.8838 7.23438 16.8164 7.09961 16.6816C6.96484 16.5469 6.89746 16.3799 6.89746 16.1807C6.89746 15.9814 6.96484 15.8145 7.09961 15.6797C7.23438 15.5391 7.40137 15.4688 7.60059 15.4688H16.7061C16.9053 15.4688 17.0723 15.5391 17.207 15.6797C17.3477 15.8145 17.418 15.9814 17.418 16.1807C17.418 16.3799 17.3477 16.5469 17.207 16.6816C17.0723 16.8164 16.9053 16.8838 16.7061 16.8838H7.60059ZM5.79883 12.3574C5.59961 12.3574 5.42969 12.29 5.28906 12.1553C5.1543 12.0205 5.08691 11.8535 5.08691 11.6543C5.08691 11.4551 5.1543 11.2881 5.28906 11.1533C5.42969 11.0127 5.59961 10.9424 5.79883 10.9424H18.5166C18.71 10.9424 18.874 11.0127 19.0088 11.1533C19.1494 11.2881 19.2197 11.4551 19.2197 11.6543C19.2197 11.8535 19.1494 12.0205 19.0088 12.1553C18.874 12.29 18.71 12.3574 18.5166 12.3574H5.79883ZM3.94434 7.83105C3.75098 7.83105 3.58398 7.76367 3.44336 7.62891C3.30859 7.49414 3.24121 7.32715 3.24121 7.12793C3.24121 6.92871 3.30859 6.76172 3.44336 6.62695C3.58398 6.48633 3.75098 6.41602 3.94434 6.41602H20.3184C20.5176 6.41602 20.6846 6.48633 20.8193 6.62695C20.9541 6.76172 21.0215 6.92871 21.0215 7.12793C21.0215 7.32715 20.9541 7.49414 20.8193 7.62891C20.6846 7.76367 20.5176 7.83105 20.3184 7.83105H3.94434Z" fill="currentColor"/>
</svg>
