<svg width="24" height="24" viewBox="0 0 24 24" fill="none" xmlns="http://www.w3.org/2000/svg">
<path d="M12.3672 19.3281C11.2786 19.3281 10.2526 19.1198 9.28906 18.7031C8.33073 18.2865 7.48438 17.7109 6.75 16.9766C6.01562 16.2422 5.4401 15.3958 5.02344 14.4375C4.60677 13.474 4.39844 12.4479 4.39844 11.3594C4.39844 10.2708 4.60677 9.2474 5.02344 8.28906C5.4401 7.32552 6.01302 6.47656 6.74219 5.74219C7.47656 5.00781 8.32292 4.43229 9.28125 4.01562C10.2448 3.59896 11.2708 3.39062 12.3594 3.39062C13.4479 3.39062 14.474 3.59896 15.4375 4.01562C16.401 4.43229 17.25 5.00781 17.9844 5.74219C18.7188 6.47656 19.2943 7.32552 19.7109 8.28906C20.1276 9.2474 20.3359 10.2708 20.3359 11.3594C20.3359 12.4479 20.1276 13.474 19.7109 14.4375C19.2943 15.3958 18.7188 16.2422 17.9844 16.9766C17.25 17.7109 16.401 18.2865 15.4375 18.7031C14.4792 19.1198 13.4557 19.3281 12.3672 19.3281ZM12.3672 18C13.2891 18 14.151 17.8281 14.9531 17.4844C15.7552 17.1406 16.4609 16.6667 17.0703 16.0625C17.6797 15.4531 18.1536 14.7474 18.4922 13.9453C18.8359 13.1432 19.0078 12.2812 19.0078 11.3594C19.0078 10.4375 18.8359 9.57552 18.4922 8.77344C18.1484 7.97135 17.6719 7.26562 17.0625 6.65625C16.4583 6.04688 15.7526 5.57292 14.9453 5.23438C14.1432 4.89062 13.2812 4.71875 12.3594 4.71875C11.4375 4.71875 10.5755 4.89062 9.77344 5.23438C8.97135 5.57292 8.26823 6.04688 7.66406 6.65625C7.0599 7.26562 6.58594 7.97135 6.24219 8.77344C5.90365 9.57552 5.73438 10.4375 5.73438 11.3594C5.73438 12.2812 5.90365 13.1432 6.24219 13.9453C6.58594 14.7474 7.0599 15.4531 7.66406 16.0625C8.27344 16.6667 8.97917 17.1406 9.78125 17.4844C10.5833 17.8281 11.4453 18 12.3672 18ZM8.11719 9.8125C7.94531 9.8125 7.80208 9.76302 7.6875 9.66406C7.57812 9.5599 7.52344 9.42708 7.52344 9.26562C7.52344 9.09896 7.57812 8.96615 7.6875 8.86719C7.80208 8.76302 7.94531 8.71094 8.11719 8.71094H16.6328C16.8047 8.71094 16.9453 8.76302 17.0547 8.86719C17.1693 8.96615 17.2266 9.09896 17.2266 9.26562C17.2266 9.42708 17.1693 9.5599 17.0547 9.66406C16.9453 9.76302 16.8047 9.8125 16.6328 9.8125H8.11719ZM9.27344 12.3984C9.10156 12.3984 8.95833 12.349 8.84375 12.25C8.73438 12.151 8.67969 12.0182 8.67969 11.8516C8.67969 11.6849 8.73438 11.5521 8.84375 11.4531C8.95833 11.349 9.10156 11.2969 9.27344 11.2969H15.4766C15.6484 11.2969 15.7891 11.349 15.8984 11.4531C16.013 11.5521 16.0703 11.6849 16.0703 11.8516C16.0703 12.0182 16.013 12.151 15.8984 12.25C15.7891 12.349 15.6484 12.3984 15.4766 12.3984H9.27344ZM10.4844 14.9922C10.3073 14.9922 10.1641 14.9427 10.0547 14.8438C9.94531 14.7396 9.89062 14.6068 9.89062 14.4453C9.89062 14.2786 9.94531 14.1458 10.0547 14.0469C10.1641 13.9427 10.3073 13.8906 10.4844 13.8906H14.2734C14.4453 13.8906 14.5859 13.9427 14.6953 14.0469C14.8047 14.1458 14.8594 14.2786 14.8594 14.4453C14.8594 14.6068 14.8047 14.7396 14.6953 14.8438C14.5859 14.9427 14.4453 14.9922 14.2734 14.9922H10.4844Z" fill="currentColor"/>
</svg>
