<svg width="24" height="24" viewBox="0 0 24 24" fill="none" xmlns="http://www.w3.org/2000/svg">
<path d="M12.3672 19.3281C11.2786 19.3281 10.2526 19.1198 9.28906 18.7031C8.33073 18.2865 7.48438 17.7109 6.75 16.9766C6.01562 16.2422 5.4401 15.3958 5.02344 14.4375C4.60677 13.474 4.39844 12.4479 4.39844 11.3594C4.39844 10.2708 4.60677 9.2474 5.02344 8.28906C5.4401 7.32552 6.01302 6.47656 6.74219 5.74219C7.47656 5.00781 8.32292 4.43229 9.28125 4.01562C10.2448 3.59896 11.2708 3.39062 12.3594 3.39062C13.4479 3.39062 14.474 3.59896 15.4375 4.01562C16.401 4.43229 17.25 5.00781 17.9844 5.74219C18.7188 6.47656 19.2943 7.32552 19.7109 8.28906C20.1276 9.2474 20.3359 10.2708 20.3359 11.3594C20.3359 12.4479 20.1276 13.474 19.7109 14.4375C19.2943 15.3958 18.7188 16.2422 17.9844 16.9766C17.25 17.7109 16.401 18.2865 15.4375 18.7031C14.4792 19.1198 13.4557 19.3281 12.3672 19.3281ZM7.99219 9.75H16.7734C16.9505 9.75 17.0964 9.69792 17.2109 9.59375C17.3307 9.48958 17.3906 9.35417 17.3906 9.1875C17.3906 9.01562 17.3307 8.8776 17.2109 8.77344C17.0964 8.66406 16.9505 8.60938 16.7734 8.60938H7.99219C7.8151 8.60938 7.66667 8.66406 7.54688 8.77344C7.43229 8.8776 7.375 9.01562 7.375 9.1875C7.375 9.35417 7.43229 9.48958 7.54688 9.59375C7.66667 9.69792 7.8151 9.75 7.99219 9.75ZM9.1875 12.4219H15.5781C15.7604 12.4219 15.9089 12.3698 16.0234 12.2656C16.138 12.1615 16.1953 12.0234 16.1953 11.8516C16.1953 11.6797 16.138 11.5417 16.0234 11.4375C15.9089 11.3281 15.7604 11.2734 15.5781 11.2734H9.1875C9.00521 11.2734 8.85677 11.3281 8.74219 11.4375C8.6276 11.5417 8.57031 11.6797 8.57031 11.8516C8.57031 12.0234 8.6276 12.1615 8.74219 12.2656C8.85677 12.3698 9.00521 12.4219 9.1875 12.4219ZM10.4375 15.0938H14.3359C14.513 15.0938 14.6589 15.0417 14.7734 14.9375C14.888 14.8333 14.9453 14.6953 14.9453 14.5234C14.9453 14.3516 14.888 14.2135 14.7734 14.1094C14.6589 14.0052 14.513 13.9531 14.3359 13.9531H10.4375C10.2552 13.9531 10.1068 14.0052 9.99219 14.1094C9.8776 14.2135 9.82031 14.3516 9.82031 14.5234C9.82031 14.6953 9.8776 14.8333 9.99219 14.9375C10.1068 15.0417 10.2552 15.0938 10.4375 15.0938Z" fill="currentColor"/>
</svg>
