<svg width="24" height="24" viewBox="0 0 24 24" fill="none" xmlns="http://www.w3.org/2000/svg">
<path d="M11.9072 9.19314C12.3447 9.27061 12.7093 9.38454 13.001 9.53493C13.2926 9.68077 13.5456 9.86306 13.7598 10.0818C14.3158 10.6332 14.6849 11.2416 14.8672 11.907C15.0495 12.5678 15.0472 13.2286 14.8604 13.8894C14.6781 14.5502 14.3135 15.1541 13.7666 15.7009L11.4287 18.0457C10.8864 18.588 10.2848 18.9503 9.62402 19.1326C8.96322 19.3194 8.30013 19.3217 7.63477 19.1394C6.97396 18.9571 6.36556 18.588 5.80957 18.032C5.25814 17.4806 4.89128 16.8745 4.70898 16.2136C4.52669 15.5483 4.52669 14.8852 4.70898 14.2244C4.89583 13.5636 5.26042 12.9597 5.80273 12.4129L7.8125 10.4099C7.77604 10.6332 7.76921 10.8679 7.79199 11.114C7.81934 11.3556 7.88086 11.5834 7.97656 11.7976L6.63672 13.1375C6.24023 13.534 5.97591 13.9715 5.84375 14.45C5.71159 14.9285 5.71159 15.4093 5.84375 15.8924C5.97591 16.3709 6.24023 16.8106 6.63672 17.2117C7.0332 17.6082 7.4707 17.8702 7.94922 17.9978C8.43229 18.13 8.91309 18.13 9.3916 17.9978C9.87012 17.8657 10.3076 17.6013 10.7041 17.2049L12.9395 14.9763C13.3359 14.5799 13.598 14.1424 13.7256 13.6638C13.8577 13.1853 13.8577 12.7068 13.7256 12.2283C13.5934 11.7452 13.3291 11.3032 12.9326 10.9021C12.7093 10.6788 12.4427 10.5011 12.1328 10.3689C11.8275 10.2368 11.4492 10.1524 10.998 10.116L11.9072 9.19314ZM11.7363 14.8259C11.2988 14.7485 10.9342 14.6368 10.6426 14.491C10.3509 14.3406 10.098 14.156 9.88379 13.9373C9.3278 13.3858 8.95866 12.7797 8.77637 12.1189C8.59408 11.4536 8.59408 10.7905 8.77637 10.1297C8.96322 9.46885 9.33008 8.86501 9.87695 8.31814L12.208 5.98025C12.7549 5.43337 13.3587 5.06879 14.0195 4.8865C14.6803 4.69965 15.3411 4.69737 16.002 4.87966C16.6673 5.06195 17.278 5.43109 17.834 5.98708C18.3854 6.53851 18.7523 7.14691 18.9346 7.81228C19.1169 8.47308 19.1146 9.13389 18.9277 9.7947C18.7454 10.4555 18.3831 11.0593 17.8408 11.6062L15.8311 13.6092C15.8675 13.3858 15.8721 13.1534 15.8447 12.9119C15.8219 12.6703 15.7627 12.4402 15.667 12.2215L17.0068 10.8816C17.4033 10.4851 17.6676 10.0476 17.7998 9.56911C17.932 9.0906 17.932 8.61208 17.7998 8.13357C17.6676 7.65049 17.4033 7.21071 17.0068 6.81423C16.6058 6.41319 16.166 6.14887 15.6875 6.02126C15.209 5.8891 14.7305 5.8891 14.252 6.02126C13.7734 6.15342 13.3337 6.41775 12.9326 6.81423L10.7041 9.04275C10.3076 9.43923 10.0433 9.87673 9.91113 10.3552C9.77897 10.8338 9.77897 11.3146 9.91113 11.7976C10.0433 12.2761 10.3099 12.7159 10.7109 13.117C10.9342 13.3403 11.1986 13.518 11.5039 13.6502C11.8138 13.7823 12.1943 13.8666 12.6455 13.9031L11.7363 14.8259Z" fill="#141414"/>
</svg>
