<svg width="25" height="25" viewBox="0 0 25 25" fill="none" xmlns="http://www.w3.org/2000/svg">
<circle opacity="0.2" cx="12" cy="12.25" r="11" stroke="#141414" stroke-width="2"/>
<path d="M17.125 21.1268C16.6467 21.4029 16.4828 22.0145 16.759 22.4928C17.0351 22.9711 17.6467 23.135 18.125 22.8588L17.125 21.1268ZM22.3936 16.5552L23.3175 16.9379V16.9379L22.3936 16.5552ZM22.8667 9.33829L21.9007 9.59711V9.59711L22.8667 9.33829ZM18.8486 3.32478L19.4573 2.53142V2.53142L18.8486 3.32478ZM18.125 22.8588C20.4604 21.5105 22.2856 19.4292 23.3175 16.9379L21.4698 16.1725C20.6063 18.2571 19.0791 19.9986 17.125 21.1268L18.125 22.8588ZM23.3175 16.9379C24.3495 14.4465 24.5305 11.6842 23.8326 9.07947L21.9007 9.59711C22.4847 11.7766 22.3332 14.0879 21.4698 16.1725L23.3175 16.9379ZM23.8326 9.07947C23.1346 6.47471 21.5967 4.17304 19.4573 2.53142L18.2398 4.11813C20.0299 5.49172 21.3167 7.41761 21.9007 9.59711L23.8326 9.07947ZM19.4573 2.53142C17.3179 0.889809 14.6966 0 12 0V2C14.2564 2 16.4497 2.74453 18.2398 4.11813L19.4573 2.53142Z" fill="currentColor"/>
<path d="M11.9994 12.9477L8.80924 16.1377C8.70862 16.2384 8.59143 16.2884 8.45768 16.2875C8.32403 16.2866 8.20862 16.2358 8.11143 16.1352C8.01247 16.0345 7.96429 15.9186 7.9669 15.7875C7.9695 15.6564 8.01851 15.5431 8.11393 15.4477L11.3014 12.2497L8.11393 9.05177C8.01851 8.95635 7.9708 8.84307 7.9708 8.71192C7.9708 8.58088 8.01851 8.465 8.11393 8.36427C8.20945 8.26364 8.32403 8.21286 8.45768 8.21192C8.59143 8.21109 8.70862 8.25927 8.80924 8.35646L11.9994 11.5518L15.1947 8.35646C15.2919 8.25927 15.4074 8.21109 15.5411 8.21192C15.6748 8.21286 15.792 8.26364 15.8927 8.36427C15.9881 8.465 16.0345 8.58088 16.0319 8.71192C16.0293 8.84307 15.9803 8.95635 15.8849 9.05177L12.6974 12.2497L15.8849 15.4477C15.9803 15.5431 16.028 15.6564 16.028 15.7875C16.028 15.9186 15.9803 16.0345 15.8849 16.1352C15.7893 16.2358 15.6748 16.2866 15.5411 16.2875C15.4074 16.2884 15.2919 16.2384 15.1947 16.1377L11.9994 12.9477Z" fill="currentColor"/>
</svg>
