<svg width="24" height="24" viewBox="0 0 24 24" fill="none" xmlns="http://www.w3.org/2000/svg">
<path d="M5.39842 12.8673C5.15884 12.862 4.96092 12.8126 4.80467 12.7188C4.64842 12.6199 4.53124 12.4949 4.45311 12.3438C4.38019 12.1876 4.35155 12.0235 4.36717 11.8516C4.3828 11.6745 4.44269 11.5105 4.54686 11.3594C4.65103 11.2084 4.80467 11.086 5.0078 10.9923L17.4922 5.20319C17.7682 5.07819 18.0208 5.02611 18.25 5.04694C18.4844 5.06257 18.6771 5.14069 18.8281 5.28132C18.9844 5.41674 19.0781 5.59642 19.1094 5.82038C19.1406 6.04434 19.0911 6.29955 18.9609 6.58601L13.1875 19.0001C13.0833 19.224 12.9505 19.3933 12.789 19.5079C12.6328 19.6277 12.4661 19.6954 12.289 19.711C12.112 19.7318 11.9453 19.7032 11.789 19.6251C11.6328 19.5522 11.5052 19.4376 11.4062 19.2813C11.3125 19.1251 11.2656 18.9298 11.2656 18.6954L11.25 13.0469C11.25 12.9428 11.1979 12.8907 11.0937 12.8907L5.39842 12.8673Z" fill="#141414"/>
</svg>
