<svg width="24" height="24" viewBox="0 0 24 24" fill="none" xmlns="http://www.w3.org/2000/svg">
<path d="M4.98426 10.9531L17.4686 5.16402C17.7551 5.0286 18.0181 4.97391 18.2577 4.99995C18.5025 5.02079 18.703 5.10412 18.8593 5.24995C19.0155 5.39579 19.1093 5.58589 19.1405 5.82027C19.1718 6.05464 19.1223 6.31506 18.9921 6.60152L13.2186 19.0156C13.1145 19.2395 12.9791 19.4114 12.8124 19.5312C12.6509 19.6562 12.4764 19.7265 12.2889 19.7421C12.1067 19.763 11.9348 19.7369 11.7733 19.664C11.6119 19.5911 11.4791 19.4713 11.3749 19.3046C11.2707 19.1432 11.2186 18.9401 11.2186 18.6953L11.203 13.0468C11.203 12.9687 11.1639 12.9296 11.0858 12.9296L5.39051 12.9062C5.15614 12.901 4.95561 12.8489 4.78895 12.75C4.62749 12.6458 4.50509 12.5156 4.42176 12.3593C4.34364 12.1979 4.30978 12.0286 4.3202 11.8515C4.33061 11.6744 4.38791 11.5052 4.49207 11.3437C4.60145 11.1822 4.76551 11.052 4.98426 10.9531ZM6.34364 11.6875L11.8593 11.6562C12.0363 11.6562 12.1796 11.7109 12.2889 11.8203C12.3983 11.9296 12.453 12.0703 12.453 12.2421L12.4139 17.7656C12.4139 17.7812 12.4192 17.7916 12.4296 17.7968C12.44 17.7968 12.4478 17.789 12.453 17.7734L17.6249 6.55464C17.6353 6.52339 17.6353 6.50516 17.6249 6.49995C17.6145 6.48954 17.5962 6.48954 17.5702 6.49995L6.34364 11.6406C6.3228 11.651 6.31239 11.6614 6.31239 11.6718C6.31759 11.6822 6.32801 11.6875 6.34364 11.6875Z" fill="currentColor"/>
</svg>
