<svg width="24" height="24" viewBox="0 0 24 24" fill="none" xmlns="http://www.w3.org/2000/svg">
<path d="M7.94531 19.8203C7.3724 19.8203 6.9349 19.6641 6.63281 19.3516C6.33594 19.0391 6.1875 18.5755 6.1875 17.9609V12.5781C6.1875 11.9635 6.33594 11.5026 6.63281 11.1953C6.9349 10.8828 7.3724 10.7266 7.94531 10.7266H15.0938C15.6667 10.7266 16.1016 10.8828 16.3984 11.1953C16.7005 11.5026 16.8516 11.9635 16.8516 12.5781V17.9609C16.8516 18.5755 16.7005 19.0391 16.3984 19.3516C16.1016 19.6641 15.6667 19.8203 15.0938 19.8203H7.94531ZM7.55469 11.3281V8.85938C7.55469 7.88021 7.74219 7.06771 8.11719 6.42188C8.4974 5.77604 8.98958 5.29427 9.59375 4.97656C10.1979 4.65365 10.8385 4.49219 11.5156 4.49219C12.1979 4.49219 12.8411 4.65365 13.4453 4.97656C14.0495 5.29427 14.5391 5.77604 14.9141 6.42188C15.2943 7.06771 15.4844 7.88021 15.4844 8.85938V11.3281H14.25V8.6875C14.25 8.03125 14.1224 7.47917 13.8672 7.03125C13.6172 6.58333 13.2839 6.24479 12.8672 6.01562C12.4557 5.78646 12.0052 5.67188 11.5156 5.67188C11.0312 5.67188 10.5807 5.78646 10.1641 6.01562C9.7526 6.24479 9.42188 6.58333 9.17188 7.03125C8.92188 7.47917 8.79688 8.03125 8.79688 8.6875V11.3281H7.55469Z" fill="#141414"/>
</svg>
