<svg width="24" height="24" viewBox="0 0 24 24" fill="none" xmlns="http://www.w3.org/2000/svg">
<path d="M7.94531 19.8203C7.3724 19.8203 6.9349 19.6641 6.63281 19.3516C6.33594 19.0443 6.1875 18.5807 6.1875 17.9609V12.5781C6.1875 11.9635 6.33594 11.5026 6.63281 11.1953C6.9349 10.8828 7.3724 10.7266 7.94531 10.7266H15.0938C15.6667 10.7266 16.1016 10.8828 16.3984 11.1953C16.7005 11.5026 16.8516 11.9635 16.8516 12.5781V17.9609C16.8516 18.5807 16.7005 19.0443 16.3984 19.3516C16.1016 19.6641 15.6667 19.8203 15.0938 19.8203H7.94531ZM7.98438 18.6406H15.0547C15.2266 18.6406 15.3568 18.5885 15.4453 18.4844C15.5391 18.3854 15.5859 18.2396 15.5859 18.0469V12.4922C15.5859 12.2995 15.5391 12.1536 15.4453 12.0547C15.3568 11.9557 15.2266 11.9062 15.0547 11.9062H7.98438C7.81771 11.9062 7.6875 11.9557 7.59375 12.0547C7.5 12.1536 7.45312 12.2995 7.45312 12.4922V18.0469C7.45312 18.2396 7.5 18.3854 7.59375 18.4844C7.6875 18.5885 7.81771 18.6406 7.98438 18.6406ZM7.55469 11.3281V8.85938C7.55469 7.88021 7.74219 7.06771 8.11719 6.42188C8.4974 5.77604 8.98958 5.29427 9.59375 4.97656C10.1979 4.65885 10.8385 4.5 11.5156 4.5C12.1979 4.5 12.8411 4.65885 13.4453 4.97656C14.0495 5.29427 14.5391 5.77604 14.9141 6.42188C15.2943 7.06771 15.4844 7.88021 15.4844 8.85938V11.3281H14.25V8.69531C14.25 8.03906 14.1224 7.48698 13.8672 7.03906C13.6172 6.59115 13.2839 6.2526 12.8672 6.02344C12.4557 5.79427 12.0052 5.67969 11.5156 5.67969C11.0312 5.67969 10.5807 5.79427 10.1641 6.02344C9.7526 6.2526 9.42188 6.59115 9.17188 7.03906C8.92188 7.48698 8.79688 8.03906 8.79688 8.69531V11.3281H7.55469Z" fill="currentColor"/>
</svg>
