<svg width="24" height="24" viewBox="0 0 24 24" fill="none" xmlns="http://www.w3.org/2000/svg">
<path d="M4.79688 10.8906C4.79688 10.0312 4.95833 9.22656 5.28125 8.47656C5.60417 7.72135 6.05208 7.05729 6.625 6.48438C7.19792 5.91146 7.85938 5.46354 8.60938 5.14062C9.36458 4.81771 10.1719 4.65625 11.0312 4.65625C11.8906 4.65625 12.6953 4.81771 13.4453 5.14062C14.2005 5.46354 14.8646 5.91146 15.4375 6.48438C16.0104 7.05729 16.4583 7.72135 16.7812 8.47656C17.1042 9.22656 17.2656 10.0312 17.2656 10.8906C17.2656 11.6042 17.151 12.2812 16.9219 12.9219C16.6979 13.5625 16.3854 14.1432 15.9844 14.6641L19.8047 18.5078C19.888 18.5911 19.9505 18.6875 19.9922 18.7969C20.0391 18.9062 20.0625 19.0234 20.0625 19.1484C20.0625 19.3203 20.0234 19.4766 19.9453 19.6172C19.8724 19.7578 19.7682 19.8672 19.6328 19.9453C19.4974 20.0286 19.3411 20.0703 19.1641 20.0703C19.0391 20.0703 18.9193 20.0469 18.8047 20C18.6953 19.9583 18.5938 19.8932 18.5 19.8047L14.6562 15.9531C14.1458 16.3177 13.5833 16.6042 12.9688 16.8125C12.3542 17.0208 11.7083 17.125 11.0312 17.125C10.1719 17.125 9.36458 16.9635 8.60938 16.6406C7.85938 16.3177 7.19792 15.8698 6.625 15.2969C6.05208 14.724 5.60417 14.0625 5.28125 13.3125C4.95833 12.5573 4.79688 11.75 4.79688 10.8906ZM6.13281 10.8906C6.13281 11.5677 6.25781 12.2031 6.50781 12.7969C6.76302 13.3854 7.11458 13.9036 7.5625 14.3516C8.01562 14.7995 8.53646 15.151 9.125 15.4062C9.71875 15.6615 10.3542 15.7891 11.0312 15.7891C11.7083 15.7891 12.3411 15.6615 12.9297 15.4062C13.5234 15.151 14.0443 14.7995 14.4922 14.3516C14.9401 13.9036 15.2917 13.3854 15.5469 12.7969C15.8021 12.2031 15.9297 11.5677 15.9297 10.8906C15.9297 10.2135 15.8021 9.58073 15.5469 8.99219C15.2917 8.39844 14.9401 7.8776 14.4922 7.42969C14.0443 6.97656 13.5234 6.625 12.9297 6.375C12.3411 6.11979 11.7083 5.99219 11.0312 5.99219C10.3542 5.99219 9.71875 6.11979 9.125 6.375C8.53646 6.625 8.01562 6.97656 7.5625 7.42969C7.11458 7.8776 6.76302 8.39844 6.50781 8.99219C6.25781 9.58073 6.13281 10.2135 6.13281 10.8906Z" fill="#141414"/>
</svg>
