<svg width="24" height="24" viewBox="0 0 24 24" fill="none" xmlns="http://www.w3.org/2000/svg">
<path d="M6.375 11.7031V10.1172C6.375 9.95573 6.43229 9.81771 6.54688 9.70312C6.66146 9.58854 6.79948 9.53125 6.96094 9.53125C7.1276 9.53125 7.26823 9.58854 7.38281 9.70312C7.4974 9.81771 7.55469 9.95573 7.55469 10.1172V11.6562C7.55469 12.5417 7.73698 13.3177 8.10156 13.9844C8.46615 14.651 8.97917 15.1693 9.64062 15.5391C10.3021 15.9036 11.0781 16.0859 11.9688 16.0859C12.3646 16.0859 12.737 16.0469 13.0859 15.9688C13.4401 15.8906 13.7682 15.7786 14.0703 15.6328L14.9062 16.4766C14.5677 16.6693 14.2005 16.8255 13.8047 16.9453C13.4141 17.0599 12.9974 17.1328 12.5547 17.1641V18.9844H15.4531C15.6198 18.9844 15.7604 19.0417 15.875 19.1562C15.9896 19.2708 16.0469 19.4115 16.0469 19.5781C16.0469 19.7396 15.9896 19.8776 15.875 19.9922C15.7604 20.1068 15.6198 20.1641 15.4531 20.1641H8.47656C8.3099 20.1641 8.16927 20.1068 8.05469 19.9922C7.9401 19.8776 7.88281 19.7396 7.88281 19.5781C7.88281 19.4115 7.9401 19.2708 8.05469 19.1562C8.16927 19.0417 8.3099 18.9844 8.47656 18.9844H11.375V17.1641C10.3802 17.0807 9.50781 16.8021 8.75781 16.3281C8.00781 15.849 7.42188 15.2135 7 14.4219C6.58333 13.6302 6.375 12.724 6.375 11.7031ZM16.1016 13.3125C16.2839 12.8021 16.375 12.25 16.375 11.6562V10.1172C16.375 9.95573 16.4323 9.81771 16.5469 9.70312C16.6615 9.58854 16.8021 9.53125 16.9688 9.53125C17.1302 9.53125 17.2682 9.58854 17.3828 9.70312C17.4974 9.81771 17.5547 9.95573 17.5547 10.1172V11.7031C17.5547 12.6302 17.375 13.4714 17.0156 14.2266L16.1016 13.3125ZM11.9688 14.4062C11.4479 14.4062 10.9922 14.2865 10.6016 14.0469C10.2109 13.8073 9.90625 13.4766 9.6875 13.0547C9.46875 12.6276 9.35938 12.1354 9.35938 11.5781V10.9219L12.7188 14.2812C12.4948 14.3646 12.2448 14.4062 11.9688 14.4062ZM11.9688 3.52344C11.4531 3.52344 11.0026 3.64062 10.6172 3.875C10.2318 4.10417 9.92708 4.42448 9.70312 4.83594C9.48438 5.2474 9.36979 5.72396 9.35938 6.26562V6.57812L14.5469 11.7656C14.5573 11.7396 14.5625 11.7109 14.5625 11.6797C14.5677 11.6432 14.5703 11.6094 14.5703 11.5781V6.35156C14.5703 5.79427 14.4609 5.30469 14.2422 4.88281C14.0286 4.45573 13.724 4.1224 13.3281 3.88281C12.9375 3.64323 12.4844 3.52344 11.9688 3.52344ZM17.7031 17.9375L5.60938 5.85938C5.49479 5.75 5.4375 5.60938 5.4375 5.4375C5.4375 5.26562 5.49479 5.1224 5.60938 5.00781C5.72917 4.89323 5.8724 4.83594 6.03906 4.83594C6.20573 4.83594 6.34896 4.89323 6.46875 5.00781L18.5547 17.0859C18.6693 17.2005 18.7266 17.3411 18.7266 17.5078C18.7266 17.6745 18.6693 17.8177 18.5547 17.9375C18.4401 18.0521 18.2969 18.1094 18.125 18.1094C17.9583 18.1094 17.8177 18.0521 17.7031 17.9375Z" fill="currentColor"/>
</svg>
