<svg width="24" height="24" viewBox="0 0 24 24" fill="none" xmlns="http://www.w3.org/2000/svg">
<path d="M6.375 11.7031V10.1172C6.375 9.95573 6.43229 9.81771 6.54688 9.70312C6.66146 9.58854 6.79948 9.53125 6.96094 9.53125C7.1276 9.53125 7.26823 9.58854 7.38281 9.70312C7.4974 9.81771 7.55469 9.95573 7.55469 10.1172V11.6562C7.55469 12.5417 7.73698 13.3177 8.10156 13.9844C8.46615 14.651 8.97917 15.1693 9.64062 15.5391C10.3021 15.9036 11.0781 16.0859 11.9688 16.0859C12.3646 16.0859 12.737 16.0469 13.0859 15.9688C13.4401 15.8906 13.7682 15.7786 14.0703 15.6328L14.9141 16.4688C14.5703 16.6615 14.2005 16.8177 13.8047 16.9375C13.4141 17.0573 12.9974 17.1328 12.5547 17.1641V18.9844H15.4531C15.6198 18.9844 15.7604 19.0417 15.875 19.1562C15.9896 19.2708 16.0469 19.4115 16.0469 19.5781C16.0469 19.7396 15.9896 19.8776 15.875 19.9922C15.7604 20.1068 15.6198 20.1641 15.4531 20.1641H8.47656C8.3099 20.1641 8.16927 20.1068 8.05469 19.9922C7.9401 19.8776 7.88281 19.7396 7.88281 19.5781C7.88281 19.4115 7.9401 19.2708 8.05469 19.1562C8.16927 19.0417 8.3099 18.9844 8.47656 18.9844H11.375V17.1641C10.3802 17.0807 9.50781 16.8021 8.75781 16.3281C8.00781 15.849 7.42188 15.2135 7 14.4219C6.58333 13.6302 6.375 12.724 6.375 11.7031ZM16.1016 13.3125C16.2839 12.8021 16.375 12.25 16.375 11.6562V10.1172C16.375 9.95573 16.4323 9.81771 16.5469 9.70312C16.6615 9.58854 16.8021 9.53125 16.9688 9.53125C17.1302 9.53125 17.2682 9.58854 17.3828 9.70312C17.4974 9.81771 17.5547 9.95573 17.5547 10.1172V11.7031C17.5547 12.6302 17.375 13.4714 17.0156 14.2266L16.1016 13.3125ZM11.9688 14.4844C11.4062 14.4844 10.9115 14.3542 10.4844 14.0938C10.0573 13.8333 9.72396 13.474 9.48438 13.0156C9.24479 12.5521 9.125 12.0208 9.125 11.4219V10.6875L10.4844 12.0469L10.4922 12.2422C10.5443 12.4818 10.6484 12.6875 10.8047 12.8594C10.9609 13.0312 11.1562 13.1406 11.3906 13.1875C11.4792 13.1875 11.5469 13.1745 11.5938 13.1484L12.7891 14.3516C12.5234 14.4401 12.25 14.4844 11.9688 14.4844ZM14.8047 6.50781V11.4219C14.8047 11.6042 14.7891 11.7891 14.7578 11.9766L13.6172 10.8359C13.6224 10.8047 13.625 10.776 13.625 10.75C13.625 10.7188 13.625 10.6875 13.625 10.6562V6.50781C13.625 5.92969 13.474 5.46875 13.1719 5.125C12.8698 4.78125 12.4688 4.60938 11.9688 4.60938C11.4688 4.60938 11.0651 4.78125 10.7578 5.125C10.4557 5.46875 10.3047 5.92969 10.3047 6.50781V7.52344L9.15625 6.38281V6.07031C9.21354 5.54948 9.36719 5.09375 9.61719 4.70312C9.86719 4.30729 10.1927 4 10.5938 3.78125C10.9948 3.55729 11.4531 3.44531 11.9688 3.44531C12.526 3.44531 13.0182 3.57552 13.4453 3.83594C13.8724 4.09635 14.2057 4.45833 14.4453 4.92188C14.6849 5.38021 14.8047 5.90885 14.8047 6.50781ZM17.7031 17.9375L5.60938 5.85938C5.49479 5.75 5.4375 5.60938 5.4375 5.4375C5.4375 5.26562 5.49479 5.1224 5.60938 5.00781C5.72917 4.89323 5.8724 4.83594 6.03906 4.83594C6.20573 4.83594 6.34896 4.89323 6.46875 5.00781L18.5547 17.0859C18.6693 17.2005 18.7266 17.3411 18.7266 17.5078C18.7266 17.6745 18.6693 17.8177 18.5547 17.9375C18.4401 18.0521 18.2969 18.1094 18.125 18.1094C17.9583 18.1094 17.8177 18.0521 17.7031 17.9375Z" fill="currentColor"/>
</svg>
