<svg width="24" height="24" viewBox="0 0 24 24" fill="none" xmlns="http://www.w3.org/2000/svg">
<path d="M6.375 11.7031V10.1172C6.375 9.95573 6.43229 9.81771 6.54688 9.70312C6.66146 9.58854 6.79948 9.53125 6.96094 9.53125C7.1276 9.53125 7.26823 9.58854 7.38281 9.70312C7.4974 9.81771 7.55469 9.95573 7.55469 10.1172V11.6562C7.55469 12.5417 7.73698 13.3177 8.10156 13.9844C8.46615 14.651 8.97917 15.1693 9.64062 15.5391C10.3021 15.9036 11.0781 16.0859 11.9688 16.0859C12.8594 16.0859 13.6328 15.9036 14.2891 15.5391C14.9505 15.1693 15.4635 14.651 15.8281 13.9844C16.1927 13.3177 16.375 12.5417 16.375 11.6562V10.1172C16.375 9.95573 16.4323 9.81771 16.5469 9.70312C16.6615 9.58854 16.8021 9.53125 16.9688 9.53125C17.1302 9.53125 17.2682 9.58854 17.3828 9.70312C17.4974 9.81771 17.5547 9.95573 17.5547 10.1172V11.7031C17.5547 12.724 17.3438 13.6302 16.9219 14.4219C16.5052 15.2135 15.9219 15.849 15.1719 16.3281C14.4219 16.8021 13.5495 17.0807 12.5547 17.1641V18.9844H15.4531C15.6198 18.9844 15.7604 19.0417 15.875 19.1562C15.9896 19.2708 16.0469 19.4115 16.0469 19.5781C16.0469 19.7396 15.9896 19.8776 15.875 19.9922C15.7604 20.1068 15.6198 20.1641 15.4531 20.1641H8.47656C8.3099 20.1641 8.16927 20.1068 8.05469 19.9922C7.9401 19.8776 7.88281 19.7396 7.88281 19.5781C7.88281 19.4115 7.9401 19.2708 8.05469 19.1562C8.16927 19.0417 8.3099 18.9844 8.47656 18.9844H11.375V17.1641C10.3802 17.0807 9.50781 16.8021 8.75781 16.3281C8.00781 15.849 7.42188 15.2135 7 14.4219C6.58333 13.6302 6.375 12.724 6.375 11.7031ZM11.9688 14.4062C11.4479 14.4062 10.9922 14.2865 10.6016 14.0469C10.2109 13.8073 9.90625 13.4766 9.6875 13.0547C9.46875 12.6276 9.35938 12.1354 9.35938 11.5781V6.35156C9.35938 5.79427 9.46875 5.30469 9.6875 4.88281C9.90625 4.45573 10.2109 4.1224 10.6016 3.88281C10.9922 3.64323 11.4479 3.52344 11.9688 3.52344C12.4844 3.52344 12.9375 3.64323 13.3281 3.88281C13.724 4.1224 14.0286 4.45573 14.2422 4.88281C14.4609 5.30469 14.5703 5.79427 14.5703 6.35156V11.5781C14.5703 12.1354 14.4609 12.6276 14.2422 13.0547C14.0286 13.4766 13.724 13.8073 13.3281 14.0469C12.9375 14.2865 12.4844 14.4062 11.9688 14.4062Z" fill="#141414"/>
</svg>
