<svg width="24" height="24" viewBox="0 0 24 24" fill="none" xmlns="http://www.w3.org/2000/svg">
<path d="M16.4844 15.0781C16.9635 15.0781 17.4297 15.0365 17.8828 14.9531C18.3359 14.8646 18.7135 14.7708 19.0156 14.6719C19.151 14.625 19.263 14.6016 19.3516 14.6016C19.4609 14.6016 19.5651 14.6458 19.6641 14.7344C19.763 14.8229 19.8125 14.9401 19.8125 15.0859C19.8125 15.1224 19.8073 15.1823 19.7969 15.2656C19.7865 15.3438 19.763 15.4297 19.7266 15.5234C19.487 16.1589 19.1328 16.7552 18.6641 17.3125C18.1953 17.8646 17.6406 18.349 17 18.7656C16.3594 19.1875 15.6562 19.5156 14.8906 19.75C14.125 19.9896 13.3203 20.1094 12.4766 20.1094C11.3359 20.1094 10.2734 19.9167 9.28906 19.5312C8.3099 19.1458 7.45312 18.6016 6.71875 17.8984C5.98958 17.1901 5.41927 16.3568 5.00781 15.3984C4.60156 14.4401 4.39844 13.3854 4.39844 12.2344C4.39844 11.1406 4.59896 10.0911 5 9.08594C5.40625 8.08073 5.97135 7.19531 6.69531 6.42969C7.41927 5.65885 8.26302 5.08073 9.22656 4.69531C9.3151 4.66406 9.40104 4.64323 9.48438 4.63281C9.56771 4.61719 9.63021 4.60938 9.67188 4.60938C9.82292 4.60938 9.9375 4.65885 10.0156 4.75781C10.0938 4.85156 10.1328 4.95052 10.1328 5.05469C10.1328 5.09115 10.1276 5.14062 10.1172 5.20312C10.1068 5.26042 10.0833 5.33333 10.0469 5.42188C9.95312 5.64062 9.86979 5.91146 9.79688 6.23438C9.72396 6.55729 9.66406 6.89323 9.61719 7.24219C9.57552 7.58594 9.55469 7.90365 9.55469 8.19531C9.55469 9.25781 9.71615 10.2135 10.0391 11.0625C10.362 11.9062 10.8255 12.6276 11.4297 13.2266C12.0391 13.8255 12.7682 14.2839 13.6172 14.6016C14.4714 14.9193 15.4271 15.0781 16.4844 15.0781Z" fill="currentColor"/>
</svg>
