<svg width="24" height="24" viewBox="0 0 24 24" fill="none" xmlns="http://www.w3.org/2000/svg">
<path d="M16.6719 15.0547C16.9844 15.0547 17.2917 15.0365 17.5938 15C17.901 14.9635 18.1901 14.9141 18.4609 14.8516C18.737 14.7891 18.9818 14.7135 19.1953 14.625C19.2891 14.5938 19.3646 14.5729 19.4219 14.5625C19.4792 14.5521 19.5391 14.5469 19.6016 14.5469C19.7214 14.5469 19.8359 14.5964 19.9453 14.6953C20.0599 14.7943 20.1172 14.9245 20.1172 15.0859C20.1172 15.1276 20.1094 15.1901 20.0938 15.2734C20.0833 15.3516 20.0547 15.4427 20.0078 15.5469C19.5859 16.5208 19.0104 17.3594 18.2812 18.0625C17.5521 18.7656 16.7031 19.3047 15.7344 19.6797C14.7656 20.0599 13.7161 20.25 12.5859 20.25C11.3984 20.25 10.3047 20.0469 9.30469 19.6406C8.3099 19.2344 7.44531 18.6641 6.71094 17.9297C5.97656 17.1953 5.40625 16.3307 5 15.3359C4.59896 14.3359 4.39844 13.2422 4.39844 12.0547C4.39844 10.9609 4.60677 9.91667 5.02344 8.92188C5.44531 7.92188 6.02604 7.04167 6.76562 6.28125C7.50521 5.52083 8.35677 4.94531 9.32031 4.55469C9.42969 4.50781 9.52083 4.47917 9.59375 4.46875C9.66667 4.45312 9.71875 4.44531 9.75 4.44531C9.91667 4.44531 10.0521 4.50781 10.1562 4.63281C10.2656 4.7526 10.3203 4.8776 10.3203 5.00781C10.3203 5.08594 10.3099 5.15885 10.2891 5.22656C10.2734 5.29427 10.237 5.38542 10.1797 5.5C10.0339 5.78125 9.91667 6.16927 9.82812 6.66406C9.73958 7.15885 9.69531 7.70312 9.69531 8.29688C9.69531 9.6875 9.97656 10.888 10.5391 11.8984C11.1068 12.9089 11.9115 13.6875 12.9531 14.2344C14 14.7812 15.2396 15.0547 16.6719 15.0547ZM5.625 12C5.625 13.0208 5.79688 13.9609 6.14062 14.8203C6.48958 15.6745 6.97917 16.4167 7.60938 17.0469C8.23958 17.6771 8.98177 18.1641 9.83594 18.5078C10.6901 18.8568 11.6224 19.0312 12.6328 19.0312C13.4714 19.0312 14.2708 18.9036 15.0312 18.6484C15.7969 18.3984 16.487 18.0365 17.1016 17.5625C17.7214 17.0885 18.2292 16.526 18.625 15.875C18.3021 15.9896 17.9661 16.0729 17.6172 16.125C17.2682 16.1719 16.8932 16.1953 16.4922 16.1953C14.8307 16.1953 13.4036 15.8854 12.2109 15.2656C11.0234 14.6458 10.112 13.7552 9.47656 12.5938C8.84635 11.4271 8.53125 10.0312 8.53125 8.40625C8.53125 7.95833 8.5625 7.53385 8.625 7.13281C8.69271 6.72656 8.78906 6.34375 8.91406 5.98438C8.24219 6.40625 7.65885 6.93229 7.16406 7.5625C6.67448 8.19271 6.29427 8.88802 6.02344 9.64844C5.75781 10.4089 5.625 11.1927 5.625 12Z" fill="currentColor"/>
</svg>
