<svg width="24" height="24" viewBox="0 0 24 24" fill="none" xmlns="http://www.w3.org/2000/svg">
<mask id="mask0_4911_710016" style="mask-type:alpha" maskUnits="userSpaceOnUse" x="0" y="0" width="24" height="24">
<rect width="24" height="24" fill="#D9D9D9"/>
</mask>
<g mask="url(#mask0_4911_710016)">
<path d="M20.2659 22.3732L18.3774 20.5002H4.30817C3.81101 20.5002 3.38542 20.3232 3.03142 19.9692C2.67742 19.6152 2.50042 19.1896 2.50042 18.6924V7.30791C2.50042 6.81074 2.67742 6.38516 3.03142 6.03116C3.38542 5.67716 3.81101 5.50016 4.30817 5.50016H5.51592V7.63866L1.80817 3.93091C1.65951 3.78224 1.58351 3.60566 1.58017 3.40116C1.57701 3.19666 1.65301 3.01682 1.80817 2.86166C1.96334 2.70649 2.14151 2.62891 2.34267 2.62891C2.54401 2.62891 2.72226 2.70649 2.87742 2.86166L21.3352 21.3194C21.4838 21.4681 21.5598 21.6421 21.5629 21.8414C21.5661 22.0407 21.4902 22.218 21.3352 22.3732C21.18 22.5283 21.0018 22.6059 20.8004 22.6059C20.5991 22.6059 20.4209 22.5283 20.2659 22.3732ZM20.9332 17.2982C20.769 17.3687 20.6033 17.3905 20.4359 17.3637C20.2686 17.3367 20.1113 17.2495 19.9639 17.1022L16.0907 13.2289C16.1292 12.6444 16.0456 12.0775 15.8399 11.5282C15.6341 10.9787 15.3219 10.4947 14.9034 10.0762C14.4989 9.67166 14.0219 9.36649 13.4724 9.16066C12.9231 8.95499 12.3562 8.87141 11.7717 8.90991L8.44467 5.59816C8.35101 5.50466 8.28501 5.40566 8.24667 5.30116C8.20817 5.19682 8.18892 5.08499 8.18892 4.96566C8.18892 4.85149 8.20817 4.74466 8.24667 4.64516C8.28501 4.54549 8.34267 4.44974 8.41967 4.35791L8.66967 4.08291C8.83501 3.90357 9.03426 3.76166 9.26742 3.65716C9.50042 3.55249 9.74476 3.50016 10.0004 3.50016H14.0004C14.2561 3.50016 14.5004 3.55249 14.7334 3.65716C14.9666 3.76166 15.1658 3.90357 15.3312 4.08291L16.6389 5.50016H19.6927C20.1898 5.50016 20.6154 5.67716 20.9694 6.03116C21.3234 6.38516 21.5004 6.81074 21.5004 7.30791V16.4694C21.5004 16.6802 21.4469 16.8535 21.3399 16.9892C21.2328 17.1247 21.0972 17.2277 20.9332 17.2982ZM12.0004 17.1154C12.4128 17.1154 12.8117 17.0562 13.1972 16.9377C13.5827 16.819 13.9421 16.6392 14.2754 16.3982L8.60242 10.7252C8.36142 11.0585 8.18159 11.4179 8.06292 11.8034C7.94442 12.1889 7.88517 12.5878 7.88517 13.0002C7.88517 14.1433 8.28526 15.115 9.08542 15.9152C9.88559 16.7153 10.8573 17.1154 12.0004 17.1154ZM12.0052 15.6157C11.2715 15.6157 10.6514 15.3623 10.1449 14.8557C9.63826 14.3492 9.38492 13.7291 9.38492 12.9954C9.38492 12.6461 9.45067 12.3124 9.58217 11.9944C9.71351 11.6764 9.90226 11.3943 10.1484 11.1482L13.8524 14.8522C13.6063 15.0983 13.3242 15.2871 13.0062 15.4184C12.6882 15.5499 12.3545 15.6157 12.0052 15.6157Z" fill="currentColor"/>
</g>
</svg>
