<svg width="24" height="24" viewBox="0 0 24 24" fill="none" xmlns="http://www.w3.org/2000/svg">
<path d="M12.9766 21C12.612 21 12.349 20.8698 12.1875 20.6094C12.026 20.349 11.888 20.0234 11.7734 19.6328L10.1328 14.0625L4.49219 12.4062C4.11719 12.2917 3.80729 12.1562 3.5625 12C3.31771 11.8385 3.19531 11.5781 3.19531 11.2188C3.19531 10.9375 3.30729 10.6953 3.53125 10.4922C3.75521 10.2891 4.03125 10.125 4.35938 10L17.7969 4.85156C17.9792 4.78385 18.1484 4.73177 18.3047 4.69531C18.4661 4.65365 18.612 4.63281 18.7422 4.63281C18.9974 4.63281 19.1979 4.70573 19.3438 4.85156C19.4896 4.9974 19.5625 5.19792 19.5625 5.45312C19.5625 5.58854 19.5417 5.73438 19.5 5.89062C19.4635 6.04688 19.4115 6.21615 19.3438 6.39844L14.2266 19.7656C14.0807 20.1406 13.9062 20.4401 13.7031 20.6641C13.5 20.888 13.2578 21 12.9766 21ZM10.4844 12.875L15.8594 7.5C16.0729 7.28646 16.3255 7.0599 16.6172 6.82031C16.9089 6.58073 17.1849 6.35677 17.4453 6.14844C17.1536 6.28385 16.8568 6.42448 16.5547 6.57031C16.2578 6.71094 15.9531 6.84115 15.6406 6.96094L5.07812 10.9609C5.02083 10.9818 4.98177 11.0052 4.96094 11.0312C4.9401 11.0521 4.92969 11.0755 4.92969 11.1016C4.92969 11.1276 4.9401 11.151 4.96094 11.1719C4.98698 11.1927 5.03125 11.2109 5.09375 11.2266L10.4844 12.875ZM13.1016 19.2812C13.1276 19.2812 13.151 19.2682 13.1719 19.2422C13.1927 19.2161 13.2135 19.1745 13.2344 19.1172L17.2344 8.55469C17.3542 8.23698 17.487 7.92708 17.6328 7.625C17.7786 7.32292 17.9193 7.02344 18.0547 6.72656C17.8464 6.99219 17.6198 7.27344 17.375 7.57031C17.1354 7.86719 16.9089 8.1224 16.6953 8.33594L11.3203 13.7109L12.9688 19.1016C12.9896 19.1641 13.0078 19.2083 13.0234 19.2344C13.0443 19.2656 13.0703 19.2812 13.1016 19.2812Z" fill="currentColor"/>
</svg>
