<svg width="24" height="24" viewBox="0 0 24 24" fill="none" xmlns="http://www.w3.org/2000/svg">
<path d="M17.5312 12.8359C17.6458 12.7266 17.7838 12.6667 17.9453 12.6562C18.1119 12.6406 18.2499 12.6953 18.3593 12.8203C18.4791 12.9297 18.539 13.0703 18.539 13.2422C18.539 13.4141 18.4817 13.5573 18.3671 13.6719L12.5859 19.4531C12.1015 19.9323 11.5781 20.2865 11.0156 20.5156C10.4531 20.7448 9.88016 20.8542 9.29682 20.8438C8.7187 20.8385 8.1588 20.7188 7.61713 20.4844C7.07547 20.2552 6.58849 19.9245 6.1562 19.4922C5.7187 19.0599 5.38536 18.5729 5.1562 18.0312C4.92703 17.4896 4.80724 16.9297 4.79682 16.3516C4.78641 15.7682 4.89578 15.1953 5.12495 14.6328C5.35411 14.0703 5.71088 13.5469 6.19526 13.0625L14.0703 5.17969C14.5598 4.6901 15.0859 4.36979 15.6484 4.21875C16.2109 4.06771 16.7604 4.06771 17.2968 4.21875C17.8385 4.36458 18.3151 4.64323 18.7265 5.05469C19.1536 5.48177 19.4401 5.96354 19.5859 6.5C19.7317 7.03646 19.7265 7.58333 19.5703 8.14062C19.414 8.69792 19.0911 9.22135 18.6015 9.71094L10.914 17.3984C10.6484 17.6641 10.3515 17.8438 10.0234 17.9375C9.70047 18.0312 9.37755 18.0391 9.05463 17.9609C8.73172 17.8776 8.44266 17.7083 8.18745 17.4531C7.95307 17.2188 7.79422 16.9401 7.71088 16.6172C7.63276 16.2943 7.63536 15.9661 7.7187 15.6328C7.80724 15.2995 7.98432 15 8.24995 14.7344L13.6171 9.36719C13.7317 9.2474 13.8645 9.1849 14.0156 9.17969C14.1718 9.17448 14.3072 9.22656 14.4218 9.33594C14.5364 9.45052 14.5885 9.58594 14.5781 9.74219C14.5729 9.89323 14.513 10.0286 14.3984 10.1484L9.04682 15.4844C8.85411 15.6823 8.77078 15.8854 8.79682 16.0938C8.82286 16.3021 8.90359 16.474 9.03901 16.6094C9.17443 16.7396 9.3463 16.8203 9.55463 16.8516C9.76297 16.8776 9.96349 16.7917 10.1562 16.5938L17.8124 8.9375C18.1093 8.64062 18.3177 8.30729 18.4374 7.9375C18.5624 7.56771 18.5885 7.20312 18.5156 6.84375C18.4427 6.47917 18.263 6.15104 17.9765 5.85938C17.6901 5.57812 17.3645 5.40104 16.9999 5.32812C16.6354 5.25521 16.2682 5.27865 15.8984 5.39844C15.5286 5.51823 15.1953 5.72917 14.8984 6.03125L7.06245 13.8594C6.56766 14.3594 6.24474 14.8984 6.0937 15.4766C5.94786 16.0495 5.95568 16.612 6.11713 17.1641C6.2838 17.7161 6.58068 18.2057 7.00776 18.6328C7.43484 19.0651 7.92443 19.362 8.47651 19.5234C9.0338 19.6901 9.59891 19.6979 10.1718 19.5469C10.7499 19.401 11.289 19.0781 11.789 18.5781L17.5312 12.8359Z" fill="currentColor"/>
</svg>
