<svg width="24" height="24" viewBox="0 0 24 24" fill="none" xmlns="http://www.w3.org/2000/svg">
<path d="M7.92961 17.8593L6.12492 18.5546C6.03117 18.5911 5.94523 18.5677 5.86711 18.4843C5.79419 18.4062 5.77596 18.3203 5.81242 18.2265L6.55461 16.4843L15.0859 7.9687L16.453 9.3437L7.92961 17.8593ZM17.1405 8.67182L15.7577 7.29682L16.5468 6.51557C16.7447 6.32286 16.9452 6.2187 17.1484 6.20307C17.3567 6.18745 17.5494 6.26818 17.7265 6.44526L17.9921 6.71088C18.1744 6.89318 18.2603 7.08588 18.2499 7.28901C18.2395 7.49213 18.1327 7.69526 17.9296 7.89838L17.1405 8.67182Z" fill="currentColor"/>
</svg>
