<svg width="24" height="24" viewBox="0 0 24 24" fill="none" xmlns="http://www.w3.org/2000/svg">
<path d="M11.3291 18.21C10.7913 18.21 10.4131 18.1325 10.1943 17.9775C9.98014 17.8271 9.87305 17.6016 9.87305 17.3008C9.87305 16.8587 10.0052 16.3962 10.2695 15.9131C10.5339 15.4255 10.9167 14.9697 11.418 14.5459C11.9193 14.1175 12.5231 13.7712 13.2295 13.5068C13.9404 13.238 14.738 13.1035 15.6221 13.1035C16.5107 13.1035 17.3083 13.238 18.0146 13.5068C18.7256 13.7712 19.3294 14.1175 19.8262 14.5459C20.3275 14.9697 20.7103 15.4255 20.9746 15.9131C21.2435 16.3962 21.3779 16.8587 21.3779 17.3008C21.3779 17.6016 21.2686 17.8271 21.0498 17.9775C20.8311 18.1325 20.4528 18.21 19.915 18.21H11.3291ZM15.6289 11.8799C15.1367 11.8799 14.6833 11.7477 14.2686 11.4834C13.8538 11.2145 13.5212 10.8545 13.2705 10.4033C13.0199 9.94759 12.8945 9.43717 12.8945 8.87207C12.8945 8.31608 13.0199 7.81478 13.2705 7.36816C13.5257 6.92155 13.8607 6.56836 14.2754 6.30859C14.6901 6.04883 15.1413 5.91895 15.6289 5.91895C16.1165 5.91895 16.5677 6.04655 16.9824 6.30176C17.3971 6.55697 17.7298 6.90788 17.9805 7.35449C18.2311 7.79655 18.3564 8.29785 18.3564 8.8584C18.3564 9.42806 18.2311 9.94076 17.9805 10.3965C17.7298 10.8522 17.3971 11.2145 16.9824 11.4834C16.5677 11.7477 16.1165 11.8799 15.6289 11.8799ZM3.94629 18.21C3.51335 18.21 3.20345 18.1257 3.0166 17.957C2.83431 17.793 2.74316 17.556 2.74316 17.2461C2.74316 16.7767 2.85938 16.2982 3.0918 15.8105C3.32422 15.3184 3.6569 14.8672 4.08984 14.457C4.52734 14.0469 5.05371 13.7165 5.66895 13.4658C6.28874 13.2106 6.98372 13.083 7.75391 13.083C8.39193 13.083 8.95703 13.1673 9.44922 13.3359C9.94596 13.5 10.3857 13.7096 10.7686 13.9648C10.3994 14.252 10.0736 14.5846 9.79102 14.9629C9.51302 15.3366 9.29427 15.724 9.13477 16.125C8.97526 16.526 8.89095 16.9089 8.88184 17.2734C8.87272 17.638 8.95703 17.9502 9.13477 18.21H3.94629ZM7.75391 12.0371C7.33008 12.0371 6.93587 11.9209 6.57129 11.6885C6.21126 11.4561 5.92188 11.1416 5.70312 10.7451C5.48438 10.3486 5.375 9.90658 5.375 9.41895C5.375 8.93132 5.48438 8.49382 5.70312 8.10645C5.92643 7.71908 6.2181 7.41374 6.57812 7.19043C6.94271 6.96257 7.33464 6.84863 7.75391 6.84863C8.17773 6.84863 8.56966 6.96029 8.92969 7.18359C9.29427 7.40234 9.58594 7.7054 9.80469 8.09277C10.0234 8.47559 10.1328 8.91309 10.1328 9.40527C10.1328 9.89746 10.0234 10.3441 9.80469 10.7451C9.58594 11.1416 9.29655 11.4561 8.93652 11.6885C8.5765 11.9209 8.18229 12.0371 7.75391 12.0371Z" fill="#141414"/>
</svg>
