<svg width="24" height="24" viewBox="0 0 24 24" fill="none" xmlns="http://www.w3.org/2000/svg">
<path d="M6.32812 19.3828C5.91146 19.3828 5.58333 19.2891 5.34375 19.1016C5.10938 18.9193 4.99219 18.6667 4.99219 18.3438C4.99219 17.8385 5.14323 17.3099 5.44531 16.7578C5.7474 16.2005 6.1849 15.6797 6.75781 15.1953C7.33073 14.7057 8.02083 14.3099 8.82812 14.0078C9.64062 13.7005 10.5521 13.5469 11.5625 13.5469C12.5781 13.5469 13.4896 13.7005 14.2969 14.0078C15.1094 14.3099 15.7995 14.7057 16.3672 15.1953C16.9401 15.6797 17.3776 16.2005 17.6797 16.7578C17.987 17.3099 18.1406 17.8385 18.1406 18.3438C18.1406 18.6667 18.0208 18.9193 17.7812 19.1016C17.5469 19.2891 17.2214 19.3828 16.8047 19.3828H6.32812ZM11.5703 12.1484C11.013 12.1484 10.4974 11.9974 10.0234 11.6953C9.54948 11.388 9.16667 10.9766 8.875 10.4609C8.58854 9.9401 8.44531 9.35677 8.44531 8.71094C8.44531 8.07552 8.58854 7.5026 8.875 6.99219C9.16667 6.48177 9.54948 6.07812 10.0234 5.78125C10.4974 5.48438 11.013 5.33594 11.5703 5.33594C12.1276 5.33594 12.6432 5.48177 13.1172 5.77344C13.5911 6.0651 13.9714 6.46615 14.2578 6.97656C14.5495 7.48177 14.6953 8.05469 14.6953 8.69531C14.6953 9.34635 14.5495 9.93229 14.2578 10.4531C13.9714 10.974 13.5911 11.388 13.1172 11.6953C12.6432 11.9974 12.1276 12.1484 11.5703 12.1484Z" fill="#141414"/>
</svg>
