<svg width="24" height="24" viewBox="0 0 24 24" fill="none" xmlns="http://www.w3.org/2000/svg">
<path d="M11.5137 18.3945C10.3971 18.3945 9.83887 18.0299 9.83887 17.3008C9.83887 16.8542 9.97559 16.3779 10.249 15.8721C10.5225 15.3662 10.9167 14.89 11.4316 14.4434C11.9512 13.9922 12.5778 13.6253 13.3115 13.3428C14.0498 13.0602 14.8815 12.9189 15.8066 12.9189C16.7363 12.9189 17.568 13.0602 18.3018 13.3428C19.04 13.6253 19.6667 13.9922 20.1816 14.4434C20.7012 14.89 21.0977 15.3662 21.3711 15.8721C21.6445 16.3779 21.7812 16.8542 21.7812 17.3008C21.7812 18.0299 21.2207 18.3945 20.0996 18.3945H11.5137ZM11.1855 17.3623H20.4277C20.5189 17.3623 20.5827 17.3486 20.6191 17.3213C20.6602 17.2939 20.6807 17.2438 20.6807 17.1709C20.6807 16.8883 20.5736 16.5648 20.3594 16.2002C20.1497 15.8356 19.8376 15.4824 19.4229 15.1406C19.0081 14.7988 18.4977 14.5163 17.8916 14.293C17.2855 14.0651 16.5905 13.9512 15.8066 13.9512C15.0228 13.9512 14.3278 14.0651 13.7217 14.293C13.1201 14.5163 12.612 14.7988 12.1973 15.1406C11.7826 15.4824 11.4681 15.8356 11.2539 16.2002C11.0443 16.5648 10.9395 16.8883 10.9395 17.1709C10.9395 17.2438 10.9577 17.2939 10.9941 17.3213C11.0352 17.3486 11.099 17.3623 11.1855 17.3623ZM15.8135 12.0645C15.2712 12.0645 14.7767 11.9209 14.3301 11.6338C13.8835 11.3467 13.5257 10.9616 13.2568 10.4785C12.9925 9.99089 12.8604 9.4554 12.8604 8.87207C12.8604 8.29329 12.9925 7.76693 13.2568 7.29297C13.5257 6.81901 13.8835 6.44076 14.3301 6.1582C14.7767 5.87565 15.2712 5.73438 15.8135 5.73438C16.3604 5.73438 16.8571 5.87337 17.3037 6.15137C17.7503 6.42936 18.1058 6.80534 18.3701 7.2793C18.6344 7.7487 18.7666 8.27507 18.7666 8.8584C18.7666 9.44629 18.6322 9.98405 18.3633 10.4717C18.099 10.9548 17.7435 11.3421 17.2969 11.6338C16.8503 11.9209 16.3558 12.0645 15.8135 12.0645ZM15.8135 11.0322C16.1507 11.0322 16.4583 10.9365 16.7363 10.7451C17.0189 10.5492 17.2445 10.2871 17.4131 9.95898C17.5817 9.6263 17.666 9.25944 17.666 8.8584C17.666 8.46191 17.5817 8.10645 17.4131 7.79199C17.249 7.47298 17.0257 7.22233 16.7432 7.04004C16.4652 6.85775 16.1553 6.7666 15.8135 6.7666C15.4762 6.7666 15.1663 6.86003 14.8838 7.04688C14.6058 7.22917 14.3825 7.47982 14.2139 7.79883C14.0452 8.11784 13.9609 8.47559 13.9609 8.87207C13.9609 9.27311 14.0452 9.6377 14.2139 9.96582C14.387 10.2939 14.6126 10.5537 14.8906 10.7451C15.1732 10.9365 15.4808 11.0322 15.8135 11.0322ZM4.13086 18.3945C3.67057 18.3945 3.32422 18.2988 3.0918 18.1074C2.85938 17.9206 2.74316 17.6357 2.74316 17.2529C2.74316 16.6878 2.8776 16.1455 3.14648 15.626C3.41536 15.1019 3.78678 14.637 4.26074 14.2314C4.73926 13.8213 5.29069 13.4977 5.91504 13.2607C6.54395 13.0238 7.21615 12.9053 7.93164 12.9053C8.3099 12.9053 8.67676 12.9395 9.03223 13.0078C9.3877 13.0716 9.72949 13.1696 10.0576 13.3018C10.3903 13.4294 10.7048 13.5889 11.001 13.7803C10.846 13.8896 10.7048 14.0059 10.5771 14.1289C10.4495 14.2474 10.3333 14.375 10.2285 14.5117C10.0052 14.3796 9.77051 14.2702 9.52441 14.1836C9.28288 14.097 9.02767 14.0309 8.75879 13.9854C8.49447 13.9398 8.21875 13.917 7.93164 13.917C7.37109 13.917 6.84017 14.0081 6.33887 14.1904C5.83757 14.3682 5.39323 14.612 5.00586 14.9219C4.61849 15.2272 4.31315 15.5758 4.08984 15.9678C3.87109 16.3597 3.76172 16.7676 3.76172 17.1914C3.76172 17.2598 3.77767 17.3076 3.80957 17.335C3.84147 17.3669 3.89388 17.3828 3.9668 17.3828H8.9707C8.94792 17.5924 8.98893 17.7907 9.09375 17.9775C9.19857 18.1644 9.33301 18.3034 9.49707 18.3945H4.13086ZM7.93848 12.126C7.46908 12.126 7.04069 12.0007 6.65332 11.75C6.26595 11.4948 5.95605 11.1553 5.72363 10.7314C5.49121 10.3076 5.375 9.83822 5.375 9.32324C5.375 8.81738 5.49121 8.3571 5.72363 7.94238C5.95605 7.52311 6.26595 7.19043 6.65332 6.94434C7.04069 6.69368 7.46908 6.56836 7.93848 6.56836C8.41244 6.56836 8.8431 6.69141 9.23047 6.9375C9.61784 7.18359 9.92546 7.514 10.1533 7.92871C10.3857 8.34342 10.502 8.80371 10.502 9.30957C10.502 9.82454 10.3857 10.2962 10.1533 10.7246C9.9209 11.153 9.611 11.4948 9.22363 11.75C8.83626 12.0007 8.40788 12.126 7.93848 12.126ZM7.93848 11.1074C8.21647 11.1074 8.47396 11.0277 8.71094 10.8682C8.94792 10.7041 9.13704 10.4876 9.27832 10.2188C9.4196 9.94531 9.49023 9.64225 9.49023 9.30957C9.49023 8.986 9.4196 8.69434 9.27832 8.43457C9.1416 8.1748 8.95475 7.96973 8.71777 7.81934C8.48535 7.66439 8.22559 7.58691 7.93848 7.58691C7.65592 7.58691 7.39616 7.66439 7.15918 7.81934C6.92676 7.97428 6.73991 8.18392 6.59863 8.44824C6.46191 8.70801 6.39355 8.99967 6.39355 9.32324C6.39355 9.65137 6.46419 9.95215 6.60547 10.2256C6.74674 10.4945 6.93359 10.7087 7.16602 10.8682C7.40299 11.0277 7.66048 11.1074 7.93848 11.1074Z" fill="currentColor"/>
</svg>
