<svg width="24" height="24" viewBox="0 0 24 24" fill="none" xmlns="http://www.w3.org/2000/svg">
<path d="M14.664 8.37056C14.664 8.9393 14.554 9.46244 14.334 9.93997C14.114 10.4121 13.8243 10.8092 13.4648 11.1311L8.78873 6.45506C9.07847 5.98826 9.45674 5.61536 9.92354 5.33635C10.3957 5.05198 10.9027 4.90979 11.4447 4.90979C12.0188 4.90979 12.55 5.06003 13.0382 5.3605C13.5265 5.66097 13.9182 6.07411 14.2133 6.59993C14.5137 7.12039 14.664 7.7106 14.664 8.37056ZM4.66801 18.3102C4.66801 17.8112 4.81288 17.2854 5.10262 16.7327C5.39772 16.1747 5.8216 15.6516 6.37425 15.1633C6.92689 14.6697 7.5949 14.2592 8.37827 13.9319C9.167 13.6046 10.055 13.4195 11.0423 13.3766L17.0302 19.3645C16.998 19.3699 16.9658 19.3726 16.9336 19.3726C16.9068 19.3779 16.8746 19.3806 16.837 19.3806H6.04427C5.61502 19.3806 5.277 19.284 5.03018 19.0909C4.78873 18.9031 4.66801 18.6429 4.66801 18.3102ZM18.9457 19.8313L4.17706 5.05466C4.05902 4.93662 4 4.79175 4 4.62005C4 4.44299 4.05902 4.29544 4.17706 4.1774C4.30047 4.05399 4.44802 3.99497 4.61972 4.00034C4.79142 4.00034 4.93897 4.05936 5.06237 4.1774L19.8229 18.946C19.941 19.0641 20 19.2089 20 19.3806C20 19.5523 19.941 19.6999 19.8229 19.8233C19.7049 19.9413 19.5573 20.0003 19.3803 20.0003C19.2086 20.0057 19.0637 19.9494 18.9457 19.8313Z" fill="currentColor"/>
</svg>
