<svg width="24" height="24" viewBox="0 0 24 24" fill="none" xmlns="http://www.w3.org/2000/svg">
<path d="M18.9457 19.8313L4.17706 5.05466C4.05902 4.93662 4 4.79175 4 4.62005C4 4.44299 4.05902 4.29544 4.17706 4.1774C4.30047 4.05399 4.44802 3.99497 4.61972 4.00034C4.79142 4.00034 4.93897 4.05936 5.06237 4.1774L19.8229 18.946C19.941 19.0641 20 19.2089 20 19.3806C20 19.5523 19.941 19.6999 19.8229 19.8233C19.7049 19.9413 19.5573 20.0003 19.3803 20.0003C19.2086 20.0057 19.0637 19.9494 18.9457 19.8313ZM11.7022 5.90778C11.2622 5.90778 10.8625 6.0446 10.503 6.31824C10.1435 6.58652 9.87793 6.93796 9.70624 7.37257L8.76459 6.43092C9.07042 5.91046 9.48089 5.49195 9.99598 5.17539C10.5164 4.85345 11.0852 4.69249 11.7022 4.69249C12.3461 4.69249 12.9309 4.85614 13.4567 5.18343C13.9826 5.51073 14.4011 5.95339 14.7123 6.5114C15.0235 7.06405 15.1791 7.68377 15.1791 8.37056C15.1791 8.99296 15.0476 9.56975 14.7847 10.1009C14.5272 10.6321 14.1811 11.0694 13.7465 11.4128L12.8612 10.5275C13.167 10.3021 13.4138 10.0017 13.6016 9.62609C13.7894 9.24514 13.8833 8.82663 13.8833 8.37056C13.8833 7.90376 13.784 7.48524 13.5855 7.11502C13.3924 6.73944 13.1294 6.44433 12.7968 6.22971C12.4695 6.01509 12.1046 5.90778 11.7022 5.90778ZM16.0402 18.3826L17.2394 19.5738C17.1643 19.5791 17.0865 19.5845 17.006 19.5899C16.9256 19.5952 16.8424 19.5979 16.7565 19.5979H6.64789C5.32797 19.5979 4.66801 19.1687 4.66801 18.3102C4.66801 17.8219 4.80751 17.3015 5.08652 16.7488C5.37089 16.1908 5.77867 15.6596 6.30986 15.1553C6.84641 14.6455 7.49564 14.2136 8.25754 13.8595C9.02482 13.5054 9.89135 13.2854 10.8571 13.1995L12.0322 14.3746C11.9785 14.3692 11.9222 14.3665 11.8632 14.3665C11.8095 14.3665 11.7559 14.3665 11.7022 14.3665C10.7793 14.3665 9.9611 14.5007 9.24748 14.7689C8.53387 15.0319 7.93293 15.3645 7.44467 15.7669C6.96177 16.1693 6.59423 16.5852 6.34205 17.0144C6.08987 17.4437 5.96378 17.8246 5.96378 18.1573C5.96378 18.2431 5.98524 18.3021 6.02817 18.3343C6.07646 18.3665 6.15426 18.3826 6.26157 18.3826H16.0402Z" fill="currentColor"/>
</svg>
