<svg width="24" height="24" viewBox="0 0 24 24" fill="none" xmlns="http://www.w3.org/2000/svg">
<path d="M2.39844 14.625C2.39844 14.5156 2.39844 14.4089 2.39844 14.3047C2.39844 14.1953 2.39844 14.0885 2.39844 13.9844C2.39844 13.2552 2.55208 12.6016 2.85938 12.0234C3.16667 11.4401 3.60417 10.9323 4.17188 10.5C4.73958 10.0677 5.41406 9.70833 6.19531 9.42188C6.98177 9.13021 7.85156 8.91146 8.80469 8.76562C9.75781 8.61979 10.7734 8.54688 11.8516 8.54688C12.9297 8.54688 13.9453 8.61979 14.8984 8.76562C15.8516 8.91146 16.7188 9.13021 17.5 9.42188C18.2865 9.70833 18.9635 10.0677 19.5312 10.5C20.099 10.9323 20.5365 11.4401 20.8438 12.0234C21.151 12.6016 21.3047 13.2552 21.3047 13.9844C21.3047 14.0885 21.3047 14.1953 21.3047 14.3047C21.3047 14.4089 21.3047 14.5156 21.3047 14.625C21.3047 14.9323 21.2448 15.2135 21.125 15.4688C21.0052 15.724 20.8307 15.9297 20.6016 16.0859C20.3776 16.237 20.1016 16.3125 19.7734 16.3125C19.6797 16.3125 19.5599 16.3073 19.4141 16.2969C19.2682 16.2865 19.0938 16.263 18.8906 16.2266L16.125 15.8125C15.5573 15.7292 15.1719 15.5625 14.9688 15.3125C14.7708 15.0625 14.6719 14.6927 14.6719 14.2031C14.6719 14.0521 14.6719 13.9062 14.6719 13.7656C14.6719 13.6198 14.6693 13.474 14.6641 13.3281C14.6641 13.1146 14.5677 12.9844 14.375 12.9375C14.0885 12.875 13.7214 12.8281 13.2734 12.7969C12.8255 12.7604 12.3516 12.7422 11.8516 12.7422C11.3516 12.7422 10.8776 12.7604 10.4297 12.7969C9.98177 12.8281 9.61458 12.875 9.32812 12.9375C9.13542 12.9844 9.03906 13.1146 9.03906 13.3281C9.03906 13.474 9.03646 13.6198 9.03125 13.7656C9.03125 13.9062 9.03125 14.0521 9.03125 14.2031C9.03125 14.6927 8.92969 15.0625 8.72656 15.3125C8.52865 15.5625 8.14583 15.7292 7.57812 15.8125L4.8125 16.2266C4.60938 16.263 4.4349 16.2865 4.28906 16.2969C4.14323 16.3073 4.02344 16.3125 3.92969 16.3125C3.60156 16.3125 3.32292 16.237 3.09375 16.0859C2.86979 15.9297 2.69792 15.724 2.57812 15.4688C2.45833 15.2135 2.39844 14.9323 2.39844 14.625ZM3.66406 14.4375C3.66406 14.5625 3.6849 14.6797 3.72656 14.7891C3.76823 14.8984 3.83073 14.987 3.91406 15.0547C4.0026 15.1224 4.11198 15.1562 4.24219 15.1562C4.29948 15.1562 4.35938 15.1536 4.42188 15.1484C4.48958 15.138 4.57812 15.1224 4.6875 15.1016L7.3125 14.6094C7.44271 14.5833 7.54948 14.5312 7.63281 14.4531C7.72135 14.3698 7.76562 14.2318 7.76562 14.0391C7.76562 13.8776 7.76562 13.7161 7.76562 13.5547C7.76562 13.388 7.76562 13.224 7.76562 13.0625C7.76562 12.6771 7.82812 12.3958 7.95312 12.2188C8.08333 12.0365 8.25 11.9167 8.45312 11.8594C8.70312 11.7865 9.05469 11.7292 9.50781 11.6875C9.96615 11.6458 10.4714 11.6172 11.0234 11.6016C11.5755 11.5859 12.1276 11.5859 12.6797 11.6016C13.2318 11.6172 13.7344 11.6458 14.1875 11.6875C14.6458 11.7292 15 11.7865 15.25 11.8594C15.4531 11.9167 15.6172 12.0365 15.7422 12.2188C15.8724 12.3958 15.9375 12.6771 15.9375 13.0625C15.9375 13.224 15.9375 13.388 15.9375 13.5547C15.9375 13.7161 15.9375 13.8776 15.9375 14.0391C15.9375 14.2318 15.9792 14.3698 16.0625 14.4531C16.151 14.5312 16.2604 14.5833 16.3906 14.6094L19.0156 15.1016C19.125 15.1224 19.2109 15.138 19.2734 15.1484C19.3411 15.1536 19.4036 15.1562 19.4609 15.1562C19.5911 15.1562 19.6979 15.1224 19.7812 15.0547C19.8698 14.987 19.9349 14.8984 19.9766 14.7891C20.0182 14.6797 20.0391 14.5625 20.0391 14.4375C20.0391 14.375 20.0391 14.3099 20.0391 14.2422C20.0391 14.1745 20.0391 14.1094 20.0391 14.0469C20.0391 13.4167 19.8906 12.8646 19.5938 12.3906C19.2969 11.9115 18.8828 11.5052 18.3516 11.1719C17.8255 10.8333 17.2161 10.5573 16.5234 10.3438C15.8307 10.1302 15.0859 9.97396 14.2891 9.875C13.4922 9.77604 12.6797 9.72656 11.8516 9.72656C11.0234 9.72656 10.2109 9.77604 9.41406 9.875C8.61719 9.97396 7.8724 10.1302 7.17969 10.3438C6.48698 10.5573 5.8776 10.8333 5.35156 11.1719C4.82552 11.5052 4.41146 11.9115 4.10938 12.3906C3.8125 12.8646 3.66406 13.4167 3.66406 14.0469C3.66406 14.1094 3.66406 14.1745 3.66406 14.2422C3.66406 14.3099 3.66406 14.375 3.66406 14.4375Z" fill="#141414"/>
</svg>
