<svg width="24" height="24" viewBox="0 0 24 24" fill="none" xmlns="http://www.w3.org/2000/svg">
<path d="M15.1484 20.0234C14.4036 20.0234 13.6146 19.8724 12.7812 19.5703C11.9479 19.2682 11.099 18.8255 10.2344 18.2422C9.36979 17.6641 8.52083 16.9583 7.6875 16.125C6.84896 15.2865 6.13802 14.4349 5.55469 13.5703C4.97656 12.7005 4.53646 11.849 4.23438 11.0156C3.9375 10.1823 3.78906 9.39323 3.78906 8.64844C3.78906 7.97135 3.88542 7.39323 4.07812 6.91406C4.27604 6.4349 4.59635 5.9974 5.03906 5.60156C5.07552 5.57552 5.10938 5.54948 5.14062 5.52344C5.17188 5.49219 5.20573 5.46094 5.24219 5.42969C5.76302 4.96094 6.27344 4.73177 6.77344 4.74219C7.05469 4.7474 7.32552 4.83333 7.58594 5C7.84635 5.16146 8.09635 5.41667 8.33594 5.76562L9.92188 8.03906C10.1615 8.38802 10.2839 8.75781 10.2891 9.14844C10.2943 9.53385 10.1328 9.89062 9.80469 10.2188L9.21094 10.8203C9.1224 10.9089 9.07292 10.9948 9.0625 11.0781C9.05208 11.1562 9.07292 11.2396 9.125 11.3281C9.22917 11.4948 9.35938 11.6771 9.51562 11.875C9.67188 12.0677 9.84635 12.2682 10.0391 12.4766C10.2318 12.6849 10.4297 12.8906 10.6328 13.0938C10.8255 13.2865 11.0391 13.4896 11.2734 13.7031C11.5078 13.9115 11.7318 14.1042 11.9453 14.2812C12.1641 14.4583 12.3411 14.5911 12.4766 14.6797C12.5703 14.737 12.6562 14.7604 12.7344 14.75C12.8177 14.7396 12.9036 14.6901 12.9922 14.6016L13.5938 14C13.9219 13.6771 14.2786 13.5182 14.6641 13.5234C15.0547 13.5286 15.4245 13.651 15.7734 13.8906L18.0469 15.4688C18.3958 15.7083 18.6536 15.9609 18.8203 16.2266C18.987 16.487 19.0703 16.7578 19.0703 17.0391C19.0703 17.2839 19.013 17.5365 18.8984 17.7969C18.7891 18.0521 18.6172 18.3099 18.3828 18.5703C18.3516 18.6016 18.3203 18.6328 18.2891 18.6641C18.263 18.7005 18.2344 18.7344 18.2031 18.7656C17.8073 19.2135 17.3698 19.5339 16.8906 19.7266C16.4115 19.9245 15.8307 20.0234 15.1484 20.0234ZM15.1562 18.8203C15.5885 18.8151 15.9844 18.737 16.3438 18.5859C16.7083 18.4349 17.026 18.2057 17.2969 17.8984C17.3177 17.8724 17.3359 17.849 17.3516 17.8281C17.3724 17.8021 17.3932 17.776 17.4141 17.75C17.6276 17.5104 17.7344 17.2734 17.7344 17.0391C17.7344 16.9245 17.7083 16.8177 17.6562 16.7188C17.6094 16.6198 17.526 16.5312 17.4062 16.4531L15.1328 14.9375C15.013 14.8594 14.888 14.8203 14.7578 14.8203C14.6276 14.8203 14.5026 14.8828 14.3828 15.0078L13.6953 15.6953C13.4245 15.9661 13.1354 16.1016 12.8281 16.1016C12.5208 16.0964 12.2344 15.9974 11.9688 15.8047C11.7708 15.6536 11.5417 15.4688 11.2812 15.25C11.026 15.026 10.7682 14.7969 10.5078 14.5625C10.2526 14.3229 10.0234 14.1042 9.82031 13.9062C9.52344 13.6094 9.20312 13.2656 8.85938 12.875C8.51562 12.4844 8.23177 12.138 8.00781 11.8359C7.8099 11.5755 7.71094 11.2917 7.71094 10.9844C7.71094 10.6719 7.84635 10.3828 8.11719 10.1172L8.80469 9.42969C8.92448 9.3099 8.98438 9.1849 8.98438 9.05469C8.98958 8.92448 8.95052 8.79688 8.86719 8.67188L7.35156 6.39844C7.21094 6.1849 7.01562 6.07812 6.76562 6.07812C6.65625 6.07812 6.53906 6.10677 6.41406 6.16406C6.29427 6.21615 6.17708 6.29167 6.0625 6.39062C6.03646 6.41146 6.01042 6.43229 5.98438 6.45312C5.96354 6.46875 5.9401 6.48958 5.91406 6.51562C5.60677 6.78125 5.3776 7.09635 5.22656 7.46094C5.07552 7.82031 4.99479 8.21615 4.98438 8.64844C4.97396 9.3099 5.1276 10.0286 5.44531 10.8047C5.76302 11.5755 6.19531 12.3516 6.74219 13.1328C7.29427 13.9089 7.90885 14.6354 8.58594 15.3125C9.25781 15.9844 9.97396 16.5885 10.7344 17.125C11.5 17.6562 12.2604 18.0755 13.0156 18.3828C13.776 18.6901 14.4896 18.8359 15.1562 18.8203ZM13.1953 11.2266C13.0286 11.2266 12.888 11.1745 12.7734 11.0703C12.6641 10.9661 12.6094 10.8359 12.6094 10.6797C12.6094 10.5182 12.6719 10.375 12.7969 10.25L16.1641 6.875L17.4766 5.67969L15.1797 5.80469H13.9922C13.8411 5.80469 13.7109 5.75521 13.6016 5.65625C13.4974 5.55208 13.4427 5.42448 13.4375 5.27344C13.4271 5.11198 13.4766 4.97396 13.5859 4.85938C13.7005 4.74479 13.8359 4.6875 13.9922 4.6875H18.5312C18.7396 4.6875 18.8932 4.73958 18.9922 4.84375C19.0964 4.94792 19.1484 5.10417 19.1484 5.3125V9.83594C19.1484 9.9974 19.0911 10.1328 18.9766 10.2422C18.862 10.3516 18.7266 10.401 18.5703 10.3906C18.4141 10.3854 18.2839 10.3307 18.1797 10.2266C18.0807 10.1172 18.0312 9.98698 18.0312 9.83594V8.67188L18.1641 6.38281L16.9609 7.67969L13.6016 11.0547C13.487 11.1693 13.3516 11.2266 13.1953 11.2266Z" fill="currentColor"/>
</svg>
