<svg width="24" height="24" viewBox="0 0 24 24" fill="none" xmlns="http://www.w3.org/2000/svg">
    <path d="M16.1562 20.0238C15.4115 20.0238 14.6224 19.8727 13.7891 19.5707C12.9609 19.2686 12.1146 18.8259 11.25 18.2425C10.3854 17.6644 9.53385 16.9587 8.69531 16.1253C7.85677 15.2868 7.14583 14.4352 6.5625 13.5707C5.98438 12.7009 5.54427 11.8493 5.24219 11.016C4.94531 10.1826 4.79688 9.39357 4.79688 8.64878C4.79688 7.97169 4.89583 7.39357 5.09375 6.9144C5.29167 6.43524 5.61198 5.99774 6.05469 5.6019C6.08594 5.57586 6.11719 5.54982 6.14844 5.52378C6.1849 5.49253 6.21875 5.46128 6.25 5.43003C6.77604 4.96128 7.28646 4.73211 7.78125 4.74253C8.0625 4.74774 8.33333 4.83367 8.59375 5.00034C8.85417 5.1618 9.10677 5.41701 9.35156 5.76596L10.9297 8.0394C11.1745 8.38836 11.2969 8.75815 11.2969 9.14878C11.3021 9.53419 11.1406 9.89096 10.8125 10.2191L10.2188 10.8207C10.1302 10.9092 10.0807 10.9951 10.0703 11.0785C10.0599 11.1566 10.0807 11.2399 10.1328 11.3285C10.237 11.4951 10.3672 11.6774 10.5234 11.8753C10.6849 12.068 10.8594 12.2686 11.0469 12.4769C11.2396 12.6852 11.4375 12.891 11.6406 13.0941C11.8333 13.2868 12.0469 13.4899 12.2812 13.7035C12.5156 13.9118 12.7396 14.1045 12.9531 14.2816C13.1719 14.4587 13.3516 14.5915 13.4922 14.68C13.5807 14.7373 13.6641 14.7608 13.7422 14.7503C13.8255 14.7399 13.9115 14.6904 14 14.6019L14.6016 14.0003C14.9297 13.6774 15.2865 13.5186 15.6719 13.5238C16.0625 13.529 16.4323 13.6514 16.7812 13.891L19.0547 15.4691C19.4036 15.7087 19.6615 15.9613 19.8281 16.2269C19.9948 16.4873 20.0781 16.7582 20.0781 17.0394C20.0781 17.2842 20.0208 17.5368 19.9062 17.7972C19.7969 18.0524 19.625 18.3102 19.3906 18.5707C19.3594 18.6019 19.3281 18.6332 19.2969 18.6644C19.2708 18.7009 19.2422 18.7347 19.2109 18.766C18.8151 19.2139 18.3776 19.5342 17.8984 19.7269C17.4193 19.9248 16.8385 20.0238 16.1562 20.0238ZM16.1641 18.8207C16.5964 18.8154 16.9948 18.7373 17.3594 18.5863C17.724 18.4352 18.0391 18.2061 18.3047 17.8988C18.3307 17.8727 18.3516 17.8493 18.3672 17.8285C18.388 17.8024 18.4089 17.7764 18.4297 17.7503C18.638 17.5108 18.7422 17.2738 18.7422 17.0394C18.7422 16.9248 18.7161 16.818 18.6641 16.7191C18.6172 16.6201 18.5365 16.5316 18.4219 16.4535L16.1484 14.9378C16.0234 14.8597 15.8958 14.8207 15.7656 14.8207C15.6354 14.8207 15.5104 14.8832 15.3906 15.0082L14.7031 15.6957C14.4323 15.9665 14.1432 16.1019 13.8359 16.1019C13.5286 16.0967 13.2448 15.9977 12.9844 15.805C12.7812 15.654 12.5495 15.4691 12.2891 15.2503C12.0339 15.0264 11.776 14.7972 11.5156 14.5628C11.2604 14.3233 11.0339 14.1045 10.8359 13.9066C10.5339 13.6097 10.2109 13.266 9.86719 12.8753C9.52344 12.4847 9.23958 12.1384 9.01562 11.8363C8.81771 11.5759 8.71875 11.292 8.71875 10.9847C8.71875 10.6722 8.85417 10.3832 9.125 10.1175L9.8125 9.43003C9.93229 9.31024 9.99219 9.18524 9.99219 9.05503C9.9974 8.92482 9.95833 8.79721 9.875 8.67221L8.35938 6.39878C8.21875 6.18524 8.02604 6.07846 7.78125 6.07846C7.66667 6.07846 7.54688 6.10711 7.42188 6.1644C7.30208 6.21649 7.1849 6.29201 7.07031 6.39096C7.04427 6.4118 7.01823 6.43263 6.99219 6.45346C6.97135 6.46909 6.94792 6.48992 6.92188 6.51596C6.61458 6.78159 6.38542 7.09669 6.23438 7.46128C6.08333 7.82065 6.0026 8.21649 5.99219 8.64878C5.98177 9.31024 6.13542 10.029 6.45312 10.805C6.77083 11.5759 7.20312 12.3519 7.75 13.1332C8.30208 13.9092 8.91667 14.6358 9.59375 15.3128C10.2708 15.9847 10.9896 16.5889 11.75 17.1253C12.5104 17.6566 13.2708 18.0759 14.0312 18.3832C14.7917 18.6904 15.5026 18.8363 16.1641 18.8207Z"
          fill="currentColor"/>
</svg>
