<svg width="24" height="24" viewBox="0 0 24 24" fill="none" xmlns="http://www.w3.org/2000/svg">
<path d="M12.3672 20.3281C11.2786 20.3281 10.2526 20.1198 9.28906 19.7031C8.33073 19.2865 7.48438 18.7109 6.75 17.9766C6.01562 17.2422 5.4401 16.3958 5.02344 15.4375C4.60677 14.474 4.39844 13.4479 4.39844 12.3594C4.39844 11.2708 4.60677 10.2474 5.02344 9.28906C5.4401 8.32552 6.01302 7.47656 6.74219 6.74219C7.47656 6.00781 8.32292 5.43229 9.28125 5.01562C10.2448 4.59896 11.2708 4.39062 12.3594 4.39062C13.4479 4.39062 14.474 4.59896 15.4375 5.01562C16.401 5.43229 17.25 6.00781 17.9844 6.74219C18.7188 7.47656 19.2943 8.32552 19.7109 9.28906C20.1276 10.2474 20.3359 11.2708 20.3359 12.3594C20.3359 13.4479 20.1276 14.474 19.7109 15.4375C19.2943 16.3958 18.7188 17.2422 17.9844 17.9766C17.25 18.7109 16.401 19.2865 15.4375 19.7031C14.4792 20.1198 13.4557 20.3281 12.3672 20.3281ZM12.3672 19C13.2891 19 14.151 18.8281 14.9531 18.4844C15.7552 18.1406 16.4609 17.6667 17.0703 17.0625C17.6797 16.4531 18.1536 15.7474 18.4922 14.9453C18.8359 14.1432 19.0078 13.2812 19.0078 12.3594C19.0078 11.4375 18.8359 10.5755 18.4922 9.77344C18.1484 8.97135 17.6719 8.26562 17.0625 7.65625C16.4583 7.04688 15.7526 6.57292 14.9453 6.23438C14.1432 5.89062 13.2812 5.71875 12.3594 5.71875C11.4375 5.71875 10.5755 5.89062 9.77344 6.23438C8.97135 6.57292 8.26823 7.04688 7.66406 7.65625C7.0599 8.26562 6.58594 8.97135 6.24219 9.77344C5.90365 10.5755 5.73438 11.4375 5.73438 12.3594C5.73438 13.2812 5.90365 14.1432 6.24219 14.9453C6.58594 15.7474 7.0599 16.4531 7.66406 17.0625C8.27344 17.6667 8.97917 18.1406 9.78125 18.4844C10.5833 18.8281 11.4453 19 12.3672 19ZM10.4531 14.1875C10 13.7292 9.59635 13.25 9.24219 12.75C8.89323 12.25 8.6276 11.7526 8.44531 11.2578C8.26823 10.763 8.20312 10.2943 8.25 9.85156C8.30208 9.40885 8.5 9.01302 8.84375 8.66406C8.85938 8.65365 8.875 8.64062 8.89062 8.625C8.90625 8.60417 8.92448 8.58854 8.94531 8.57812C9.1224 8.44792 9.29167 8.35417 9.45312 8.29688C9.61458 8.23958 9.76562 8.23177 9.90625 8.27344C10.0469 8.3099 10.1693 8.40365 10.2734 8.55469L11.2344 9.92188C11.401 10.151 11.4714 10.3464 11.4453 10.5078C11.4193 10.6693 11.3177 10.8438 11.1406 11.0312L10.8281 11.3516C10.776 11.4036 10.7552 11.4609 10.7656 11.5234C10.776 11.5859 10.7943 11.6406 10.8203 11.6875C10.8932 11.8177 11.0182 11.9922 11.1953 12.2109C11.3724 12.4245 11.5677 12.638 11.7812 12.8516C12 13.0755 12.2161 13.2734 12.4297 13.4453C12.6432 13.6172 12.8177 13.7422 12.9531 13.8203C13.0052 13.8516 13.0651 13.8698 13.1328 13.875C13.2005 13.875 13.2578 13.8542 13.3047 13.8125L13.6094 13.5C13.7865 13.3281 13.9583 13.2292 14.125 13.2031C14.2917 13.1719 14.4896 13.237 14.7188 13.3984C14.9323 13.5495 15.1198 13.6823 15.2812 13.7969C15.4479 13.9062 15.5964 14.0078 15.7266 14.1016C15.8568 14.1953 15.9818 14.2865 16.1016 14.375C16.3307 14.5469 16.4323 14.7526 16.4062 14.9922C16.3854 15.2266 16.2865 15.4453 16.1094 15.6484C16.0885 15.6745 16.0677 15.7005 16.0469 15.7266C16.026 15.7474 16.0026 15.7708 15.9766 15.7969C15.6328 16.1406 15.237 16.3385 14.7891 16.3906C14.3464 16.4375 13.8776 16.3724 13.3828 16.1953C12.888 16.013 12.3906 15.7474 11.8906 15.3984C11.3906 15.0443 10.9115 14.6406 10.4531 14.1875Z" fill="currentColor"/>
</svg>
