<svg width="24" height="24" viewBox="0 0 24 24" fill="none" xmlns="http://www.w3.org/2000/svg">
<path d="M11.5858 8.91406C12.7108 8.91406 13.7915 8.99479 14.828 9.15625C15.8645 9.31771 16.802 9.56771 17.6405 9.90625C18.479 10.2448 19.1613 10.6797 19.6874 11.2109C20.0415 11.5651 20.3124 11.9609 20.4999 12.3984C20.6926 12.8307 20.7837 13.3099 20.7733 13.8359C20.7577 14.5026 20.5624 15.0182 20.1874 15.3828C20.0363 15.5286 19.8619 15.6406 19.6639 15.7188C19.4712 15.7917 19.2603 15.8073 19.0311 15.7656L16.1718 15.2812C15.953 15.2448 15.7655 15.1927 15.6093 15.125C15.453 15.0573 15.3254 14.974 15.2264 14.875C15.1014 14.75 15.0155 14.5938 14.9686 14.4062C14.9218 14.2188 14.8957 14.0026 14.8905 13.7578L14.8827 12.9609C14.8775 12.8516 14.8358 12.7552 14.7577 12.6719C14.716 12.6302 14.6692 12.599 14.6171 12.5781C14.5702 12.5521 14.5259 12.5339 14.4843 12.5234C14.2134 12.4453 13.8228 12.3854 13.3124 12.3438C12.802 12.2969 12.2264 12.2734 11.5858 12.2734C10.9452 12.2734 10.3671 12.2995 9.85144 12.3516C9.34103 12.3984 8.95301 12.4531 8.68738 12.5156C8.64571 12.526 8.59624 12.5443 8.53894 12.5703C8.48686 12.5911 8.44259 12.625 8.40613 12.6719C8.31759 12.7656 8.27332 12.8646 8.27332 12.9688V13.7578C8.27332 14.0026 8.24988 14.2188 8.20301 14.4062C8.15613 14.5938 8.06759 14.75 7.93738 14.875C7.73946 15.0729 7.42696 15.2083 6.99988 15.2812L4.10144 15.7734C3.87749 15.8099 3.67176 15.7943 3.48426 15.7266C3.30196 15.6536 3.14051 15.5469 2.99988 15.4062C2.81238 15.224 2.66915 14.9974 2.57019 14.7266C2.47644 14.4557 2.42176 14.1615 2.40613 13.8438C2.38009 13.3177 2.45561 12.8385 2.63269 12.4062C2.80978 11.9688 3.07801 11.5703 3.43738 11.2109C3.96342 10.6849 4.64832 10.2526 5.49207 9.91406C6.33582 9.57552 7.27853 9.32552 8.32019 9.16406C9.36707 8.9974 10.4556 8.91406 11.5858 8.91406Z" fill="#141414"/>
</svg>
