<svg width="24" height="24" viewBox="0 0 24 24" fill="none" xmlns="http://www.w3.org/2000/svg">
<path d="M7.75781 15.8984C7.00781 15.1484 6.33333 14.3594 5.73438 13.5312C5.13542 12.7031 4.66146 11.8776 4.3125 11.0547C3.96875 10.2266 3.79688 9.4375 3.79688 8.6875C3.79688 8.1875 3.88281 7.71875 4.05469 7.28125C4.23177 6.83854 4.51042 6.4349 4.89062 6.07031C5.35417 5.61719 5.85677 5.39062 6.39844 5.39062C6.60677 5.39062 6.80469 5.4349 6.99219 5.52344C7.17969 5.60677 7.34115 5.74219 7.47656 5.92969L9.15625 8.29688C9.28646 8.47917 9.38281 8.64844 9.44531 8.80469C9.50781 8.96094 9.53906 9.10938 9.53906 9.25C9.53906 9.42708 9.48958 9.59896 9.39062 9.76562C9.29688 9.93229 9.16146 10.1042 8.98438 10.2812L8.4375 10.8516C8.35938 10.9297 8.32031 11.026 8.32031 11.1406C8.32031 11.1979 8.32812 11.2552 8.34375 11.3125C8.36458 11.3646 8.38542 11.4115 8.40625 11.4531C8.53125 11.6927 8.75521 12.0026 9.07812 12.3828C9.40104 12.763 9.7526 13.1458 10.1328 13.5312C10.5182 13.9167 10.901 14.2708 11.2812 14.5938C11.6615 14.9115 11.9714 15.1354 12.2109 15.2656C12.2526 15.2812 12.2995 15.2995 12.3516 15.3203C12.4089 15.3411 12.4688 15.3516 12.5312 15.3516C12.6458 15.3516 12.7448 15.3099 12.8281 15.2266L13.3828 14.6797C13.5599 14.5026 13.7318 14.3672 13.8984 14.2734C14.0651 14.1745 14.237 14.125 14.4141 14.125C14.5547 14.125 14.7031 14.1562 14.8594 14.2188C15.0156 14.2812 15.1849 14.375 15.3672 14.5L17.7578 16.2031C17.9453 16.3333 18.0781 16.4896 18.1562 16.6719C18.2396 16.849 18.2812 17.0365 18.2812 17.2344C18.2812 17.5 18.2188 17.763 18.0938 18.0234C17.974 18.2891 17.8125 18.5365 17.6094 18.7656C17.2552 19.1562 16.8594 19.4427 16.4219 19.625C15.9844 19.8073 15.513 19.8984 15.0078 19.8984C14.263 19.8984 13.474 19.7214 12.6406 19.3672C11.8073 19.013 10.974 18.5339 10.1406 17.9297C9.30729 17.3255 8.51302 16.6484 7.75781 15.8984ZM18.0703 5.09375C18.237 5.09375 18.375 5.14583 18.4844 5.25C18.599 5.35417 18.6562 5.48438 18.6562 5.64062C18.6562 5.80208 18.5938 5.94531 18.4688 6.07031L15.1094 9.44531L13.7969 10.6406L16.0938 10.5156H17.2734C17.4245 10.5156 17.5521 10.5651 17.6562 10.6641C17.7656 10.763 17.8255 10.8906 17.8359 11.0469C17.8411 11.2083 17.7891 11.3464 17.6797 11.4609C17.5703 11.5755 17.4349 11.6328 17.2734 11.6328H12.7344C12.526 11.6328 12.3698 11.5807 12.2656 11.4766C12.1667 11.3724 12.1172 11.2161 12.1172 11.0078V6.48438C12.1172 6.32292 12.1745 6.1875 12.2891 6.07812C12.4036 5.96875 12.5391 5.91927 12.6953 5.92969C12.8516 5.9349 12.9792 5.99219 13.0781 6.10156C13.1823 6.20573 13.2344 6.33333 13.2344 6.48438V7.64844L13.1016 9.9375L14.3047 8.64062L17.6641 5.26562C17.7786 5.15104 17.9141 5.09375 18.0703 5.09375Z" fill="currentColor"/>
</svg>
