<svg width="24" height="24" viewBox="0 0 24 24" fill="none" xmlns="http://www.w3.org/2000/svg">
<path d="M8.76562 15.8984C8.01562 15.1484 7.34115 14.3594 6.74219 13.5312C6.14323 12.7031 5.66927 11.8776 5.32031 11.0547C4.97135 10.2266 4.79688 9.4375 4.79688 8.6875C4.79688 8.1875 4.88281 7.71875 5.05469 7.28125C5.23177 6.83854 5.51042 6.4349 5.89062 6.07031C6.35938 5.61719 6.86198 5.39062 7.39844 5.39062C7.60677 5.39062 7.80469 5.4349 7.99219 5.52344C8.1849 5.60677 8.34635 5.74219 8.47656 5.92969L10.1562 8.29688C10.2917 8.47917 10.3906 8.64844 10.4531 8.80469C10.5156 8.96094 10.5469 9.10938 10.5469 9.25C10.5469 9.42708 10.4974 9.59896 10.3984 9.76562C10.2995 9.93229 10.1641 10.1042 9.99219 10.2812L9.4375 10.8516C9.35938 10.9297 9.32031 11.026 9.32031 11.1406C9.32031 11.1979 9.32812 11.2552 9.34375 11.3125C9.36458 11.3646 9.38542 11.4115 9.40625 11.4531C9.53125 11.6927 9.75521 12.0026 10.0781 12.3828C10.401 12.763 10.7526 13.1458 11.1328 13.5312C11.5182 13.9167 11.901 14.2708 12.2812 14.5938C12.6615 14.9115 12.974 15.1354 13.2188 15.2656C13.2552 15.2812 13.2995 15.2995 13.3516 15.3203C13.4089 15.3411 13.4688 15.3516 13.5312 15.3516C13.651 15.3516 13.75 15.3099 13.8281 15.2266L14.3828 14.6797C14.5599 14.5026 14.7318 14.3672 14.8984 14.2734C15.0651 14.1745 15.237 14.125 15.4141 14.125C15.5547 14.125 15.7031 14.1562 15.8594 14.2188C16.0156 14.2812 16.1849 14.375 16.3672 14.5L18.7656 16.2031C18.9479 16.3333 19.0781 16.4896 19.1562 16.6719C19.2396 16.849 19.2812 17.0365 19.2812 17.2344C19.2812 17.5 19.2214 17.763 19.1016 18.0234C18.9818 18.2891 18.8177 18.5365 18.6094 18.7656C18.2552 19.1562 17.8594 19.4427 17.4219 19.625C16.9844 19.8073 16.513 19.8984 16.0078 19.8984C15.263 19.8984 14.474 19.7214 13.6406 19.3672C12.8073 19.013 11.974 18.5339 11.1406 17.9297C10.3073 17.3255 9.51562 16.6484 8.76562 15.8984Z" fill="#141414"/>
</svg>
