<svg width="24" height="24" viewBox="0 0 24 24" fill="none" xmlns="http://www.w3.org/2000/svg">
<path d="M20.6094 16.7188C20.6094 17.4688 20.4323 18.0365 20.0781 18.4219C19.724 18.8125 19.1927 19.0078 18.4844 19.0078H5.39062C4.80729 19.0078 4.36979 18.8281 4.07812 18.4688C3.78646 18.1146 3.6276 17.5833 3.60156 16.875L6.57812 14.1875C6.73958 14.0365 6.90365 13.9271 7.07031 13.8594C7.23698 13.7865 7.40885 13.75 7.58594 13.75C7.76823 13.75 7.94792 13.7891 8.125 13.8672C8.30729 13.9401 8.47917 14.0495 8.64062 14.1953L10.0859 15.5L13.6172 12.3438C13.7995 12.1875 13.987 12.0703 14.1797 11.9922C14.3724 11.9141 14.5755 11.875 14.7891 11.875C15.0026 11.875 15.2083 11.9167 15.4062 12C15.6094 12.0781 15.7969 12.1979 15.9688 12.3594L20.6094 16.7188ZM8.8125 12.4375C8.47396 12.4375 8.16406 12.3568 7.88281 12.1953C7.60677 12.0286 7.38542 11.8047 7.21875 11.5234C7.05208 11.2422 6.96875 10.9323 6.96875 10.5938C6.96875 10.2604 7.05208 9.95312 7.21875 9.67188C7.38542 9.39062 7.60677 9.16667 7.88281 9C8.16406 8.83333 8.47396 8.75 8.8125 8.75C9.15104 8.75 9.45833 8.83333 9.73438 9C10.0104 9.16667 10.2318 9.39062 10.3984 9.67188C10.5651 9.95312 10.6484 10.2604 10.6484 10.5938C10.6484 10.9323 10.5651 11.2422 10.3984 11.5234C10.2318 11.8047 10.0104 12.0286 9.73438 12.1953C9.45833 12.3568 9.15104 12.4375 8.8125 12.4375ZM5.44531 19.5547C4.6276 19.5547 4.01302 19.3516 3.60156 18.9453C3.19531 18.5443 2.99219 17.9427 2.99219 17.1406V7.59375C2.99219 6.78646 3.19531 6.18229 3.60156 5.78125C4.01302 5.375 4.6276 5.17188 5.44531 5.17188H18.9609C19.7839 5.17188 20.3984 5.375 20.8047 5.78125C21.2109 6.1875 21.4141 6.79167 21.4141 7.59375V17.1406C21.4141 17.9427 21.2109 18.5443 20.8047 18.9453C20.3984 19.3516 19.7839 19.5547 18.9609 19.5547H5.44531ZM5.46094 18.2969H18.9453C19.3307 18.2969 19.6276 18.1953 19.8359 17.9922C20.0495 17.7839 20.1562 17.4766 20.1562 17.0703V7.66406C20.1562 7.25781 20.0495 6.95052 19.8359 6.74219C19.6276 6.53385 19.3307 6.42969 18.9453 6.42969H5.46094C5.07031 6.42969 4.77083 6.53385 4.5625 6.74219C4.35417 6.95052 4.25 7.25781 4.25 7.66406V17.0703C4.25 17.4766 4.35417 17.7839 4.5625 17.9922C4.77083 18.1953 5.07031 18.2969 5.46094 18.2969Z" fill="currentColor"/>
</svg>
