<svg width="24" height="24" viewBox="0 0 24 24" fill="none" xmlns="http://www.w3.org/2000/svg">
<path d="M6.10156 14.7734C6.10156 14.3255 6.19531 13.8802 6.38281 13.4375C6.57552 12.9948 6.84896 12.5781 7.20312 12.1875C7.5625 11.7969 7.99479 11.4531 8.5 11.1562L13.3125 15.9844H12.8594V19.5234C12.8594 19.8203 12.8333 20.1016 12.7812 20.3672C12.7292 20.6328 12.6641 20.8646 12.5859 21.0625C12.5078 21.2656 12.4297 21.4245 12.3516 21.5391C12.2786 21.6536 12.2188 21.7109 12.1719 21.7109C12.1198 21.7109 12.0547 21.6536 11.9766 21.5391C11.9036 21.4245 11.8281 21.2656 11.75 21.0625C11.6719 20.8646 11.6068 20.6328 11.5547 20.3672C11.5026 20.1016 11.4766 19.8203 11.4766 19.5234V15.875H7.25C6.90104 15.875 6.6224 15.776 6.41406 15.5781C6.20573 15.375 6.10156 15.1068 6.10156 14.7734ZM8.00781 3.5H16.3359C16.6068 3.5 16.8255 3.57812 16.9922 3.73438C17.1641 3.89062 17.25 4.08854 17.25 4.32812C17.25 4.57812 17.1458 4.83594 16.9375 5.10156C16.7344 5.36198 16.4141 5.66406 15.9766 6.00781C15.5391 6.34635 15.0339 6.67708 14.4609 7L14.7188 10.5859C15.4479 10.8516 16.0755 11.2083 16.6016 11.6562C17.1276 12.1042 17.5312 12.599 17.8125 13.1406C18.0938 13.6771 18.2344 14.2214 18.2344 14.7734C18.2344 15.2786 18.0156 15.6172 17.5781 15.7891L9.80469 8.02344L9.875 7C9.49479 6.78125 9.14062 6.5599 8.8125 6.33594C8.48438 6.10677 8.19531 5.88542 7.94531 5.67188C7.70052 5.45312 7.51302 5.25521 7.38281 5.07812C7.1901 4.82292 7.09375 4.57292 7.09375 4.32812C7.09375 4.08854 7.17708 3.89062 7.34375 3.73438C7.51042 3.57812 7.73177 3.5 8.00781 3.5ZM4.36719 5.65625C4.2526 5.54167 4.19531 5.40104 4.19531 5.23438C4.19531 5.0625 4.2526 4.91927 4.36719 4.80469C4.48698 4.6849 4.63021 4.625 4.79688 4.625C4.96354 4.625 5.10677 4.6849 5.22656 4.80469L19.3438 18.9141C19.4635 19.0339 19.5208 19.1745 19.5156 19.3359C19.5156 19.5026 19.4583 19.6458 19.3438 19.7656C19.2292 19.8854 19.0885 19.9453 18.9219 19.9453C18.7552 19.9453 18.612 19.8854 18.4922 19.7656L4.36719 5.65625Z" fill="currentColor"/>
</svg>
