<svg width="24" height="24" viewBox="0 0 24 24" fill="none" xmlns="http://www.w3.org/2000/svg">
<path d="M6.10156 14.7734C6.10156 14.3151 6.19792 13.8646 6.39062 13.4219C6.58854 12.9792 6.86719 12.5651 7.22656 12.1797C7.58594 11.7943 8.01042 11.4557 8.5 11.1641L9.32031 11.9844C8.9349 12.1823 8.59896 12.4141 8.3125 12.6797C8.02604 12.9401 7.79948 13.2161 7.63281 13.5078C7.46615 13.7995 7.36719 14.0911 7.33594 14.3828C7.30469 14.5911 7.38021 14.6953 7.5625 14.6953H12.0312L13.3047 15.9688H12.8594V19.5234C12.8594 19.8203 12.8333 20.1016 12.7812 20.3672C12.7292 20.6328 12.6641 20.8646 12.5859 21.0625C12.5078 21.2656 12.4297 21.4245 12.3516 21.5391C12.2786 21.6536 12.2188 21.7109 12.1719 21.7109C12.1198 21.7109 12.0547 21.6536 11.9766 21.5391C11.9036 21.4245 11.8281 21.2656 11.75 21.0625C11.6719 20.8646 11.6068 20.6328 11.5547 20.3672C11.5026 20.1016 11.4766 19.8203 11.4766 19.5234V15.875H7.25C6.90104 15.875 6.6224 15.776 6.41406 15.5781C6.20573 15.375 6.10156 15.1068 6.10156 14.7734ZM7.09375 4.32812C7.09375 4.08854 7.17708 3.89062 7.34375 3.73438C7.51042 3.57812 7.73177 3.5 8.00781 3.5H16.3359C16.6068 3.5 16.8255 3.57812 16.9922 3.73438C17.1641 3.89062 17.25 4.08854 17.25 4.32812C17.25 4.57812 17.1484 4.83073 16.9453 5.08594C16.8151 5.26302 16.6302 5.45833 16.3906 5.67188C16.151 5.88542 15.8776 6.10677 15.5703 6.33594C15.263 6.5599 14.9453 6.78125 14.6172 7L14.875 10.6641C15.5521 10.9297 16.1432 11.2812 16.6484 11.7188C17.1536 12.151 17.5443 12.6328 17.8203 13.1641C18.0964 13.6901 18.2344 14.2266 18.2344 14.7734C18.2344 15.0026 18.1875 15.1953 18.0938 15.3516C18.0052 15.5078 17.8958 15.625 17.7656 15.7031L16.9219 14.7344C16.9219 14.7135 16.9219 14.6953 16.9219 14.6797C16.9219 14.6589 16.9219 14.638 16.9219 14.6172C16.9219 14.3047 16.8281 13.974 16.6406 13.625C16.4583 13.2708 16.1979 12.9349 15.8594 12.6172C15.5208 12.2943 15.1224 12.0208 14.6641 11.7969C14.2057 11.5729 13.7083 11.4349 13.1719 11.3828L11.9609 10.1562H12.1719C12.6719 10.1562 13.151 10.2031 13.6094 10.2969L13.375 6.42188C13.3646 6.32812 13.3906 6.26562 13.4531 6.23438C13.7448 6.08333 14.0182 5.92969 14.2734 5.77344C14.5286 5.61719 14.7526 5.47135 14.9453 5.33594C15.138 5.19531 15.2891 5.07552 15.3984 4.97656C15.513 4.8724 15.5781 4.80208 15.5938 4.76562C15.625 4.71354 15.6276 4.67448 15.6016 4.64844C15.5807 4.61719 15.5495 4.60156 15.5078 4.60156H8.82812C8.78646 4.60156 8.7526 4.61719 8.72656 4.64844C8.70573 4.67448 8.71094 4.71354 8.74219 4.76562C8.75781 4.80208 8.82292 4.8724 8.9375 4.97656C9.05208 5.07552 9.20573 5.19531 9.39844 5.33594C9.59115 5.47135 9.8125 5.61719 10.0625 5.77344C10.3177 5.92969 10.5911 6.08333 10.8828 6.23438C10.9453 6.26562 10.974 6.32812 10.9688 6.42188L10.8125 9.01562L9.65625 7.85938L9.71875 7C9.39062 6.78125 9.07292 6.5599 8.76562 6.33594C8.46354 6.10677 8.1901 5.88542 7.94531 5.67188C7.70573 5.45833 7.52083 5.26302 7.39062 5.08594C7.19271 4.83073 7.09375 4.57812 7.09375 4.32812ZM4.36719 5.65625C4.2526 5.54167 4.19531 5.40104 4.19531 5.23438C4.19531 5.0625 4.2526 4.91927 4.36719 4.80469C4.48698 4.6849 4.63021 4.625 4.79688 4.625C4.96354 4.625 5.10677 4.6849 5.22656 4.80469L19.3438 18.9141C19.4635 19.0339 19.5208 19.1745 19.5156 19.3359C19.5156 19.5026 19.4583 19.6458 19.3438 19.7656C19.2292 19.8854 19.0885 19.9453 18.9219 19.9453C18.7552 19.9453 18.612 19.8854 18.4922 19.7656L4.36719 5.65625Z" fill="currentColor"/>
</svg>
