<svg width="24" height="24" viewBox="0 0 24 24" fill="none" xmlns="http://www.w3.org/2000/svg">
<path d="M12.1719 21.7109C12.1198 21.7109 12.0547 21.6536 11.9766 21.5391C11.9036 21.4245 11.8281 21.2656 11.75 21.0625C11.6719 20.8646 11.6068 20.6328 11.5547 20.3672C11.5026 20.1016 11.4766 19.8203 11.4766 19.5234V15.2344H12.8594V19.5234C12.8594 19.8203 12.8333 20.1016 12.7812 20.3672C12.7292 20.6328 12.6641 20.8646 12.5859 21.0625C12.5078 21.2656 12.4297 21.4245 12.3516 21.5391C12.2786 21.6536 12.2188 21.7109 12.1719 21.7109ZM7.25 15.875C6.90104 15.875 6.6224 15.776 6.41406 15.5781C6.20573 15.375 6.10156 15.1068 6.10156 14.7734C6.10156 14.2005 6.2526 13.6406 6.55469 13.0938C6.85677 12.5417 7.27865 12.0469 7.82031 11.6094C8.36719 11.1667 9.01042 10.8151 9.75 10.5547C10.4896 10.2891 11.2969 10.1562 12.1719 10.1562C13.0469 10.1562 13.8516 10.2891 14.5859 10.5547C15.3255 10.8151 15.9688 11.1667 16.5156 11.6094C17.0625 12.0469 17.4844 12.5417 17.7812 13.0938C18.0833 13.6406 18.2344 14.2005 18.2344 14.7734C18.2344 15.1068 18.1302 15.375 17.9219 15.5781C17.7188 15.776 17.4401 15.875 17.0859 15.875H7.25ZM7.5625 14.6953H16.7734C16.9557 14.6953 17.0312 14.5911 17 14.3828C16.9583 14.0339 16.8177 13.6797 16.5781 13.3203C16.3385 12.9557 16.0104 12.6224 15.5938 12.3203C15.1771 12.013 14.6797 11.7656 14.1016 11.5781C13.5286 11.3906 12.8854 11.2969 12.1719 11.2969C11.4531 11.2969 10.8047 11.3906 10.2266 11.5781C9.65365 11.7656 9.15885 12.013 8.74219 12.3203C8.32552 12.6224 7.9974 12.9557 7.75781 13.3203C7.51823 13.6797 7.3776 14.0339 7.33594 14.3828C7.30469 14.5911 7.38021 14.6953 7.5625 14.6953ZM7.09375 4.32812C7.09375 4.08854 7.17708 3.89062 7.34375 3.73438C7.51042 3.57812 7.73177 3.5 8.00781 3.5H16.3359C16.6068 3.5 16.8255 3.57812 16.9922 3.73438C17.1641 3.89062 17.25 4.08854 17.25 4.32812C17.25 4.57812 17.1484 4.83073 16.9453 5.08594C16.8151 5.26302 16.6302 5.45833 16.3906 5.67188C16.151 5.88542 15.8776 6.10677 15.5703 6.33594C15.263 6.5599 14.9453 6.78125 14.6172 7L14.9062 11.125H13.6562L13.375 6.42188C13.3646 6.32812 13.3906 6.26562 13.4531 6.23438C13.7448 6.08333 14.0182 5.92969 14.2734 5.77344C14.5286 5.61719 14.7526 5.47135 14.9453 5.33594C15.138 5.19531 15.2891 5.07552 15.3984 4.97656C15.513 4.8724 15.5781 4.80208 15.5938 4.76562C15.625 4.71354 15.6276 4.67448 15.6016 4.64844C15.5807 4.61719 15.5495 4.60156 15.5078 4.60156H8.82812C8.78646 4.60156 8.7526 4.61719 8.72656 4.64844C8.70573 4.67448 8.71094 4.71354 8.74219 4.76562C8.75781 4.80208 8.82292 4.8724 8.9375 4.97656C9.05208 5.07552 9.20573 5.19531 9.39844 5.33594C9.59115 5.47135 9.8125 5.61719 10.0625 5.77344C10.3177 5.92969 10.5911 6.08333 10.8828 6.23438C10.9453 6.26562 10.974 6.32812 10.9688 6.42188L10.6797 11.125H9.42969L9.71875 7C9.39062 6.78125 9.07292 6.5599 8.76562 6.33594C8.46354 6.10677 8.1901 5.88542 7.94531 5.67188C7.70573 5.45833 7.52083 5.26302 7.39062 5.08594C7.19271 4.83073 7.09375 4.57812 7.09375 4.32812Z" fill="currentColor"/>
</svg>
