<svg width="24" height="24" viewBox="0 0 24 24" fill="none" xmlns="http://www.w3.org/2000/svg">
<path d="M7.92969 18.9844C7.64323 18.9844 7.41406 18.8802 7.24219 18.6719C7.07552 18.4688 6.99219 18.1979 6.99219 17.8594V6.875C6.99219 6.53646 7.07552 6.26562 7.24219 6.0625C7.41406 5.85938 7.64323 5.75781 7.92969 5.75781C8.08594 5.75781 8.23438 5.78646 8.375 5.84375C8.51562 5.89583 8.66406 5.96615 8.82031 6.05469L17.9297 11.3281C18.2578 11.5156 18.4844 11.6849 18.6094 11.8359C18.7396 11.9818 18.8047 12.1589 18.8047 12.3672C18.8047 12.5755 18.7396 12.7552 18.6094 12.9062C18.4844 13.0521 18.2578 13.2214 17.9297 13.4141L8.82031 18.6797C8.66406 18.7734 8.51562 18.8464 8.375 18.8984C8.23438 18.9557 8.08594 18.9844 7.92969 18.9844Z" fill="currentColor"/>
</svg>
