<svg width="24" height="24" viewBox="0 0 24 24" fill="none" xmlns="http://www.w3.org/2000/svg">
<path d="M7.44531 18.5625C6.6276 18.5625 6.01302 18.3594 5.60156 17.9531C5.19531 17.5521 4.99219 16.9479 4.99219 16.1406V6.60156C4.99219 5.79427 5.19531 5.1901 5.60156 4.78906C6.01302 4.38281 6.6276 4.17969 7.44531 4.17969H16.9219C17.7396 4.17969 18.3516 4.38281 18.7578 4.78906C19.1693 5.1901 19.375 5.79427 19.375 6.60156V16.1406C19.375 16.9479 19.1693 17.5521 18.7578 17.9531C18.3516 18.3594 17.7396 18.5625 16.9219 18.5625H7.44531ZM8.375 11.3672C8.375 11.5651 8.4401 11.7266 8.57031 11.8516C8.70052 11.9714 8.86719 12.0312 9.07031 12.0312H11.5156V14.4844C11.5156 14.6875 11.5755 14.8542 11.6953 14.9844C11.8203 15.1094 11.9818 15.1719 12.1797 15.1719C12.3828 15.1719 12.5469 15.1094 12.6719 14.9844C12.8021 14.8542 12.8672 14.6875 12.8672 14.4844V12.0312H15.3203C15.5182 12.0312 15.6823 11.9714 15.8125 11.8516C15.9427 11.7266 16.0078 11.5651 16.0078 11.3672C16.0078 11.1641 15.9427 11 15.8125 10.875C15.6875 10.7448 15.5234 10.6797 15.3203 10.6797H12.8672V8.23438C12.8672 8.03125 12.8021 7.86458 12.6719 7.73438C12.5469 7.60417 12.3828 7.53906 12.1797 7.53906C11.9818 7.53906 11.8203 7.60417 11.6953 7.73438C11.5755 7.86458 11.5156 8.03125 11.5156 8.23438V10.6797H9.07031C8.86719 10.6797 8.70052 10.7448 8.57031 10.875C8.4401 11 8.375 11.1641 8.375 11.3672Z" fill="currentColor"/>
</svg>
