<svg width="24" height="24" viewBox="0 0 24 24" fill="none" xmlns="http://www.w3.org/2000/svg">
<path d="M7.79688 20.9453C7.52604 20.9453 7.3151 20.8542 7.16406 20.6719C7.01823 20.4948 6.94531 20.2552 6.94531 19.9531V17.9219H6.57031C5.79427 17.9219 5.14062 17.7839 4.60938 17.5078C4.07812 17.2266 3.67448 16.8203 3.39844 16.2891C3.1276 15.7578 2.99219 15.1094 2.99219 14.3438V8.35938C2.99219 7.59375 3.1276 6.94531 3.39844 6.41406C3.67448 5.88281 4.07812 5.47917 4.60938 5.20312C5.14062 4.92188 5.79427 4.78125 6.57031 4.78125H16.6328C17.4089 4.78125 18.0625 4.92188 18.5938 5.20312C19.125 5.47917 19.526 5.88281 19.7969 6.41406C20.0729 6.94531 20.2109 7.59375 20.2109 8.35938V14.3438C20.2109 15.1094 20.0729 15.7578 19.7969 16.2891C19.526 16.8203 19.125 17.2266 18.5938 17.5078C18.0625 17.7839 17.4089 17.9219 16.6328 17.9219H11.6172L8.92188 20.3203C8.6875 20.5286 8.48958 20.6849 8.32812 20.7891C8.16667 20.8932 7.98958 20.9453 7.79688 20.9453ZM8.11719 19.5156L10.6172 17.0312C10.763 16.8802 10.9036 16.7812 11.0391 16.7344C11.1745 16.6875 11.3516 16.6641 11.5703 16.6641H16.6328C17.4193 16.6641 18.0026 16.4688 18.3828 16.0781C18.763 15.6823 18.9531 15.1016 18.9531 14.3359V8.35938C18.9531 7.59896 18.763 7.02344 18.3828 6.63281C18.0026 6.23698 17.4193 6.03906 16.6328 6.03906H6.57031C5.77865 6.03906 5.19271 6.23698 4.8125 6.63281C4.4375 7.02344 4.25 7.59896 4.25 8.35938V14.3359C4.25 15.1016 4.4375 15.6823 4.8125 16.0781C5.19271 16.4688 5.77865 16.6641 6.57031 16.6641H7.53125C7.74479 16.6641 7.89583 16.7083 7.98438 16.7969C8.07292 16.8854 8.11719 17.0365 8.11719 17.25V19.5156ZM7.98438 11.3516C7.98438 11.1536 8.04427 10.9948 8.16406 10.875C8.28906 10.75 8.45312 10.6875 8.65625 10.6875H10.9531V8.39062C10.9531 8.19271 11.013 8.03125 11.1328 7.90625C11.2526 7.78125 11.4062 7.71875 11.5938 7.71875C11.7917 7.71875 11.9505 7.78125 12.0703 7.90625C12.1953 8.02604 12.2578 8.1875 12.2578 8.39062V10.6875H14.5625C14.7604 10.6875 14.9193 10.75 15.0391 10.875C15.1641 10.9948 15.2266 11.1536 15.2266 11.3516C15.2266 11.5391 15.1641 11.6927 15.0391 11.8125C14.9193 11.9323 14.7604 11.9922 14.5625 11.9922H12.2578V14.2969C12.2578 14.4948 12.1953 14.6562 12.0703 14.7812C11.9505 14.901 11.7917 14.9609 11.5938 14.9609C11.4062 14.9609 11.2526 14.901 11.1328 14.7812C11.013 14.6562 10.9531 14.4948 10.9531 14.2969V11.9922H8.65625C8.45833 11.9922 8.29688 11.9323 8.17188 11.8125C8.04688 11.6927 7.98438 11.5391 7.98438 11.3516Z" fill="currentColor"/>
</svg>
