<svg width="24" height="24" viewBox="0 0 24 24" fill="none" xmlns="http://www.w3.org/2000/svg">
<path d="M5.99219 11.3594C5.99219 11.1667 6.0599 11.0026 6.19531 10.8672C6.33594 10.7266 6.5 10.6562 6.6875 10.6562H11.7422V5.60938C11.7422 5.42188 11.8099 5.26042 11.9453 5.125C12.0807 4.98438 12.2448 4.91406 12.4375 4.91406C12.6302 4.91406 12.7943 4.98438 12.9297 5.125C13.0703 5.26042 13.1406 5.42188 13.1406 5.60938V10.6562H18.1875C18.375 10.6562 18.5365 10.7266 18.6719 10.8672C18.8125 11.0026 18.8828 11.1667 18.8828 11.3594C18.8828 11.5521 18.8125 11.7161 18.6719 11.8516C18.5365 11.987 18.375 12.0547 18.1875 12.0547H13.1406V17.1094C13.1406 17.2969 13.0703 17.4583 12.9297 17.5938C12.7943 17.7344 12.6302 17.8047 12.4375 17.8047C12.2448 17.8047 12.0807 17.7344 11.9453 17.5938C11.8099 17.4583 11.7422 17.2969 11.7422 17.1094V12.0547H6.6875C6.5 12.0547 6.33594 11.987 6.19531 11.8516C6.0599 11.7161 5.99219 11.5521 5.99219 11.3594Z" fill="#141414"/>
</svg>
