<svg width="24" height="24" viewBox="0 0 24 24" fill="none" xmlns="http://www.w3.org/2000/svg">
<path d="M12.3672 20.3281C11.2786 20.3281 10.2526 20.1198 9.28906 19.7031C8.33073 19.2865 7.48438 18.7109 6.75 17.9766C6.01562 17.2422 5.4401 16.3958 5.02344 15.4375C4.60677 14.474 4.39844 13.4479 4.39844 12.3594C4.39844 11.2708 4.60677 10.2474 5.02344 9.28906C5.4401 8.32552 6.01302 7.47656 6.74219 6.74219C7.47656 6.00781 8.32292 5.43229 9.28125 5.01562C10.2448 4.59896 11.2708 4.39062 12.3594 4.39062C13.4479 4.39062 14.474 4.59896 15.4375 5.01562C16.401 5.43229 17.25 6.00781 17.9844 6.74219C18.7188 7.47656 19.2943 8.32552 19.7109 9.28906C20.1276 10.2474 20.3359 11.2708 20.3359 12.3594C20.3359 13.4479 20.1276 14.474 19.7109 15.4375C19.2943 16.3958 18.7188 17.2422 17.9844 17.9766C17.25 18.7109 16.401 19.2865 15.4375 19.7031C14.4792 20.1198 13.4557 20.3281 12.3672 20.3281ZM12.3672 19C13.2891 19 14.151 18.8281 14.9531 18.4844C15.7552 18.1406 16.4609 17.6667 17.0703 17.0625C17.6797 16.4531 18.1536 15.7474 18.4922 14.9453C18.8359 14.1432 19.0078 13.2812 19.0078 12.3594C19.0078 11.4375 18.8359 10.5755 18.4922 9.77344C18.1484 8.97135 17.6719 8.26562 17.0625 7.65625C16.4583 7.04688 15.7526 6.57292 14.9453 6.23438C14.1432 5.89062 13.2812 5.71875 12.3594 5.71875C11.4375 5.71875 10.5755 5.89062 9.77344 6.23438C8.97135 6.57292 8.26823 7.04688 7.66406 7.65625C7.0599 8.26562 6.58594 8.97135 6.24219 9.77344C5.90365 10.5755 5.73438 11.4375 5.73438 12.3594C5.73438 13.2812 5.90365 14.1432 6.24219 14.9453C6.58594 15.7474 7.0599 16.4531 7.66406 17.0625C8.27344 17.6667 8.97917 18.1406 9.78125 18.4844C10.5833 18.8281 11.4453 19 12.3672 19ZM8.74219 12.3594C8.74219 12.1615 8.80208 12.0026 8.92188 11.8828C9.04688 11.7578 9.21094 11.6953 9.41406 11.6953H11.7109V9.39844C11.7109 9.20052 11.7708 9.03906 11.8906 8.91406C12.0104 8.78906 12.1641 8.72656 12.3516 8.72656C12.5495 8.72656 12.7083 8.78906 12.8281 8.91406C12.9531 9.03385 13.0156 9.19531 13.0156 9.39844V11.6953H15.3203C15.5182 11.6953 15.6771 11.7578 15.7969 11.8828C15.9219 12.0026 15.9844 12.1615 15.9844 12.3594C15.9844 12.5469 15.9219 12.7005 15.7969 12.8203C15.6771 12.9401 15.5182 13 15.3203 13H13.0156V15.3047C13.0156 15.5026 12.9531 15.6641 12.8281 15.7891C12.7083 15.9089 12.5495 15.9688 12.3516 15.9688C12.1641 15.9688 12.0104 15.9089 11.8906 15.7891C11.7708 15.6641 11.7109 15.5026 11.7109 15.3047V13H9.41406C9.21615 13 9.05469 12.9401 8.92969 12.8203C8.80469 12.7005 8.74219 12.5469 8.74219 12.3594Z" fill="#141414"/>
</svg>
