<svg width="24" height="24" viewBox="0 0 24 24" fill="none" xmlns="http://www.w3.org/2000/svg">
<path d="M12.3672 20.3281C11.2786 20.3281 10.2526 20.1198 9.28906 19.7031C8.33073 19.2865 7.48438 18.7109 6.75 17.9766C6.01562 17.2422 5.4401 16.3958 5.02344 15.4375C4.60677 14.474 4.39844 13.4479 4.39844 12.3594C4.39844 11.2708 4.60677 10.2474 5.02344 9.28906C5.4401 8.32552 6.01302 7.47656 6.74219 6.74219C7.47656 6.00781 8.32292 5.43229 9.28125 5.01562C10.2448 4.59896 11.2708 4.39062 12.3594 4.39062C13.4479 4.39062 14.474 4.59896 15.4375 5.01562C16.401 5.43229 17.25 6.00781 17.9844 6.74219C18.7188 7.47656 19.2943 8.32552 19.7109 9.28906C20.1276 10.2474 20.3359 11.2708 20.3359 12.3594C20.3359 13.4479 20.1276 14.474 19.7109 15.4375C19.2943 16.3958 18.7188 17.2422 17.9844 17.9766C17.25 18.7109 16.401 19.2865 15.4375 19.7031C14.4792 20.1198 13.4557 20.3281 12.3672 20.3281ZM8.55469 12.3672C8.55469 12.5651 8.61979 12.7266 8.75 12.8516C8.88021 12.9714 9.04688 13.0312 9.25 13.0312H11.6953V15.4844C11.6953 15.6875 11.7552 15.8542 11.875 15.9844C12 16.1094 12.1615 16.1719 12.3594 16.1719C12.5625 16.1719 12.7266 16.1094 12.8516 15.9844C12.9818 15.8542 13.0469 15.6875 13.0469 15.4844V13.0312H15.5C15.6979 13.0312 15.862 12.9714 15.9922 12.8516C16.1224 12.7266 16.1875 12.5651 16.1875 12.3672C16.1875 12.1641 16.1224 12 15.9922 11.875C15.8672 11.7448 15.7031 11.6797 15.5 11.6797H13.0469V9.23438C13.0469 9.03125 12.9818 8.86458 12.8516 8.73438C12.7266 8.60417 12.5625 8.53906 12.3594 8.53906C12.1615 8.53906 12 8.60417 11.875 8.73438C11.7552 8.86458 11.6953 9.03125 11.6953 9.23438V11.6797H9.25C9.04688 11.6797 8.88021 11.7448 8.75 11.875C8.61979 12 8.55469 12.1641 8.55469 12.3672Z" fill="currentColor"/>
</svg>
