<svg width="24" height="24" viewBox="0 0 24 24" fill="none" xmlns="http://www.w3.org/2000/svg">
<path d="M7.63281 20.9922C7.40885 20.9922 7.23698 20.9193 7.11719 20.7734C6.9974 20.6276 6.9375 20.4323 6.9375 20.1875V17.9141H6.57031C5.79427 17.9141 5.14062 17.776 4.60938 17.5C4.07812 17.224 3.67448 16.8203 3.39844 16.2891C3.1276 15.7578 2.99219 15.1094 2.99219 14.3438V8.35938C2.99219 7.59375 3.1276 6.94531 3.39844 6.41406C3.67448 5.88281 4.07812 5.47917 4.60938 5.20312C5.14062 4.92188 5.79427 4.78125 6.57031 4.78125H16.6328C17.4089 4.78125 18.0625 4.92188 18.5938 5.20312C19.125 5.47917 19.526 5.88281 19.7969 6.41406C20.0729 6.94531 20.2109 7.59375 20.2109 8.35938V14.3438C20.2109 15.1094 20.0729 15.7578 19.7969 16.2891C19.526 16.8203 19.125 17.224 18.5938 17.5C18.0625 17.776 17.4089 17.9141 16.6328 17.9141H11.3516L8.53125 20.4922C8.34375 20.6641 8.1849 20.7891 8.05469 20.8672C7.92969 20.9505 7.78906 20.9922 7.63281 20.9922ZM7.78906 11.3516C7.78906 11.5495 7.85417 11.7109 7.98438 11.8359C8.11458 11.9557 8.28125 12.0156 8.48438 12.0156H10.9297V14.4688C10.9297 14.6719 10.9896 14.8385 11.1094 14.9688C11.2344 15.0938 11.3958 15.1562 11.5938 15.1562C11.7969 15.1562 11.9609 15.0938 12.0859 14.9688C12.2161 14.8385 12.2812 14.6719 12.2812 14.4688V12.0156H14.7344C14.9323 12.0156 15.0964 11.9557 15.2266 11.8359C15.3568 11.7109 15.4219 11.5495 15.4219 11.3516C15.4219 11.1484 15.3568 10.9844 15.2266 10.8594C15.1016 10.7292 14.9375 10.6641 14.7344 10.6641H12.2812V8.21875C12.2812 8.01562 12.2161 7.84896 12.0859 7.71875C11.9609 7.58854 11.7969 7.52344 11.5938 7.52344C11.3958 7.52344 11.2344 7.58854 11.1094 7.71875C10.9896 7.84896 10.9297 8.01562 10.9297 8.21875V10.6641H8.48438C8.28125 10.6641 8.11458 10.7292 7.98438 10.8594C7.85417 10.9844 7.78906 11.1484 7.78906 11.3516Z" fill="currentColor"/>
</svg>
