<svg width="24" height="24" viewBox="0 0 24 24" fill="none" xmlns="http://www.w3.org/2000/svg">
<path d="M4 6.39961C4 5.95778 4.35817 5.59961 4.8 5.59961H19.2C19.6418 5.59961 20 5.95778 20 6.39961C20 6.84144 19.6418 7.19961 19.2 7.19961H4.8C4.35817 7.19961 4 6.84144 4 6.39961Z" fill="currentColor"/>
<path d="M4 11.9996C4 11.5578 4.35817 11.1996 4.8 11.1996H19.2C19.6418 11.1996 20 11.5578 20 11.9996C20 12.4414 19.6418 12.7996 19.2 12.7996H4.8C4.35817 12.7996 4 12.4414 4 11.9996Z" fill="currentColor"/>
<path d="M4 17.5996C4 17.1578 4.35817 16.7996 4.8 16.7996H19.2C19.6418 16.7996 20 17.1578 20 17.5996C20 18.0414 19.6418 18.3996 19.2 18.3996H4.8C4.35817 18.3996 4 18.0414 4 17.5996Z" fill="currentColor"/>
</svg>
