<svg width="24" height="24" viewBox="0 0 24 24" fill="none" xmlns="http://www.w3.org/2000/svg">
<path d="M12.3672 20.3281C11.2786 20.3281 10.2526 20.1198 9.28906 19.7031C8.33073 19.2865 7.48438 18.7109 6.75 17.9766C6.01562 17.2422 5.4401 16.3958 5.02344 15.4375C4.60677 14.474 4.39844 13.4479 4.39844 12.3594C4.39844 11.2708 4.60677 10.2474 5.02344 9.28906C5.4401 8.32552 6.01302 7.47656 6.74219 6.74219C7.47656 6.00781 8.32292 5.43229 9.28125 5.01562C10.2448 4.59896 11.2708 4.39062 12.3594 4.39062C13.4479 4.39062 14.474 4.59896 15.4375 5.01562C16.401 5.43229 17.25 6.00781 17.9844 6.74219C18.7188 7.47656 19.2943 8.32552 19.7109 9.28906C20.1276 10.2474 20.3359 11.2708 20.3359 12.3594C20.3359 13.4479 20.1276 14.474 19.7109 15.4375C19.2943 16.3958 18.7188 17.2422 17.9844 17.9766C17.25 18.7109 16.401 19.2865 15.4375 19.7031C14.4792 20.1198 13.4557 20.3281 12.3672 20.3281ZM12.2109 14.0312C12.4141 14.0312 12.5729 13.9766 12.6875 13.8672C12.8021 13.7526 12.8594 13.6146 12.8594 13.4531C12.8594 13.4375 12.8594 13.4219 12.8594 13.4062C12.8594 13.3854 12.8594 13.3698 12.8594 13.3594C12.8594 13.1302 12.9271 12.9349 13.0625 12.7734C13.1979 12.6068 13.4062 12.4323 13.6875 12.25C14.0781 11.9948 14.3984 11.7266 14.6484 11.4453C14.9036 11.1641 15.0312 10.7812 15.0312 10.2969C15.0312 9.84896 14.9115 9.47396 14.6719 9.17188C14.4323 8.86458 14.1172 8.63281 13.7266 8.47656C13.3411 8.32031 12.9193 8.24219 12.4609 8.24219C11.763 8.24219 11.1953 8.38021 10.7578 8.65625C10.3255 8.93229 10.0521 9.25781 9.9375 9.63281C9.91667 9.69531 9.89844 9.76042 9.88281 9.82812C9.8724 9.89583 9.86719 9.96354 9.86719 10.0312C9.86719 10.2083 9.92708 10.3464 10.0469 10.4453C10.1667 10.5391 10.2943 10.5859 10.4297 10.5859C10.5651 10.5859 10.6797 10.5573 10.7734 10.5C10.8672 10.4375 10.9505 10.3594 11.0234 10.2656L11.1641 10.0703C11.263 9.91406 11.375 9.78125 11.5 9.67188C11.625 9.5625 11.763 9.47917 11.9141 9.42188C12.0651 9.36458 12.2292 9.33594 12.4062 9.33594C12.7708 9.33594 13.0625 9.42969 13.2812 9.61719C13.5052 9.80469 13.6172 10.0521 13.6172 10.3594C13.6172 10.6354 13.5312 10.862 13.3594 11.0391C13.1875 11.2109 12.9245 11.4193 12.5703 11.6641C12.2839 11.8672 12.0443 12.0885 11.8516 12.3281C11.6589 12.5677 11.5625 12.888 11.5625 13.2891C11.5625 13.3047 11.5625 13.3229 11.5625 13.3438C11.5625 13.3594 11.5625 13.375 11.5625 13.3906C11.5625 13.8177 11.7786 14.0312 12.2109 14.0312ZM12.1875 16.4297C12.4219 16.4297 12.625 16.349 12.7969 16.1875C12.974 16.026 13.0625 15.8281 13.0625 15.5938C13.0625 15.3594 12.9766 15.1615 12.8047 15C12.6328 14.8333 12.4271 14.75 12.1875 14.75C11.9531 14.75 11.75 14.8333 11.5781 15C11.4062 15.1667 11.3203 15.3646 11.3203 15.5938C11.3203 15.8281 11.4062 16.026 11.5781 16.1875C11.7552 16.349 11.9583 16.4297 12.1875 16.4297Z" fill="#141414"/>
</svg>
