<svg width="24" height="24" viewBox="0 0 24 24" fill="none" xmlns="http://www.w3.org/2000/svg">
<path d="M12.3672 20.3281C11.2786 20.3281 10.2526 20.1198 9.28906 19.7031C8.33073 19.2865 7.48438 18.7109 6.75 17.9766C6.01562 17.2422 5.4401 16.3958 5.02344 15.4375C4.60677 14.474 4.39844 13.4479 4.39844 12.3594C4.39844 11.2708 4.60677 10.2474 5.02344 9.28906C5.4401 8.32552 6.01302 7.47656 6.74219 6.74219C7.47656 6.00781 8.32292 5.43229 9.28125 5.01562C10.2448 4.59896 11.2708 4.39062 12.3594 4.39062C13.4479 4.39062 14.474 4.59896 15.4375 5.01562C16.401 5.43229 17.25 6.00781 17.9844 6.74219C18.7188 7.47656 19.2943 8.32552 19.7109 9.28906C20.1276 10.2474 20.3359 11.2708 20.3359 12.3594C20.3359 13.4479 20.1276 14.474 19.7109 15.4375C19.2943 16.3958 18.7188 17.2422 17.9844 17.9766C17.25 18.7109 16.401 19.2865 15.4375 19.7031C14.4792 20.1198 13.4557 20.3281 12.3672 20.3281ZM12.3672 19C13.2891 19 14.151 18.8281 14.9531 18.4844C15.7552 18.1406 16.4609 17.6667 17.0703 17.0625C17.6797 16.4531 18.1536 15.7474 18.4922 14.9453C18.8359 14.1432 19.0078 13.2812 19.0078 12.3594C19.0078 11.4375 18.8359 10.5755 18.4922 9.77344C18.1484 8.97135 17.6719 8.26562 17.0625 7.65625C16.4583 7.04688 15.7526 6.57292 14.9453 6.23438C14.1432 5.89062 13.2812 5.71875 12.3594 5.71875C11.4375 5.71875 10.5755 5.89062 9.77344 6.23438C8.97135 6.57292 8.26823 7.04688 7.66406 7.65625C7.0599 8.26562 6.58594 8.97135 6.24219 9.77344C5.90365 10.5755 5.73438 11.4375 5.73438 12.3594C5.73438 13.2812 5.90365 14.1432 6.24219 14.9453C6.58594 15.7474 7.0599 16.4531 7.66406 17.0625C8.27344 17.6667 8.97917 18.1406 9.78125 18.4844C10.5833 18.8281 11.4453 19 12.3672 19ZM12.2109 13.9766C11.7943 13.9766 11.5859 13.7708 11.5859 13.3594C11.5859 13.3438 11.5859 13.3281 11.5859 13.3125C11.5859 13.2917 11.5859 13.2734 11.5859 13.2578C11.5859 12.8724 11.6771 12.5625 11.8594 12.3281C12.0469 12.0938 12.2812 11.8802 12.5625 11.6875C12.9062 11.4479 13.1615 11.2448 13.3281 11.0781C13.4948 10.9062 13.5781 10.6875 13.5781 10.4219C13.5781 10.125 13.4714 9.88542 13.2578 9.70312C13.0443 9.51562 12.7578 9.42188 12.3984 9.42188C12.2266 9.42188 12.0651 9.45052 11.9141 9.50781C11.7682 9.5651 11.6354 9.64844 11.5156 9.75781C11.3958 9.86198 11.2891 9.98958 11.1953 10.1406L11.0547 10.3281C10.987 10.4219 10.9062 10.4974 10.8125 10.5547C10.724 10.612 10.6146 10.6406 10.4844 10.6406C10.3542 10.6406 10.2318 10.5964 10.1172 10.5078C10.0026 10.4141 9.94531 10.2786 9.94531 10.1016C9.94531 10.0339 9.95052 9.96875 9.96094 9.90625C9.97135 9.84375 9.98698 9.78125 10.0078 9.71875C10.1172 9.35938 10.3828 9.04427 10.8047 8.77344C11.2318 8.4974 11.7812 8.35938 12.4531 8.35938C12.8958 8.35938 13.3047 8.4375 13.6797 8.59375C14.0547 8.74479 14.3568 8.96875 14.5859 9.26562C14.8203 9.5625 14.9375 9.92708 14.9375 10.3594C14.9375 10.8281 14.8151 11.1979 14.5703 11.4688C14.3255 11.7396 14.0156 12 13.6406 12.25C13.3646 12.4323 13.1615 12.6042 13.0312 12.7656C12.901 12.9219 12.8359 13.1094 12.8359 13.3281C12.8359 13.3385 12.8359 13.3542 12.8359 13.375C12.8359 13.3906 12.8359 13.4062 12.8359 13.4219C12.8359 13.5729 12.7786 13.7031 12.6641 13.8125C12.5547 13.9219 12.4036 13.9766 12.2109 13.9766ZM12.1875 16.3047C11.9635 16.3047 11.7682 16.2266 11.6016 16.0703C11.4349 15.9089 11.3516 15.7161 11.3516 15.4922C11.3516 15.2682 11.4323 15.0781 11.5938 14.9219C11.7604 14.7604 11.9583 14.6797 12.1875 14.6797C12.4167 14.6797 12.6146 14.7578 12.7812 14.9141C12.9479 15.0703 13.0312 15.263 13.0312 15.4922C13.0312 15.7214 12.9479 15.9141 12.7812 16.0703C12.6146 16.2266 12.4167 16.3047 12.1875 16.3047Z" fill="currentColor"/>
</svg>
