<svg width="24" height="24" viewBox="0 0 24 24" fill="none" xmlns="http://www.w3.org/2000/svg">
<path d="M6.28125 4.44531H15.0312C15.8438 4.44531 16.4557 4.64844 16.8672 5.05469C17.2786 5.46094 17.4844 6.0651 17.4844 6.86719V7H9.01562C8.98438 7 8.95312 7 8.92188 7C8.89062 7 8.85938 7 8.82812 7L6.28125 4.44531ZM1.99219 14.2344V6.86719C1.99219 6.04948 2.21094 5.45573 2.64844 5.08594L5.60938 8.05469C5.05729 8.63802 4.78125 9.44792 4.78125 10.4844V16.6562H4.44531C3.6276 16.6562 3.01302 16.4557 2.60156 16.0547C2.19531 15.6484 1.99219 15.0417 1.99219 14.2344ZM9.89844 8.0625H18.9766C19.7891 8.0625 20.401 8.26562 20.8125 8.67188C21.224 9.07812 21.4297 9.68229 21.4297 10.4844V17.8516C21.4297 18.4245 21.3021 18.8776 21.0469 19.2109L9.89844 8.0625ZM5.85156 17.8516V10.4844C5.85156 9.75521 6.02604 9.19792 6.375 8.8125L17.8281 20.2734H8.30469C7.48698 20.2734 6.8724 20.0703 6.46094 19.6641C6.05469 19.263 5.85156 18.6589 5.85156 17.8516ZM20.2578 21.4219L3.01562 4.17188C2.90104 4.0625 2.84375 3.92188 2.84375 3.75C2.84375 3.57812 2.90104 3.4349 3.01562 3.32031C3.13542 3.20573 3.27865 3.14844 3.44531 3.14844C3.61198 3.14844 3.75521 3.20573 3.875 3.32031L21.1094 20.5703C21.2292 20.6849 21.2865 20.8255 21.2812 20.9922C21.2812 21.1589 21.224 21.3021 21.1094 21.4219C20.9948 21.5365 20.8542 21.5938 20.6875 21.5938C20.5208 21.5938 20.3776 21.5365 20.2578 21.4219Z" fill="currentColor"/>
</svg>
