<svg width="24" height="24" viewBox="0 0 24 24" fill="none" xmlns="http://www.w3.org/2000/svg">
<path d="M5.41406 20.7344C4.60677 20.7344 4 20.5312 3.59375 20.125C3.19271 19.7188 2.99219 19.1068 2.99219 18.2891V6.4375C2.99219 5.625 3.19271 5.01302 3.59375 4.60156C4 4.1901 4.60677 3.98438 5.41406 3.98438H13.7109C14.5182 3.98438 15.1224 4.1901 15.5234 4.60156C15.9297 5.01302 16.1328 5.625 16.1328 6.4375V10.2266H14.875V6.46094C14.875 6.07031 14.7708 5.77083 14.5625 5.5625C14.3594 5.34896 14.0547 5.24219 13.6484 5.24219H5.47656C5.07031 5.24219 4.76302 5.34896 4.55469 5.5625C4.35156 5.77083 4.25 6.07031 4.25 6.46094V18.2656C4.25 18.6562 4.35156 18.9557 4.55469 19.1641C4.76302 19.3724 5.07031 19.4766 5.47656 19.4766H13.6484C14.0547 19.4766 14.3594 19.3724 14.5625 19.1641C14.7708 18.9557 14.875 18.6562 14.875 18.2656V14.4922H16.1328V18.2891C16.1328 19.1068 15.9297 19.7188 15.5234 20.125C15.1224 20.5312 14.5182 20.7344 13.7109 20.7344H5.41406ZM10.2188 12.9766C10.0573 12.9766 9.91667 12.9167 9.79688 12.7969C9.67708 12.6719 9.61719 12.526 9.61719 12.3594C9.61719 12.1927 9.67708 12.0469 9.79688 11.9219C9.91667 11.7969 10.0573 11.7344 10.2188 11.7344H18.2422L19.4141 11.7891L18.8594 11.2578L17.6016 10.0703C17.4766 9.96094 17.4141 9.81771 17.4141 9.64062C17.4141 9.47917 17.4635 9.34635 17.5625 9.24219C17.6667 9.13281 17.7995 9.07812 17.9609 9.07812C18.112 9.07812 18.25 9.14062 18.375 9.26562L20.9219 11.9062C21 11.9844 21.0521 12.0599 21.0781 12.1328C21.1094 12.2057 21.125 12.2812 21.125 12.3594C21.125 12.4375 21.1094 12.513 21.0781 12.5859C21.0521 12.6589 21 12.7344 20.9219 12.8125L18.375 15.4531C18.25 15.5729 18.112 15.6328 17.9609 15.6328C17.7995 15.6328 17.6667 15.5781 17.5625 15.4688C17.4635 15.3594 17.4141 15.224 17.4141 15.0625C17.4141 14.8906 17.4766 14.75 17.6016 14.6406L18.8594 13.4609L19.4141 12.9297L18.2422 12.9766H10.2188Z" fill="currentColor"/>
</svg>
