<svg width="24" height="24" viewBox="0 0 24 24" fill="none" xmlns="http://www.w3.org/2000/svg">
<path d="M15.0312 4.44531C15.8438 4.44531 16.4557 4.64844 16.8672 5.05469C17.2786 5.46094 17.4844 6.0651 17.4844 6.86719V8.0625H18.9766C19.7891 8.0625 20.401 8.26562 20.8125 8.67188C21.224 9.07812 21.4297 9.68229 21.4297 10.4844V17.8516C21.4297 18.4193 21.3021 18.8724 21.0469 19.2109L19.9688 18.1328C20.0312 18.1068 20.0807 18.0625 20.1172 18C20.1536 17.9427 20.1719 17.8724 20.1719 17.7891V10.5547C20.1719 10.1484 20.0651 9.84115 19.8516 9.63281C19.638 9.42448 19.3385 9.32031 18.9531 9.32031H11.1484L9.89844 8.0625H16.2266V6.9375C16.2266 6.53125 16.1198 6.22396 15.9062 6.01562C15.6927 5.80729 15.3932 5.70312 15.0078 5.70312H7.53906L6.28125 4.44531H15.0312ZM8.30469 20.2734C7.48698 20.2734 6.8724 20.0703 6.46094 19.6641C6.05469 19.263 5.85156 18.6589 5.85156 17.8516V16.6562H4.44531C3.6276 16.6562 3.01302 16.4557 2.60156 16.0547C2.19531 15.6484 1.99219 15.0417 1.99219 14.2344V6.86719C1.99219 6.05469 2.20833 5.46094 2.64062 5.08594L3.60938 6.04688C3.36979 6.22396 3.25 6.52083 3.25 6.9375V14.1719C3.25 14.5781 3.35417 14.8854 3.5625 15.0938C3.77083 15.2969 4.07031 15.3984 4.46094 15.3984H5.85156V10.4844C5.85156 9.75 6.02344 9.19271 6.36719 8.8125L7.35156 9.79688C7.1901 9.96354 7.10938 10.2161 7.10938 10.5547V17.7891C7.10938 18.1953 7.21354 18.5 7.42188 18.7031C7.63021 18.9115 7.92969 19.0156 8.32031 19.0156H16.5703L17.8281 20.2734H8.30469ZM20.2578 21.4219L3.01562 4.17188C2.90104 4.0625 2.84375 3.92188 2.84375 3.75C2.84375 3.57812 2.90104 3.4349 3.01562 3.32031C3.13542 3.20573 3.27865 3.14844 3.44531 3.14844C3.61198 3.14844 3.75521 3.20573 3.875 3.32031L21.1094 20.5703C21.2292 20.6849 21.2865 20.8255 21.2812 20.9922C21.2812 21.1589 21.224 21.3021 21.1094 21.4219C20.9948 21.5365 20.8542 21.5938 20.6875 21.5938C20.5208 21.5938 20.3776 21.5365 20.2578 21.4219Z" fill="currentColor"/>
</svg>
