<svg width="32" height="32" viewBox="0 0 32 32" fill="none" xmlns="http://www.w3.org/2000/svg">
    <rect width="32" height="32" rx="16" fill="currentColor"/>
    <mask id="mask0_15054_20710" style="mask-type:alpha" maskUnits="userSpaceOnUse" x="4" y="4" width="24" height="24">
        <rect x="4" y="4" width="24" height="24" fill="#D9D9D9"/>
    </mask>
    <g mask="url(#mask0_15054_20710)">
        <path d="M10.7665 22.7228C10.4645 22.8434 10.1779 22.8178 9.90675 22.6458C9.63558 22.4738 9.5 22.2233 9.5 21.8943V17.673L16.423 16L9.5 14.327V10.1058C9.5 9.77676 9.63558 9.52626 9.90675 9.35426C10.1779 9.18226 10.4645 9.1566 10.7665 9.27726L24.723 15.1615C25.0948 15.328 25.2807 15.6081 25.2807 16.0018C25.2807 16.3954 25.0948 16.6743 24.723 16.8385L10.7665 22.7228Z"
              fill="white"/>
    </g>
</svg>
