<svg width="24" height="24" viewBox="0 0 24 24" fill="none" xmlns="http://www.w3.org/2000/svg">
<path d="M12.3438 20.25C12.2812 20.25 12.2031 20.237 12.1094 20.2109C12.0208 20.1901 11.9271 20.1536 11.8281 20.1016C10.7396 19.4818 9.81771 18.9349 9.0625 18.4609C8.3125 17.987 7.70833 17.5286 7.25 17.0859C6.79688 16.638 6.46615 16.1562 6.25781 15.6406C6.05469 15.1198 5.95312 14.5078 5.95312 13.8047V7.91406C5.95312 7.51302 6.03906 7.22396 6.21094 7.04688C6.38281 6.86458 6.63021 6.70833 6.95312 6.57812C7.13542 6.50521 7.38542 6.40885 7.70312 6.28906C8.02083 6.16406 8.36979 6.03125 8.75 5.89062C9.13542 5.74479 9.51823 5.60417 9.89844 5.46875C10.2839 5.32812 10.6354 5.20312 10.9531 5.09375C11.2708 4.97917 11.5208 4.89062 11.7031 4.82812C11.8073 4.79688 11.9115 4.77083 12.0156 4.75C12.125 4.72917 12.2344 4.71875 12.3438 4.71875C12.4531 4.71875 12.5625 4.72917 12.6719 4.75C12.7812 4.77083 12.888 4.79688 12.9922 4.82812C13.1745 4.89062 13.4219 4.97917 13.7344 5.09375C14.0521 5.20312 14.401 5.32812 14.7812 5.46875C15.1667 5.60938 15.5495 5.75 15.9297 5.89062C16.3151 6.03125 16.6667 6.16146 16.9844 6.28125C17.3021 6.40104 17.5521 6.5 17.7344 6.57812C18.0625 6.71354 18.3099 6.86979 18.4766 7.04688C18.6484 7.22396 18.7344 7.51302 18.7344 7.91406V13.8047C18.7344 14.5078 18.6354 15.125 18.4375 15.6562C18.2396 16.1823 17.9141 16.6745 17.4609 17.1328C17.013 17.5911 16.4115 18.0547 15.6562 18.5234C14.9062 18.9922 13.974 19.5182 12.8594 20.1016C12.7604 20.1536 12.6641 20.1901 12.5703 20.2109C12.4818 20.237 12.4062 20.25 12.3438 20.25Z" fill="#141414"/>
</svg>
