<svg width="24" height="24" viewBox="0 0 24 24" fill="none" xmlns="http://www.w3.org/2000/svg">
<path d="M9.80469 19.2579C9.6224 19.2579 9.45052 19.2188 9.28906 19.1407C9.1276 19.0626 8.95833 18.9376 8.78125 18.7657L5.45312 15.6095C5.40104 15.5626 5.33594 15.5391 5.25781 15.5391H3.01562C2.48958 15.5391 2.08594 15.3959 1.80469 15.1095C1.52344 14.823 1.38281 14.3959 1.38281 13.8282V10.922C1.38281 10.3595 1.52344 9.93497 1.80469 9.64851C2.08594 9.35685 2.48958 9.21101 3.01562 9.21101H5.25781C5.33594 9.21101 5.40104 9.18758 5.45312 9.1407L8.78125 6.0157C8.97917 5.82299 9.15104 5.68497 9.29688 5.60164C9.44271 5.5183 9.60677 5.47664 9.78906 5.47664C10.0547 5.47664 10.2708 5.56778 10.4375 5.75008C10.6042 5.92716 10.6875 6.1433 10.6875 6.39851V18.3829C10.6875 18.6329 10.6042 18.8412 10.4375 19.0079C10.276 19.1746 10.0651 19.2579 9.80469 19.2579ZM13.4688 15.6876C13.3125 15.5782 13.224 15.4376 13.2031 15.2657C13.1823 15.0938 13.2318 14.9246 13.3516 14.7579C13.5755 14.4402 13.75 14.0756 13.875 13.6641C14 13.2475 14.0625 12.8126 14.0625 12.3595C14.0625 11.9063 14 11.4714 13.875 11.0548C13.7552 10.6381 13.5807 10.2735 13.3516 9.96101C13.2266 9.79955 13.1745 9.63289 13.1953 9.46101C13.2214 9.28393 13.3125 9.1407 13.4688 9.03133C13.6042 8.93758 13.7526 8.90633 13.9141 8.93758C14.0755 8.96883 14.2083 9.05997 14.3125 9.21101C14.6146 9.60685 14.849 10.0808 15.0156 10.6329C15.1875 11.185 15.2734 11.7605 15.2734 12.3595C15.2734 12.9584 15.1875 13.5339 15.0156 14.086C14.849 14.6381 14.6146 15.1121 14.3125 15.5079C14.2083 15.6589 14.0755 15.7501 13.9141 15.7813C13.7526 15.8074 13.6042 15.7761 13.4688 15.6876ZM16.375 17.7266C16.2344 17.6277 16.1536 17.4975 16.1328 17.336C16.112 17.1693 16.1562 17.0053 16.2656 16.8438C16.6875 16.2345 17.0156 15.5443 17.25 14.7735C17.4896 13.9975 17.6094 13.1928 17.6094 12.3595C17.6094 11.5261 17.4922 10.7214 17.2578 9.94539C17.0234 9.16935 16.6927 8.47924 16.2656 7.87508C16.151 7.71362 16.1042 7.55216 16.125 7.3907C16.151 7.22403 16.2344 7.09122 16.375 6.99226C16.5208 6.8933 16.6745 6.85945 16.8359 6.8907C16.9974 6.92195 17.1302 7.0131 17.2344 7.16414C17.7396 7.84122 18.1302 8.63549 18.4062 9.54695C18.6823 10.4584 18.8203 11.3959 18.8203 12.3595C18.8203 13.323 18.6797 14.2579 18.3984 15.1641C18.1224 16.0704 17.7344 16.8673 17.2344 17.5548C17.1302 17.7058 16.9974 17.797 16.8359 17.8282C16.6745 17.8542 16.5208 17.8204 16.375 17.7266ZM19.3047 19.797C19.1589 19.698 19.0755 19.5626 19.0547 19.3907C19.0339 19.224 19.0781 19.0626 19.1875 18.9063C19.5885 18.3126 19.9349 17.6693 20.2266 16.9766C20.5234 16.2787 20.7526 15.5443 20.9141 14.7735C21.0755 13.9975 21.1562 13.1928 21.1562 12.3595C21.1562 11.5209 21.0755 10.7162 20.9141 9.94539C20.7526 9.16935 20.5234 8.43758 20.2266 7.75008C19.9349 7.05737 19.5885 6.41153 19.1875 5.81258C19.0781 5.65112 19.0339 5.48705 19.0547 5.32039C19.0755 5.15372 19.1589 5.02091 19.3047 4.92195C19.4401 4.82299 19.5911 4.79174 19.7578 4.8282C19.9245 4.85945 20.0599 4.9558 20.1641 5.11726C20.612 5.77872 21 6.49487 21.3281 7.2657C21.6562 8.03133 21.9089 8.84122 22.0859 9.69539C22.263 10.5496 22.3516 11.4376 22.3516 12.3595C22.3516 13.2813 22.263 14.1693 22.0859 15.0235C21.9141 15.8777 21.6641 16.6902 21.3359 17.461C21.013 18.2266 20.6224 18.9402 20.1641 19.6016C20.0599 19.7579 19.9245 19.8542 19.7578 19.8907C19.5911 19.9272 19.4401 19.8959 19.3047 19.797Z" fill="currentColor"/>
</svg>
