<svg width="24" height="24" viewBox="0 0 24 24" fill="none" xmlns="http://www.w3.org/2000/svg">
<path d="M7.97656 15.5391C7.44531 15.5391 7.04688 15.4036 6.78125 15.1328C6.51562 14.8568 6.38281 14.4375 6.38281 13.875V10.8828C6.38281 10.6536 6.40625 10.4505 6.45312 10.2734C6.5 10.0964 6.57031 9.94531 6.66406 9.82031L7.60156 10.7578V13.9766C7.60156 14.1224 7.63542 14.2292 7.70312 14.2969C7.77604 14.3646 7.88542 14.3984 8.03125 14.3984H10.5625C10.6615 14.3984 10.7422 14.4089 10.8047 14.4297C10.8672 14.4505 10.9375 14.4974 11.0156 14.5703L14.7891 17.9531L15.6953 18.8516C15.6068 18.987 15.5 19.0885 15.375 19.1562C15.25 19.224 15.112 19.2578 14.9609 19.2578C14.7734 19.2578 14.6016 19.2161 14.4453 19.1328C14.2891 19.0547 14.1146 18.9323 13.9219 18.7656L10.3984 15.6094C10.3464 15.5625 10.2839 15.5391 10.2109 15.5391H7.97656ZM15.8438 14.3906L14.625 13.1719V7.17188C14.625 7.09896 14.5911 7.0625 14.5234 7.0625C14.4974 7.0625 14.474 7.06771 14.4531 7.07812C14.4323 7.08854 14.4115 7.10417 14.3906 7.125L11.3438 9.89062L10.5078 9.04688L13.9219 6.01562C14.1302 5.83333 14.3047 5.69792 14.4453 5.60938C14.5911 5.52083 14.7578 5.47656 14.9453 5.47656C15.2057 5.47656 15.4193 5.56771 15.5859 5.75C15.7578 5.92708 15.8438 6.14323 15.8438 6.39844V14.3906ZM18.3906 20.0781L5 6.70312C4.88542 6.58854 4.82812 6.44792 4.82812 6.28125C4.82812 6.10938 4.88542 5.96615 5 5.85156C5.11979 5.73177 5.26302 5.67448 5.42969 5.67969C5.59635 5.67969 5.73958 5.73698 5.85938 5.85156L19.2344 19.2266C19.3542 19.3464 19.4141 19.487 19.4141 19.6484C19.4141 19.8151 19.3542 19.9583 19.2344 20.0781C19.125 20.1979 18.9844 20.2578 18.8125 20.2578C18.6458 20.2578 18.5052 20.1979 18.3906 20.0781Z" fill="currentColor"/>
</svg>
