<svg width="24" height="24" viewBox="0 0 24 24" fill="none" xmlns="http://www.w3.org/2000/svg">
<path d="M7.97656 15.5391C7.44531 15.5391 7.04688 15.4036 6.78125 15.1328C6.51562 14.8568 6.38281 14.4375 6.38281 13.875V10.8828C6.38281 10.362 6.4974 9.97135 6.72656 9.71094L15.6328 18.6094C15.5703 18.8333 15.4661 18.9974 15.3203 19.1016C15.1745 19.2057 15 19.2578 14.7969 19.2578C14.6198 19.2578 14.4505 19.2188 14.2891 19.1406C14.1276 19.0625 13.9557 18.9375 13.7734 18.7656L10.3984 15.6094C10.3464 15.5625 10.2812 15.5391 10.2031 15.5391H7.97656ZM15.6875 14.3984L10.2656 8.99219H10.5C10.5469 8.99219 10.5911 8.97135 10.6328 8.92969L13.7734 6.01562C13.9766 5.82812 14.151 5.69271 14.2969 5.60938C14.4427 5.52083 14.6068 5.47656 14.7891 5.47656C15.0547 5.47656 15.2708 5.56771 15.4375 5.75C15.6042 5.92708 15.6875 6.14323 15.6875 6.39844V14.3984ZM18.3906 20.0781L5 6.70312C4.88542 6.58854 4.82812 6.44792 4.82812 6.28125C4.82812 6.10938 4.88542 5.96615 5 5.85156C5.11979 5.73177 5.26302 5.67448 5.42969 5.67969C5.59635 5.67969 5.73958 5.73698 5.85938 5.85156L19.2344 19.2266C19.3542 19.3464 19.4141 19.487 19.4141 19.6484C19.4141 19.8151 19.3542 19.9583 19.2344 20.0781C19.125 20.1979 18.9844 20.2578 18.8125 20.2578C18.6458 20.2578 18.5052 20.1979 18.3906 20.0781Z" fill="#141414"/>
</svg>
