<svg width="24" height="24" viewBox="0 0 24 24" fill="none" xmlns="http://www.w3.org/2000/svg">
<path d="M14.8047 19.2578C14.6224 19.2578 14.4505 19.2188 14.2891 19.1406C14.1276 19.0625 13.9583 18.9375 13.7812 18.7656L10.4531 15.6094C10.401 15.5625 10.3359 15.5391 10.2578 15.5391H8.01562C7.48958 15.5391 7.08594 15.3958 6.80469 15.1094C6.52344 14.8229 6.38281 14.3958 6.38281 13.8281V10.9219C6.38281 10.3594 6.52344 9.9349 6.80469 9.64844C7.08594 9.35677 7.48958 9.21094 8.01562 9.21094H10.2578C10.3359 9.21094 10.401 9.1875 10.4531 9.14062L13.7812 6.01562C13.9792 5.82292 14.151 5.6849 14.2969 5.60156C14.4427 5.51823 14.6068 5.47656 14.7891 5.47656C15.0547 5.47656 15.2708 5.56771 15.4375 5.75C15.6042 5.92708 15.6875 6.14323 15.6875 6.39844V18.3828C15.6875 18.6328 15.6042 18.8411 15.4375 19.0078C15.276 19.1745 15.0651 19.2578 14.8047 19.2578Z" fill="currentColor"/>
</svg>
