<svg width="24" height="24" viewBox="0 0 24 24" fill="none" xmlns="http://www.w3.org/2000/svg">
<path d="M13.8047 19.2578C13.6224 19.2578 13.4505 19.2188 13.2891 19.1406C13.1276 19.0625 12.9583 18.9375 12.7812 18.7656L9.45312 15.6094C9.40104 15.5625 9.33594 15.5391 9.25781 15.5391H7.01562C6.48958 15.5391 6.08594 15.3958 5.80469 15.1094C5.52344 14.8229 5.38281 14.3958 5.38281 13.8281V10.9219C5.38281 10.3594 5.52344 9.9349 5.80469 9.64844C6.08594 9.35677 6.48958 9.21094 7.01562 9.21094H9.25781C9.33594 9.21094 9.40104 9.1875 9.45312 9.14062L12.7812 6.01562C12.9792 5.82292 13.151 5.6849 13.2969 5.60156C13.4427 5.51823 13.6068 5.47656 13.7891 5.47656C14.0547 5.47656 14.2708 5.56771 14.4375 5.75C14.6042 5.92708 14.6875 6.14323 14.6875 6.39844V18.3828C14.6875 18.6328 14.6042 18.8411 14.4375 19.0078C14.276 19.1745 14.0651 19.2578 13.8047 19.2578ZM17.4688 15.6875C17.3125 15.5781 17.224 15.4375 17.2031 15.2656C17.1823 15.0938 17.2318 14.9245 17.3516 14.7578C17.5755 14.4401 17.75 14.0755 17.875 13.6641C18 13.2474 18.0625 12.8125 18.0625 12.3594C18.0625 11.9062 18 11.4714 17.875 11.0547C17.7552 10.638 17.5807 10.2734 17.3516 9.96094C17.2266 9.79948 17.1745 9.63281 17.1953 9.46094C17.2214 9.28385 17.3125 9.14062 17.4688 9.03125C17.6042 8.9375 17.7526 8.90625 17.9141 8.9375C18.0755 8.96875 18.2083 9.0599 18.3125 9.21094C18.6146 9.60677 18.849 10.0807 19.0156 10.6328C19.1875 11.1849 19.2734 11.7604 19.2734 12.3594C19.2734 12.9583 19.1875 13.5339 19.0156 14.0859C18.849 14.638 18.6146 15.112 18.3125 15.5078C18.2083 15.6589 18.0755 15.75 17.9141 15.7812C17.7526 15.8073 17.6042 15.776 17.4688 15.6875Z" fill="#141414"/>
</svg>
