<svg width="24" height="24" viewBox="0 0 24 24" fill="none" xmlns="http://www.w3.org/2000/svg">
<path d="M7.44531 19.5547C6.6276 19.5547 6.01302 19.3516 5.60156 18.9453C5.19531 18.5443 4.99219 17.9427 4.99219 17.1406V7.59375C4.99219 6.78646 5.19531 6.18229 5.60156 5.78125C6.01302 5.375 6.6276 5.17188 7.44531 5.17188H16.9219C17.7396 5.17188 18.3516 5.375 18.7578 5.78125C19.1693 6.1875 19.375 6.79167 19.375 7.59375V17.1406C19.375 17.9427 19.1693 18.5443 18.7578 18.9453C18.3516 19.3516 17.7396 19.5547 16.9219 19.5547H7.44531ZM7.88281 14.5H15.7344C15.8698 14.5 15.9818 14.4531 16.0703 14.3594C16.1641 14.2656 16.2109 14.151 16.2109 14.0156C16.2109 13.8802 16.1641 13.7682 16.0703 13.6797C15.9818 13.5859 15.8698 13.5391 15.7344 13.5391H7.88281C7.74219 13.5391 7.625 13.5859 7.53125 13.6797C7.4375 13.7682 7.39062 13.8802 7.39062 14.0156C7.39062 14.151 7.4375 14.2656 7.53125 14.3594C7.625 14.4531 7.74219 14.5 7.88281 14.5ZM7.88281 17.1719H13.6719C13.8125 17.1719 13.9271 17.1276 14.0156 17.0391C14.1094 16.9453 14.1562 16.8307 14.1562 16.6953C14.1562 16.5599 14.1094 16.4453 14.0156 16.3516C13.9271 16.2578 13.8125 16.2109 13.6719 16.2109H7.88281C7.74219 16.2109 7.625 16.2578 7.53125 16.3516C7.4375 16.4453 7.39062 16.5599 7.39062 16.6953C7.39062 16.8307 7.4375 16.9453 7.53125 17.0391C7.625 17.1276 7.74219 17.1719 7.88281 17.1719ZM7.46875 8.10156V10.0703C7.46875 10.3151 7.53906 10.5104 7.67969 10.6562C7.82552 10.7969 8.02344 10.8672 8.27344 10.8672H10.2266C10.4766 10.8672 10.6719 10.7969 10.8125 10.6562C10.9583 10.5104 11.0312 10.3151 11.0312 10.0703V8.10156C11.0312 7.85677 10.9583 7.66406 10.8125 7.52344C10.6719 7.3776 10.4766 7.30469 10.2266 7.30469H8.27344C8.02344 7.30469 7.82552 7.3776 7.67969 7.52344C7.53906 7.66406 7.46875 7.85677 7.46875 8.10156Z" fill="#141414"/>
</svg>
