<svg width="24" height="24" viewBox="0 0 24 24" fill="none" xmlns="http://www.w3.org/2000/svg">
<path d="M7.44531 20.6016C6.6276 20.6016 6.01302 20.3984 5.60156 19.9922C5.19531 19.5911 4.99219 18.987 4.99219 18.1797V10.3828C4.99219 9.57552 5.19531 8.97135 5.60156 8.57031C6.01302 8.16406 6.6276 7.96094 7.44531 7.96094H9.79688V9.21875H7.46094C7.07031 9.21875 6.77083 9.32292 6.5625 9.53125C6.35417 9.73958 6.25 10.0469 6.25 10.4531V18.1094C6.25 18.5156 6.35417 18.8229 6.5625 19.0312C6.77083 19.2396 7.07031 19.3438 7.46094 19.3438H16.3828C16.7682 19.3438 17.0677 19.2396 17.2812 19.0312C17.4948 18.8229 17.6016 18.5156 17.6016 18.1094V10.4531C17.6016 10.0469 17.4948 9.73958 17.2812 9.53125C17.0677 9.32292 16.7682 9.21875 16.3828 9.21875H14.0547V7.96094H16.4062C17.224 7.96094 17.8359 8.16406 18.2422 8.57031C18.6536 8.97656 18.8594 9.58073 18.8594 10.3828V18.1797C18.8594 18.9818 18.6536 19.5859 18.2422 19.9922C17.8359 20.3984 17.224 20.6016 16.4062 20.6016H7.44531ZM11.9219 14.4844C11.7552 14.4844 11.6094 14.4245 11.4844 14.3047C11.3646 14.1849 11.3047 14.0417 11.3047 13.875V5.85156L11.3516 4.67969L10.8203 5.23438L9.64062 6.5C9.53125 6.625 9.38802 6.6875 9.21094 6.6875C9.04427 6.6875 8.90885 6.63542 8.80469 6.53125C8.70052 6.42708 8.64844 6.29427 8.64844 6.13281C8.64844 5.98698 8.70833 5.85156 8.82812 5.72656L11.4688 3.17969C11.5521 3.10156 11.6276 3.04688 11.6953 3.01562C11.7682 2.98438 11.8438 2.96875 11.9219 2.96875C12.0052 2.96875 12.0807 2.98438 12.1484 3.01562C12.2214 3.04688 12.2969 3.10156 12.375 3.17969L15.0156 5.72656C15.1406 5.85156 15.2031 5.98698 15.2031 6.13281C15.2031 6.29427 15.1484 6.42708 15.0391 6.53125C14.9297 6.63542 14.7943 6.6875 14.6328 6.6875C14.4609 6.6875 14.3203 6.625 14.2109 6.5L13.0234 5.23438L12.5 4.67969L12.5469 5.85156V13.875C12.5469 14.0417 12.4844 14.1849 12.3594 14.3047C12.2396 14.4245 12.0938 14.4844 11.9219 14.4844Z" fill="currentColor"/>
</svg>
