<svg width="24" height="24" viewBox="0 0 24 24" fill="none" xmlns="http://www.w3.org/2000/svg">
<path d="M7.44531 20.6016C6.6276 20.6016 6.01302 20.3984 5.60156 19.9922C5.19531 19.5911 4.99219 18.987 4.99219 18.1797V10.5391C4.99219 9.73177 5.19531 9.1276 5.60156 8.72656C6.01302 8.32031 6.6276 8.11719 7.44531 8.11719H11.1484V13.8984C11.1484 14.1068 11.224 14.2865 11.375 14.4375C11.5312 14.5833 11.7135 14.6562 11.9219 14.6562C12.1354 14.6562 12.3177 14.5833 12.4688 14.4375C12.625 14.2865 12.7031 14.1068 12.7031 13.8984V8.11719H16.4062C17.224 8.11719 17.8359 8.32031 18.2422 8.72656C18.6536 9.13281 18.8594 9.73698 18.8594 10.5391V18.1797C18.8594 18.9818 18.6536 19.5859 18.2422 19.9922C17.8359 20.3984 17.224 20.6016 16.4062 20.6016H7.44531ZM11.9219 8.73438C11.7552 8.73438 11.6094 8.67448 11.4844 8.55469C11.3646 8.4349 11.3047 8.29167 11.3047 8.125V5.85156L11.3516 4.67969L10.8203 5.23438L9.64062 6.5C9.53125 6.625 9.38802 6.6875 9.21094 6.6875C9.04427 6.6875 8.90885 6.63542 8.80469 6.53125C8.70052 6.42708 8.64844 6.29427 8.64844 6.13281C8.64844 5.98698 8.70833 5.85156 8.82812 5.72656L11.4688 3.17969C11.5521 3.10156 11.6276 3.04688 11.6953 3.01562C11.7682 2.98438 11.8438 2.96875 11.9219 2.96875C12.0052 2.96875 12.0807 2.98438 12.1484 3.01562C12.2214 3.04688 12.2969 3.10156 12.375 3.17969L15.0156 5.72656C15.1406 5.85156 15.2031 5.98698 15.2031 6.13281C15.2031 6.29427 15.1484 6.42708 15.0391 6.53125C14.9297 6.63542 14.7943 6.6875 14.6328 6.6875C14.4609 6.6875 14.3203 6.625 14.2109 6.5L13.0234 5.23438L12.5 4.67969L12.5469 5.85156V8.125C12.5469 8.29167 12.4844 8.4349 12.3594 8.55469C12.2396 8.67448 12.0938 8.73438 11.9219 8.73438Z" fill="#141414"/>
</svg>
