<svg width="24" height="24" viewBox="0 0 24 24" fill="none" xmlns="http://www.w3.org/2000/svg">
<path d="M7.25 19.5388C6.4375 19.5388 5.82552 19.3357 5.41406 18.9295C5.0026 18.5284 4.79688 17.9243 4.79688 17.117V8.11697C4.79688 7.30968 5.0026 6.70551 5.41406 6.30447C5.82552 5.89822 6.4375 5.6951 7.25 5.6951H16.1016L14.8438 6.95291H7.27344C6.88281 6.95291 6.58073 7.05708 6.36719 7.26541C6.15885 7.47374 6.05469 7.78103 6.05469 8.18728V17.0545C6.05469 17.4607 6.15885 17.768 6.36719 17.9763C6.58073 18.1795 6.88281 18.281 7.27344 18.281H16.4062C16.6771 18.281 16.9062 18.1795 17.0938 17.9763C17.2865 17.768 17.3828 17.4607 17.3828 17.0545V9.55447L18.6406 8.29666V17.117C18.6406 17.9243 18.4453 18.5284 18.0547 18.9295C17.6693 19.3357 17.125 19.5388 16.4219 19.5388H7.25ZM10.0938 14.4763C10.0208 14.5076 9.95312 14.492 9.89062 14.4295C9.83333 14.3618 9.82031 14.2941 9.85156 14.2263L10.5547 12.7576L17.8438 5.46854L18.9141 6.52322L11.6172 13.8123L10.0938 14.4763ZM19.4922 5.95291L18.4219 4.87479L18.9922 4.31229C19.1224 4.18729 19.2708 4.11958 19.4375 4.10916C19.6094 4.09874 19.7552 4.15343 19.875 4.27322L20.0547 4.46072C20.1901 4.59093 20.2552 4.74197 20.25 4.91385C20.25 5.08051 20.1849 5.23416 20.0547 5.37479L19.4922 5.95291Z" fill="#141414"/>
</svg>
