<svg width="24" height="24" viewBox="0 0 24 24" fill="none" xmlns="http://www.w3.org/2000/svg">
<path d="M6.92178 19.9531C6.76032 19.8333 6.66136 19.6719 6.6249 19.4688C6.59365 19.2656 6.62751 19.0234 6.72646 18.7422L8.35928 13.8828L4.1874 10.8828C3.94261 10.7109 3.77334 10.5339 3.67959 10.3516C3.58584 10.1693 3.57021 9.98177 3.63271 9.78906C3.69521 9.60156 3.81761 9.46094 3.9999 9.36719C4.18219 9.27344 4.42438 9.22917 4.72646 9.23438L9.84365 9.26562L11.3983 4.38281C11.4921 4.09635 11.6093 3.88021 11.7499 3.73438C11.8957 3.58854 12.0676 3.51562 12.2655 3.51562C12.4687 3.51562 12.6405 3.58854 12.7812 3.73438C12.927 3.88021 13.0468 4.09635 13.1405 4.38281L14.6952 9.26562L19.8124 9.23438C20.1145 9.22917 20.3567 9.27344 20.539 9.36719C20.7213 9.46094 20.8437 9.60156 20.9062 9.78906C20.9687 9.98177 20.953 10.1693 20.8593 10.3516C20.7655 10.5339 20.5963 10.7109 20.3515 10.8828L16.1796 13.8828L17.8124 18.7422C17.9114 19.0234 17.9426 19.2656 17.9062 19.4688C17.8749 19.6719 17.7785 19.8333 17.6171 19.9531C17.4556 20.0781 17.2733 20.1198 17.0702 20.0781C16.8671 20.0417 16.6457 19.9375 16.4062 19.7656L12.2655 16.7266L8.13271 19.7656C7.89313 19.9375 7.67178 20.0417 7.46865 20.0781C7.26553 20.1198 7.08324 20.0781 6.92178 19.9531ZM8.04678 18.4062C8.05719 18.4219 8.08063 18.4167 8.11709 18.3906L11.8749 15.5234C11.9999 15.4245 12.1301 15.375 12.2655 15.375C12.4062 15.375 12.539 15.4245 12.664 15.5234L16.4218 18.3906C16.4582 18.4167 16.4817 18.4219 16.4921 18.4062C16.4973 18.3958 16.4973 18.3724 16.4921 18.3359L14.9374 13.8672C14.9009 13.7682 14.8827 13.6745 14.8827 13.5859C14.8879 13.4974 14.914 13.4167 14.9608 13.3438C15.0077 13.2656 15.0754 13.1953 15.164 13.1328L19.0546 10.4453C19.091 10.4245 19.1041 10.4036 19.0937 10.3828C19.0884 10.3672 19.065 10.3594 19.0233 10.3594L14.2968 10.4453C14.1353 10.4505 14.0025 10.4193 13.8983 10.3516C13.7942 10.2786 13.7187 10.1615 13.6718 10L12.3124 5.47656C12.302 5.4349 12.2864 5.41406 12.2655 5.41406C12.2499 5.41406 12.2369 5.4349 12.2265 5.47656L10.8671 10C10.8202 10.1615 10.7447 10.2786 10.6405 10.3516C10.5364 10.4193 10.4035 10.4505 10.2421 10.4453L5.51553 10.3594C5.47386 10.3594 5.45042 10.3672 5.44521 10.3828C5.4348 10.4036 5.44782 10.4245 5.48428 10.4453L9.3749 13.1328C9.46344 13.1953 9.53115 13.2656 9.57803 13.3438C9.6249 13.4167 9.64834 13.4974 9.64834 13.5859C9.65355 13.6745 9.63792 13.7682 9.60146 13.8672L8.04678 18.3359C8.03636 18.3724 8.03636 18.3958 8.04678 18.4062Z" fill="currentColor"/>
</svg>
