<svg width="24" height="24" viewBox="0 0 24 24" fill="none" xmlns="http://www.w3.org/2000/svg">
    <path fill-rule="evenodd" clip-rule="evenodd"
          d="M6.97517 4.36856C5.645 4.65477 4.63205 5.68336 4.36328 7.02091C4.29889 7.34137 4.29244 7.91224 4.30515 12.1582C4.3184 16.5941 4.32521 16.9544 4.40015 17.2055C4.68685 18.1658 5.3492 18.9583 6.20777 19.3682C6.87661 19.6876 6.76544 19.6776 9.84396 19.6949C12.2417 19.7082 12.6643 19.7007 12.9262 19.64C13.5831 19.4876 13.5414 19.5236 16.5321 16.5328C19.5229 13.5421 19.4869 13.5838 19.6393 12.9269C19.7 12.665 19.7076 12.2424 19.6942 9.84465C19.6769 6.76391 19.6867 6.87184 19.3661 6.20976C18.9436 5.33736 18.1685 4.68856 17.2048 4.40083C16.9531 4.32566 16.6001 4.3194 12.1125 4.31038C7.96185 4.30205 7.24673 4.31011 6.97517 4.36856ZM7.20626 5.69647C7.11027 5.71901 6.89175 5.81103 6.72069 5.90093C6.20322 6.17285 5.81098 6.6878 5.68989 7.25426C5.6592 7.3977 5.64766 9.05746 5.65586 12.1391L5.6683 16.8067L5.85974 17.193C6.15549 17.7898 6.63881 18.1737 7.25903 18.3043C7.41585 18.3373 8.24639 18.3546 9.67853 18.3546H11.8592L11.8765 16.4957C11.8955 14.4422 11.8986 14.4166 12.2047 13.7757C12.5233 13.1084 13.1091 12.5232 13.7786 12.2036C14.4155 11.8995 14.4431 11.8962 16.495 11.8771L18.3539 11.8599L18.3534 9.64321C18.3528 7.2137 18.3507 7.19103 18.0815 6.68591C17.829 6.21219 17.3082 5.81797 16.7716 5.69427C16.5195 5.63613 7.4542 5.63825 7.20626 5.69647ZM14.7771 13.2673C14.246 13.392 13.6567 13.8689 13.4228 14.3632C13.2311 14.7684 13.2139 14.9542 13.2269 16.4733L13.2391 17.9043L15.5823 15.5608L17.9255 13.2173L16.4385 13.2218C15.6207 13.2243 14.873 13.2447 14.7771 13.2673Z"
          fill="currentColor"/>
</svg>
