<svg width="24" height="24" viewBox="0 0 24 24" fill="none" xmlns="http://www.w3.org/2000/svg">
<path d="M12.3672 20.3281C11.2786 20.3281 10.2526 20.1198 9.28906 19.7031C8.33073 19.2865 7.48438 18.7109 6.75 17.9766C6.01562 17.2422 5.4401 16.3958 5.02344 15.4375C4.60677 14.474 4.39844 13.4479 4.39844 12.3594C4.39844 11.2708 4.60677 10.2474 5.02344 9.28906C5.4401 8.32552 6.01302 7.47656 6.74219 6.74219C7.47656 6.00781 8.32292 5.43229 9.28125 5.01562C10.2448 4.59896 11.2708 4.39062 12.3594 4.39062C13.4479 4.39062 14.474 4.59896 15.4375 5.01562C16.401 5.43229 17.25 6.00781 17.9844 6.74219C18.7188 7.47656 19.2943 8.32552 19.7109 9.28906C20.1276 10.2474 20.3359 11.2708 20.3359 12.3594C20.3359 13.4479 20.1276 14.474 19.7109 15.4375C19.2943 16.3958 18.7188 17.2422 17.9844 17.9766C17.25 18.7109 16.401 19.2865 15.4375 19.7031C14.4792 20.1198 13.4557 20.3281 12.3672 20.3281ZM10.2422 15.2891H14.4922C14.7422 15.2891 14.9375 15.2188 15.0781 15.0781C15.224 14.9375 15.2969 14.7422 15.2969 14.4922V10.2109C15.2969 9.96615 15.224 9.77344 15.0781 9.63281C14.9375 9.49219 14.7422 9.42188 14.4922 9.42188H10.2422C9.99219 9.42188 9.79427 9.49219 9.64844 9.63281C9.50781 9.77344 9.4375 9.96615 9.4375 10.2109V14.4922C9.4375 14.7422 9.50781 14.9375 9.64844 15.0781C9.79427 15.2188 9.99219 15.2891 10.2422 15.2891Z" fill="currentColor"/>
</svg>
