<svg width="24" height="24" viewBox="0 0 24 24" fill="none" xmlns="http://www.w3.org/2000/svg">
<path d="M12.3672 20.3281C11.2786 20.3281 10.2526 20.1198 9.28906 19.7031C8.33073 19.2865 7.48438 18.7109 6.75 17.9766C6.01562 17.2422 5.4401 16.3958 5.02344 15.4375C4.60677 14.474 4.39844 13.4479 4.39844 12.3594C4.39844 11.2708 4.60677 10.2474 5.02344 9.28906C5.4401 8.32552 6.01302 7.47656 6.74219 6.74219C7.47656 6.00781 8.32292 5.43229 9.28125 5.01562C10.2448 4.59896 11.2708 4.39062 12.3594 4.39062C13.4479 4.39062 14.474 4.59896 15.4375 5.01562C16.401 5.43229 17.25 6.00781 17.9844 6.74219C18.7188 7.47656 19.2943 8.32552 19.7109 9.28906C20.1276 10.2474 20.3359 11.2708 20.3359 12.3594C20.3359 13.4479 20.1276 14.474 19.7109 15.4375C19.2943 16.3958 18.7188 17.2422 17.9844 17.9766C17.25 18.7109 16.401 19.2865 15.4375 19.7031C14.4792 20.1198 13.4557 20.3281 12.3672 20.3281ZM12.3672 19C13.2891 19 14.151 18.8281 14.9531 18.4844C15.7552 18.1406 16.4609 17.6667 17.0703 17.0625C17.6797 16.4531 18.1536 15.7474 18.4922 14.9453C18.8359 14.1432 19.0078 13.2812 19.0078 12.3594C19.0078 11.4375 18.8359 10.5755 18.4922 9.77344C18.1484 8.97135 17.6719 8.26562 17.0625 7.65625C16.4583 7.04688 15.7526 6.57292 14.9453 6.23438C14.1432 5.89062 13.2812 5.71875 12.3594 5.71875C11.4375 5.71875 10.5755 5.89062 9.77344 6.23438C8.97135 6.57292 8.26823 7.04688 7.66406 7.65625C7.0599 8.26562 6.58594 8.97135 6.24219 9.77344C5.90365 10.5755 5.73438 11.4375 5.73438 12.3594C5.73438 13.2812 5.90365 14.1432 6.24219 14.9453C6.58594 15.7474 7.0599 16.4531 7.66406 17.0625C8.27344 17.6667 8.97917 18.1406 9.78125 18.4844C10.5833 18.8281 11.4453 19 12.3672 19ZM10.2969 15.2031C10.0521 15.2031 9.85938 15.1354 9.71875 15C9.58333 14.8646 9.51562 14.6745 9.51562 14.4297V10.2734C9.51562 10.0339 9.58333 9.84635 9.71875 9.71094C9.85938 9.57552 10.0521 9.50781 10.2969 9.50781H14.4219C14.6667 9.50781 14.8568 9.57552 14.9922 9.71094C15.1328 9.84635 15.2031 10.0339 15.2031 10.2734V14.4297C15.2031 14.6745 15.1328 14.8646 14.9922 15C14.8568 15.1354 14.6667 15.2031 14.4219 15.2031H10.2969Z" fill="currentColor"/>
</svg>
