<svg width="24" height="24" viewBox="0 0 24 24" fill="none" xmlns="http://www.w3.org/2000/svg">
<path d="M5.99219 17V7.71875C5.99219 7.17188 6.14583 6.7474 6.45312 6.44531C6.76562 6.14323 7.19531 5.99219 7.74219 5.99219H16.9688C17.5208 5.99219 17.9505 6.14323 18.2578 6.44531C18.5651 6.7474 18.7188 7.17188 18.7188 7.71875V17C18.7188 17.5417 18.5651 17.9635 18.2578 18.2656C17.9505 18.5729 17.5208 18.7266 16.9688 18.7266H7.74219C7.19531 18.7266 6.76562 18.5729 6.45312 18.2656C6.14583 17.9635 5.99219 17.5417 5.99219 17ZM7.25 16.7031C7.25 16.9427 7.3151 17.1302 7.44531 17.2656C7.58073 17.401 7.76562 17.4688 8 17.4688H16.7109C16.9505 17.4688 17.1354 17.401 17.2656 17.2656C17.3958 17.1302 17.4609 16.9427 17.4609 16.7031V8.01562C17.4609 7.77604 17.3958 7.58854 17.2656 7.45312C17.1354 7.31771 16.9505 7.25 16.7109 7.25H8C7.76562 7.25 7.58073 7.31771 7.44531 7.45312C7.3151 7.58854 7.25 7.77604 7.25 8.01562V16.7031Z" fill="currentColor"/>
</svg>
