<svg width="24" height="24" viewBox="0 0 24 24" fill="none" xmlns="http://www.w3.org/2000/svg">
<path d="M11.8438 16.3438C11.3021 16.3438 10.7891 16.2396 10.3047 16.0312C9.82552 15.8229 9.40104 15.5365 9.03125 15.1719C8.66667 14.8021 8.38021 14.3776 8.17188 13.8984C7.96875 13.4193 7.86719 12.9062 7.86719 12.3594C7.86719 11.8125 7.96875 11.2995 8.17188 10.8203C8.38021 10.3359 8.66667 9.91146 9.03125 9.54688C9.40104 9.17708 9.82552 8.88802 10.3047 8.67969C10.7891 8.47135 11.3021 8.36719 11.8438 8.36719C12.3854 8.36719 12.8958 8.47135 13.375 8.67969C13.8594 8.88802 14.2839 9.17708 14.6484 9.54688C15.0182 9.91146 15.3047 10.3359 15.5078 10.8203C15.7161 11.2995 15.8203 11.8125 15.8203 12.3594C15.8203 12.9062 15.7161 13.4193 15.5078 13.8984C15.3047 14.3776 15.0182 14.8021 14.6484 15.1719C14.2839 15.5365 13.8594 15.8229 13.375 16.0312C12.8958 16.2396 12.3854 16.3438 11.8438 16.3438ZM11.8516 6.92188C11.6641 6.92188 11.5026 6.85677 11.3672 6.72656C11.237 6.59115 11.1719 6.42969 11.1719 6.24219V4.5625C11.1719 4.375 11.237 4.21615 11.3672 4.08594C11.5026 3.95052 11.6641 3.88281 11.8516 3.88281C12.0339 3.88281 12.1901 3.95052 12.3203 4.08594C12.4557 4.21615 12.5234 4.375 12.5234 4.5625V6.24219C12.5234 6.42969 12.4557 6.59115 12.3203 6.72656C12.1901 6.85677 12.0339 6.92188 11.8516 6.92188ZM15.6797 8.52344C15.5495 8.39323 15.4844 8.23438 15.4844 8.04688C15.4844 7.85938 15.5495 7.70052 15.6797 7.57031L16.8828 6.36719C17.013 6.23698 17.1719 6.17188 17.3594 6.17188C17.5469 6.17188 17.7057 6.23698 17.8359 6.36719C17.9661 6.4974 18.0312 6.65885 18.0312 6.85156C18.0312 7.03906 17.9661 7.19792 17.8359 7.32812L16.6406 8.52344C16.5052 8.65885 16.3438 8.72656 16.1562 8.72656C15.9688 8.72135 15.8099 8.65365 15.6797 8.52344ZM17.2656 12.3594C17.2656 12.1719 17.3307 12.013 17.4609 11.8828C17.5964 11.7474 17.7578 11.6797 17.9453 11.6797H19.625C19.8073 11.6797 19.9635 11.7474 20.0938 11.8828C20.2292 12.013 20.2969 12.1719 20.2969 12.3594C20.2969 12.5417 20.2292 12.7005 20.0938 12.8359C19.9635 12.9661 19.8073 13.0312 19.625 13.0312H17.9453C17.7578 13.0312 17.5964 12.9661 17.4609 12.8359C17.3307 12.7005 17.2656 12.5417 17.2656 12.3594ZM15.6797 16.1953C15.8099 16.0703 15.9688 16.0078 16.1562 16.0078C16.3438 16.0078 16.5026 16.0703 16.6328 16.1953L17.8359 17.3984C17.9661 17.5286 18.0312 17.6875 18.0312 17.875C18.0312 18.0573 17.9661 18.2161 17.8359 18.3516C17.7057 18.4766 17.5469 18.5391 17.3594 18.5391C17.1719 18.5443 17.013 18.4844 16.8828 18.3594L15.6797 17.1484C15.5495 17.0182 15.4844 16.862 15.4844 16.6797C15.4844 16.4922 15.5495 16.3307 15.6797 16.1953ZM11.8516 17.7969C12.0339 17.7969 12.1901 17.8646 12.3203 18C12.4557 18.1302 12.5234 18.2865 12.5234 18.4688V20.1562C12.5234 20.3385 12.4557 20.4948 12.3203 20.625C12.1901 20.7604 12.0339 20.8281 11.8516 20.8281C11.6641 20.8281 11.5026 20.7604 11.3672 20.625C11.237 20.4948 11.1719 20.3385 11.1719 20.1562V18.4688C11.1719 18.2865 11.237 18.1302 11.3672 18C11.5026 17.8646 11.6641 17.7969 11.8516 17.7969ZM8.01562 16.1953C8.14062 16.3307 8.20312 16.4922 8.20312 16.6797C8.20312 16.862 8.13802 17.0182 8.00781 17.1484L6.8125 18.3516C6.68229 18.4766 6.52083 18.5365 6.32812 18.5312C6.14062 18.5312 5.98177 18.4688 5.85156 18.3438C5.72656 18.2083 5.66406 18.0495 5.66406 17.8672C5.66406 17.6797 5.72917 17.5208 5.85938 17.3906L7.05469 16.1953C7.1849 16.0703 7.34375 16.0078 7.53125 16.0078C7.72396 16.0078 7.88542 16.0703 8.01562 16.1953ZM6.42969 12.3594C6.42969 12.5417 6.36198 12.7005 6.22656 12.8359C6.09635 12.9661 5.9375 13.0312 5.75 13.0312H4.07031C3.88802 13.0312 3.72917 12.9661 3.59375 12.8359C3.46354 12.7005 3.39844 12.5417 3.39844 12.3594C3.39844 12.1719 3.46354 12.013 3.59375 11.8828C3.72917 11.7474 3.88802 11.6797 4.07031 11.6797H5.75C5.9375 11.6797 6.09635 11.7474 6.22656 11.8828C6.36198 12.013 6.42969 12.1719 6.42969 12.3594ZM8.00781 8.52344C7.8776 8.65365 7.71875 8.71875 7.53125 8.71875C7.34375 8.71875 7.1849 8.65365 7.05469 8.52344L5.85938 7.32031C5.73438 7.19531 5.67188 7.03906 5.67188 6.85156C5.67188 6.65885 5.73698 6.4974 5.86719 6.36719C5.9974 6.23698 6.15625 6.17448 6.34375 6.17969C6.53125 6.17969 6.6901 6.24219 6.82031 6.36719L8.01562 7.57031C8.14062 7.70052 8.20312 7.86198 8.20312 8.05469C8.20312 8.24219 8.13802 8.39844 8.00781 8.52344Z" fill="currentColor"/>
</svg>
