<svg width="24" height="24" viewBox="0 0 24 24" fill="none" xmlns="http://www.w3.org/2000/svg">
<path d="M14.4375 13.4062C14.5729 13.4062 14.6849 13.4531 14.7734 13.5469C14.8672 13.6354 14.9141 13.7474 14.9141 13.8828C14.9141 14.0182 14.8672 14.1328 14.7734 14.2266C14.6849 14.3203 14.5729 14.3672 14.4375 14.3672H8.50781C8.36719 14.3672 8.25 14.3203 8.15625 14.2266C8.0625 14.1328 8.01562 14.0182 8.01562 13.8828C8.01562 13.7474 8.0625 13.6354 8.15625 13.5469C8.25 13.4531 8.36719 13.4062 8.50781 13.4062H14.4375ZM14.4375 16.1328C14.5729 16.1328 14.6849 16.1797 14.7734 16.2734C14.8672 16.3672 14.9141 16.4844 14.9141 16.625C14.9141 16.7552 14.8672 16.8672 14.7734 16.9609C14.6849 17.0495 14.5729 17.0938 14.4375 17.0938H8.50781C8.36719 17.0938 8.25 17.0495 8.15625 16.9609C8.0625 16.8672 8.01562 16.7552 8.01562 16.625C8.01562 16.4844 8.0625 16.3672 8.15625 16.2734C8.25 16.1797 8.36719 16.1328 8.50781 16.1328H14.4375ZM7.41406 20.7344C6.60677 20.7344 6 20.5312 5.59375 20.125C5.19271 19.7188 4.99219 19.1068 4.99219 18.2891V6.4375C4.99219 5.625 5.19271 5.01302 5.59375 4.60156C6 4.1901 6.60677 3.98438 7.41406 3.98438H11.125C11.4167 3.98438 11.6719 4.00521 11.8906 4.04688C12.1146 4.08333 12.3203 4.15625 12.5078 4.26562C12.6953 4.36979 12.888 4.52344 13.0859 4.72656L17.3906 9.10938C17.599 9.32292 17.7552 9.52604 17.8594 9.71875C17.9688 9.90625 18.0417 10.1146 18.0781 10.3438C18.1146 10.5729 18.1328 10.8568 18.1328 11.1953V18.2891C18.1328 19.1016 17.9297 19.7109 17.5234 20.1172C17.1224 20.5286 16.5182 20.7344 15.7109 20.7344H7.41406ZM7.46875 19.4766H15.6484C16.0547 19.4766 16.3594 19.3724 16.5625 19.1641C16.7708 18.9557 16.875 18.6562 16.875 18.2656V11.25H12.4219C11.9323 11.25 11.5651 11.1276 11.3203 10.8828C11.0755 10.638 10.9531 10.2708 10.9531 9.78125V5.24219H7.47656C7.07031 5.24219 6.76302 5.34896 6.55469 5.5625C6.35156 5.77604 6.25 6.07552 6.25 6.46094V18.2656C6.25 18.6562 6.35156 18.9557 6.55469 19.1641C6.76302 19.3724 7.06771 19.4766 7.46875 19.4766ZM12.5625 10.0703H16.6328L12.1328 5.48438V9.63281C12.1328 9.78906 12.1641 9.90104 12.2266 9.96875C12.2943 10.0365 12.4062 10.0703 12.5625 10.0703Z" fill="#141414"/>
</svg>
