<svg width="24" height="24" viewBox="0 0 24 24" fill="none" xmlns="http://www.w3.org/2000/svg">
<path d="M7.63281 20.9922C7.40885 20.9922 7.23698 20.9193 7.11719 20.7734C6.9974 20.6276 6.9375 20.4323 6.9375 20.1875V17.9141H6.57031C5.79427 17.9141 5.14062 17.776 4.60938 17.5C4.07812 17.224 3.67448 16.8203 3.39844 16.2891C3.1276 15.7578 2.99219 15.1094 2.99219 14.3438V8.35938C2.99219 7.59375 3.1276 6.94531 3.39844 6.41406C3.67448 5.88281 4.07812 5.47917 4.60938 5.20312C5.14062 4.92188 5.79427 4.78125 6.57031 4.78125H16.6328C17.4089 4.78125 18.0625 4.92188 18.5938 5.20312C19.125 5.47917 19.526 5.88281 19.7969 6.41406C20.0729 6.94531 20.2109 7.59375 20.2109 8.35938V14.3438C20.2109 15.1094 20.0729 15.7578 19.7969 16.2891C19.526 16.8203 19.125 17.224 18.5938 17.5C18.0625 17.776 17.4089 17.9141 16.6328 17.9141H11.3516L8.53125 20.4922C8.34375 20.6641 8.1849 20.7891 8.05469 20.8672C7.92969 20.9505 7.78906 20.9922 7.63281 20.9922ZM7.45312 9.125H15.6484C15.7786 9.125 15.888 9.08073 15.9766 8.99219C16.0703 8.89844 16.1172 8.78646 16.1172 8.65625C16.1172 8.52604 16.0703 8.41667 15.9766 8.32812C15.888 8.23958 15.7786 8.19531 15.6484 8.19531H7.45312C7.32292 8.19531 7.21094 8.23958 7.11719 8.32812C7.02865 8.41667 6.98438 8.52604 6.98438 8.65625C6.98438 8.78646 7.02865 8.89844 7.11719 8.99219C7.21094 9.08073 7.32292 9.125 7.45312 9.125ZM7.45312 11.7422H15.6484C15.7786 11.7422 15.888 11.6979 15.9766 11.6094C16.0703 11.5208 16.1172 11.4089 16.1172 11.2734C16.1172 11.1484 16.0703 11.0391 15.9766 10.9453C15.888 10.8516 15.7786 10.8047 15.6484 10.8047H7.45312C7.32292 10.8047 7.21094 10.8516 7.11719 10.9453C7.02865 11.0391 6.98438 11.1484 6.98438 11.2734C6.98438 11.4089 7.02865 11.5208 7.11719 11.6094C7.21094 11.6979 7.32292 11.7422 7.45312 11.7422ZM7.45312 14.3672H12.7812C12.9115 14.3672 13.0208 14.3229 13.1094 14.2344C13.2031 14.1458 13.25 14.0365 13.25 13.9062C13.25 13.7708 13.2031 13.6589 13.1094 13.5703C13.0208 13.4766 12.9115 13.4297 12.7812 13.4297H7.45312C7.32292 13.4297 7.21094 13.4766 7.11719 13.5703C7.02865 13.6589 6.98438 13.7708 6.98438 13.9062C6.98438 14.0365 7.02865 14.1458 7.11719 14.2344C7.21094 14.3229 7.32292 14.3672 7.45312 14.3672Z" fill="currentColor"/>
</svg>
