<svg width="24" height="24" viewBox="0 0 24 24" fill="none" xmlns="http://www.w3.org/2000/svg">
<path d="M7.79688 20.9453C7.52604 20.9453 7.3151 20.8542 7.16406 20.6719C7.01823 20.4948 6.94531 20.2552 6.94531 19.9531V17.9219H6.57031C5.79427 17.9219 5.14062 17.7839 4.60938 17.5078C4.07812 17.2266 3.67448 16.8203 3.39844 16.2891C3.1276 15.7578 2.99219 15.1094 2.99219 14.3438V8.35938C2.99219 7.59375 3.1276 6.94531 3.39844 6.41406C3.67448 5.88281 4.07812 5.47917 4.60938 5.20312C5.14062 4.92188 5.79427 4.78125 6.57031 4.78125H16.6328C17.4089 4.78125 18.0625 4.92188 18.5938 5.20312C19.125 5.47917 19.526 5.88281 19.7969 6.41406C20.0729 6.94531 20.2109 7.59375 20.2109 8.35938V14.3438C20.2109 15.1094 20.0729 15.7578 19.7969 16.2891C19.526 16.8203 19.125 17.2266 18.5938 17.5078C18.0625 17.7839 17.4089 17.9219 16.6328 17.9219H11.6172L8.92188 20.3203C8.6875 20.5286 8.48958 20.6849 8.32812 20.7891C8.16667 20.8932 7.98958 20.9453 7.79688 20.9453ZM8.11719 19.5156L10.6172 17.0312C10.763 16.8802 10.9036 16.7812 11.0391 16.7344C11.1745 16.6875 11.3516 16.6641 11.5703 16.6641H16.6328C17.4193 16.6641 18.0026 16.4688 18.3828 16.0781C18.763 15.6823 18.9531 15.1016 18.9531 14.3359V8.35938C18.9531 7.59896 18.763 7.02344 18.3828 6.63281C18.0026 6.23698 17.4193 6.03906 16.6328 6.03906H6.57031C5.77865 6.03906 5.19271 6.23698 4.8125 6.63281C4.4375 7.02344 4.25 7.59896 4.25 8.35938V14.3359C4.25 15.1016 4.4375 15.6823 4.8125 16.0781C5.19271 16.4688 5.77865 16.6641 6.57031 16.6641H7.53125C7.74479 16.6641 7.89583 16.7083 7.98438 16.7969C8.07292 16.8854 8.11719 17.0365 8.11719 17.25V19.5156ZM7.57812 9.19531C7.44792 9.19531 7.33854 9.15104 7.25 9.0625C7.16667 8.97396 7.125 8.86719 7.125 8.74219C7.125 8.61719 7.16667 8.51302 7.25 8.42969C7.33854 8.34115 7.44792 8.29688 7.57812 8.29688H15.5234C15.6536 8.29688 15.7604 8.34115 15.8438 8.42969C15.9323 8.51302 15.9766 8.61719 15.9766 8.74219C15.9766 8.86719 15.9323 8.97396 15.8438 9.0625C15.7604 9.15104 15.6536 9.19531 15.5234 9.19531H7.57812ZM7.57812 11.7344C7.44792 11.7344 7.33854 11.6927 7.25 11.6094C7.16667 11.5208 7.125 11.4115 7.125 11.2812C7.125 11.1615 7.16667 11.0573 7.25 10.9688C7.33854 10.875 7.44792 10.8281 7.57812 10.8281H15.5234C15.6536 10.8281 15.7604 10.875 15.8438 10.9688C15.9323 11.0573 15.9766 11.1615 15.9766 11.2812C15.9766 11.4115 15.9323 11.5208 15.8438 11.6094C15.7604 11.6927 15.6536 11.7344 15.5234 11.7344H7.57812ZM7.57812 14.2812C7.44792 14.2812 7.33854 14.2396 7.25 14.1562C7.16667 14.0677 7.125 13.9609 7.125 13.8359C7.125 13.7057 7.16667 13.5964 7.25 13.5078C7.33854 13.4193 7.44792 13.375 7.57812 13.375H12.7422C12.8672 13.375 12.974 13.4193 13.0625 13.5078C13.151 13.5964 13.1953 13.7057 13.1953 13.8359C13.1953 13.9609 13.151 14.0677 13.0625 14.1562C12.974 14.2396 12.8672 14.2812 12.7422 14.2812H7.57812Z" fill="currentColor"/>
</svg>
