<svg width="24" height="24" viewBox="0 0 24 24" fill="none" xmlns="http://www.w3.org/2000/svg">
<path d="M8.5 14.5938H14.6484C14.7943 14.5938 14.9167 14.5469 15.0156 14.4531C15.1198 14.3542 15.1719 14.2318 15.1719 14.0859C15.1719 13.9401 15.1198 13.8177 15.0156 13.7188C14.9167 13.6198 14.7943 13.5703 14.6484 13.5703H8.5C8.34896 13.5703 8.22135 13.6198 8.11719 13.7188C8.01823 13.8177 7.96875 13.9401 7.96875 14.0859C7.96875 14.2318 8.01823 14.3542 8.11719 14.4531C8.22135 14.5469 8.34896 14.5938 8.5 14.5938ZM8.5 17.5547H14.6484C14.7943 17.5547 14.9167 17.5052 15.0156 17.4062C15.1198 17.3073 15.1719 17.1875 15.1719 17.0469C15.1719 16.901 15.1198 16.7786 15.0156 16.6797C14.9167 16.5807 14.7943 16.5312 14.6484 16.5312H8.5C8.34896 16.5312 8.22135 16.5807 8.11719 16.6797C8.01823 16.7786 7.96875 16.901 7.96875 17.0469C7.96875 17.1875 8.01823 17.3073 8.11719 17.4062C8.22135 17.5052 8.34896 17.5547 8.5 17.5547ZM7.41406 20.7344C6.60677 20.7344 6 20.5312 5.59375 20.125C5.19271 19.7188 4.99219 19.1068 4.99219 18.2891V6.4375C4.99219 5.625 5.19271 5.01302 5.59375 4.60156C6 4.1901 6.60677 3.98438 7.41406 3.98438H11V9.71875C11 10.7031 11.4922 11.1953 12.4766 11.1953H18.1328V18.2891C18.1328 19.1016 17.9297 19.7109 17.5234 20.1172C17.1224 20.5286 16.5182 20.7344 15.7109 20.7344H7.41406ZM12.5 10.125C12.2135 10.125 12.0703 9.98438 12.0703 9.70312V4.07031C12.2318 4.09635 12.3958 4.16667 12.5625 4.28125C12.7292 4.39062 12.9036 4.53906 13.0859 4.72656L17.3906 9.10938C17.5781 9.30208 17.7266 9.47917 17.8359 9.64062C17.9453 9.80208 18.013 9.96354 18.0391 10.125H12.5Z" fill="currentColor"/>
</svg>
