<svg width="24" height="24" viewBox="0 0 24 24" fill="none" xmlns="http://www.w3.org/2000/svg">
<path d="M14.6222 18.45L13.6664 21.0288C13.6126 21.1673 13.5232 21.2804 13.3982 21.3683C13.2732 21.4561 13.1331 21.5 12.9779 21.5C12.7216 21.5 12.5165 21.3945 12.3627 21.1835C12.2088 20.9727 12.1825 20.7423 12.2837 20.4923L16.1704 10.4615C16.2344 10.323 16.3273 10.2115 16.4492 10.127C16.571 10.0423 16.7062 10 16.8549 10H17.4127C17.5613 10 17.6966 10.0423 17.8184 10.127C17.9401 10.2115 18.033 10.323 18.0972 10.4615L21.9837 20.5078C22.085 20.7474 22.0613 20.9727 21.9127 21.1835C21.7638 21.3945 21.5612 21.5 21.3049 21.5C21.1396 21.5 20.9969 21.4561 20.8769 21.3683C20.7571 21.2804 20.6652 21.1622 20.6012 21.0135L19.6454 18.45H14.6222ZM8.98191 13.5903L4.53566 18.0308C4.39716 18.1756 4.22566 18.2506 4.02116 18.2558C3.81682 18.2609 3.63707 18.1859 3.48191 18.0308C3.33707 17.8859 3.26466 17.7103 3.26466 17.5038C3.26466 17.2974 3.33707 17.1218 3.48191 16.977L7.92791 12.5213C7.35107 11.9379 6.80274 11.2456 6.28291 10.4443C5.76291 9.64293 5.33499 8.82818 4.99916 8.00002H6.58941C6.87791 8.60518 7.22891 9.21035 7.64241 9.81552C8.05591 10.4205 8.50241 10.9711 8.98191 11.4673C9.69207 10.7506 10.3638 9.88043 10.9972 8.85677C11.6305 7.8331 12.078 6.88085 12.3397 6.00002H2.44141C2.22857 6.00002 2.05041 5.92818 1.90691 5.78452C1.76324 5.64102 1.69141 5.46285 1.69141 5.25002C1.69141 5.03718 1.76324 4.85902 1.90691 4.71552C2.05041 4.57185 2.22857 4.50002 2.44141 4.50002H8.24916V3.63477C8.24916 3.42193 8.32099 3.24368 8.46466 3.10002C8.60816 2.95652 8.78632 2.88477 8.99916 2.88477C9.21199 2.88477 9.39016 2.95652 9.53366 3.10002C9.67732 3.24368 9.74916 3.42193 9.74916 3.63477V4.50002H15.5569C15.7697 4.50002 15.9479 4.57185 16.0914 4.71552C16.2351 4.85902 16.3069 5.03718 16.3069 5.25002C16.3069 5.46285 16.2351 5.64102 16.0914 5.78452C15.9479 5.92818 15.7697 6.00002 15.5569 6.00002H13.8587C13.5343 7.12302 13.0174 8.29702 12.3079 9.52202C11.5982 10.747 10.8408 11.757 10.0357 12.552L12.5029 15.0788L11.9357 16.6193L8.98191 13.5903ZM15.1029 17.123H19.1644L17.1337 11.6673L15.1029 17.123Z" fill="currentColor"/>
</svg>
