<svg width="24" height="24" viewBox="0 0 24 24" fill="none" xmlns="http://www.w3.org/2000/svg">
<path d="M4.95312 18.7031C4.16667 18.7031 3.55208 18.487 3.10938 18.0547C2.66667 17.6224 2.44531 17.013 2.44531 16.2266V8.48438C2.44531 7.70312 2.67448 7.09635 3.13281 6.66406C3.59635 6.23177 4.20312 6.01562 4.95312 6.01562H13.4219C14.2083 6.01562 14.8099 6.23177 15.2266 6.66406C15.6432 7.09635 15.8516 7.70312 15.8516 8.48438V16.2266C15.8516 17.013 15.6302 17.6224 15.1875 18.0547C14.7448 18.487 14.1302 18.7031 13.3438 18.7031H4.95312ZM16.9141 14.6641V10.0469L19.7578 7.59375C19.8932 7.47396 20.0339 7.38021 20.1797 7.3125C20.3307 7.24479 20.4766 7.21094 20.6172 7.21094C20.9193 7.21094 21.1615 7.3125 21.3438 7.51562C21.5312 7.71354 21.625 7.97396 21.625 8.29688V16.4219C21.625 16.7448 21.5312 17.0078 21.3438 17.2109C21.1615 17.4089 20.9193 17.5078 20.6172 17.5078C20.4766 17.5078 20.3307 17.474 20.1797 17.4062C20.0339 17.3333 19.8932 17.2396 19.7578 17.125L16.9141 14.6641Z" fill="currentColor"/>
</svg>
