<svg width="24" height="24" viewBox="0 0 24 24" fill="none" xmlns="http://www.w3.org/2000/svg">
<path d="M5.60938 14.1797C5.4375 14.1797 5.29167 14.1172 5.17188 13.9922C5.05208 13.8672 4.99219 13.7188 4.99219 13.5469V11.1797C4.99219 11.0078 5.05208 10.8594 5.17188 10.7344C5.29167 10.6042 5.4375 10.5391 5.60938 10.5391C5.79167 10.5391 5.94271 10.6042 6.0625 10.7344C6.1875 10.8594 6.25 11.0078 6.25 11.1797V13.5469C6.25 13.7188 6.1875 13.8672 6.0625 13.9922C5.94271 14.1172 5.79167 14.1797 5.60938 14.1797ZM8.24219 17.375C8.0651 17.375 7.91667 17.3151 7.79688 17.1953C7.67708 17.0703 7.61719 16.9193 7.61719 16.7422V7.98438C7.61719 7.80729 7.67708 7.65625 7.79688 7.53125C7.91667 7.40625 8.0651 7.34375 8.24219 7.34375C8.42448 7.34375 8.57552 7.40625 8.69531 7.53125C8.8151 7.65625 8.875 7.80729 8.875 7.98438V16.7422C8.875 16.9193 8.8151 17.0703 8.69531 17.1953C8.57552 17.3151 8.42448 17.375 8.24219 17.375ZM10.8672 20.5234C10.6901 20.5234 10.5417 20.4609 10.4219 20.3359C10.3073 20.2161 10.25 20.0677 10.25 19.8906V4.83594C10.25 4.65885 10.3073 4.51042 10.4219 4.39062C10.5417 4.26562 10.6901 4.20312 10.8672 4.20312C11.0495 4.20312 11.2005 4.26562 11.3203 4.39062C11.4453 4.51042 11.5078 4.65885 11.5078 4.83594V19.8906C11.5078 20.0677 11.4453 20.2161 11.3203 20.3359C11.2005 20.4609 11.0495 20.5234 10.8672 20.5234ZM13.5 16.4219C13.3229 16.4219 13.1745 16.362 13.0547 16.2422C12.9349 16.1224 12.875 15.974 12.875 15.7969V8.92969C12.875 8.7526 12.9349 8.60417 13.0547 8.48438C13.1745 8.35938 13.3229 8.29688 13.5 8.29688C13.6771 8.29688 13.8255 8.35938 13.9453 8.48438C14.0703 8.60417 14.1328 8.7526 14.1328 8.92969V15.7969C14.1328 15.974 14.0703 16.1224 13.9453 16.2422C13.8255 16.362 13.6771 16.4219 13.5 16.4219ZM16.1328 18.7891C15.9505 18.7891 15.7995 18.7266 15.6797 18.6016C15.5599 18.4818 15.5 18.3359 15.5 18.1641V6.5625C15.5 6.39062 15.5599 6.24219 15.6797 6.11719C15.7995 5.99219 15.9505 5.92969 16.1328 5.92969C16.3099 5.92969 16.4583 5.99219 16.5781 6.11719C16.6979 6.24219 16.7578 6.39062 16.7578 6.5625V18.1641C16.7578 18.3359 16.6979 18.4818 16.5781 18.6016C16.4583 18.7266 16.3099 18.7891 16.1328 18.7891ZM18.7578 14.8516C18.5755 14.8516 18.4245 14.7917 18.3047 14.6719C18.1901 14.5469 18.1328 14.3984 18.1328 14.2266V10.5C18.1328 10.3281 18.1901 10.1797 18.3047 10.0547C18.4245 9.92969 18.5755 9.86719 18.7578 9.86719C18.9349 9.86719 19.0833 9.92969 19.2031 10.0547C19.3281 10.1797 19.3906 10.3281 19.3906 10.5V14.2266C19.3906 14.3984 19.3281 14.5469 19.2031 14.6719C19.0833 14.7917 18.9349 14.8516 18.7578 14.8516Z" fill="currentColor"/>
</svg>
