<svg width="24" height="24" viewBox="0 0 24 24" fill="none" xmlns="http://www.w3.org/2000/svg">
<path d="M11.5156 18.8594C11.4271 18.8594 11.3385 18.8333 11.25 18.7812C11.1615 18.7292 11.0417 18.6302 10.8906 18.4844L8.99219 16.6562C8.92969 16.599 8.89062 16.5365 8.875 16.4688C8.86458 16.401 8.8776 16.3359 8.91406 16.2734C9.16927 15.9349 9.52604 15.638 9.98438 15.3828C10.4427 15.1276 10.9531 15 11.5156 15C12.0625 15 12.5625 15.1224 13.0156 15.3672C13.474 15.612 13.8307 15.8984 14.0859 16.2266C14.1432 16.2943 14.1641 16.3698 14.1484 16.4531C14.138 16.5312 14.1042 16.599 14.0469 16.6562L12.1406 18.4844C11.9896 18.6354 11.8698 18.7344 11.7812 18.7812C11.6927 18.8333 11.6042 18.8594 11.5156 18.8594ZM6.94531 14.6094L5.73438 13.3984C5.66667 13.3307 5.63021 13.2578 5.625 13.1797C5.625 13.1016 5.65365 13.0286 5.71094 12.9609C6.10677 12.4766 6.60156 12.0443 7.19531 11.6641C7.78906 11.2839 8.45312 10.9844 9.1875 10.7656C9.92708 10.5417 10.7031 10.4297 11.5156 10.4297C12.3281 10.4297 13.1016 10.5417 13.8359 10.7656C14.5755 10.9844 15.2422 11.2839 15.8359 11.6641C16.4349 12.0443 16.9297 12.4766 17.3203 12.9609C17.3776 13.0286 17.4036 13.1042 17.3984 13.1875C17.3932 13.2656 17.3594 13.3359 17.2969 13.3984L16.0859 14.6016C16.0026 14.6797 15.9141 14.7188 15.8203 14.7188C15.7318 14.7188 15.651 14.6797 15.5781 14.6016C15.099 14.0807 14.5 13.6484 13.7812 13.3047C13.0625 12.9557 12.3073 12.7839 11.5156 12.7891C10.7344 12.7839 9.98438 12.9505 9.26562 13.2891C8.54688 13.6276 7.95312 14.0573 7.48438 14.5781C7.40625 14.6615 7.31771 14.7083 7.21875 14.7188C7.11979 14.724 7.02865 14.6875 6.94531 14.6094ZM3.70312 11.3438L2.625 10.25C2.5625 10.1771 2.52865 10.1016 2.52344 10.0234C2.52344 9.94531 2.54948 9.8724 2.60156 9.80469C3.21094 9.04948 3.98177 8.375 4.91406 7.78125C5.84635 7.1875 6.8776 6.72135 8.00781 6.38281C9.13802 6.04427 10.3073 5.875 11.5156 5.875C12.724 5.875 13.8932 6.04688 15.0234 6.39062C16.1536 6.72917 17.1849 7.19531 18.1172 7.78906C19.0495 8.3776 19.8203 9.04948 20.4297 9.80469C20.487 9.8724 20.513 9.94531 20.5078 10.0234C20.5078 10.1016 20.474 10.1771 20.4062 10.25L19.3281 11.3281C19.25 11.4062 19.1641 11.4479 19.0703 11.4531C18.9766 11.4531 18.8932 11.4167 18.8203 11.3438C17.8672 10.3229 16.7682 9.54688 15.5234 9.01562C14.2786 8.48438 12.9427 8.21875 11.5156 8.21875C10.099 8.21875 8.76823 8.48438 7.52344 9.01562C6.28385 9.54167 5.1849 10.3151 4.22656 11.3359C4.15365 11.4141 4.06771 11.4557 3.96875 11.4609C3.86979 11.4609 3.78125 11.4219 3.70312 11.3438Z" fill="currentColor"/>
</svg>
