<svg width="24" height="24" viewBox="0 0 24 24" fill="none" xmlns="http://www.w3.org/2000/svg">
<path d="M12.3672 20.3281C11.2786 20.3281 10.2526 20.1198 9.28906 19.7031C8.33073 19.2865 7.48438 18.7109 6.75 17.9766C6.01562 17.2422 5.4401 16.3958 5.02344 15.4375C4.60677 14.474 4.39844 13.4479 4.39844 12.3594C4.39844 11.2708 4.60677 10.2474 5.02344 9.28906C5.4401 8.32552 6.01302 7.47656 6.74219 6.74219C7.47656 6.00781 8.32292 5.43229 9.28125 5.01562C10.2448 4.59896 11.2708 4.39062 12.3594 4.39062C13.4479 4.39062 14.474 4.59896 15.4375 5.01562C16.401 5.43229 17.25 6.00781 17.9844 6.74219C18.7188 7.47656 19.2943 8.32552 19.7109 9.28906C20.1276 10.2474 20.3359 11.2708 20.3359 12.3594C20.3359 13.4479 20.1276 14.474 19.7109 15.4375C19.2943 16.3958 18.7188 17.2422 17.9844 17.9766C17.25 18.7109 16.401 19.2865 15.4375 19.7031C14.4792 20.1198 13.4557 20.3281 12.3672 20.3281ZM9.74219 15.6406C9.92969 15.6406 10.0885 15.5781 10.2188 15.4531L12.375 13.2812L14.5391 15.4531C14.6589 15.5781 14.8125 15.6406 15 15.6406C15.1823 15.6406 15.3359 15.5781 15.4609 15.4531C15.5859 15.3229 15.6484 15.1693 15.6484 14.9922C15.6484 14.7995 15.5859 14.6458 15.4609 14.5312L13.2891 12.3672L15.4688 10.1953C15.5938 10.0651 15.6562 9.91146 15.6562 9.73438C15.6562 9.55729 15.5938 9.40625 15.4688 9.28125C15.3438 9.15625 15.1927 9.09375 15.0156 9.09375C14.8438 9.09375 14.6953 9.15625 14.5703 9.28125L12.375 11.4609L10.1953 9.28906C10.0651 9.16927 9.91406 9.10938 9.74219 9.10938C9.5651 9.10938 9.41406 9.17188 9.28906 9.29688C9.16406 9.41667 9.10156 9.56771 9.10156 9.75C9.10156 9.92188 9.16406 10.0729 9.28906 10.2031L11.4609 12.3672L9.28906 14.5391C9.16406 14.6641 9.10156 14.8151 9.10156 14.9922C9.10156 15.1693 9.16406 15.3229 9.28906 15.4531C9.41406 15.5781 9.5651 15.6406 9.74219 15.6406Z" fill="currentColor"/>
</svg>
