<svg width="24" height="24" viewBox="0 0 24 24" fill="none" xmlns="http://www.w3.org/2000/svg">
<path d="M12.3672 20.3281C11.2786 20.3281 10.2526 20.1198 9.28906 19.7031C8.33073 19.2865 7.48438 18.7109 6.75 17.9766C6.01562 17.2422 5.4401 16.3958 5.02344 15.4375C4.60677 14.474 4.39844 13.4479 4.39844 12.3594C4.39844 11.2708 4.60677 10.2474 5.02344 9.28906C5.4401 8.32552 6.01302 7.47656 6.74219 6.74219C7.47656 6.00781 8.32292 5.43229 9.28125 5.01562C10.2448 4.59896 11.2708 4.39062 12.3594 4.39062C13.4479 4.39062 14.474 4.59896 15.4375 5.01562C16.401 5.43229 17.25 6.00781 17.9844 6.74219C18.7188 7.47656 19.2943 8.32552 19.7109 9.28906C20.1276 10.2474 20.3359 11.2708 20.3359 12.3594C20.3359 13.4479 20.1276 14.474 19.7109 15.4375C19.2943 16.3958 18.7188 17.2422 17.9844 17.9766C17.25 18.7109 16.401 19.2865 15.4375 19.7031C14.4792 20.1198 13.4557 20.3281 12.3672 20.3281ZM12.3672 19C13.2891 19 14.151 18.8281 14.9531 18.4844C15.7552 18.1406 16.4609 17.6667 17.0703 17.0625C17.6797 16.4531 18.1536 15.7474 18.4922 14.9453C18.8359 14.1432 19.0078 13.2812 19.0078 12.3594C19.0078 11.4375 18.8359 10.5755 18.4922 9.77344C18.1484 8.97135 17.6719 8.26562 17.0625 7.65625C16.4583 7.04688 15.7526 6.57292 14.9453 6.23438C14.1432 5.89062 13.2812 5.71875 12.3594 5.71875C11.4375 5.71875 10.5755 5.89062 9.77344 6.23438C8.97135 6.57292 8.26823 7.04688 7.66406 7.65625C7.0599 8.26562 6.58594 8.97135 6.24219 9.77344C5.90365 10.5755 5.73438 11.4375 5.73438 12.3594C5.73438 13.2812 5.90365 14.1432 6.24219 14.9453C6.58594 15.7474 7.0599 16.4531 7.66406 17.0625C8.27344 17.6667 8.97917 18.1406 9.78125 18.4844C10.5833 18.8281 11.4453 19 12.3672 19ZM9.69531 15.6641C9.52344 15.6641 9.375 15.6016 9.25 15.4766C9.13021 15.3516 9.07031 15.2031 9.07031 15.0312C9.07031 14.8594 9.13281 14.7135 9.25781 14.5938L11.4766 12.3672L9.25781 10.1406C9.13281 10.0208 9.07031 9.875 9.07031 9.70312C9.07031 9.53125 9.13021 9.38542 9.25 9.26562C9.375 9.14583 9.52344 9.08594 9.69531 9.08594C9.8724 9.08594 10.0182 9.14844 10.1328 9.27344L12.3594 11.4922L14.6094 9.26562C14.7344 9.13542 14.8776 9.07031 15.0391 9.07031C15.2109 9.07031 15.3568 9.13281 15.4766 9.25781C15.6016 9.3776 15.6641 9.52344 15.6641 9.69531C15.6641 9.86198 15.6016 10.0078 15.4766 10.1328L13.25 12.3672L15.4688 14.5859C15.5938 14.7109 15.6562 14.8594 15.6562 15.0312C15.6562 15.2031 15.5938 15.3516 15.4688 15.4766C15.349 15.6016 15.2031 15.6641 15.0312 15.6641C14.8594 15.6641 14.7109 15.599 14.5859 15.4688L12.3594 13.25L10.1484 15.4688C10.0286 15.599 9.8776 15.6641 9.69531 15.6641Z" fill="#141414"/>
</svg>
