<svg width="24" height="24" viewBox="0 0 24 24" fill="none" xmlns="http://www.w3.org/2000/svg">
<path d="M6.19525 18.3594C6.1015 18.2708 6.039 18.1667 6.00775 18.0469C5.9817 17.9271 5.98431 17.8073 6.01556 17.6875C6.04681 17.5677 6.1067 17.4635 6.19525 17.375L11.1952 12.3672L6.19525 7.36719C6.1067 7.27865 6.04681 7.17448 6.01556 7.05469C5.98952 6.9349 5.98952 6.8151 6.01556 6.69531C6.04681 6.57552 6.1067 6.47135 6.19525 6.38281C6.28379 6.28906 6.38795 6.22917 6.50775 6.20312C6.62754 6.17188 6.74733 6.17188 6.86712 6.20312C6.99212 6.22917 7.09889 6.28906 7.18743 6.38281L12.1874 11.3828L17.1874 6.38281C17.276 6.28906 17.3801 6.22917 17.4999 6.20312C17.6197 6.17188 17.7395 6.17188 17.8593 6.20312C17.9791 6.22917 18.0859 6.28906 18.1796 6.38281C18.2682 6.47135 18.3281 6.57552 18.3593 6.69531C18.3906 6.8151 18.3906 6.9349 18.3593 7.05469C18.3281 7.17448 18.2682 7.27865 18.1796 7.36719L13.1796 12.3672L18.1796 17.375C18.2682 17.4635 18.3255 17.5677 18.3515 17.6875C18.3827 17.8073 18.3827 17.9271 18.3515 18.0469C18.3255 18.1667 18.2682 18.2708 18.1796 18.3594C18.0911 18.4531 17.9843 18.513 17.8593 18.5391C17.7395 18.5703 17.6197 18.5703 17.4999 18.5391C17.3801 18.5078 17.276 18.4479 17.1874 18.3594L12.1874 13.3594L7.18743 18.3594C7.09889 18.4479 6.99473 18.5078 6.87493 18.5391C6.75514 18.5703 6.63535 18.5703 6.51556 18.5391C6.39577 18.5078 6.289 18.4479 6.19525 18.3594Z" fill="currentColor"/>
</svg>
