<svg width="24" height="24" viewBox="0 0 24 24" fill="none" xmlns="http://www.w3.org/2000/svg">
<path d="M7.44531 19.5625C6.6276 19.5625 6.01302 19.3594 5.60156 18.9531C5.19531 18.5521 4.99219 17.9479 4.99219 17.1406V7.60156C4.99219 6.79427 5.19531 6.1901 5.60156 5.78906C6.01302 5.38281 6.6276 5.17969 7.44531 5.17969H16.9219C17.7396 5.17969 18.3516 5.38281 18.7578 5.78906C19.1693 6.1901 19.375 6.79427 19.375 7.60156V17.1406C19.375 17.9479 19.1693 18.5521 18.7578 18.9531C18.3516 19.3594 17.7396 19.5625 16.9219 19.5625H7.44531ZM8.63281 12.25H11.4297C11.638 12.25 11.7995 12.2005 11.9141 12.1016C12.0339 11.9974 12.0938 11.8255 12.0938 11.5859V8.78125C12.0938 8.61979 12.0365 8.48438 11.9219 8.375C11.8125 8.26042 11.6797 8.20312 11.5234 8.20312C11.3672 8.20312 11.2318 8.26042 11.1172 8.375C11.0078 8.48438 10.9531 8.61979 10.9531 8.78125V9.16406L11.0312 10.4453L8.9375 8.25781C8.81771 8.13802 8.67448 8.07812 8.50781 8.07812C8.34115 8.07292 8.20052 8.13021 8.08594 8.25C7.96094 8.36979 7.90104 8.51562 7.90625 8.6875C7.91146 8.85417 7.97396 8.99479 8.09375 9.10938L10.2578 11.1953L9.02344 11.1172L8.63281 11.1094C8.47135 11.1094 8.33594 11.1667 8.22656 11.2812C8.11719 11.3906 8.0625 11.5234 8.0625 11.6797C8.0625 11.8411 8.11719 11.9766 8.22656 12.0859C8.33594 12.1953 8.47135 12.25 8.63281 12.25ZM12.8594 16.5C13.0156 16.5 13.1484 16.4453 13.2578 16.3359C13.3724 16.2214 13.4297 16.0833 13.4297 15.9219V15.5391L13.3516 14.2578L15.4453 16.4453C15.5651 16.5651 15.7083 16.6276 15.875 16.6328C16.0417 16.6328 16.1823 16.5729 16.2969 16.4531C16.4219 16.3333 16.4818 16.1901 16.4766 16.0234C16.4714 15.8516 16.4089 15.7083 16.2891 15.5938L14.125 13.5078L15.3594 13.5859L15.75 13.5938C15.9115 13.5938 16.0469 13.5391 16.1562 13.4297C16.2656 13.3151 16.3203 13.1797 16.3203 13.0234C16.3203 12.862 16.2656 12.7266 16.1562 12.6172C16.0469 12.5078 15.9115 12.4531 15.75 12.4531H12.9531C12.7448 12.4531 12.5807 12.5052 12.4609 12.6094C12.3464 12.7083 12.2891 12.8776 12.2891 13.1172V15.9219C12.2891 16.0833 12.3438 16.2214 12.4531 16.3359C12.5677 16.4453 12.7031 16.5 12.8594 16.5Z" fill="currentColor"/>
</svg>
