<svg width="24" height="24" viewBox="0 0 24 24" fill="none" xmlns="http://www.w3.org/2000/svg">
<path d="M7.44531 19.5625C6.6276 19.5625 6.01302 19.3594 5.60156 18.9531C5.19531 18.5521 4.99219 17.9479 4.99219 17.1406V7.60156C4.99219 6.79427 5.19531 6.1901 5.60156 5.78906C6.01302 5.38281 6.6276 5.17969 7.44531 5.17969H16.9219C17.7396 5.17969 18.3516 5.38281 18.7578 5.78906C19.1693 6.1901 19.375 6.79427 19.375 7.60156V17.1406C19.375 17.9479 19.1693 18.5521 18.7578 18.9531C18.3516 19.3594 17.7396 19.5625 16.9219 19.5625H7.44531ZM8.59375 12.3594C8.76042 12.3594 8.90104 12.3021 9.01562 12.1875C9.13021 12.0729 9.1875 11.9323 9.1875 11.7656V11.3672L9.10938 10.0547L10.8906 11.9375C11.0156 12.0677 11.1641 12.1328 11.3359 12.1328C11.513 12.1276 11.6615 12.0651 11.7812 11.9453C11.9062 11.8203 11.9661 11.6693 11.9609 11.4922C11.9609 11.3151 11.8984 11.1693 11.7734 11.0547L9.91406 9.27344L11.1797 9.35156L11.5859 9.35938C11.7474 9.35938 11.8854 9.30208 12 9.1875C12.1146 9.07292 12.1719 8.93229 12.1719 8.76562C12.1719 8.60417 12.1146 8.46615 12 8.35156C11.8854 8.23698 11.7474 8.17969 11.5859 8.17969H8.69531C8.47656 8.17969 8.30729 8.23438 8.1875 8.34375C8.06771 8.44792 8.00781 8.6224 8.00781 8.86719V11.7656C8.00781 11.9323 8.0651 12.0729 8.17969 12.1875C8.29427 12.3021 8.43229 12.3594 8.59375 12.3594ZM12.7969 16.5469H15.6797C15.8984 16.5469 16.0677 16.4948 16.1875 16.3906C16.3125 16.2812 16.375 16.1042 16.375 15.8594V12.9609C16.375 12.7943 16.3177 12.6536 16.2031 12.5391C16.0885 12.4245 15.9479 12.3672 15.7812 12.3672C15.6198 12.3672 15.4818 12.4245 15.3672 12.5391C15.2526 12.6536 15.1953 12.7943 15.1953 12.9609V13.3594L15.2734 14.6719L13.4922 12.7891C13.3672 12.6589 13.2161 12.5964 13.0391 12.6016C12.8672 12.6016 12.7214 12.6615 12.6016 12.7812C12.4766 12.9062 12.4141 13.0573 12.4141 13.2344C12.4193 13.4115 12.4844 13.5573 12.6094 13.6719L14.4688 15.4531L13.2031 15.375L12.7969 15.3672C12.6302 15.3672 12.4896 15.4245 12.375 15.5391C12.2604 15.6536 12.2031 15.7943 12.2031 15.9609C12.2031 16.1224 12.2604 16.2604 12.375 16.375C12.4896 16.4896 12.6302 16.5469 12.7969 16.5469Z" fill="currentColor"/>
</svg>
