<svg width="24" height="24" viewBox="0 0 24 24" fill="none" xmlns="http://www.w3.org/2000/svg">
<path d="M12.3672 20.3281C11.2786 20.3281 10.2526 20.1198 9.28906 19.7031C8.33073 19.2865 7.48438 18.7109 6.75 17.9766C6.01562 17.2422 5.4401 16.3958 5.02344 15.4375C4.60677 14.474 4.39844 13.4479 4.39844 12.3594C4.39844 11.2708 4.60677 10.2474 5.02344 9.28906C5.4401 8.32552 6.01302 7.47656 6.74219 6.74219C7.47656 6.00781 8.32292 5.43229 9.28125 5.01562C10.2448 4.59896 11.2708 4.39062 12.3594 4.39062C13.4479 4.39062 14.474 4.59896 15.4375 5.01562C16.401 5.43229 17.25 6.00781 17.9844 6.74219C18.7188 7.47656 19.2943 8.32552 19.7109 9.28906C20.1276 10.2474 20.3359 11.2708 20.3359 12.3594C20.3359 13.4479 20.1276 14.474 19.7109 15.4375C19.2943 16.3958 18.7188 17.2422 17.9844 17.9766C17.25 18.7109 16.401 19.2865 15.4375 19.7031C14.4792 20.1198 13.4557 20.3281 12.3672 20.3281ZM12.3828 8.25C12.2057 8.25 12.0599 8.30729 11.9453 8.42188C11.8307 8.53646 11.7734 8.68229 11.7734 8.85938V12.8672L11.8359 14.5781L11.0312 13.6094L10.0781 12.6484C9.95833 12.5286 9.8151 12.4688 9.64844 12.4688C9.48177 12.4688 9.34115 12.526 9.22656 12.6406C9.11719 12.75 9.0625 12.888 9.0625 13.0547C9.0625 13.2318 9.11719 13.3724 9.22656 13.4766L11.9141 16.1562C12.0651 16.3073 12.2214 16.3828 12.3828 16.3828C12.5443 16.3828 12.7005 16.3073 12.8516 16.1562L15.5391 13.4766C15.6484 13.3672 15.7031 13.2266 15.7031 13.0547C15.7031 12.888 15.6458 12.75 15.5312 12.6406C15.4167 12.526 15.276 12.4688 15.1094 12.4688C14.9323 12.4688 14.7891 12.5286 14.6797 12.6484L13.7344 13.6094L12.9219 14.5859L12.9844 12.8672V8.85938C12.9844 8.68229 12.9271 8.53646 12.8125 8.42188C12.7031 8.30729 12.5599 8.25 12.3828 8.25Z" fill="#141414"/>
</svg>
