<svg width="24" height="24" viewBox="0 0 24 24" fill="none" xmlns="http://www.w3.org/2000/svg">
<path d="M10.7734 18.5234C10.5807 18.5234 10.401 18.4818 10.2344 18.3984C10.0677 18.3203 9.89062 18.1927 9.70312 18.0156L3.53906 12.1953C3.38802 12.0547 3.28385 11.9115 3.22656 11.7656C3.16927 11.6198 3.14062 11.4844 3.14062 11.3594C3.14062 11.2292 3.16927 11.0911 3.22656 10.9453C3.28385 10.7995 3.38802 10.6562 3.53906 10.5156L9.70312 4.75C9.91146 4.55208 10.0911 4.41146 10.2422 4.32812C10.3932 4.23958 10.5651 4.19531 10.7578 4.19531C11.0339 4.19531 11.2578 4.28906 11.4297 4.47656C11.6016 4.66406 11.6875 4.88802 11.6875 5.14844V8.10156H11.9141C13.3203 8.10156 14.5312 8.31771 15.5469 8.75C16.5677 9.18229 17.4036 9.80729 18.0547 10.625C18.7109 11.4427 19.1953 12.4297 19.5078 13.5859C19.8255 14.737 19.9844 16.0339 19.9844 17.4766C19.9844 17.8151 19.901 18.0729 19.7344 18.25C19.5729 18.4323 19.388 18.5234 19.1797 18.5234C19.013 18.5234 18.8438 18.4896 18.6719 18.4219C18.5052 18.3542 18.3542 18.1953 18.2188 17.9453C17.7656 17.0911 17.2422 16.4245 16.6484 15.9453C16.0547 15.4609 15.3698 15.1198 14.5938 14.9219C13.8177 14.724 12.9245 14.625 11.9141 14.625H11.6875V17.6094C11.6875 17.875 11.6016 18.0938 11.4297 18.2656C11.2578 18.4375 11.0391 18.5234 10.7734 18.5234ZM10.3281 16.8438C10.3958 16.8438 10.4297 16.8047 10.4297 16.7266V13.7031C10.4297 13.5312 10.5182 13.4453 10.6953 13.4453H11.7422C12.9818 13.4453 14.0677 13.5807 15 13.8516C15.9375 14.1172 16.7188 14.4948 17.3438 14.9844C17.9688 15.474 18.4349 16.0443 18.7422 16.6953C18.7526 16.7214 18.763 16.7422 18.7734 16.7578C18.7839 16.7682 18.7969 16.7734 18.8125 16.7734C18.8542 16.7734 18.875 16.7448 18.875 16.6875C18.8438 15.9531 18.7448 15.2292 18.5781 14.5156C18.4167 13.7969 18.1693 13.1224 17.8359 12.4922C17.5026 11.862 17.0651 11.3073 16.5234 10.8281C15.9818 10.3438 15.3177 9.96615 14.5312 9.69531C13.7448 9.41927 12.8151 9.28125 11.7422 9.28125H10.6953C10.5182 9.28125 10.4297 9.19531 10.4297 9.02344V5.92188C10.4297 5.84896 10.3932 5.8125 10.3203 5.8125C10.2943 5.8125 10.2708 5.82031 10.25 5.83594C10.2292 5.84635 10.2083 5.85938 10.1875 5.875L4.625 11.2109C4.56771 11.263 4.53906 11.3125 4.53906 11.3594C4.53906 11.3802 4.54427 11.4036 4.55469 11.4297C4.57031 11.4505 4.59375 11.4766 4.625 11.5078L10.1953 16.7734C10.237 16.8203 10.2812 16.8438 10.3281 16.8438Z" fill="#141414"/>
</svg>
