<svg width="24" height="24" viewBox="0 0 24 24" fill="none" xmlns="http://www.w3.org/2000/svg">
<path d="M5.39844 12.9219C5.39844 11.9688 5.57552 11.0755 5.92969 10.2422C6.28906 9.40365 6.78385 8.66927 7.41406 8.03906C8.04427 7.40885 8.77604 6.91667 9.60938 6.5625C10.4479 6.20312 11.3464 6.02344 12.3047 6.02344C12.5443 6.02344 12.776 6.03646 13 6.0625C13.2292 6.08333 13.4453 6.11458 13.6484 6.15625L11.5703 4.10156C11.513 4.03906 11.4688 3.96875 11.4375 3.89062C11.4115 3.8125 11.3984 3.73438 11.3984 3.65625C11.3984 3.47396 11.4557 3.32292 11.5703 3.20312C11.6901 3.07812 11.8385 3.01562 12.0156 3.01562C12.2031 3.01562 12.3542 3.07812 12.4688 3.20312L15.6875 6.46875C15.8177 6.60417 15.8828 6.76042 15.8828 6.9375C15.8828 7.02604 15.8672 7.10938 15.8359 7.1875C15.8047 7.26562 15.7552 7.33854 15.6875 7.40625L12.4688 10.6406C12.3594 10.7604 12.2083 10.8203 12.0156 10.8203C11.8438 10.8203 11.6979 10.7604 11.5781 10.6406C11.4583 10.5208 11.3984 10.3724 11.3984 10.1953C11.3984 10.112 11.4141 10.0339 11.4453 9.96094C11.4766 9.88281 11.5208 9.8125 11.5781 9.75L13.9141 7.4375C13.6849 7.38542 13.4323 7.34635 13.1562 7.32031C12.8854 7.29427 12.6016 7.28125 12.3047 7.28125C11.5182 7.28125 10.7839 7.42708 10.1016 7.71875C9.41927 8.01042 8.82031 8.41406 8.30469 8.92969C7.78906 9.44531 7.38542 10.0443 7.09375 10.7266C6.80208 11.4089 6.65625 12.1406 6.65625 12.9219C6.65625 13.7083 6.80208 14.4453 7.09375 15.1328C7.38542 15.8151 7.78906 16.4167 8.30469 16.9375C8.82031 17.4531 9.41927 17.8542 10.1016 18.1406C10.7839 18.4323 11.5182 18.5781 12.3047 18.5781C13.0859 18.5781 13.8177 18.4323 14.5 18.1406C15.1823 17.8542 15.7812 17.4531 16.2969 16.9375C16.8125 16.4167 17.2161 15.8151 17.5078 15.1328C17.7995 14.4453 17.9453 13.7083 17.9453 12.9219C17.9453 12.7344 18 12.5807 18.1094 12.4609C18.2188 12.3359 18.3672 12.2734 18.5547 12.2734C18.7474 12.2734 18.9036 12.3359 19.0234 12.4609C19.1432 12.5807 19.2031 12.7344 19.2031 12.9219C19.2031 13.8854 19.026 14.7865 18.6719 15.625C18.3177 16.4583 17.8229 17.1927 17.1875 17.8281C16.5573 18.4583 15.8229 18.9505 14.9844 19.3047C14.151 19.6589 13.2578 19.8359 12.3047 19.8359C11.3464 19.8359 10.4479 19.6589 9.60938 19.3047C8.77604 18.9505 8.04427 18.4583 7.41406 17.8281C6.78385 17.1927 6.28906 16.4583 5.92969 15.625C5.57552 14.7865 5.39844 13.8854 5.39844 12.9219Z" fill="#141414"/>
</svg>
