<svg width="24" height="24" viewBox="0 0 24 24" fill="none" xmlns="http://www.w3.org/2000/svg">
<path d="M18.9219 5.79688C19.0573 5.79688 19.1693 5.82292 19.2578 5.875C19.3516 5.92708 19.4245 5.9974 19.4766 6.08594C19.5286 6.17448 19.5677 6.27083 19.5938 6.375C19.6198 6.49479 19.6354 6.64844 19.6406 6.83594C19.651 7.02344 19.6562 7.23177 19.6562 7.46094C19.6562 9.35156 19.25 10.7266 18.4375 11.5859C17.625 12.4401 16.2917 12.8672 14.4375 12.8672H8.97656L7.0625 12.7578L9.69531 15.1562L11.4297 16.9219C11.4922 16.9844 11.5391 17.0599 11.5703 17.1484C11.6016 17.237 11.6172 17.3281 11.6172 17.4219C11.6172 17.6146 11.5521 17.776 11.4219 17.9062C11.2917 18.0312 11.1302 18.0938 10.9375 18.0938C10.75 18.0938 10.5729 18.0156 10.4062 17.8594L5.23438 12.6953C5.07292 12.5391 4.99219 12.362 4.99219 12.1641C4.99219 11.9661 5.07292 11.7917 5.23438 11.6406L10.4219 6.45312C10.5781 6.3125 10.75 6.24219 10.9375 6.24219C11.1302 6.24219 11.2917 6.30729 11.4219 6.4375C11.5521 6.5625 11.6172 6.72135 11.6172 6.91406C11.6172 7.00781 11.6016 7.09896 11.5703 7.1875C11.5391 7.27083 11.4922 7.34375 11.4297 7.40625L9.69531 9.17188L7.05469 11.5859L8.97656 11.4688H14.3672C15.3255 11.4688 16.0859 11.3307 16.6484 11.0547C17.2161 10.7734 17.6224 10.3333 17.8672 9.73438C18.1172 9.13542 18.2422 8.35417 18.2422 7.39062C18.2422 7.20312 18.2396 7.04167 18.2344 6.90625C18.2292 6.76562 18.2266 6.625 18.2266 6.48438C18.2266 6.28125 18.2917 6.11719 18.4219 5.99219C18.5521 5.86198 18.7188 5.79688 18.9219 5.79688Z" fill="#141414"/>
</svg>
