<svg width="24" height="24" viewBox="0 0 24 24" fill="none" xmlns="http://www.w3.org/2000/svg">
<path d="M5.72656 5.79688C5.92969 5.79688 6.09635 5.86198 6.22656 5.99219C6.36198 6.11719 6.42969 6.28125 6.42969 6.48438C6.42969 6.625 6.42448 6.76562 6.41406 6.90625C6.40885 7.04167 6.40625 7.20312 6.40625 7.39062C6.40625 8.35417 6.52865 9.13542 6.77344 9.73438C7.02344 10.3333 7.42969 10.7734 7.99219 11.0547C8.5599 11.3307 9.32292 11.4688 10.2812 11.4688H15.6719L17.5938 11.5859L14.9531 9.17188L13.2188 7.40625C13.1615 7.34375 13.1146 7.27083 13.0781 7.1875C13.0469 7.09896 13.0312 7.00781 13.0312 6.91406C13.0312 6.72135 13.0964 6.5625 13.2266 6.4375C13.362 6.30729 13.526 6.24219 13.7188 6.24219C13.9062 6.24219 14.0755 6.3125 14.2266 6.45312L19.4141 11.6406C19.5755 11.7917 19.6562 11.9661 19.6562 12.1641C19.6562 12.362 19.5755 12.5391 19.4141 12.6953L14.2422 17.8594C14.0807 18.0156 13.9062 18.0938 13.7188 18.0938C13.526 18.0938 13.362 18.0312 13.2266 17.9062C13.0964 17.776 13.0312 17.6146 13.0312 17.4219C13.0312 17.3281 13.0469 17.237 13.0781 17.1484C13.1094 17.0599 13.1562 16.9844 13.2188 16.9219L14.9531 15.1562L17.5859 12.7578L15.6719 12.8672H10.2109C8.35677 12.8672 7.02344 12.4401 6.21094 11.5859C5.39844 10.7266 4.99219 9.35156 4.99219 7.46094C4.99219 7.23177 4.9974 7.02344 5.00781 6.83594C5.01823 6.64844 5.03646 6.49479 5.0625 6.375C5.08333 6.27083 5.11979 6.17448 5.17188 6.08594C5.22396 5.9974 5.29427 5.92708 5.38281 5.875C5.47656 5.82292 5.59115 5.79688 5.72656 5.79688Z" fill="#141414"/>
</svg>
