<svg width="24" height="24" viewBox="0 0 24 24" fill="none" xmlns="http://www.w3.org/2000/svg">
<path d="M7.53711 11.3379L8.59668 9.84766C8.69238 9.71549 8.80631 9.65169 8.93848 9.65625C9.07064 9.66081 9.18001 9.72461 9.2666 9.84766L10.3467 11.3379C10.4333 11.4564 10.4583 11.5749 10.4219 11.6934C10.3854 11.8073 10.2897 11.8643 10.1348 11.8643H9.43066C9.53092 12.2607 9.71094 12.6139 9.9707 12.9238C10.235 13.2337 10.554 13.4798 10.9277 13.6621C11.3014 13.8444 11.7093 13.9355 12.1514 13.9355C12.4704 13.9355 12.7552 13.8854 13.0059 13.7852C13.2611 13.6849 13.5094 13.5413 13.751 13.3545C13.8831 13.2588 14.0199 13.2064 14.1611 13.1973C14.3024 13.1882 14.43 13.2451 14.5439 13.3682C14.6624 13.4912 14.7035 13.6325 14.667 13.792C14.6351 13.9469 14.5417 14.0859 14.3867 14.209C14.0951 14.446 13.751 14.6328 13.3545 14.7695C12.9626 14.9062 12.5615 14.9746 12.1514 14.9746C11.5225 14.9746 10.946 14.8447 10.4219 14.585C9.90234 14.3206 9.4694 13.9561 9.12305 13.4912C8.77669 13.0218 8.54883 12.4795 8.43945 11.8643H7.74219C7.58724 11.8643 7.49382 11.8073 7.46191 11.6934C7.43001 11.5794 7.45508 11.4609 7.53711 11.3379ZM9.74512 9.15723C9.62663 9.03418 9.58333 8.89518 9.61523 8.74023C9.65169 8.58529 9.7474 8.44629 9.90234 8.32324C10.1895 8.08171 10.529 7.89258 10.9209 7.75586C11.3174 7.61914 11.723 7.55078 12.1377 7.55078C12.7666 7.55078 13.3408 7.68294 13.8604 7.94727C14.3799 8.21159 14.8128 8.57845 15.1592 9.04785C15.5055 9.5127 15.7334 10.0505 15.8428 10.6611H16.5059C16.6562 10.6611 16.7474 10.7204 16.7793 10.8389C16.8158 10.9528 16.793 11.069 16.7109 11.1875L15.6514 12.6846C15.5557 12.8167 15.4417 12.8805 15.3096 12.876C15.1774 12.8714 15.0658 12.8076 14.9746 12.6846L13.9014 11.1875C13.8148 11.069 13.7897 10.9528 13.8262 10.8389C13.8626 10.7204 13.9561 10.6611 14.1064 10.6611H14.8516C14.7513 10.2692 14.569 9.91829 14.3047 9.6084C14.0449 9.29395 13.7282 9.04785 13.3545 8.87012C12.9808 8.68783 12.5752 8.59668 12.1377 8.59668C11.8141 8.59668 11.5247 8.64453 11.2695 8.74023C11.0143 8.83594 10.7682 8.97949 10.5312 9.1709C10.4036 9.27116 10.2692 9.32585 10.1279 9.33496C9.98665 9.33952 9.85905 9.28027 9.74512 9.15723ZM5.88965 17.3672C5.17415 17.3672 4.63639 17.1895 4.27637 16.834C3.9209 16.4831 3.74316 15.9544 3.74316 15.248V8.09082C3.74316 7.389 3.9209 6.86263 4.27637 6.51172C4.63639 6.15625 5.17415 5.97852 5.88965 5.97852H7.79688C8.06576 5.97852 8.264 5.94661 8.3916 5.88281C8.51921 5.81445 8.6582 5.69596 8.80859 5.52734L9.35547 4.91211C9.52865 4.72526 9.71549 4.58171 9.91602 4.48145C10.1211 4.38118 10.3991 4.33105 10.75 4.33105H13.4775C13.8285 4.33105 14.1064 4.38118 14.3115 4.48145C14.5166 4.58171 14.7035 4.72526 14.8721 4.91211L15.4189 5.52734C15.5238 5.64128 15.6172 5.73242 15.6992 5.80078C15.7858 5.86458 15.8838 5.91016 15.9932 5.9375C16.1025 5.96484 16.2484 5.97852 16.4307 5.97852H18.3857C19.0967 5.97852 19.6322 6.15625 19.9922 6.51172C20.3522 6.86263 20.5322 7.389 20.5322 8.09082V15.248C20.5322 15.9544 20.3522 16.4831 19.9922 16.834C19.6322 17.1895 19.0967 17.3672 18.3857 17.3672H5.88965ZM5.90332 16.2666H18.3652C18.7025 16.2666 18.9645 16.1777 19.1514 16C19.3382 15.8177 19.4316 15.5488 19.4316 15.1934V8.15234C19.4316 7.79688 19.3382 7.53027 19.1514 7.35254C18.9645 7.17025 18.7025 7.0791 18.3652 7.0791H16.1572C15.8473 7.0791 15.5967 7.04492 15.4053 6.97656C15.2184 6.90365 15.0384 6.77148 14.8652 6.58008L14.332 5.97852C14.1361 5.75977 13.9629 5.61393 13.8125 5.54102C13.6621 5.4681 13.4365 5.43164 13.1357 5.43164H11.0918C10.791 5.43164 10.5654 5.4681 10.415 5.54102C10.2646 5.61393 10.0915 5.75977 9.89551 5.97852L9.3623 6.58008C9.18913 6.77148 9.00684 6.90365 8.81543 6.97656C8.62858 7.04492 8.38021 7.0791 8.07031 7.0791H5.90332C5.56608 7.0791 5.30404 7.17025 5.11719 7.35254C4.9349 7.53027 4.84375 7.79688 4.84375 8.15234V15.1934C4.84375 15.5488 4.9349 15.8177 5.11719 16C5.30404 16.1777 5.56608 16.2666 5.90332 16.2666Z" fill="#141414"/>
</svg>
