<svg width="24" height="24" viewBox="0 0 24 24" fill="none" xmlns="http://www.w3.org/2000/svg">
<path d="M4.95312 18.7031C4.16667 18.7031 3.55208 18.487 3.10938 18.0547C2.66667 17.6224 2.44531 17.013 2.44531 16.2266V8.48438C2.44531 7.70312 2.67448 7.09635 3.13281 6.66406C3.59635 6.23177 4.20312 6.01562 4.95312 6.01562H13.4219C14.2083 6.01562 14.8099 6.23177 15.2266 6.66406C15.6432 7.09635 15.8516 7.70312 15.8516 8.48438V16.2266C15.8516 17.013 15.6302 17.6224 15.1875 18.0547C14.7448 18.487 14.1302 18.7031 13.3438 18.7031H4.95312ZM16.9141 14.6641V10.0469L19.7578 7.59375C19.8932 7.47396 20.0339 7.38021 20.1797 7.3125C20.3307 7.24479 20.4766 7.21094 20.6172 7.21094C20.9193 7.21094 21.1615 7.3125 21.3438 7.51562C21.5312 7.71354 21.625 7.97396 21.625 8.29688V16.4219C21.625 16.7448 21.5312 17.0078 21.3438 17.2109C21.1615 17.4089 20.9193 17.5078 20.6172 17.5078C20.4766 17.5078 20.3307 17.474 20.1797 17.4062C20.0339 17.3333 19.8932 17.2396 19.7578 17.125L16.9141 14.6641ZM11.8359 9.10938C11.7474 9.10938 11.6693 9.125 11.6016 9.15625C11.5391 9.18229 11.4766 9.22656 11.4141 9.28906L8.125 12.5859L6.88281 13.9375L7.01562 11.6328V10.5547C7.01562 10.4036 6.96354 10.2708 6.85938 10.1562C6.75521 10.0365 6.625 9.97656 6.46875 9.97656C6.30208 9.97656 6.15885 10.0339 6.03906 10.1484C5.92448 10.2578 5.86719 10.3932 5.86719 10.5547V15.0312C5.86719 15.2448 5.91927 15.4062 6.02344 15.5156C6.1276 15.6198 6.28906 15.6719 6.50781 15.6719H10.9922C11.1589 15.6719 11.2969 15.6146 11.4062 15.5C11.5208 15.3802 11.5781 15.237 11.5781 15.0703C11.5781 14.9141 11.5208 14.7839 11.4062 14.6797C11.2917 14.5755 11.1536 14.5234 10.9922 14.5234H9.89844L7.59375 14.6641L8.95312 13.4219L12.2422 10.125C12.3099 10.0573 12.3594 9.98698 12.3906 9.91406C12.4271 9.83594 12.4453 9.75521 12.4453 9.67188C12.4453 9.51042 12.3854 9.3776 12.2656 9.27344C12.151 9.16406 12.0078 9.10938 11.8359 9.10938Z" fill="#141414"/>
</svg>
