<svg width="24" height="24" viewBox="0 0 24 24" fill="none" xmlns="http://www.w3.org/2000/svg">
<path d="M12.7578 18.5156C12.5651 18.5156 12.3828 18.474 12.2109 18.3906C12.0443 18.3125 11.8672 18.1849 11.6797 18.0078L5.51562 12.1875C5.375 12.0573 5.27344 11.9193 5.21094 11.7734C5.14844 11.6276 5.11719 11.487 5.11719 11.3516C5.11719 11.2109 5.14844 11.0703 5.21094 10.9297C5.27344 10.7839 5.375 10.6432 5.51562 10.5078L11.6797 4.74219C11.888 4.54427 12.0677 4.40365 12.2188 4.32031C12.375 4.23177 12.5495 4.1875 12.7422 4.1875C13.013 4.1875 13.2344 4.28125 13.4062 4.46875C13.5833 4.65625 13.6719 4.88021 13.6719 5.14062V8.09375H13.8984C15.2995 8.09375 16.5078 8.3099 17.5234 8.74219C18.5443 9.17448 19.3802 9.79948 20.0312 10.6172C20.6875 11.4349 21.1719 12.4219 21.4844 13.5781C21.8021 14.7292 21.9609 16.026 21.9609 17.4688C21.9609 17.8073 21.8776 18.0651 21.7109 18.2422C21.5495 18.4245 21.3646 18.5156 21.1562 18.5156C20.9896 18.5156 20.8203 18.4818 20.6484 18.4141C20.4818 18.3464 20.3307 18.1875 20.1953 17.9375C19.7422 17.0833 19.2188 16.4167 18.625 15.9375C18.0365 15.4531 17.3516 15.112 16.5703 14.9141C15.7943 14.7161 14.9036 14.6172 13.8984 14.6172H13.6719V17.6016C13.6719 17.8672 13.5833 18.0859 13.4062 18.2578C13.2344 18.4297 13.0182 18.5156 12.7578 18.5156ZM8.91406 18.5234C8.72135 18.5234 8.53906 18.4818 8.36719 18.3984C8.20052 18.3203 8.02604 18.1927 7.84375 18.0156L1.67188 12.1953C1.52604 12.0547 1.42448 11.9115 1.36719 11.7656C1.3099 11.6198 1.28125 11.4844 1.28125 11.3594C1.28125 11.2292 1.3099 11.0911 1.36719 10.9453C1.42448 10.7995 1.52604 10.6562 1.67188 10.5156L7.84375 4.75C8.05208 4.55208 8.23177 4.41146 8.38281 4.32812C8.53385 4.23958 8.70573 4.19531 8.89844 4.19531C9.16927 4.19531 9.39062 4.26823 9.5625 4.41406C9.73958 4.55469 9.82812 4.71875 9.82812 4.90625V5.17188L4.8125 9.76562C4.56771 9.98958 4.38021 10.237 4.25 10.5078C4.11979 10.7786 4.05469 11.0625 4.05469 11.3594C4.05469 11.6562 4.11979 11.9401 4.25 12.2109C4.38542 12.4818 4.57292 12.7266 4.8125 12.9453L9.82812 17.5781V17.8438C9.82812 18.026 9.74219 18.1849 9.57031 18.3203C9.39844 18.4557 9.17969 18.5234 8.91406 18.5234Z" fill="#141414"/>
</svg>
