<svg width="24" height="24" viewBox="0 0 24 24" fill="none" xmlns="http://www.w3.org/2000/svg">
<path d="M5.83594 17.4531C5.46615 17.4531 5.17708 17.3672 4.96875 17.1953C4.76042 17.0234 4.65625 16.7943 4.65625 16.5078C4.65625 16.2474 4.73177 15.9948 4.88281 15.75C5.03385 15.5052 5.22135 15.2656 5.44531 15.0312C5.67448 14.7969 5.90104 14.5625 6.125 14.3281C6.29688 14.151 6.42969 13.9193 6.52344 13.6328C6.6224 13.3464 6.69531 13.0417 6.74219 12.7188C6.78906 12.3958 6.82292 12.0833 6.84375 11.7812C6.85938 10.7812 6.96615 9.89062 7.16406 9.10938C7.36198 8.32812 7.67188 7.67188 8.09375 7.14062C8.52083 6.60938 9.08073 6.21875 9.77344 5.96875C9.91927 5.45833 10.1875 5.02604 10.5781 4.67188C10.9688 4.31771 11.4505 4.14062 12.0234 4.14062C12.6016 4.14062 13.0859 4.31771 13.4766 4.67188C13.8672 5.02604 14.1354 5.45833 14.2812 5.96875C14.974 6.21875 15.5312 6.60938 15.9531 7.14062C16.375 7.67188 16.6849 8.32812 16.8828 9.10938C17.0859 9.89062 17.1953 10.7812 17.2109 11.7812C17.2318 12.0833 17.2656 12.3958 17.3125 12.7188C17.3594 13.0417 17.4297 13.3464 17.5234 13.6328C17.6224 13.9193 17.7578 14.151 17.9297 14.3281C18.1536 14.5625 18.3776 14.7969 18.6016 15.0312C18.8307 15.2656 19.0208 15.5052 19.1719 15.75C19.3229 15.9948 19.3984 16.2474 19.3984 16.5078C19.3984 16.7943 19.2943 17.0234 19.0859 17.1953C18.8776 17.3672 18.5885 17.4531 18.2188 17.4531H5.83594ZM12.0234 20.5859C11.5859 20.5859 11.1927 20.4896 10.8438 20.2969C10.4948 20.1042 10.2135 19.8516 10 19.5391C9.78646 19.2266 9.66406 18.888 9.63281 18.5234H14.4219C14.3854 18.888 14.2604 19.2266 14.0469 19.5391C13.8385 19.8516 13.5599 20.1042 13.2109 20.2969C12.862 20.4896 12.4661 20.5859 12.0234 20.5859Z" fill="#141414"/>
</svg>
