<svg width="24" height="24" viewBox="0 0 24 24" fill="none" xmlns="http://www.w3.org/2000/svg">
<path d="M12.0156 20.5859C11.5729 20.5859 11.1771 20.4896 10.8281 20.2969C10.4792 20.1042 10.1979 19.8516 9.98438 19.5391C9.77604 19.2266 9.65365 18.888 9.61719 18.5234H14.4141C14.3776 18.888 14.2526 19.2266 14.0391 19.5391C13.8255 19.8516 13.5443 20.1042 13.1953 20.2969C12.8516 20.4896 12.4583 20.5859 12.0156 20.5859ZM5.82031 17.4531C5.45052 17.4531 5.16146 17.3672 4.95312 17.1953C4.74479 17.0234 4.64062 16.7943 4.64062 16.5078C4.64062 16.2474 4.71615 15.9948 4.86719 15.75C5.01823 15.5052 5.20573 15.2656 5.42969 15.0312C5.65885 14.7969 5.88802 14.5625 6.11719 14.3281C6.28906 14.151 6.42188 13.9193 6.51562 13.6328C6.61458 13.3464 6.6849 13.0417 6.72656 12.7188C6.77344 12.3958 6.80729 12.0833 6.82812 11.7812C6.83333 11.3229 6.85677 10.888 6.89844 10.4766C6.94531 10.0599 7.01302 9.66667 7.10156 9.29688L15.25 17.4531H5.82031ZM12.0156 4.14062C12.5885 4.14062 13.0703 4.31771 13.4609 4.67188C13.8516 5.02604 14.1224 5.45833 14.2734 5.96875C14.9661 6.21875 15.5234 6.60938 15.9453 7.14062C16.3672 7.67188 16.6771 8.32812 16.875 9.10938C17.0729 9.89062 17.1823 10.7812 17.2031 11.7812C17.2188 12.0833 17.25 12.3958 17.2969 12.7188C17.3438 13.0417 17.4141 13.3464 17.5078 13.6328C17.6068 13.9193 17.7422 14.151 17.9141 14.3281C18.138 14.5625 18.362 14.7969 18.5859 15.0312C18.8151 15.2656 19.0052 15.5052 19.1562 15.75C19.3073 15.9948 19.3828 16.2474 19.3828 16.5078C19.3828 16.737 19.3177 16.9271 19.1875 17.0781L8.67969 6.55469C8.83594 6.42969 9.0026 6.31771 9.17969 6.21875C9.36198 6.11979 9.55469 6.03646 9.75781 5.96875C9.90365 5.45833 10.1719 5.02604 10.5625 4.67188C10.9531 4.31771 11.4375 4.14062 12.0156 4.14062ZM4.8125 5.72656C4.69792 5.61198 4.64062 5.47135 4.64062 5.30469C4.64062 5.13281 4.69792 4.98958 4.8125 4.875C4.93229 4.76042 5.07552 4.70312 5.24219 4.70312C5.41406 4.70312 5.55729 4.76042 5.67188 4.875L19.7031 18.8984C19.8177 19.013 19.875 19.1536 19.875 19.3203C19.875 19.487 19.8177 19.6302 19.7031 19.75C19.5885 19.8646 19.4453 19.9219 19.2734 19.9219C19.1068 19.9219 18.9661 19.8646 18.8516 19.75L4.8125 5.72656Z" fill="#141414"/>
</svg>
