<svg width="24" height="24" viewBox="0 0 24 24" fill="none" xmlns="http://www.w3.org/2000/svg">
<path d="M16.1641 17.9922L5.75 7.57812L6.57812 6.75L16.9922 17.1641L16.1641 17.9922ZM11.3672 20.3281C10.2786 20.3281 9.2526 20.1198 8.28906 19.7031C7.33073 19.2865 6.48438 18.7109 5.75 17.9766C5.01562 17.2422 4.4401 16.3958 4.02344 15.4375C3.60677 14.474 3.39844 13.4479 3.39844 12.3594C3.39844 11.2708 3.60677 10.2474 4.02344 9.28906C4.4401 8.32552 5.01302 7.47656 5.74219 6.74219C6.47656 6.00781 7.32292 5.43229 8.28125 5.01562C9.24479 4.59896 10.2708 4.39062 11.3594 4.39062C12.4479 4.39062 13.474 4.59896 14.4375 5.01562C15.401 5.43229 16.25 6.00781 16.9844 6.74219C17.7188 7.47656 18.2943 8.32552 18.7109 9.28906C19.1276 10.2474 19.3359 11.2708 19.3359 12.3594C19.3359 13.4479 19.1276 14.474 18.7109 15.4375C18.2943 16.3958 17.7188 17.2422 16.9844 17.9766C16.25 18.7109 15.401 19.2865 14.4375 19.7031C13.4792 20.1198 12.4557 20.3281 11.3672 20.3281ZM11.3672 19C12.2891 19 13.151 18.8281 13.9531 18.4844C14.7552 18.1406 15.4609 17.6667 16.0703 17.0625C16.6797 16.4531 17.1536 15.7474 17.4922 14.9453C17.8359 14.1432 18.0078 13.2812 18.0078 12.3594C18.0078 11.4375 17.8359 10.5755 17.4922 9.77344C17.1484 8.97135 16.6719 8.26562 16.0625 7.65625C15.4583 7.04688 14.7526 6.57292 13.9453 6.23438C13.1432 5.89062 12.2812 5.71875 11.3594 5.71875C10.4375 5.71875 9.57552 5.89062 8.77344 6.23438C7.97135 6.57292 7.26823 7.04688 6.66406 7.65625C6.0599 8.26562 5.58594 8.97135 5.24219 9.77344C4.90365 10.5755 4.73438 11.4375 4.73438 12.3594C4.73438 13.2812 4.90365 14.1432 5.24219 14.9453C5.58594 15.7474 6.0599 16.4531 6.66406 17.0625C7.27344 17.6667 7.97917 18.1406 8.78125 18.4844C9.58333 18.8281 10.4453 19 11.3672 19Z" fill="#141414"/>
</svg>
