<svg width="24" height="24" viewBox="0 0 24 24" fill="none" xmlns="http://www.w3.org/2000/svg">
<path d="M12.3672 20.3359C11.2786 20.3359 10.2526 20.1276 9.28906 19.7109C8.33073 19.2943 7.48438 18.7188 6.75 17.9844C6.01562 17.25 5.4401 16.4036 5.02344 15.4453C4.60677 14.4818 4.39844 13.4557 4.39844 12.3672C4.39844 11.2786 4.60677 10.2552 5.02344 9.29688C5.4401 8.33333 6.01302 7.48438 6.74219 6.75C7.47656 6.01562 8.32292 5.4401 9.28125 5.02344C10.2448 4.60677 11.2708 4.39844 12.3594 4.39844C13.4479 4.39844 14.474 4.60677 15.4375 5.02344C16.401 5.4401 17.25 6.01562 17.9844 6.75C18.7188 7.48438 19.2943 8.33333 19.7109 9.29688C20.1276 10.2552 20.3359 11.2786 20.3359 12.3672C20.3359 13.4557 20.1276 14.4818 19.7109 15.4453C19.2943 16.4036 18.7188 17.25 17.9844 17.9844C17.25 18.7188 16.401 19.2943 15.4375 19.7109C14.4792 20.1276 13.4557 20.3359 12.3672 20.3359ZM9.98438 16.6406C10.0938 16.6406 10.1901 16.6068 10.2734 16.5391C10.362 16.4661 10.5 16.3385 10.6875 16.1562L12.3359 14.5391C12.3568 14.513 12.3802 14.513 12.4062 14.5391L14.0547 16.1562C14.2422 16.3385 14.3776 16.4661 14.4609 16.5391C14.5495 16.6068 14.6458 16.6406 14.75 16.6406C14.8854 16.6406 14.9922 16.5964 15.0703 16.5078C15.1536 16.4141 15.1953 16.2865 15.1953 16.125V9.34375C15.1953 8.94792 15.0938 8.64844 14.8906 8.44531C14.6927 8.24219 14.3984 8.14062 14.0078 8.14062H10.7344C10.3438 8.14062 10.0469 8.24219 9.84375 8.44531C9.64583 8.64844 9.54688 8.94792 9.54688 9.34375V16.125C9.54688 16.2865 9.58594 16.4141 9.66406 16.5078C9.7474 16.5964 9.85417 16.6406 9.98438 16.6406Z" fill="#141414"/>
</svg>
