<svg width="24" height="24" viewBox="0 0 24 24" fill="none" xmlns="http://www.w3.org/2000/svg">
<path d="M5.35645 18.4971C4.82324 18.4971 4.41992 18.3695 4.14648 18.1143C3.8776 17.859 3.74316 17.4785 3.74316 16.9727V11.1416C3.74316 10.6357 3.8776 10.2552 4.14648 10C4.41992 9.74023 4.82324 9.61035 5.35645 9.61035H7.19531C7.72852 9.61035 8.13184 9.74023 8.40527 10C8.67871 10.2552 8.81543 10.6357 8.81543 11.1416V16.9727C8.81543 17.4785 8.67871 17.859 8.40527 18.1143C8.13184 18.3695 7.72852 18.4971 7.19531 18.4971H5.35645ZM5.53418 17.4648H7.01758C7.2819 17.4648 7.46647 17.4124 7.57129 17.3076C7.67611 17.2074 7.72852 17.0296 7.72852 16.7744V11.3398C7.72852 11.0801 7.67611 10.9001 7.57129 10.7998C7.46647 10.695 7.2819 10.6426 7.01758 10.6426H5.53418C5.27441 10.6426 5.09212 10.695 4.9873 10.7998C4.88249 10.9001 4.83008 11.0801 4.83008 11.3398V16.7744C4.83008 17.0296 4.88249 17.2074 4.9873 17.3076C5.09212 17.4124 5.27441 17.4648 5.53418 17.4648ZM11.502 18.4971C10.9688 18.4971 10.5654 18.3695 10.292 18.1143C10.0231 17.859 9.88867 17.4785 9.88867 16.9727V9.15234C9.88867 8.64648 10.0231 8.26595 10.292 8.01074C10.5654 7.75098 10.9688 7.62109 11.502 7.62109H13.3477C13.8809 7.62109 14.2819 7.75098 14.5508 8.01074C14.8242 8.26595 14.9609 8.64648 14.9609 9.15234V16.9727C14.9609 17.4785 14.8242 17.859 14.5508 18.1143C14.2819 18.3695 13.8809 18.4971 13.3477 18.4971H11.502ZM11.6865 17.4648H13.1699C13.4297 17.4648 13.612 17.4124 13.7168 17.3076C13.8216 17.2074 13.874 17.0296 13.874 16.7744V9.35059C13.874 9.09538 13.8216 8.91536 13.7168 8.81055C13.612 8.70573 13.4297 8.65332 13.1699 8.65332H11.6865C11.4222 8.65332 11.2376 8.70573 11.1328 8.81055C11.028 8.91536 10.9756 9.09538 10.9756 9.35059V16.7744C10.9756 17.0296 11.028 17.2074 11.1328 17.3076C11.2376 17.4124 11.4222 17.4648 11.6865 17.4648ZM17.6475 18.4971C17.1188 18.4971 16.7178 18.3695 16.4443 18.1143C16.1755 17.859 16.041 17.4785 16.041 16.9727V7.15625C16.041 6.65039 16.1755 6.26986 16.4443 6.01465C16.7178 5.75488 17.1188 5.625 17.6475 5.625H19.4932C20.0264 5.625 20.4297 5.75488 20.7031 6.01465C20.9766 6.26986 21.1133 6.65039 21.1133 7.15625V16.9727C21.1133 17.4785 20.9766 17.859 20.7031 18.1143C20.4297 18.3695 20.0264 18.4971 19.4932 18.4971H17.6475ZM17.832 17.4648H19.3154C19.5798 17.4648 19.7643 17.4124 19.8691 17.3076C19.974 17.2074 20.0264 17.0296 20.0264 16.7744V7.35449C20.0264 7.09473 19.974 6.91471 19.8691 6.81445C19.7643 6.70964 19.5798 6.65723 19.3154 6.65723H17.832C17.5723 6.65723 17.39 6.70964 17.2852 6.81445C17.1803 6.91471 17.1279 7.09473 17.1279 7.35449V16.7744C17.1279 17.0296 17.1803 17.2074 17.2852 17.3076C17.39 17.4124 17.5723 17.4648 17.832 17.4648Z" fill="#141414"/>
</svg>
