<svg width="24" height="24" viewBox="0 0 24 24" fill="none" xmlns="http://www.w3.org/2000/svg">
<path d="M12.3672 20.3281C11.2786 20.3281 10.2526 20.1198 9.28906 19.7031C8.33073 19.2865 7.48438 18.7109 6.75 17.9766C6.01562 17.2422 5.4401 16.3958 5.02344 15.4375C4.60677 14.474 4.39844 13.4479 4.39844 12.3594C4.39844 11.2708 4.60677 10.2474 5.02344 9.28906C5.4401 8.32552 6.01302 7.47656 6.74219 6.74219C7.47656 6.00781 8.32292 5.43229 9.28125 5.01562C10.2448 4.59896 11.2708 4.39062 12.3594 4.39062C13.4479 4.39062 14.474 4.59896 15.4375 5.01562C16.401 5.43229 17.25 6.00781 17.9844 6.74219C18.7188 7.47656 19.2943 8.32552 19.7109 9.28906C20.1276 10.2474 20.3359 11.2708 20.3359 12.3594C20.3359 13.4479 20.1276 14.474 19.7109 15.4375C19.2943 16.3958 18.7188 17.2422 17.9844 17.9766C17.25 18.7109 16.401 19.2865 15.4375 19.7031C14.4792 20.1198 13.4557 20.3281 12.3672 20.3281ZM12.3672 19C13.2891 19 14.151 18.8281 14.9531 18.4844C15.7552 18.1406 16.4609 17.6667 17.0703 17.0625C17.6797 16.4531 18.1536 15.7474 18.4922 14.9453C18.8359 14.1432 19.0078 13.2812 19.0078 12.3594C19.0078 11.4375 18.8359 10.5755 18.4922 9.77344C18.1484 8.97135 17.6719 8.26562 17.0625 7.65625C16.4583 7.04688 15.7526 6.57292 14.9453 6.23438C14.1432 5.89062 13.2812 5.71875 12.3594 5.71875C11.4375 5.71875 10.5755 5.89062 9.77344 6.23438C8.97135 6.57292 8.26823 7.04688 7.66406 7.65625C7.0599 8.26562 6.58594 8.97135 6.24219 9.77344C5.90365 10.5755 5.73438 11.4375 5.73438 12.3594C5.73438 13.2812 5.90365 14.1432 6.24219 14.9453C6.58594 15.7474 7.0599 16.4531 7.66406 17.0625C8.27344 17.6667 8.97917 18.1406 9.78125 18.4844C10.5833 18.8281 11.4453 19 12.3672 19ZM11.5078 16.0625C11.3776 16.0625 11.2578 16.0339 11.1484 15.9766C11.0443 15.9193 10.9427 15.8281 10.8438 15.7031L8.9375 13.3594C8.81771 13.1979 8.75781 13.0365 8.75781 12.875C8.75781 12.7031 8.8151 12.5573 8.92969 12.4375C9.04948 12.3125 9.19271 12.25 9.35938 12.25C9.46875 12.25 9.56771 12.2734 9.65625 12.3203C9.75 12.362 9.84375 12.4453 9.9375 12.5703L11.4766 14.5625L14.7188 9.35938C14.8646 9.125 15.0469 9.00781 15.2656 9.00781C15.4271 9.00781 15.5729 9.0599 15.7031 9.16406C15.8333 9.26823 15.8984 9.40625 15.8984 9.57812C15.8984 9.66667 15.8776 9.75521 15.8359 9.84375C15.7995 9.92708 15.7578 10.0052 15.7109 10.0781L12.1406 15.7031C11.9844 15.9427 11.7734 16.0625 11.5078 16.0625Z" fill="#141414"/>
</svg>
