<svg width="24" height="24" viewBox="0 0 24 24" fill="none" xmlns="http://www.w3.org/2000/svg">
<path d="M16.6328 12.3594C16.6328 12.4583 16.612 12.5521 16.5703 12.6406C16.5339 12.724 16.4792 12.8021 16.4062 12.875L10.2188 18.9297C10.0781 19.0703 9.90625 19.1406 9.70312 19.1406C9.57292 19.1406 9.45312 19.1094 9.34375 19.0469C9.23438 18.9844 9.14844 18.8984 9.08594 18.7891C9.02344 18.6849 8.99219 18.5651 8.99219 18.4297C8.99219 18.237 9.0599 18.0677 9.19531 17.9219L14.8828 12.3594L9.19531 6.79688C9.0599 6.65104 8.99219 6.48177 8.99219 6.28906C8.99219 6.15365 9.02344 6.03385 9.08594 5.92969C9.14844 5.82031 9.23438 5.73438 9.34375 5.67188C9.45312 5.60938 9.57292 5.57812 9.70312 5.57812C9.90625 5.57812 10.0781 5.64583 10.2188 5.78125L16.4062 11.8438C16.4792 11.9167 16.5339 11.9974 16.5703 12.0859C16.612 12.1693 16.6328 12.2604 16.6328 12.3594Z" fill="#141414"/>
</svg>
