<svg width="24" height="24" viewBox="0 0 24 24" fill="none" xmlns="http://www.w3.org/2000/svg">
<path d="M12.7109 7.69531C12.914 7.69531 13.0885 7.76823 13.2343 7.91406C13.3801 8.05469 13.453 8.22656 13.453 8.42969V14.0625L12.5859 11.3906L15.2968 15.0703C15.4374 15.2578 15.4973 15.4531 15.4765 15.6562C15.4609 15.8594 15.3671 16.0208 15.1952 16.1406C15.0077 16.2708 14.8124 16.3177 14.6093 16.2812C14.4114 16.2448 14.2343 16.125 14.078 15.9219L12.1874 13.4219C12.0468 13.2396 11.9765 13.0521 11.9765 12.8594V8.42969C11.9765 8.22656 12.0468 8.05469 12.1874 7.91406C12.3333 7.76823 12.5077 7.69531 12.7109 7.69531ZM12.8827 20.3281C12.0077 20.3281 11.1718 20.1875 10.3749 19.9062C9.57805 19.6302 8.84628 19.2396 8.17961 18.7344C7.51294 18.2344 6.93221 17.6536 6.43742 16.9922C6.30201 16.8203 6.24992 16.6406 6.28117 16.4531C6.31763 16.2656 6.41399 16.1224 6.57024 16.0234C6.7369 15.9245 6.90357 15.8984 7.07024 15.9453C7.24211 15.987 7.38794 16.0885 7.50774 16.25C7.90357 16.8021 8.37753 17.2839 8.92961 17.6953C9.4869 18.1068 10.0989 18.4245 10.7655 18.6484C11.4322 18.8776 12.1379 18.9948 12.8827 19C13.8046 19.0052 14.6666 18.8359 15.4687 18.4922C16.2708 18.1484 16.9739 17.6745 17.578 17.0703C18.1874 16.4609 18.664 15.7552 19.0077 14.9531C19.3515 14.1458 19.5234 13.2812 19.5234 12.3594C19.5234 11.4375 19.3515 10.5755 19.0077 9.77344C18.664 8.97135 18.1874 8.26823 17.578 7.66406C16.9739 7.05469 16.2708 6.58073 15.4687 6.24219C14.6666 5.89844 13.8046 5.72656 12.8827 5.72656C11.9609 5.72656 11.0989 5.89844 10.2968 6.24219C9.49471 6.58073 8.78899 7.05208 8.17961 7.65625C7.57024 8.26042 7.09367 8.96354 6.74992 9.76562C6.41138 10.5677 6.24211 11.4297 6.24211 12.3516H4.91399C4.91399 11.263 5.12232 10.2396 5.53899 9.28125C5.95565 8.31771 6.53117 7.47135 7.26555 6.74219C7.99992 6.00781 8.84628 5.43229 9.80461 5.01562C10.7682 4.59896 11.7942 4.39062 12.8827 4.39062C13.9713 4.39062 14.9947 4.59896 15.953 5.01562C16.9166 5.43229 17.7655 6.00781 18.4999 6.74219C19.2343 7.47656 19.8098 8.32552 20.2265 9.28906C20.6432 10.2474 20.8515 11.2708 20.8515 12.3594C20.8515 13.4479 20.6432 14.474 20.2265 15.4375C19.8098 16.3958 19.2343 17.2422 18.4999 17.9766C17.7655 18.7109 16.9166 19.2865 15.953 19.7031C14.9947 20.1198 13.9713 20.3281 12.8827 20.3281ZM3.95305 10.8516H7.53899C7.72128 10.8516 7.8593 10.8906 7.95305 10.9688C8.0468 11.0417 8.09107 11.1406 8.08586 11.2656C8.08586 11.3854 8.03638 11.5182 7.93742 11.6641L6.18742 14.1562C6.06242 14.3333 5.91659 14.4245 5.74992 14.4297C5.58326 14.4297 5.43482 14.3385 5.30461 14.1562L3.55461 11.6719C3.45565 11.526 3.40357 11.3906 3.39836 11.2656C3.39315 11.1406 3.43742 11.0417 3.53117 10.9688C3.62492 10.8906 3.76555 10.8516 3.95305 10.8516Z" fill="#141414"/>
</svg>
