<svg width="24" height="24" viewBox="0 0 24 24" fill="none" xmlns="http://www.w3.org/2000/svg">
<path d="M19.125 17.8125C19.125 17.9948 19.0677 18.138 18.9531 18.2422C18.8438 18.3464 18.6927 18.3984 18.5 18.3984H6.36719C6.17969 18.3984 6.02865 18.3438 5.91406 18.2344C5.80469 18.1198 5.75 17.9688 5.75 17.7812V5.72656C5.75 5.53385 5.80729 5.3776 5.92188 5.25781C6.03646 5.13281 6.1875 5.07031 6.375 5.07031C6.56771 5.07031 6.72135 5.13281 6.83594 5.25781C6.95052 5.3776 7.00781 5.53385 7.00781 5.72656V16.9922C7.00781 17.1432 7.08333 17.2188 7.23438 17.2188H18.5C18.6927 17.2188 18.8438 17.2708 18.9531 17.375C19.0677 17.4792 19.125 17.625 19.125 17.8125ZM1.99219 9.41406C1.99219 9.23698 2.04688 9.09635 2.15625 8.99219C2.27083 8.88281 2.42188 8.82812 2.60938 8.82812H14.75C14.9375 8.82812 15.0859 8.88542 15.1953 9C15.3099 9.11458 15.3672 9.26562 15.3672 9.45312V21.5C15.3672 21.6979 15.3099 21.8568 15.1953 21.9766C15.0807 22.0964 14.9271 22.1562 14.7344 22.1562C14.5469 22.1562 14.3958 22.0964 14.2812 21.9766C14.1667 21.8568 14.1094 21.6979 14.1094 21.5V10.2344C14.1094 10.0833 14.0339 10.0078 13.8828 10.0078H2.60938C2.42188 10.0078 2.27083 9.95573 2.15625 9.85156C2.04688 9.7474 1.99219 9.60156 1.99219 9.41406Z" fill="#141414"/>
</svg>
