<svg width="24" height="24" viewBox="0 0 24 24" fill="none" xmlns="http://www.w3.org/2000/svg">
<path d="M8.05859 7.24512V5.60449C8.05859 4.89355 8.23405 4.35807 8.58496 3.99805C8.94043 3.63802 9.47135 3.45801 10.1777 3.45801H12.7959C13.165 3.45801 13.4954 3.51042 13.7871 3.61523C14.0788 3.71549 14.3454 3.89095 14.5869 4.1416L18.0391 7.64844C18.2943 7.91276 18.472 8.19076 18.5723 8.48242C18.6725 8.77409 18.7227 9.12956 18.7227 9.54883V15.0996C18.7227 15.8105 18.5449 16.346 18.1895 16.7061C17.8385 17.0661 17.3099 17.2461 16.6035 17.2461H15.1953V16.1455H16.542C16.8975 16.1455 17.1663 16.0544 17.3486 15.8721C17.5309 15.6852 17.6221 15.4209 17.6221 15.0791V9.23438H14.4229C14.0309 9.23438 13.737 9.13867 13.541 8.94727C13.3496 8.75586 13.2539 8.46191 13.2539 8.06543V4.55859H10.2324C9.87695 4.55859 9.60807 4.65202 9.42578 4.83887C9.24805 5.02116 9.15918 5.2832 9.15918 5.625V7.24512H8.05859ZM14.2451 7.90137C14.2451 8.02441 14.2702 8.11328 14.3203 8.16797C14.375 8.2181 14.4616 8.24316 14.5801 8.24316H17.335L14.2451 5.09863V7.90137ZM4.74316 18.5107V9.01562C4.74316 8.30469 4.91862 7.76921 5.26953 7.40918C5.625 7.04915 6.15592 6.86914 6.8623 6.86914H9.27539C9.6582 6.86914 9.97494 6.91016 10.2256 6.99219C10.4762 7.07422 10.7314 7.24967 10.9912 7.51855L14.7578 11.3535C14.9401 11.5404 15.0768 11.7181 15.168 11.8867C15.2637 12.0508 15.3275 12.2331 15.3594 12.4336C15.3913 12.6341 15.4072 12.8802 15.4072 13.1719V18.5107C15.4072 19.2217 15.2295 19.7572 14.874 20.1172C14.5231 20.4772 13.9945 20.6572 13.2881 20.6572H6.8623C6.15592 20.6572 5.625 20.4772 5.26953 20.1172C4.91862 19.7617 4.74316 19.2262 4.74316 18.5107ZM5.84375 18.4902C5.84375 18.832 5.93262 19.0941 6.11035 19.2764C6.29264 19.4632 6.55924 19.5566 6.91016 19.5566H13.2334C13.5843 19.5566 13.8509 19.4632 14.0332 19.2764C14.2155 19.0941 14.3066 18.832 14.3066 18.4902V13.2266H10.4443C10.0205 13.2266 9.69922 13.1195 9.48047 12.9053C9.26628 12.6911 9.15918 12.3675 9.15918 11.9346V7.96973H6.91699C6.56152 7.96973 6.29264 8.06315 6.11035 8.25C5.93262 8.43229 5.84375 8.69206 5.84375 9.0293V18.4902ZM10.5742 12.1943H14.0947L10.1914 8.22266V11.8115C10.1914 11.9482 10.221 12.0462 10.2803 12.1055C10.3395 12.1647 10.4375 12.1943 10.5742 12.1943Z" fill="#141414"/>
</svg>
