<svg width="24" height="24" viewBox="0 0 24 24" fill="none" xmlns="http://www.w3.org/2000/svg">
<path d="M2.10138 12.9327C1.93471 12.7661 1.85554 12.5689 1.86388 12.3412C1.87221 12.1134 1.95971 11.9162 2.12638 11.7495C2.29304 11.5883 2.49029 11.5064 2.71813 11.5037C2.94579 11.5009 3.14296 11.5828 3.30963 11.7495L7.14313 15.5995C7.23746 15.694 7.33746 15.794 7.44313 15.8995L7.74313 16.1995C7.90979 16.3662 7.99171 16.5606 7.98888 16.7827C7.98604 17.0051 7.90129 17.1996 7.73463 17.3662L7.71813 17.3827C7.55146 17.5439 7.35696 17.6259 7.13463 17.6287C6.91246 17.6314 6.71804 17.5494 6.55138 17.3827L2.10138 12.9327ZM11.8514 15.5912L20.7346 6.70774C20.9013 6.54107 21.0985 6.45915 21.3264 6.46199C21.5542 6.46482 21.7515 6.54957 21.9181 6.71623C22.0791 6.8829 22.161 7.08007 22.1639 7.30774C22.1667 7.53557 22.0848 7.73282 21.9181 7.89949L12.4346 17.3827C12.268 17.5494 12.0735 17.6327 11.8514 17.6327C11.6292 17.6327 11.4348 17.5494 11.2681 17.3827L6.81813 12.9327C6.65696 12.7717 6.57913 12.5759 6.58463 12.3452C6.59029 12.1147 6.67363 11.9162 6.83463 11.7495C7.00129 11.5828 7.19996 11.4995 7.43063 11.4995C7.66113 11.4995 7.85971 11.5828 8.02638 11.7495L11.8514 15.5912ZM17.1931 7.90774L12.4346 12.6662C12.2736 12.8272 12.0806 12.905 11.8556 12.8995C11.6306 12.894 11.4348 12.8107 11.2681 12.6495C11.1015 12.4828 11.0181 12.2842 11.0181 12.0537C11.0181 11.8231 11.1015 11.6244 11.2681 11.4577L16.0096 6.71623C16.1708 6.55507 16.3666 6.47449 16.5971 6.47449C16.8278 6.47449 17.0265 6.55507 17.1931 6.71623C17.3598 6.8829 17.4431 7.08149 17.4431 7.31199C17.4431 7.54249 17.3598 7.74107 17.1931 7.90774Z" fill="#141414"/>
</svg>
