<svg width="24" height="24" viewBox="0 0 24 24" fill="none" xmlns="http://www.w3.org/2000/svg">
<path d="M12.3672 20.3281C11.2786 20.3281 10.2526 20.1198 9.28906 19.7031C8.33073 19.2865 7.48438 18.7109 6.75 17.9766C6.01562 17.2422 5.4401 16.3958 5.02344 15.4375C4.60677 14.474 4.39844 13.4479 4.39844 12.3594C4.39844 11.2708 4.60677 10.2474 5.02344 9.28906C5.4401 8.32552 6.01302 7.47656 6.74219 6.74219C7.47656 6.00781 8.32292 5.43229 9.28125 5.01562C10.2448 4.59896 11.2708 4.39062 12.3594 4.39062C13.4479 4.39062 14.474 4.59896 15.4375 5.01562C16.401 5.43229 17.25 6.00781 17.9844 6.74219C18.7188 7.47656 19.2943 8.32552 19.7109 9.28906C20.1276 10.2474 20.3359 11.2708 20.3359 12.3594C20.3359 13.4479 20.1276 14.474 19.7109 15.4375C19.2943 16.3958 18.7188 17.2422 17.9844 17.9766C17.25 18.7109 16.401 19.2865 15.4375 19.7031C14.4792 20.1198 13.4557 20.3281 12.3672 20.3281ZM12.3672 19C13.2891 19 14.151 18.8281 14.9531 18.4844C15.7552 18.1406 16.4609 17.6667 17.0703 17.0625C17.6797 16.4531 18.1536 15.7474 18.4922 14.9453C18.8359 14.1432 19.0078 13.2812 19.0078 12.3594C19.0078 11.4375 18.8359 10.5755 18.4922 9.77344C18.1484 8.97135 17.6719 8.26562 17.0625 7.65625C16.4583 7.04688 15.7526 6.57292 14.9453 6.23438C14.1432 5.89062 13.2812 5.71875 12.3594 5.71875C11.4375 5.71875 10.5755 5.89062 9.77344 6.23438C8.97135 6.57292 8.26823 7.04688 7.66406 7.65625C7.0599 8.26562 6.58594 8.97135 6.24219 9.77344C5.90365 10.5755 5.73438 11.4375 5.73438 12.3594C5.73438 13.2812 5.90365 14.1432 6.24219 14.9453C6.58594 15.7474 7.0599 16.4531 7.66406 17.0625C8.27344 17.6667 8.97917 18.1406 9.78125 18.4844C10.5833 18.8281 11.4453 19 12.3672 19ZM12.3594 16.2734C11.8177 16.2734 11.3411 16.1771 10.9297 15.9844C10.5182 15.7865 10.1979 15.5625 9.96875 15.3125C9.74479 15.0573 9.63281 14.8438 9.63281 14.6719C9.63281 14.5781 9.66927 14.513 9.74219 14.4766C9.8151 14.4401 9.89323 14.4401 9.97656 14.4766C10.263 14.6328 10.5885 14.7839 10.9531 14.9297C11.3229 15.0703 11.7917 15.1406 12.3594 15.1406C12.9271 15.1406 13.3932 15.0703 13.7578 14.9297C14.1276 14.7839 14.4531 14.6328 14.7344 14.4766C14.8177 14.4401 14.8958 14.4401 14.9688 14.4766C15.0469 14.513 15.0859 14.5781 15.0859 14.6719C15.0859 14.8438 14.9714 15.0573 14.7422 15.3125C14.5182 15.5625 14.2005 15.7865 13.7891 15.9844C13.3776 16.1771 12.901 16.2734 12.3594 16.2734ZM10.0391 11.6641C9.79427 11.6641 9.58073 11.5651 9.39844 11.3672C9.21615 11.1641 9.125 10.9062 9.125 10.5938C9.125 10.2812 9.21615 10.0234 9.39844 9.82031C9.58073 9.61719 9.79427 9.51562 10.0391 9.51562C10.2891 9.51562 10.5078 9.61719 10.6953 9.82031C10.8828 10.0234 10.9766 10.2812 10.9766 10.5938C10.9766 10.9062 10.8828 11.1641 10.6953 11.3672C10.5078 11.5651 10.2891 11.6641 10.0391 11.6641ZM14.6719 11.6641C14.4271 11.6641 14.2135 11.5651 14.0312 11.3672C13.849 11.1641 13.7578 10.9062 13.7578 10.5938C13.7578 10.2812 13.849 10.0234 14.0312 9.82031C14.2135 9.61719 14.4271 9.51562 14.6719 9.51562C14.9219 9.51562 15.1406 9.61719 15.3281 9.82031C15.5156 10.0234 15.6094 10.2812 15.6094 10.5938C15.6094 10.9062 15.5156 11.1641 15.3281 11.3672C15.1406 11.5651 14.9219 11.6641 14.6719 11.6641Z" fill="#141414"/>
</svg>
