<svg width="24" height="24" viewBox="0 0 24 24" fill="none" xmlns="http://www.w3.org/2000/svg">
<path d="M10.8438 20.5234C10.6406 20.5234 10.4688 20.4661 10.3281 20.3516C10.1875 20.2422 10.0938 20.0859 10.0469 19.8828L9.64062 18.1641C9.48958 18.112 9.34115 18.0573 9.19531 18C9.04948 17.9427 8.91146 17.8828 8.78125 17.8203L7.28125 18.7422C7.10938 18.8464 6.93229 18.8906 6.75 18.875C6.57292 18.8594 6.41406 18.7812 6.27344 18.6406L5.27344 17.6406C5.13281 17.5 5.05208 17.3359 5.03125 17.1484C5.01562 16.9609 5.0651 16.7839 5.17969 16.6172L6.09375 15.125C6.03125 14.9896 5.97135 14.8516 5.91406 14.7109C5.85677 14.5703 5.80729 14.4297 5.76562 14.2891L4.03125 13.875C3.82812 13.8333 3.67188 13.7422 3.5625 13.6016C3.45312 13.4609 3.39844 13.2891 3.39844 13.0859V11.6719C3.39844 11.474 3.45312 11.3047 3.5625 11.1641C3.67188 11.0234 3.82812 10.9323 4.03125 10.8906L5.75 10.4766C5.79688 10.3151 5.84896 10.1641 5.90625 10.0234C5.96875 9.88281 6.02604 9.75 6.07812 9.625L5.16406 8.10938C5.04948 7.94271 5 7.77083 5.01562 7.59375C5.03125 7.41146 5.11198 7.25 5.25781 7.10938L6.27344 6.10156C6.41927 5.96615 6.57552 5.88802 6.74219 5.86719C6.91406 5.84635 7.08594 5.88542 7.25781 5.98438L8.77344 6.92188C8.90365 6.85417 9.04167 6.79167 9.1875 6.73438C9.33854 6.67188 9.48958 6.61458 9.64062 6.5625L10.0469 4.83594C10.0938 4.63802 10.1875 4.48177 10.3281 4.36719C10.4688 4.2526 10.6406 4.19531 10.8438 4.19531H12.2812C12.4844 4.19531 12.6562 4.2526 12.7969 4.36719C12.9375 4.48177 13.0286 4.63802 13.0703 4.83594L13.4766 6.57812C13.638 6.63021 13.7891 6.6849 13.9297 6.74219C14.0755 6.79948 14.2109 6.86198 14.3359 6.92969L15.8672 5.98438C16.0391 5.88542 16.2083 5.84896 16.375 5.875C16.5417 5.89583 16.6979 5.97135 16.8438 6.10156L17.8672 7.10938C18.013 7.25 18.0911 7.41146 18.1016 7.59375C18.1172 7.77083 18.0703 7.94271 17.9609 8.10938L17.0391 9.625C17.0911 9.75 17.1458 9.88281 17.2031 10.0234C17.2656 10.1641 17.3229 10.3151 17.375 10.4766L19.0938 10.8906C19.2917 10.9323 19.4453 11.0234 19.5547 11.1641C19.6693 11.3047 19.7266 11.474 19.7266 11.6719V13.0859C19.7266 13.2891 19.6693 13.4609 19.5547 13.6016C19.4453 13.7422 19.2917 13.8333 19.0938 13.875L17.3594 14.2891C17.3125 14.4297 17.2604 14.5703 17.2031 14.7109C17.151 14.8516 17.0911 14.9896 17.0234 15.125L17.9453 16.6172C18.0599 16.7839 18.1068 16.9609 18.0859 17.1484C18.0703 17.3359 17.9922 17.5 17.8516 17.6406L16.8438 18.6406C16.7031 18.7812 16.5417 18.8594 16.3594 18.875C16.1823 18.8906 16.0104 18.8464 15.8438 18.7422L14.3359 17.8203C14.2057 17.8828 14.0677 17.9427 13.9219 18C13.776 18.0573 13.6276 18.112 13.4766 18.1641L13.0703 19.8828C13.0286 20.0859 12.9375 20.2422 12.7969 20.3516C12.6562 20.4661 12.4844 20.5234 12.2812 20.5234H10.8438ZM11.5625 15.1172C12.0677 15.1172 12.5286 14.9922 12.9453 14.7422C13.3672 14.4922 13.7005 14.1589 13.9453 13.7422C14.1953 13.3203 14.3203 12.8568 14.3203 12.3516C14.3203 11.8464 14.1953 11.388 13.9453 10.9766C13.7005 10.5599 13.3672 10.2266 12.9453 9.97656C12.5286 9.72656 12.0677 9.60156 11.5625 9.60156C11.0573 9.60156 10.5964 9.72656 10.1797 9.97656C9.76302 10.2266 9.42969 10.5599 9.17969 10.9766C8.92969 11.388 8.80469 11.8464 8.80469 12.3516C8.80469 12.8568 8.92708 13.3203 9.17188 13.7422C9.42188 14.1589 9.75521 14.4922 10.1719 14.7422C10.5938 14.9922 11.0573 15.1172 11.5625 15.1172Z" fill="#141414"/>
</svg>
