<svg width="24" height="24" viewBox="0 0 24 24" fill="none" xmlns="http://www.w3.org/2000/svg">
<path d="M3.39844 14.1484C3.39844 13.2891 3.54948 12.5052 3.85156 11.7969C4.15365 11.0885 4.55729 10.5234 5.0625 10.1016C5.57292 9.67969 6.13802 9.46875 6.75781 9.46875H8.1875C8.63542 8.92188 9.04167 8.41146 9.40625 7.9375C9.77083 7.45833 10.1042 7 10.4062 6.5625C10.7135 6.11979 10.9948 5.6849 11.25 5.25781C11.5052 4.83073 11.7474 4.39844 11.9766 3.96094C12.2214 3.49219 12.4792 3.15625 12.75 2.95312C13.0208 2.74479 13.3411 2.64062 13.7109 2.64062C14.0495 2.64062 14.349 2.71875 14.6094 2.875C14.8698 3.02604 15.0755 3.23698 15.2266 3.50781C15.3776 3.77865 15.4531 4.09115 15.4531 4.44531C15.4531 4.82552 15.388 5.22135 15.2578 5.63281C15.1276 6.04427 14.9766 6.44531 14.8047 6.83594C14.638 7.22656 14.4896 7.58333 14.3594 7.90625C14.2344 8.22917 14.1719 8.49219 14.1719 8.69531C14.1719 8.76823 14.1979 8.82552 14.25 8.86719C14.3021 8.90365 14.3698 8.92188 14.4531 8.92188H17.3047C17.6797 8.92188 18.0182 9.01302 18.3203 9.19531C18.6224 9.3724 18.862 9.61458 19.0391 9.92188C19.2214 10.224 19.3125 10.5625 19.3125 10.9375C19.3125 11.401 19.2005 11.7969 18.9766 12.125C19.0495 12.2604 19.1068 12.4167 19.1484 12.5938C19.1901 12.7708 19.2109 12.9479 19.2109 13.125C19.2109 13.401 19.1641 13.6641 19.0703 13.9141C18.9766 14.1589 18.8411 14.3724 18.6641 14.5547C18.7786 14.8047 18.8359 15.0885 18.8359 15.4062C18.8359 16.0573 18.5677 16.5859 18.0312 16.9922C18.0573 17.0807 18.0755 17.1693 18.0859 17.2578C18.1016 17.3464 18.1094 17.4375 18.1094 17.5312C18.1094 17.9896 17.9557 18.3906 17.6484 18.7344C17.3464 19.0781 16.9323 19.3125 16.4062 19.4375C16.1354 19.5052 15.8021 19.5521 15.4062 19.5781C15.0156 19.6094 14.5859 19.625 14.1172 19.625H13.0703C12.3984 19.625 11.763 19.5521 11.1641 19.4062C10.5703 19.2604 10.026 19.0573 9.53125 18.7969H7.03906C6.53906 18.7969 6.07031 18.6745 5.63281 18.4297C5.19531 18.1849 4.80729 17.8464 4.46875 17.4141C4.13542 16.987 3.8724 16.4948 3.67969 15.9375C3.49219 15.375 3.39844 14.7786 3.39844 14.1484ZM7.79688 14.1094C7.79688 14.9531 8.01823 15.7057 8.46094 16.3672C8.90885 17.0234 9.53385 17.5391 10.3359 17.9141C11.1432 18.2891 12.0833 18.4766 13.1562 18.4766H14.125C14.5521 18.4766 14.9375 18.4635 15.2812 18.4375C15.6302 18.4167 15.9141 18.3776 16.1328 18.3203C16.4089 18.2474 16.612 18.1432 16.7422 18.0078C16.8776 17.8724 16.9453 17.7135 16.9453 17.5312C16.9453 17.4323 16.9323 17.3438 16.9062 17.2656C16.8854 17.1875 16.8281 17.0312 16.7344 16.7969C16.6979 16.7135 16.6901 16.638 16.7109 16.5703C16.737 16.5026 16.7917 16.4427 16.875 16.3906C17.4115 16.1146 17.6797 15.7865 17.6797 15.4062C17.6797 15.2708 17.6562 15.151 17.6094 15.0469C17.5625 14.9375 17.4896 14.7943 17.3906 14.6172C17.3385 14.4974 17.3281 14.3906 17.3594 14.2969C17.3906 14.1979 17.4531 14.112 17.5469 14.0391C17.7188 13.9089 17.8464 13.7682 17.9297 13.6172C18.013 13.4661 18.0547 13.3021 18.0547 13.125C18.0547 12.974 18.026 12.8359 17.9688 12.7109C17.9167 12.5807 17.8307 12.4271 17.7109 12.25C17.6536 12.1771 17.6276 12.1042 17.6328 12.0312C17.638 11.9531 17.6771 11.8828 17.75 11.8203C17.8958 11.6745 18 11.5365 18.0625 11.4062C18.125 11.276 18.1562 11.1198 18.1562 10.9375C18.1562 10.6927 18.0729 10.4896 17.9062 10.3281C17.7448 10.1615 17.5443 10.0781 17.3047 10.0781H14.6172C14.1693 10.0781 13.7891 9.95573 13.4766 9.71094C13.1693 9.46094 13.0156 9.1224 13.0156 8.69531C13.0156 8.39844 13.0781 8.07031 13.2031 7.71094C13.3333 7.34635 13.4818 6.97135 13.6484 6.58594C13.8203 6.20052 13.9714 5.82292 14.1016 5.45312C14.2318 5.08333 14.2969 4.7474 14.2969 4.44531C14.2969 4.23698 14.2448 4.07812 14.1406 3.96875C14.0417 3.85417 13.9141 3.79688 13.7578 3.79688C13.6172 3.79688 13.4922 3.84115 13.3828 3.92969C13.2786 4.01823 13.1562 4.20573 13.0156 4.49219C12.6406 5.24219 12.2266 5.94531 11.7734 6.60156C11.3255 7.25781 10.875 7.875 10.4219 8.45312C9.97396 9.02604 9.5599 9.5651 9.17969 10.0703C8.84115 10.5286 8.57031 10.9609 8.36719 11.3672C8.16406 11.7734 8.01823 12.1953 7.92969 12.6328C7.84115 13.0703 7.79688 13.5625 7.79688 14.1094ZM4.55469 14.1484C4.55469 14.7786 4.66927 15.3594 4.89844 15.8906C5.13281 16.4167 5.4375 16.8385 5.8125 17.1562C6.1875 17.474 6.59635 17.6328 7.03906 17.6328C7.20573 17.6328 7.3724 17.6328 7.53906 17.6328C7.70573 17.6328 7.8724 17.6328 8.03906 17.6328C7.59115 17.1641 7.24479 16.6302 7 16.0312C6.76042 15.4323 6.64062 14.7839 6.64062 14.0859C6.64062 13.4245 6.70312 12.8151 6.82812 12.2578C6.95833 11.6953 7.16146 11.151 7.4375 10.625C7.32292 10.625 7.20833 10.625 7.09375 10.625C6.97917 10.625 6.86719 10.625 6.75781 10.625C6.3724 10.625 6.01042 10.7839 5.67188 11.1016C5.33854 11.4193 5.06771 11.8438 4.85938 12.375C4.65625 12.9062 4.55469 13.4974 4.55469 14.1484Z" fill="#141414"/>
</svg>
