<svg width="24" height="24" viewBox="0 0 24 24" fill="none" xmlns="http://www.w3.org/2000/svg">
<path d="M3.65625 14.1328C3.65625 13.3307 3.79167 12.6068 4.0625 11.9609C4.33854 11.3151 4.70833 10.8047 5.17188 10.4297C5.64062 10.0495 6.16667 9.85938 6.75 9.85938H7.86719C7.64323 10.1406 7.41927 10.4844 7.19531 10.8906C6.97656 11.2917 6.79427 11.7578 6.64844 12.2891C6.5026 12.8151 6.42969 13.4036 6.42969 14.0547C6.42969 14.9349 6.58333 15.7474 6.89062 16.4922C7.20312 17.237 7.71094 17.8672 8.41406 18.3828H7.03906C6.39323 18.3828 5.8151 18.1875 5.30469 17.7969C4.79427 17.4115 4.39062 16.8984 4.09375 16.2578C3.80208 15.612 3.65625 14.9036 3.65625 14.1328ZM7.50781 14.0703C7.50781 13.4609 7.5599 12.9141 7.66406 12.4297C7.77344 11.9453 7.9375 11.4896 8.15625 11.0625C8.38021 10.6354 8.65885 10.2005 8.99219 9.75781C9.58073 8.97656 10.2318 8.1224 10.9453 7.19531C11.6589 6.26302 12.3047 5.23438 12.8828 4.10938C13.0339 3.81771 13.1901 3.58333 13.3516 3.40625C13.513 3.22917 13.7344 3.14062 14.0156 3.14062C14.3229 3.14062 14.5781 3.24219 14.7812 3.44531C14.9896 3.64323 15.0938 3.92448 15.0938 4.28906C15.0938 4.63281 15.026 5.0026 14.8906 5.39844C14.7604 5.79427 14.6094 6.1901 14.4375 6.58594C14.2656 6.98177 14.1146 7.35677 13.9844 7.71094C13.8542 8.0599 13.7891 8.36458 13.7891 8.625C13.7891 8.91667 13.8958 9.14583 14.1094 9.3125C14.3229 9.47917 14.6016 9.5625 14.9453 9.5625H17.6953C17.9557 9.5625 18.1875 9.625 18.3906 9.75C18.5938 9.86979 18.7552 10.0339 18.875 10.2422C18.9948 10.4505 19.0547 10.6797 19.0547 10.9297C19.0547 11.1484 19.0182 11.3438 18.9453 11.5156C18.8724 11.6875 18.776 11.8255 18.6562 11.9297C18.5365 12.0391 18.5286 12.1406 18.6328 12.2344C18.7318 12.3281 18.8099 12.4635 18.8672 12.6406C18.9245 12.8125 18.9531 12.9896 18.9531 13.1719C18.9531 13.4271 18.8958 13.6562 18.7812 13.8594C18.6719 14.0625 18.5312 14.2161 18.3594 14.3203C18.2188 14.3984 18.1953 14.5 18.2891 14.625C18.4714 14.8542 18.5625 15.1458 18.5625 15.5C18.5625 15.8073 18.474 16.0729 18.2969 16.2969C18.125 16.5156 17.9193 16.6745 17.6797 16.7734C17.5807 16.8099 17.5651 16.8828 17.6328 16.9922C17.6797 17.0755 17.7188 17.1719 17.75 17.2812C17.7865 17.3958 17.8047 17.5286 17.8047 17.6797C17.8047 18.0495 17.6797 18.3307 17.4297 18.5234C17.1849 18.7214 16.9115 18.8594 16.6094 18.9375C16.401 18.9948 16.112 19.0391 15.7422 19.0703C15.3724 19.1068 14.9349 19.125 14.4297 19.125H13.3672C12.4609 19.125 11.6458 18.9974 10.9219 18.7422C10.1979 18.487 9.58073 18.1302 9.07031 17.6719C8.5651 17.2135 8.17708 16.6771 7.90625 16.0625C7.64062 15.4479 7.50781 14.7839 7.50781 14.0703Z" fill="#141414"/>
</svg>
