<svg width="24" height="24" viewBox="0 0 24 24" fill="none" xmlns="http://www.w3.org/2000/svg">
<path d="M20.3125 9.33594C20.3125 10.1953 20.1615 10.9792 19.8594 11.6875C19.5573 12.3958 19.151 12.9609 18.6406 13.3828C18.1354 13.8047 17.5729 14.0156 16.9531 14.0156H15.5234C15.0755 14.5573 14.6693 15.0677 14.3047 15.5469C13.9401 16.026 13.6042 16.487 13.2969 16.9297C12.9948 17.3672 12.7135 17.7969 12.4531 18.2188C12.1979 18.6458 11.9557 19.0807 11.7266 19.5234C11.4818 19.9922 11.224 20.3281 10.9531 20.5312C10.6875 20.7396 10.3698 20.8438 10 20.8438C9.66146 20.8438 9.36198 20.7656 9.10156 20.6094C8.84115 20.4583 8.63542 20.2448 8.48438 19.9688C8.33333 19.6979 8.25781 19.388 8.25781 19.0391C8.25781 18.6589 8.32292 18.263 8.45312 17.8516C8.58333 17.4349 8.73177 17.0339 8.89844 16.6484C9.07031 16.2578 9.21875 15.901 9.34375 15.5781C9.47396 15.2552 9.53906 14.9922 9.53906 14.7891C9.53906 14.7161 9.51302 14.6615 9.46094 14.625C9.40885 14.5833 9.34115 14.5625 9.25781 14.5625H6.40625C6.03125 14.5625 5.6901 14.474 5.38281 14.2969C5.08073 14.1146 4.84115 13.8724 4.66406 13.5703C4.48698 13.263 4.39844 12.9193 4.39844 12.5391C4.39844 12.0755 4.51042 11.6823 4.73438 11.3594C4.66146 11.224 4.60156 11.0677 4.55469 10.8906C4.51302 10.7083 4.49219 10.5312 4.49219 10.3594C4.49219 10.0833 4.53906 9.82031 4.63281 9.57031C4.73177 9.32031 4.86979 9.10677 5.04688 8.92969C4.93229 8.67969 4.875 8.39583 4.875 8.07812C4.875 7.42708 5.14323 6.89583 5.67969 6.48438C5.65365 6.40104 5.63281 6.3151 5.61719 6.22656C5.60677 6.13802 5.60156 6.04688 5.60156 5.95312C5.60156 5.48958 5.7526 5.08854 6.05469 4.75C6.36198 4.40625 6.77865 4.17188 7.30469 4.04688C7.57552 3.97917 7.90625 3.92969 8.29688 3.89844C8.69271 3.86719 9.125 3.85156 9.59375 3.85156H10.6406C11.3125 3.85156 11.9453 3.92708 12.5391 4.07812C13.1328 4.22396 13.6797 4.42708 14.1797 4.6875H16.6719C17.1719 4.6875 17.6406 4.8099 18.0781 5.05469C18.5156 5.29948 18.901 5.63542 19.2344 6.0625C19.5729 6.48958 19.8359 6.98438 20.0234 7.54688C20.2161 8.10938 20.3125 8.70573 20.3125 9.33594ZM15.9141 9.375C15.9141 8.52604 15.6901 7.77344 15.2422 7.11719C14.7995 6.46094 14.1745 5.94531 13.3672 5.57031C12.5651 5.19531 11.6276 5.00521 10.5547 5H9.58594C9.15885 5 8.77083 5.01302 8.42188 5.03906C8.07812 5.0651 7.79427 5.10677 7.57031 5.16406C7.29948 5.23698 7.09635 5.34115 6.96094 5.47656C6.83073 5.61198 6.76562 5.77083 6.76562 5.95312C6.76562 6.04688 6.77604 6.13542 6.79688 6.21875C6.82292 6.29688 6.88021 6.45052 6.96875 6.67969C7.01042 6.76302 7.01823 6.84115 6.99219 6.91406C6.97135 6.98177 6.91927 7.03906 6.83594 7.08594C6.29948 7.36719 6.03125 7.69792 6.03125 8.07812C6.03125 8.21354 6.05469 8.33594 6.10156 8.44531C6.14844 8.54948 6.21875 8.6901 6.3125 8.86719C6.36979 8.98177 6.38281 9.08854 6.35156 9.1875C6.32031 9.28646 6.25781 9.36979 6.16406 9.4375C5.99219 9.57292 5.86198 9.71615 5.77344 9.86719C5.6901 10.0182 5.64844 10.1823 5.64844 10.3594C5.64844 10.5052 5.67708 10.6432 5.73438 10.7734C5.79167 10.8984 5.88021 11.0521 6 11.2344C6.05729 11.3073 6.08333 11.3828 6.07812 11.4609C6.07292 11.5339 6.03385 11.6016 5.96094 11.6641C5.8151 11.8099 5.71094 11.9479 5.64844 12.0781C5.58594 12.2083 5.55469 12.362 5.55469 12.5391C5.55469 12.7891 5.63542 12.9974 5.79688 13.1641C5.95833 13.3255 6.16146 13.4062 6.40625 13.4062H9.09375C9.54167 13.4062 9.91927 13.5312 10.2266 13.7812C10.5391 14.026 10.6953 14.362 10.6953 14.7891C10.6953 15.0859 10.6302 15.4167 10.5 15.7812C10.375 16.1406 10.2266 16.513 10.0547 16.8984C9.88802 17.2839 9.73958 17.6589 9.60938 18.0234C9.47917 18.3932 9.41406 18.7318 9.41406 19.0391C9.41406 19.2474 9.46354 19.4062 9.5625 19.5156C9.66667 19.6302 9.79688 19.6875 9.95312 19.6875C10.0885 19.6875 10.2109 19.6406 10.3203 19.5469C10.4297 19.4583 10.5547 19.2734 10.6953 18.9922C11.0703 18.2422 11.4818 17.5391 11.9297 16.8828C12.3828 16.2214 12.8333 15.6042 13.2812 15.0312C13.7344 14.4583 14.151 13.9193 14.5312 13.4141C14.8698 12.9557 15.1406 12.5234 15.3438 12.1172C15.5469 11.7109 15.6927 11.2891 15.7812 10.8516C15.8698 10.4141 15.9141 9.92188 15.9141 9.375ZM19.1562 9.33594C19.1562 8.70573 19.0391 8.1276 18.8047 7.60156C18.5755 7.07031 18.2708 6.64583 17.8906 6.32812C17.5156 6.01042 17.1094 5.85156 16.6719 5.85156C16.5052 5.85156 16.3385 5.85156 16.1719 5.85156C16.0052 5.85156 15.8385 5.85156 15.6719 5.85156C16.1198 6.3151 16.4635 6.84896 16.7031 7.45312C16.9479 8.05208 17.0703 8.70052 17.0703 9.39844C17.0703 10.0547 17.0052 10.6641 16.875 11.2266C16.75 11.7891 16.5495 12.3333 16.2734 12.8594C16.388 12.8594 16.5 12.8594 16.6094 12.8594C16.724 12.8594 16.8385 12.8594 16.9531 12.8594C17.3385 12.8594 17.6979 12.7005 18.0312 12.3828C18.3698 12.0651 18.6406 11.6406 18.8438 11.1094C19.0521 10.5729 19.1562 9.98177 19.1562 9.33594Z" fill="#141414"/>
</svg>
