<svg width="24" height="24" viewBox="0 0 24 24" fill="none" xmlns="http://www.w3.org/2000/svg">
<path d="M3.99219 9.14844C3.99219 8.45573 4.10156 7.82292 4.32031 7.25C4.54427 6.67188 4.85677 6.17188 5.25781 5.75C5.65885 5.32812 6.1276 5.0026 6.66406 4.77344C7.20573 4.54427 7.79167 4.42969 8.42188 4.42969C9.14583 4.42969 9.79427 4.58854 10.3672 4.90625C10.9401 5.22396 11.401 5.64583 11.75 6.17188C12.1042 5.64583 12.5651 5.22396 13.1328 4.90625C13.7057 4.58854 14.3542 4.42969 15.0781 4.42969C15.7135 4.42969 16.2995 4.54427 16.8359 4.77344C17.3776 5.0026 17.8464 5.32812 18.2422 5.75C18.6432 6.17188 18.9531 6.67188 19.1719 7.25C19.3958 7.82292 19.5078 8.45573 19.5078 9.14844C19.5078 10.2578 19.2135 11.3568 18.625 12.4453C18.0417 13.5286 17.2109 14.5859 16.1328 15.6172C15.0599 16.6432 13.7891 17.625 12.3203 18.5625C12.237 18.6146 12.1406 18.6615 12.0312 18.7031C11.9271 18.75 11.8333 18.7734 11.75 18.7734C11.6719 18.7734 11.5781 18.75 11.4688 18.7031C11.3646 18.6615 11.2708 18.6146 11.1875 18.5625C9.71875 17.625 8.44531 16.6432 7.36719 15.6172C6.28906 14.5859 5.45573 13.5286 4.86719 12.4453C4.28385 11.3568 3.99219 10.2578 3.99219 9.14844ZM5.25 9.14844C5.25 9.8724 5.42448 10.6068 5.77344 11.3516C6.1224 12.0911 6.59635 12.8177 7.19531 13.5312C7.79427 14.2448 8.47135 14.9271 9.22656 15.5781C9.98698 16.224 10.776 16.8177 11.5938 17.3594C11.6771 17.4219 11.7292 17.4531 11.75 17.4531C11.7708 17.4531 11.8255 17.4219 11.9141 17.3594C12.7318 16.8177 13.5182 16.224 14.2734 15.5781C15.0339 14.9271 15.7109 14.2448 16.3047 13.5312C16.9036 12.8177 17.3776 12.0911 17.7266 11.3516C18.0755 10.6068 18.25 9.8724 18.25 9.14844C18.25 8.45573 18.112 7.85156 17.8359 7.33594C17.5651 6.8151 17.1901 6.41146 16.7109 6.125C16.237 5.83333 15.6979 5.6875 15.0938 5.6875C14.6042 5.6875 14.1823 5.77604 13.8281 5.95312C13.4792 6.125 13.1771 6.34375 12.9219 6.60938C12.6719 6.86979 12.4583 7.1276 12.2812 7.38281C12.1667 7.53385 12.0729 7.63802 12 7.69531C11.9271 7.7526 11.8438 7.78125 11.75 7.78125C11.6562 7.78125 11.5703 7.75521 11.4922 7.70312C11.4193 7.64583 11.3281 7.53906 11.2188 7.38281C11.0521 7.1224 10.8438 6.86198 10.5938 6.60156C10.3438 6.34115 10.0391 6.125 9.67969 5.95312C9.32031 5.77604 8.89583 5.6875 8.40625 5.6875C7.80208 5.6875 7.26042 5.83333 6.78125 6.125C6.30729 6.41146 5.93229 6.8151 5.65625 7.33594C5.38542 7.85156 5.25 8.45573 5.25 9.14844Z" fill="#141414"/>
</svg>
