<svg width="24" height="24" viewBox="0 0 24 24" fill="none" xmlns="http://www.w3.org/2000/svg">
<path d="M12.3672 20.3281C11.2786 20.3281 10.2526 20.1198 9.28906 19.7031C8.33073 19.2865 7.48438 18.7109 6.75 17.9766C6.01562 17.2422 5.4401 16.3958 5.02344 15.4375C4.60677 14.474 4.39844 13.4479 4.39844 12.3594C4.39844 11.2708 4.60677 10.2474 5.02344 9.28906C5.4401 8.32552 6.01302 7.47656 6.74219 6.74219C7.47656 6.00781 8.32292 5.43229 9.28125 5.01562C10.2448 4.59896 11.2708 4.39062 12.3594 4.39062C13.4479 4.39062 14.474 4.59896 15.4375 5.01562C16.401 5.43229 17.25 6.00781 17.9844 6.74219C18.7188 7.47656 19.2943 8.32552 19.7109 9.28906C20.1276 10.2474 20.3359 11.2708 20.3359 12.3594C20.3359 13.4479 20.1276 14.474 19.7109 15.4375C19.2943 16.3958 18.7188 17.2422 17.9844 17.9766C17.25 18.7109 16.401 19.2865 15.4375 19.7031C14.4792 20.1198 13.4557 20.3281 12.3672 20.3281ZM10.9609 16.875H14.2344C14.401 16.875 14.5417 16.8229 14.6562 16.7188C14.7708 16.6094 14.8281 16.4714 14.8281 16.3047C14.8281 16.1484 14.7708 16.0156 14.6562 15.9062C14.5417 15.7917 14.401 15.7344 14.2344 15.7344H13.2422V11.6484C13.2422 11.4297 13.1875 11.2526 13.0781 11.1172C12.974 10.9818 12.8177 10.9141 12.6094 10.9141H11.0938C10.9323 10.9141 10.7943 10.9714 10.6797 11.0859C10.5651 11.1953 10.5078 11.3281 10.5078 11.4844C10.5078 11.651 10.5651 11.7891 10.6797 11.8984C10.7943 12.0026 10.9323 12.0547 11.0938 12.0547H11.9531V15.7344H10.9609C10.7943 15.7344 10.6536 15.7917 10.5391 15.9062C10.4245 16.0156 10.3672 16.1484 10.3672 16.3047C10.3672 16.4714 10.4245 16.6094 10.5391 16.7188C10.6536 16.8229 10.7943 16.875 10.9609 16.875ZM12.2969 9.57812C12.5938 9.57812 12.8411 9.47656 13.0391 9.27344C13.2422 9.0651 13.3438 8.8151 13.3438 8.52344C13.3438 8.22656 13.2422 7.97656 13.0391 7.77344C12.8411 7.5651 12.5938 7.46094 12.2969 7.46094C12.0052 7.46094 11.7552 7.5651 11.5469 7.77344C11.3438 7.97656 11.2422 8.22656 11.2422 8.52344C11.2422 8.8151 11.3438 9.0651 11.5469 9.27344C11.7552 9.47656 12.0052 9.57812 12.2969 9.57812Z" fill="#141414"/>
</svg>
