<svg width="24" height="24" viewBox="0 0 24 24" fill="none" xmlns="http://www.w3.org/2000/svg">
<circle cx="12" cy="12" r="11.25" fill="#141414" stroke="#A1A1A1" stroke-width="1.5"/>
<path d="M17.25 21.0933C16.8913 21.3004 16.7684 21.7591 16.9755 22.1178C17.1826 22.4765 17.6413 22.5994 18 22.3923L17.25 21.0933ZM22.3936 16.3052L23.0866 16.5922V16.5922L22.3936 16.3052ZM22.8667 9.08829L22.1422 9.2824V9.2824L22.8667 9.08829ZM18.8486 3.07478L19.3051 2.47976V2.47976L18.8486 3.07478ZM18 22.3923C20.2877 21.0715 22.0757 19.0327 23.0866 16.5922L21.7007 16.0182C20.8162 18.1536 19.2517 19.9376 17.25 21.0933L18 22.3923ZM23.0866 16.5922C24.0975 14.1517 24.2748 11.4458 23.5911 8.89417L22.1422 9.2824C22.7405 11.5151 22.5853 13.8827 21.7007 16.0182L23.0866 16.5922ZM23.5911 8.89417C22.9074 6.34257 21.4009 4.08787 19.3051 2.47976L18.392 3.66979C20.2258 5.07689 21.544 7.04975 22.1422 9.2824L23.5911 8.89417ZM19.3051 2.47976C17.2094 0.87165 14.6416 0 12 0V1.5C14.3114 1.5 16.5582 2.26269 18.392 3.66979L19.3051 2.47976Z" fill="white"/>
<path d="M11.9994 12.6977L8.80924 15.8877C8.70862 15.9884 8.59143 16.0384 8.45768 16.0375C8.32403 16.0366 8.20862 15.9858 8.11143 15.8852C8.01247 15.7845 7.96429 15.6686 7.9669 15.5375C7.9695 15.4064 8.01851 15.2931 8.11393 15.1977L11.3014 11.9997L8.11393 8.80177C8.01851 8.70635 7.9708 8.59307 7.9708 8.46192C7.9708 8.33088 8.01851 8.215 8.11393 8.11427C8.20945 8.01364 8.32403 7.96286 8.45768 7.96192C8.59143 7.96109 8.70862 8.00927 8.80924 8.10646L11.9994 11.3018L15.1947 8.10646C15.2919 8.00927 15.4074 7.96109 15.5411 7.96192C15.6748 7.96286 15.792 8.01364 15.8927 8.11427C15.9881 8.215 16.0345 8.33088 16.0319 8.46192C16.0293 8.59307 15.9803 8.70635 15.8849 8.80177L12.6974 11.9997L15.8849 15.1977C15.9803 15.2931 16.028 15.4064 16.028 15.5375C16.028 15.6686 15.9803 15.7845 15.8849 15.8852C15.7893 15.9858 15.6748 16.0366 15.5411 16.0375C15.4074 16.0384 15.2919 15.9884 15.1947 15.8877L11.9994 12.6977Z" fill="white"/>
</svg>
