<svg width="24" height="24" viewBox="0 0 24 24" fill="none" xmlns="http://www.w3.org/2000/svg">
<path d="M6.44531 20.2422C6.17969 20.2422 5.97135 20.151 5.82031 19.9688C5.66927 19.7917 5.59375 19.5703 5.59375 19.3047C5.59375 19.1589 5.61719 19 5.66406 18.8281C5.71615 18.6615 5.77083 18.4974 5.82812 18.3359L10.7188 4.99219C10.8438 4.64844 10.9948 4.39583 11.1719 4.23438C11.3542 4.07292 11.5573 3.99219 11.7812 3.99219C12.0052 3.99219 12.2057 4.07292 12.3828 4.23438C12.5651 4.39583 12.7188 4.64844 12.8438 4.99219L17.7266 18.3359C17.7839 18.4974 17.8359 18.6615 17.8828 18.8281C17.9349 19 17.9609 19.1589 17.9609 19.3047C17.9609 19.5703 17.8854 19.7917 17.7344 19.9688C17.5833 20.151 17.375 20.2422 17.1094 20.2422C16.9167 20.2422 16.7448 20.2031 16.5938 20.125C16.4479 20.0469 16.2786 19.9141 16.0859 19.7266L11.8906 15.5625C11.8438 15.5156 11.8073 15.4922 11.7812 15.4922C11.75 15.4922 11.7135 15.5156 11.6719 15.5625L7.46875 19.7266C7.27604 19.9141 7.10417 20.0469 6.95312 20.125C6.80729 20.2031 6.63802 20.2422 6.44531 20.2422Z" fill="#141414"/>
</svg>
