<svg width="24" height="24" viewBox="0 0 24 24" fill="none" xmlns="http://www.w3.org/2000/svg">
<path d="M5.75 19.8203C5.17708 19.8203 4.73958 19.6641 4.4375 19.3516C4.14062 19.0443 3.99219 18.5807 3.99219 17.9609V12.5781C3.99219 11.9635 4.14062 11.5026 4.4375 11.1953C4.73958 10.8828 5.17708 10.7266 5.75 10.7266H12.8984C13.4714 10.7266 13.9062 10.8828 14.2031 11.1953C14.5052 11.5026 14.6562 11.9635 14.6562 12.5781V17.9609C14.6562 18.5807 14.5052 19.0443 14.2031 19.3516C13.9062 19.6641 13.4714 19.8203 12.8984 19.8203H5.75ZM5.78906 18.6406H12.8594C13.0312 18.6406 13.1615 18.5885 13.25 18.4844C13.3438 18.3854 13.3906 18.2396 13.3906 18.0469V12.4922C13.3906 12.2995 13.3438 12.1536 13.25 12.0547C13.1615 11.9557 13.0312 11.9062 12.8594 11.9062H5.78906C5.6224 11.9062 5.49219 11.9557 5.39844 12.0547C5.30469 12.1536 5.25781 12.2995 5.25781 12.4922V18.0469C5.25781 18.2396 5.30469 18.3854 5.39844 18.4844C5.49219 18.5885 5.6224 18.6406 5.78906 18.6406ZM12.1406 11.3359V8.86719C12.1406 7.88802 12.3281 7.07552 12.7031 6.42969C13.0781 5.78385 13.5677 5.30208 14.1719 4.98438C14.776 4.66667 15.4193 4.50781 16.1016 4.50781C16.7839 4.50781 17.4271 4.66667 18.0312 4.98438C18.6354 5.30208 19.125 5.78385 19.5 6.42969C19.8802 7.07552 20.0703 7.88802 20.0703 8.86719V10.4375C20.0703 10.6823 20.0078 10.8594 19.8828 10.9688C19.763 11.0781 19.6198 11.1328 19.4531 11.1328C19.276 11.1328 19.1276 11.0755 19.0078 10.9609C18.888 10.8464 18.8281 10.6719 18.8281 10.4375V8.70312C18.8281 8.04688 18.7005 7.49479 18.4453 7.04688C18.1953 6.59896 17.862 6.26042 17.4453 6.03125C17.0339 5.80208 16.5859 5.6875 16.1016 5.6875C15.612 5.6875 15.1615 5.80208 14.75 6.03125C14.3385 6.26042 14.0052 6.59896 13.75 7.04688C13.5 7.49479 13.375 8.04688 13.375 8.70312V11.3359H12.1406Z" fill="#141414"/>
</svg>
