<svg width="24" height="24" viewBox="0 0 24 24" fill="none" xmlns="http://www.w3.org/2000/svg">
<path d="M6.375 11.7031V10.1172C6.375 9.95573 6.43229 9.81771 6.54688 9.70312C6.66146 9.58854 6.79948 9.53125 6.96094 9.53125C7.1276 9.53125 7.26823 9.58854 7.38281 9.70312C7.4974 9.81771 7.55469 9.95573 7.55469 10.1172V11.6562C7.55469 12.5417 7.73698 13.3177 8.10156 13.9844C8.46615 14.651 8.97917 15.1693 9.64062 15.5391C10.3021 15.9036 11.0781 16.0859 11.9688 16.0859C12.8594 16.0859 13.6328 15.9036 14.2891 15.5391C14.9505 15.1693 15.4635 14.651 15.8281 13.9844C16.1927 13.3177 16.375 12.5417 16.375 11.6562V10.1172C16.375 9.95573 16.4323 9.81771 16.5469 9.70312C16.6615 9.58854 16.8021 9.53125 16.9688 9.53125C17.1302 9.53125 17.2682 9.58854 17.3828 9.70312C17.4974 9.81771 17.5547 9.95573 17.5547 10.1172V11.7031C17.5547 12.724 17.3438 13.6302 16.9219 14.4219C16.5052 15.2135 15.9219 15.849 15.1719 16.3281C14.4219 16.8021 13.5495 17.0807 12.5547 17.1641V18.9844H15.4531C15.6198 18.9844 15.7604 19.0417 15.875 19.1562C15.9896 19.2708 16.0469 19.4115 16.0469 19.5781C16.0469 19.7396 15.9896 19.8776 15.875 19.9922C15.7604 20.1068 15.6198 20.1641 15.4531 20.1641H8.47656C8.3099 20.1641 8.16927 20.1068 8.05469 19.9922C7.9401 19.8776 7.88281 19.7396 7.88281 19.5781C7.88281 19.4115 7.9401 19.2708 8.05469 19.1562C8.16927 19.0417 8.3099 18.9844 8.47656 18.9844H11.375V17.1641C10.3802 17.0807 9.50781 16.8021 8.75781 16.3281C8.00781 15.849 7.42188 15.2135 7 14.4219C6.58333 13.6302 6.375 12.724 6.375 11.7031ZM9.125 11.4219V6.50781C9.125 5.90885 9.24479 5.38021 9.48438 4.92188C9.72396 4.45833 10.0573 4.09635 10.4844 3.83594C10.9115 3.57552 11.4062 3.44531 11.9688 3.44531C12.526 3.44531 13.0182 3.57552 13.4453 3.83594C13.8724 4.09635 14.2057 4.45833 14.4453 4.92188C14.6849 5.38021 14.8047 5.90885 14.8047 6.50781V11.4219C14.8047 12.0208 14.6849 12.5521 14.4453 13.0156C14.2057 13.474 13.8724 13.8333 13.4453 14.0938C13.0182 14.3542 12.526 14.4844 11.9688 14.4844C11.4062 14.4844 10.9115 14.3542 10.4844 14.0938C10.0573 13.8333 9.72396 13.474 9.48438 13.0156C9.24479 12.5521 9.125 12.0208 9.125 11.4219ZM10.3047 11.4219C10.3047 12 10.4557 12.4609 10.7578 12.8047C11.0651 13.1484 11.4688 13.3203 11.9688 13.3203C12.4688 13.3203 12.8698 13.1484 13.1719 12.8047C13.474 12.4609 13.625 12 13.625 11.4219V6.50781C13.625 5.92969 13.474 5.46875 13.1719 5.125C12.8698 4.78125 12.4688 4.60938 11.9688 4.60938C11.4688 4.60938 11.0651 4.78125 10.7578 5.125C10.4557 5.46875 10.3047 5.92969 10.3047 6.50781V11.4219Z" fill="#141414"/>
</svg>
