<svg width="24" height="24" viewBox="0 0 24 24" fill="none" xmlns="http://www.w3.org/2000/svg">
<path d="M21.834 6.85469V17.9337C21.834 18.2019 21.7531 18.4002 21.5913 18.5287C21.4294 18.657 21.2509 18.7212 21.0558 18.7212C20.8496 18.7212 20.6639 18.6544 20.4988 18.5207C20.3334 18.387 20.2508 18.19 20.2508 17.9297V6.85469H16.755C16.5169 6.85469 16.2934 6.81094 16.0845 6.72344C15.8759 6.63594 15.6979 6.50052 15.5508 6.31719L14.2215 4.75044H9.78828L9.07153 5.59619C8.92437 5.77402 8.7362 5.8671 8.50703 5.87544C8.27787 5.88377 8.0787 5.80344 7.90953 5.63444C7.76203 5.48677 7.6827 5.30944 7.67153 5.10244C7.66053 4.89527 7.72587 4.71402 7.86753 4.55869L8.58003 3.71719C8.7207 3.53585 8.89687 3.39885 9.10853 3.30619C9.3202 3.21352 9.54678 3.16719 9.78828 3.16719H14.2193C14.4564 3.16719 14.6809 3.21352 14.8928 3.30619C15.1046 3.39885 15.2837 3.53585 15.43 3.71719L16.7508 5.27119H20.2508C20.6668 5.27119 21.0347 5.43111 21.3545 5.75094C21.6742 6.07077 21.834 6.43869 21.834 6.85469ZM3.75078 20.8337C3.32361 20.8337 2.95295 20.6766 2.63878 20.3624C2.32461 20.0483 2.16753 19.6776 2.16753 19.2504V6.85469C2.16753 6.43869 2.32461 6.07077 2.63878 5.75094C2.95295 5.43111 3.32361 5.27119 3.75078 5.27119H5.28828L6.87153 6.85469H3.75078V19.2504H19.259L20.8425 20.8337H3.75078ZM15.5008 15.4922C15.1174 16.0449 14.6246 16.4844 14.0223 16.8109C13.4201 17.1373 12.7458 17.3004 11.9993 17.3004C10.7864 17.3004 9.77445 16.8909 8.96328 16.0717C8.15212 15.2524 7.74653 14.2415 7.74653 13.0392C7.74653 12.2959 7.90712 11.6189 8.22828 11.0082C8.54928 10.3975 8.98595 9.90185 9.53828 9.52119L10.6925 10.6837C10.2785 10.9107 9.94795 11.2306 9.70078 11.6434C9.45362 12.0564 9.33003 12.5233 9.33003 13.0439C9.33003 13.8004 9.58362 14.4351 10.0908 14.9479C10.5979 15.4608 11.234 15.7172 11.999 15.7172C12.5154 15.7172 12.9815 15.5935 13.3975 15.3462C13.8135 15.099 14.1354 14.7657 14.3633 14.3462L15.5008 15.4922ZM15.0298 10.0129C15.4133 10.3963 15.7147 10.8438 15.934 11.3554C16.1535 11.8671 16.2633 12.4279 16.2633 13.0379C16.2633 13.1963 16.2577 13.3449 16.2465 13.4837C16.2355 13.6227 16.2119 13.7616 16.1758 13.9004L11.1465 8.86294C11.2827 8.83794 11.4202 8.81852 11.559 8.80469C11.698 8.79069 11.8453 8.78369 12.0008 8.78369C12.5976 8.78369 13.1551 8.89344 13.6733 9.11294C14.1916 9.33244 14.6438 9.63244 15.0298 10.0129ZM20.109 22.3462L1.42153 3.67119C1.2577 3.51219 1.17578 3.32385 1.17578 3.10619C1.17578 2.88852 1.25661 2.70052 1.41828 2.54219C1.57995 2.38385 1.76953 2.30469 1.98703 2.30469C2.20453 2.30469 2.39295 2.38427 2.55228 2.54344L21.2465 21.2297C21.4049 21.3889 21.484 21.5746 21.484 21.7869C21.484 21.9993 21.4046 22.1865 21.2458 22.3487C21.0809 22.511 20.8899 22.5922 20.6725 22.5922C20.4552 22.5922 20.2674 22.5102 20.109 22.3462Z" fill="#141414"/>
</svg>
