<svg width="24" height="24" viewBox="0 0 24 24" fill="none" xmlns="http://www.w3.org/2000/svg">
<path d="M12.9766 20.9219C12.612 20.9219 12.349 20.7917 12.1875 20.5312C12.026 20.2708 11.888 19.9453 11.7734 19.5547L10.5312 15.4297C10.4583 15.1693 10.4323 14.9609 10.4531 14.8047C10.474 14.6432 10.5599 14.4818 10.7109 14.3203L18.6875 5.71875C18.7344 5.67188 18.7578 5.61979 18.7578 5.5625C18.7578 5.50521 18.737 5.45833 18.6953 5.42188C18.6536 5.38542 18.6042 5.36719 18.5469 5.36719C18.4948 5.36198 18.4453 5.38281 18.3984 5.42969L9.82812 13.4375C9.65625 13.5938 9.48958 13.6823 9.32812 13.7031C9.16667 13.7188 8.96094 13.6875 8.71094 13.6094L4.49219 12.3281C4.11719 12.2135 3.80729 12.0781 3.5625 11.9219C3.31771 11.7604 3.19531 11.5 3.19531 11.1406C3.19531 10.8594 3.30729 10.6172 3.53125 10.4141C3.75521 10.2109 4.03125 10.0469 4.35938 9.92188L17.7969 4.77344C17.9792 4.70573 18.1484 4.65365 18.3047 4.61719C18.4661 4.57552 18.612 4.55469 18.7422 4.55469C18.9974 4.55469 19.1979 4.6276 19.3438 4.77344C19.4896 4.91927 19.5625 5.11979 19.5625 5.375C19.5625 5.51042 19.5417 5.65625 19.5 5.8125C19.4635 5.96875 19.4115 6.13802 19.3438 6.32031L14.2266 19.6875C14.0807 20.0625 13.9062 20.362 13.7031 20.5859C13.5 20.8099 13.2578 20.9219 12.9766 20.9219Z" fill="#141414"/>
</svg>
