<svg width="24" height="24" viewBox="0 0 24 24" fill="none" xmlns="http://www.w3.org/2000/svg">
<path d="M8.03125 18.7266C7.6875 18.7266 7.42708 18.638 7.25 18.4609C7.07812 18.2839 6.99219 18.0234 6.99219 17.6797V7.03906C6.99219 6.70052 7.07812 6.44271 7.25 6.26562C7.42708 6.08854 7.6875 6 8.03125 6H9.8125C10.151 6 10.4089 6.08594 10.5859 6.25781C10.763 6.42448 10.8516 6.6849 10.8516 7.03906V17.6797C10.8516 18.0234 10.763 18.2839 10.5859 18.4609C10.4089 18.638 10.151 18.7266 9.8125 18.7266H8.03125ZM13.7109 18.7266C13.3672 18.7266 13.1068 18.638 12.9297 18.4609C12.7526 18.2839 12.6641 18.0234 12.6641 17.6797V7.03906C12.6641 6.70052 12.7526 6.44271 12.9297 6.26562C13.1068 6.08854 13.3672 6 13.7109 6H15.4844C15.8281 6 16.0859 6.08594 16.2578 6.25781C16.4349 6.42448 16.5234 6.6849 16.5234 7.03906V17.6797C16.5234 18.0234 16.4349 18.2839 16.2578 18.4609C16.0859 18.638 15.8281 18.7266 15.4844 18.7266H13.7109Z" fill="#141414"/>
</svg>
