<svg width="24" height="24" viewBox="0 0 24 24" fill="none" xmlns="http://www.w3.org/2000/svg">
<path d="M12.3672 19.3281C11.2786 19.3281 10.2526 19.1198 9.28906 18.7031C8.33073 18.2865 7.48438 17.7109 6.75 16.9766C6.01562 16.2422 5.4401 15.3958 5.02344 14.4375C4.60677 13.474 4.39844 12.4479 4.39844 11.3594C4.39844 10.2708 4.60677 9.2474 5.02344 8.28906C5.4401 7.32552 6.01302 6.47656 6.74219 5.74219C7.47656 5.00781 8.32292 4.43229 9.28125 4.01562C10.2448 3.59896 11.2708 3.39062 12.3594 3.39062C13.4479 3.39062 14.474 3.59896 15.4375 4.01562C16.401 4.43229 17.25 5.00781 17.9844 5.74219C18.7188 6.47656 19.2943 7.32552 19.7109 8.28906C20.1276 9.2474 20.3359 10.2708 20.3359 11.3594C20.3359 12.4479 20.1276 13.474 19.7109 14.4375C19.2943 15.3958 18.7188 16.2422 17.9844 16.9766C17.25 17.7109 16.401 18.2865 15.4375 18.7031C14.4792 19.1198 13.4557 19.3281 12.3672 19.3281ZM12.3672 18C13.2891 18 14.151 17.8281 14.9531 17.4844C15.7552 17.1406 16.4609 16.6667 17.0703 16.0625C17.6797 15.4531 18.1536 14.7474 18.4922 13.9453C18.8359 13.1432 19.0078 12.2812 19.0078 11.3594C19.0078 10.4375 18.8359 9.57552 18.4922 8.77344C18.1484 7.97135 17.6719 7.26562 17.0625 6.65625C16.4583 6.04688 15.7526 5.57292 14.9453 5.23438C14.1432 4.89062 13.2812 4.71875 12.3594 4.71875C11.4375 4.71875 10.5755 4.89062 9.77344 5.23438C8.97135 5.57292 8.26823 6.04688 7.66406 6.65625C7.0599 7.26562 6.58594 7.97135 6.24219 8.77344C5.90365 9.57552 5.73438 10.4375 5.73438 11.3594C5.73438 12.2812 5.90365 13.1432 6.24219 13.9453C6.58594 14.7474 7.0599 15.4531 7.66406 16.0625C8.27344 16.6667 8.97917 17.1406 9.78125 17.4844C10.5833 17.8281 11.4453 18 12.3672 18ZM17.7109 16.5078C17.237 16.9714 16.6797 17.3672 16.0391 17.6953C15.4036 18.0234 14.7604 18.2734 14.1094 18.4453C13.4583 18.6224 12.8776 18.7109 12.3672 18.7109C11.862 18.7109 11.2812 18.6224 10.625 18.4453C9.97396 18.2734 9.32812 18.0234 8.6875 17.6953C8.04688 17.3672 7.49219 16.9714 7.02344 16.5078L7.04688 16.4141C7.17708 16.0339 7.48177 15.6589 7.96094 15.2891C8.4401 14.9193 9.05469 14.6146 9.80469 14.375C10.5599 14.1354 11.4141 14.0156 12.3672 14.0156C13.3255 14.0156 14.1797 14.1354 14.9297 14.375C15.6849 14.6146 16.2995 14.9193 16.7734 15.2891C17.2526 15.6589 17.5573 16.0365 17.6875 16.4219L17.7109 16.5078ZM12.3672 12.6875C11.8672 12.6823 11.4141 12.5521 11.0078 12.2969C10.6068 12.0365 10.2865 11.6849 10.0469 11.2422C9.8125 10.7995 9.69271 10.2995 9.6875 9.74219C9.68229 9.21615 9.79948 8.73438 10.0391 8.29688C10.2786 7.85938 10.6016 7.51042 11.0078 7.25C11.4141 6.98438 11.8672 6.85156 12.3672 6.85156C12.8672 6.85156 13.3177 6.98438 13.7188 7.25C14.125 7.51042 14.4479 7.85938 14.6875 8.29688C14.9271 8.73438 15.0469 9.21615 15.0469 9.74219C15.0469 10.2995 14.9271 10.8021 14.6875 11.25C14.4531 11.6979 14.1328 12.0521 13.7266 12.3125C13.3203 12.5677 12.8672 12.6927 12.3672 12.6875Z" fill="#141414"/>
</svg>
