<svg width="24" height="24" viewBox="0 0 24 24" fill="none" xmlns="http://www.w3.org/2000/svg">
<path d="M6.90625 19.5938C5.63021 19.5938 4.99219 19.1771 4.99219 18.3438C4.99219 17.8333 5.14844 17.2891 5.46094 16.7109C5.77344 16.1328 6.22396 15.5885 6.8125 15.0781C7.40625 14.5625 8.1224 14.1432 8.96094 13.8203C9.80469 13.4974 10.7578 13.3359 11.8203 13.3359C12.8776 13.3359 13.8255 13.4974 14.6641 13.8203C15.5078 14.1432 16.224 14.5625 16.8125 15.0781C17.4062 15.5885 17.8594 16.1328 18.1719 16.7109C18.4844 17.2891 18.6406 17.8333 18.6406 18.3438C18.6406 19.1771 18.0026 19.5938 16.7266 19.5938H6.90625ZM6.53906 18.4141H17.1016C17.2005 18.4141 17.2708 18.3984 17.3125 18.3672C17.3594 18.3359 17.3828 18.2786 17.3828 18.1953C17.3828 17.8724 17.2604 17.5026 17.0156 17.0859C16.776 16.6693 16.4193 16.2656 15.9453 15.875C15.4714 15.4844 14.888 15.1615 14.1953 14.9062C13.5078 14.6458 12.7161 14.5156 11.8203 14.5156C10.9245 14.5156 10.1302 14.6458 9.4375 14.9062C8.74479 15.1615 8.16146 15.4844 7.6875 15.875C7.21354 16.2656 6.85417 16.6693 6.60938 17.0859C6.36979 17.5026 6.25 17.8724 6.25 18.1953C6.25 18.2786 6.27083 18.3359 6.3125 18.3672C6.35938 18.3984 6.4349 18.4141 6.53906 18.4141ZM11.8203 12.3594C11.2005 12.3594 10.6354 12.1953 10.125 11.8672C9.61458 11.5391 9.20573 11.099 8.89844 10.5469C8.59635 9.98958 8.44531 9.3776 8.44531 8.71094C8.44531 8.04948 8.59635 7.44792 8.89844 6.90625C9.20573 6.36458 9.61458 5.93229 10.125 5.60938C10.6354 5.28646 11.2005 5.125 11.8203 5.125C12.4453 5.125 13.013 5.28385 13.5234 5.60156C14.0339 5.91927 14.4401 6.34896 14.7422 6.89062C15.0443 7.42708 15.1953 8.02865 15.1953 8.69531C15.1953 9.36719 15.0417 9.98177 14.7344 10.5391C14.4323 11.0911 14.026 11.5339 13.5156 11.8672C13.0052 12.1953 12.4401 12.3594 11.8203 12.3594ZM11.8203 11.1797C12.2057 11.1797 12.5573 11.0703 12.875 10.8516C13.1979 10.6276 13.4557 10.3281 13.6484 9.95312C13.8411 9.57292 13.9375 9.15365 13.9375 8.69531C13.9375 8.24219 13.8411 7.83594 13.6484 7.47656C13.4609 7.11198 13.2057 6.82552 12.8828 6.61719C12.5651 6.40885 12.2109 6.30469 11.8203 6.30469C11.4349 6.30469 11.0807 6.41146 10.7578 6.625C10.4401 6.83333 10.1849 7.11979 9.99219 7.48438C9.79948 7.84896 9.70312 8.25781 9.70312 8.71094C9.70312 9.16927 9.79948 9.58594 9.99219 9.96094C10.1901 10.3359 10.4479 10.6328 10.7656 10.8516C11.0885 11.0703 11.4401 11.1797 11.8203 11.1797Z" fill="#141414"/>
</svg>
