<svg width="24" height="24" viewBox="0 0 24 24" fill="none" xmlns="http://www.w3.org/2000/svg">
<path d="M12.3672 19.3281C11.2786 19.3281 10.2526 19.1198 9.28906 18.7031C8.33073 18.2865 7.48438 17.7109 6.75 16.9766C6.01562 16.2422 5.4401 15.3958 5.02344 14.4375C4.60677 13.474 4.39844 12.4479 4.39844 11.3594C4.39844 10.2708 4.60677 9.2474 5.02344 8.28906C5.4401 7.32552 6.01302 6.47656 6.74219 5.74219C7.47656 5.00781 8.32292 4.43229 9.28125 4.01562C10.2448 3.59896 11.2708 3.39062 12.3594 3.39062C13.4479 3.39062 14.474 3.59896 15.4375 4.01562C16.401 4.43229 17.25 5.00781 17.9844 5.74219C18.7188 6.47656 19.2943 7.32552 19.7109 8.28906C20.1276 9.2474 20.3359 10.2708 20.3359 11.3594C20.3359 12.4479 20.1276 13.474 19.7109 14.4375C19.2943 15.3958 18.7188 16.2422 17.9844 16.9766C17.25 17.7109 16.401 18.2865 15.4375 18.7031C14.4792 19.1198 13.4557 19.3281 12.3672 19.3281ZM12.3672 18.1406C12.9609 18.1406 13.5495 18.0599 14.1328 17.8984C14.7214 17.7422 15.2734 17.513 15.7891 17.2109C16.3047 16.9141 16.763 16.5547 17.1641 16.1328C16.8828 15.6849 16.4974 15.3047 16.0078 14.9922C15.5234 14.6745 14.9688 14.4349 14.3438 14.2734C13.724 14.1068 13.0651 14.0234 12.3672 14.0234C11.6589 14.0234 10.9922 14.1068 10.3672 14.2734C9.74219 14.4401 9.1875 14.6823 8.70312 15C8.22396 15.3125 7.84375 15.6901 7.5625 16.1328C7.96354 16.5547 8.42188 16.9141 8.9375 17.2109C9.45833 17.513 10.0104 17.7422 10.5938 17.8984C11.1771 18.0599 11.7682 18.1406 12.3672 18.1406ZM12.3672 12.6953C12.8672 12.7005 13.3177 12.5755 13.7188 12.3203C14.125 12.0599 14.4479 11.7057 14.6875 11.2578C14.9271 10.8099 15.0469 10.3073 15.0469 9.75C15.0469 9.22396 14.9271 8.74219 14.6875 8.30469C14.4479 7.86719 14.125 7.51823 13.7188 7.25781C13.3125 6.99219 12.862 6.85938 12.3672 6.85938C11.8672 6.85938 11.4141 6.99219 11.0078 7.25781C10.6016 7.51823 10.2786 7.86719 10.0391 8.30469C9.79948 8.74219 9.68229 9.22396 9.6875 9.75C9.6875 10.3073 9.80469 10.8073 10.0391 11.25C10.2786 11.6927 10.599 12.0443 11 12.3047C11.4062 12.5599 11.862 12.6901 12.3672 12.6953Z" fill="#141414"/>
</svg>
