<svg width="24" height="24" viewBox="0 0 24 24" fill="none" xmlns="http://www.w3.org/2000/svg">
<path d="M7.75781 15.8984C7.00781 15.1484 6.33333 14.3594 5.73438 13.5312C5.13542 12.7031 4.66146 11.8776 4.3125 11.0547C3.96875 10.2266 3.79688 9.4375 3.79688 8.6875C3.79688 8.1875 3.88281 7.71875 4.05469 7.28125C4.23177 6.83854 4.51042 6.4349 4.89062 6.07031C5.35417 5.61719 5.85677 5.39062 6.39844 5.39062C6.60677 5.39062 6.80469 5.4349 6.99219 5.52344C7.17969 5.60677 7.34115 5.74219 7.47656 5.92969L9.15625 8.29688C9.28646 8.47917 9.38281 8.64844 9.44531 8.80469C9.50781 8.96094 9.53906 9.10938 9.53906 9.25C9.53906 9.42708 9.48958 9.59896 9.39062 9.76562C9.29688 9.93229 9.16146 10.1042 8.98438 10.2812L8.4375 10.8516C8.35938 10.9297 8.32031 11.026 8.32031 11.1406C8.32031 11.1979 8.32812 11.2552 8.34375 11.3125C8.36458 11.3646 8.38542 11.4115 8.40625 11.4531C8.53125 11.6927 8.75521 12.0026 9.07812 12.3828C9.40104 12.763 9.7526 13.1458 10.1328 13.5312C10.5182 13.9167 10.901 14.2708 11.2812 14.5938C11.6615 14.9115 11.9714 15.1354 12.2109 15.2656C12.2526 15.2812 12.2995 15.2995 12.3516 15.3203C12.4089 15.3411 12.4688 15.3516 12.5312 15.3516C12.6458 15.3516 12.7448 15.3099 12.8281 15.2266L13.3828 14.6797C13.5599 14.5026 13.7318 14.3672 13.8984 14.2734C14.0651 14.1745 14.237 14.125 14.4141 14.125C14.5547 14.125 14.7031 14.1562 14.8594 14.2188C15.0156 14.2812 15.1849 14.375 15.3672 14.5L17.7578 16.2031C17.9453 16.3333 18.0781 16.4896 18.1562 16.6719C18.2396 16.849 18.2812 17.0365 18.2812 17.2344C18.2812 17.5 18.2188 17.763 18.0938 18.0234C17.974 18.2891 17.8125 18.5365 17.6094 18.7656C17.2552 19.1562 16.8594 19.4427 16.4219 19.625C15.9844 19.8073 15.513 19.8984 15.0078 19.8984C14.263 19.8984 13.474 19.7214 12.6406 19.3672C11.8073 19.013 10.974 18.5339 10.1406 17.9297C9.30729 17.3255 8.51302 16.6484 7.75781 15.8984ZM12.7031 11.6328C12.5365 11.6328 12.3958 11.5807 12.2812 11.4766C12.1719 11.3724 12.1172 11.2422 12.1172 11.0859C12.1172 10.9245 12.1797 10.7812 12.3047 10.6562L15.6719 7.28125L16.9844 6.08594L14.6875 6.21094H13.5C13.349 6.21094 13.2188 6.16146 13.1094 6.0625C13.0052 5.95833 12.9505 5.83073 12.9453 5.67969C12.9349 5.51823 12.9844 5.38021 13.0938 5.26562C13.2083 5.15104 13.3438 5.09375 13.5 5.09375H18.0391C18.2474 5.09375 18.401 5.14583 18.5 5.25C18.6042 5.35417 18.6562 5.51042 18.6562 5.71875V10.2422C18.6562 10.4036 18.599 10.5391 18.4844 10.6484C18.3698 10.7578 18.2344 10.8073 18.0781 10.7969C17.9219 10.7917 17.7917 10.737 17.6875 10.6328C17.5885 10.5234 17.5391 10.3932 17.5391 10.2422V9.07812L17.6719 6.78906L16.4688 8.08594L13.1094 11.4609C12.9948 11.5755 12.8594 11.6328 12.7031 11.6328Z" fill="#141414"/>
</svg>
