<svg width="24" height="24" viewBox="0 0 24 24" fill="none" xmlns="http://www.w3.org/2000/svg">
<path d="M12.3672 20.3359C11.2786 20.3359 10.2526 20.1276 9.28906 19.7109C8.33073 19.2943 7.48438 18.7188 6.75 17.9844C6.01562 17.25 5.4401 16.4036 5.02344 15.4453C4.60677 14.4818 4.39844 13.4557 4.39844 12.3672C4.39844 11.2786 4.60677 10.2552 5.02344 9.29688C5.4401 8.33333 6.01302 7.48438 6.74219 6.75C7.47656 6.01562 8.32292 5.4401 9.28125 5.02344C10.2448 4.60677 11.2708 4.39844 12.3594 4.39844C13.4479 4.39844 14.474 4.60677 15.4375 5.02344C16.401 5.4401 17.25 6.01562 17.9844 6.75C18.7188 7.48438 19.2943 8.33333 19.7109 9.29688C20.1276 10.2552 20.3359 11.2786 20.3359 12.3672C20.3359 13.4557 20.1276 14.4818 19.7109 15.4453C19.2943 16.4036 18.7188 17.25 17.9844 17.9844C17.25 18.7188 16.401 19.2943 15.4375 19.7109C14.4792 20.1276 13.4557 20.3359 12.3672 20.3359ZM10.4062 14.2578C10.8802 14.7266 11.375 15.1432 11.8906 15.5078C12.4062 15.8672 12.9193 16.1406 13.4297 16.3281C13.9401 16.5104 14.4245 16.5781 14.8828 16.5312C15.3411 16.4792 15.7474 16.276 16.1016 15.9219C16.1276 15.8958 16.151 15.8698 16.1719 15.8438C16.1927 15.8177 16.2135 15.7917 16.2344 15.7656C16.4167 15.5573 16.5208 15.3307 16.5469 15.0859C16.5729 14.8411 16.4688 14.6302 16.2344 14.4531C16.1094 14.3646 15.9766 14.2734 15.8359 14.1797C15.7005 14.0807 15.5495 13.9714 15.3828 13.8516C15.2161 13.7318 15.0234 13.5964 14.8047 13.4453C14.5651 13.2786 14.3594 13.2109 14.1875 13.2422C14.0156 13.2682 13.8385 13.3724 13.6562 13.5547L13.3438 13.875C13.2969 13.9167 13.237 13.9375 13.1641 13.9375C13.0964 13.9323 13.0339 13.9141 12.9766 13.8828C12.8359 13.7995 12.6562 13.6693 12.4375 13.4922C12.224 13.3151 12.0026 13.112 11.7734 12.8828C11.5547 12.6641 11.3542 12.4427 11.1719 12.2188C10.9896 11.9948 10.8594 11.8151 10.7812 11.6797C10.7552 11.6328 10.737 11.5781 10.7266 11.5156C10.7214 11.4531 10.7448 11.3932 10.7969 11.3359L11.1094 11.0078C11.2917 10.8151 11.3958 10.6354 11.4219 10.4688C11.4531 10.2969 11.3854 10.0938 11.2188 9.85938L10.2266 8.45312C10.112 8.29688 9.98177 8.20052 9.83594 8.16406C9.69531 8.1224 9.54167 8.13021 9.375 8.1875C9.20833 8.24479 9.03646 8.34115 8.85938 8.47656C8.83333 8.48698 8.8099 8.5026 8.78906 8.52344C8.77344 8.53906 8.76042 8.55208 8.75 8.5625C8.39583 8.92188 8.19271 9.33073 8.14062 9.78906C8.08854 10.2474 8.15365 10.7318 8.33594 11.2422C8.52344 11.7526 8.79688 12.2656 9.15625 12.7812C9.52083 13.2969 9.9375 13.7891 10.4062 14.2578Z" fill="#141414"/>
</svg>
