<svg width="24" height="24" viewBox="0 0 24 24" fill="none" xmlns="http://www.w3.org/2000/svg">
<path d="M5.46094 18.3047H18.9531C19.3229 18.3047 19.6146 18.1979 19.8281 17.9844C20.0469 17.7708 20.1562 17.4766 20.1562 17.1016V15.8984L16.5625 12.5703C16.3802 12.3984 16.1797 12.2708 15.9609 12.1875C15.7474 12.1042 15.5339 12.0625 15.3203 12.0625C14.862 12.0625 14.4427 12.2292 14.0625 12.5625L10.3281 15.875L8.83594 14.5312C8.49219 14.2135 8.11719 14.0547 7.71094 14.0547C7.53906 14.0547 7.36198 14.0938 7.17969 14.1719C6.9974 14.25 6.82031 14.3646 6.64844 14.5156L4.25 16.6094V17.0859C4.25 17.4661 4.35677 17.7656 4.57031 17.9844C4.78906 18.1979 5.08594 18.3047 5.46094 18.3047ZM8.85156 12.5625C9.20052 12.5625 9.52083 12.4766 9.8125 12.3047C10.1042 12.1276 10.3359 11.8932 10.5078 11.6016C10.6849 11.3099 10.7734 10.987 10.7734 10.6328C10.7734 10.2786 10.6849 9.95573 10.5078 9.66406C10.3359 9.3724 10.1042 9.14062 9.8125 8.96875C9.52083 8.79167 9.20052 8.70312 8.85156 8.70312C8.4974 8.70312 8.17448 8.79167 7.88281 8.96875C7.59115 9.14062 7.35677 9.3724 7.17969 9.66406C7.00781 9.95573 6.92188 10.2786 6.92188 10.6328C6.92188 10.987 7.00781 11.3099 7.17969 11.6016C7.35677 11.8932 7.59115 12.1276 7.88281 12.3047C8.17448 12.4766 8.4974 12.5625 8.85156 12.5625ZM5.44531 19.5547C4.6276 19.5547 4.01302 19.3516 3.60156 18.9453C3.19531 18.5443 2.99219 17.9427 2.99219 17.1406V7.59375C2.99219 6.78646 3.19531 6.18229 3.60156 5.78125C4.01302 5.375 4.6276 5.17188 5.44531 5.17188H18.9609C19.7839 5.17188 20.3984 5.375 20.8047 5.78125C21.2109 6.1875 21.4141 6.79167 21.4141 7.59375V17.1406C21.4141 17.9427 21.2109 18.5443 20.8047 18.9453C20.3984 19.3516 19.7839 19.5547 18.9609 19.5547H5.44531Z" fill="#141414"/>
</svg>
