<svg width="24" height="24" viewBox="0 0 24 24" fill="none" xmlns="http://www.w3.org/2000/svg">
<path d="M6.10156 14.7734C6.10156 14.2214 6.24219 13.6771 6.52344 13.1406C6.80469 12.599 7.20833 12.1042 7.73438 11.6562C8.26042 11.2083 8.88802 10.8516 9.61719 10.5859L9.875 7C9.49479 6.78646 9.14062 6.56771 8.8125 6.34375C8.48958 6.11458 8.20573 5.89323 7.96094 5.67969C7.71615 5.46615 7.52604 5.27083 7.39062 5.09375C7.19271 4.83333 7.09375 4.57812 7.09375 4.32812C7.09375 4.08854 7.17708 3.89062 7.34375 3.73438C7.51042 3.57812 7.73177 3.5 8.00781 3.5H16.3359C16.6068 3.5 16.8255 3.57812 16.9922 3.73438C17.1641 3.89062 17.25 4.08854 17.25 4.32812C17.25 4.57812 17.1484 4.83333 16.9453 5.09375C16.8099 5.27083 16.6198 5.46615 16.375 5.67969C16.1302 5.89323 15.8438 6.11198 15.5156 6.33594C15.1927 6.5599 14.8411 6.78125 14.4609 7L14.7188 10.5859C15.4479 10.8516 16.0755 11.2083 16.6016 11.6562C17.1276 12.1042 17.5312 12.599 17.8125 13.1406C18.0938 13.6771 18.2344 14.2214 18.2344 14.7734C18.2344 15.1068 18.1302 15.375 17.9219 15.5781C17.7188 15.776 17.4401 15.875 17.0859 15.875H12.8594V19.5234C12.8594 19.8203 12.8333 20.1016 12.7812 20.3672C12.7292 20.6328 12.6641 20.8646 12.5859 21.0625C12.5078 21.2656 12.4297 21.4245 12.3516 21.5391C12.2786 21.6536 12.2188 21.7109 12.1719 21.7109C12.1198 21.7109 12.0547 21.6536 11.9766 21.5391C11.9036 21.4245 11.8281 21.2656 11.75 21.0625C11.6719 20.8646 11.6068 20.6328 11.5547 20.3672C11.5026 20.1016 11.4766 19.8203 11.4766 19.5234V15.875H7.25C6.90104 15.875 6.6224 15.776 6.41406 15.5781C6.20573 15.375 6.10156 15.1068 6.10156 14.7734Z" fill="#141414"/>
</svg>
