<svg width="24" height="24" viewBox="0 0 24 24" fill="none" xmlns="http://www.w3.org/2000/svg">
<path d="M12.3672 20.3281C11.2786 20.3281 10.2526 20.1198 9.28906 19.7031C8.33073 19.2865 7.48438 18.7109 6.75 17.9766C6.01562 17.2422 5.4401 16.3958 5.02344 15.4375C4.60677 14.474 4.39844 13.4479 4.39844 12.3594C4.39844 11.2708 4.60677 10.2474 5.02344 9.28906C5.4401 8.32552 6.01302 7.47656 6.74219 6.74219C7.47656 6.00781 8.32292 5.43229 9.28125 5.01562C10.2448 4.59896 11.2708 4.39062 12.3594 4.39062C13.4479 4.39062 14.474 4.59896 15.4375 5.01562C16.401 5.43229 17.25 6.00781 17.9844 6.74219C18.7188 7.47656 19.2943 8.32552 19.7109 9.28906C20.1276 10.2474 20.3359 11.2708 20.3359 12.3594C20.3359 13.4479 20.1276 14.474 19.7109 15.4375C19.2943 16.3958 18.7188 17.2422 17.9844 17.9766C17.25 18.7109 16.401 19.2865 15.4375 19.7031C14.4792 20.1198 13.4557 20.3281 12.3672 20.3281ZM10.8828 15.5078L15.4766 12.8047C15.5859 12.737 15.6589 12.6484 15.6953 12.5391C15.7318 12.4245 15.7318 12.3125 15.6953 12.2031C15.6589 12.0885 15.5859 12 15.4766 11.9375L10.8828 9.21875C10.7682 9.15104 10.6484 9.1224 10.5234 9.13281C10.3984 9.14323 10.2917 9.1849 10.2031 9.25781C10.1198 9.33073 10.0781 9.43229 10.0781 9.5625V15.1641C10.0781 15.2943 10.1198 15.3984 10.2031 15.4766C10.2865 15.5547 10.388 15.599 10.5078 15.6094C10.6328 15.6198 10.7578 15.5859 10.8828 15.5078Z" fill="#141414"/>
</svg>
