<svg width="24" height="24" viewBox="0 0 24 24" fill="none" xmlns="http://www.w3.org/2000/svg">
<path d="M7.44531 18.5625C6.6276 18.5625 6.01302 18.3594 5.60156 17.9531C5.19531 17.5521 4.99219 16.9479 4.99219 16.1406V6.60156C4.99219 5.79427 5.19531 5.1901 5.60156 4.78906C6.01302 4.38281 6.6276 4.17969 7.44531 4.17969H16.9219C17.7396 4.17969 18.3516 4.38281 18.7578 4.78906C19.1693 5.1901 19.375 5.79427 19.375 6.60156V16.1406C19.375 16.9479 19.1693 17.5521 18.7578 17.9531C18.3516 18.3594 17.7396 18.5625 16.9219 18.5625H7.44531ZM7.46094 17.3047H16.9062C17.2917 17.3047 17.5885 17.2031 17.7969 17C18.0104 16.7917 18.1172 16.4844 18.1172 16.0781V6.66406C18.1172 6.25781 18.0104 5.95312 17.7969 5.75C17.5885 5.54167 17.2917 5.4375 16.9062 5.4375H7.46094C7.07031 5.4375 6.77083 5.54167 6.5625 5.75C6.35417 5.95312 6.25 6.25781 6.25 6.66406V16.0781C6.25 16.4844 6.35417 16.7917 6.5625 17C6.77083 17.2031 7.07031 17.3047 7.46094 17.3047ZM8.57031 11.3594C8.57031 11.1615 8.63021 11.0026 8.75 10.8828C8.875 10.7578 9.03906 10.6953 9.24219 10.6953H11.5391V8.39844C11.5391 8.20052 11.599 8.03906 11.7188 7.91406C11.8385 7.78906 11.9922 7.72656 12.1797 7.72656C12.3776 7.72656 12.5365 7.78906 12.6562 7.91406C12.7812 8.03385 12.8438 8.19531 12.8438 8.39844V10.6953H15.1484C15.3464 10.6953 15.5052 10.7578 15.625 10.8828C15.75 11.0026 15.8125 11.1615 15.8125 11.3594C15.8125 11.5469 15.75 11.7005 15.625 11.8203C15.5052 11.9401 15.3464 12 15.1484 12H12.8438V14.3047C12.8438 14.5026 12.7812 14.6641 12.6562 14.7891C12.5365 14.9089 12.3776 14.9688 12.1797 14.9688C11.9922 14.9688 11.8385 14.9089 11.7188 14.7891C11.599 14.6641 11.5391 14.5026 11.5391 14.3047V12H9.24219C9.04427 12 8.88281 11.9401 8.75781 11.8203C8.63281 11.7005 8.57031 11.5469 8.57031 11.3594Z" fill="#141414"/>
</svg>
