<svg width="24" height="24" viewBox="0 0 24 24" fill="none" xmlns="http://www.w3.org/2000/svg">
<path d="M11.8516 7.88281C11.6693 7.88281 11.5104 7.8151 11.375 7.67969C11.2396 7.54427 11.1719 7.38542 11.1719 7.20312V3.55469C11.1719 3.3724 11.237 3.21354 11.3672 3.07812C11.5026 2.94271 11.6641 2.875 11.8516 2.875C12.0391 2.875 12.1979 2.94271 12.3281 3.07812C12.4635 3.21354 12.5312 3.3724 12.5312 3.55469V7.20312C12.5312 7.38542 12.4635 7.54427 12.3281 7.67969C12.1979 7.8151 12.0391 7.88281 11.8516 7.88281ZM14.2812 8.89844C14.151 8.76302 14.0859 8.60156 14.0859 8.41406C14.0859 8.22135 14.151 8.0599 14.2812 7.92969L16.8672 5.35156C16.9974 5.22135 17.1562 5.15625 17.3438 5.15625C17.5365 5.15625 17.6979 5.22135 17.8281 5.35156C17.9583 5.48177 18.0234 5.64323 18.0234 5.83594C18.0234 6.02344 17.9583 6.18229 17.8281 6.3125L15.25 8.89844C15.125 9.02865 14.9661 9.09635 14.7734 9.10156C14.5807 9.10156 14.4167 9.03385 14.2812 8.89844ZM15.2891 11.3281C15.2891 11.1406 15.3568 10.9818 15.4922 10.8516C15.6328 10.7161 15.7969 10.6484 15.9844 10.6484H19.625C19.8073 10.6484 19.9661 10.7161 20.1016 10.8516C20.237 10.9818 20.3047 11.1406 20.3047 11.3281C20.3047 11.5156 20.237 11.6771 20.1016 11.8125C19.9714 11.9427 19.8125 12.0078 19.625 12.0078H15.9844C15.7969 12.0078 15.6328 11.9427 15.4922 11.8125C15.3568 11.6771 15.2891 11.5156 15.2891 11.3281ZM14.2812 13.7578C14.4167 13.6276 14.5781 13.5625 14.7656 13.5625C14.9583 13.5625 15.1198 13.6276 15.25 13.7578L17.8281 16.3438C17.9583 16.474 18.0234 16.6354 18.0234 16.8281C18.0234 17.0156 17.9583 17.1745 17.8281 17.3047C17.6979 17.4349 17.5365 17.5 17.3438 17.5C17.1562 17.5 16.9974 17.4349 16.8672 17.3047L14.2812 14.7266C14.151 14.6016 14.0859 14.4427 14.0859 14.25C14.0859 14.0573 14.151 13.8932 14.2812 13.7578ZM11.8516 14.7734C12.0391 14.7734 12.1979 14.8411 12.3281 14.9766C12.4635 15.112 12.5312 15.2708 12.5312 15.4531V19.1016C12.5312 19.2839 12.4635 19.4427 12.3281 19.5781C12.1979 19.7135 12.0391 19.7812 11.8516 19.7812C11.6641 19.7812 11.5026 19.7135 11.3672 19.5781C11.237 19.4427 11.1719 19.2839 11.1719 19.1016V15.4531C11.1719 15.2708 11.2396 15.112 11.375 14.9766C11.5104 14.8411 11.6693 14.7734 11.8516 14.7734ZM9.42188 13.7578C9.55729 13.8932 9.6224 14.0573 9.61719 14.25C9.61719 14.4427 9.55208 14.6016 9.42188 14.7266L6.83594 17.3047C6.70573 17.4349 6.54427 17.5 6.35156 17.5C6.16406 17.5 6.00521 17.4349 5.875 17.3047C5.74479 17.1745 5.67969 17.0156 5.67969 16.8281C5.67969 16.6354 5.74479 16.474 5.875 16.3438L8.45312 13.7578C8.58333 13.6276 8.74219 13.5625 8.92969 13.5625C9.1224 13.5625 9.28646 13.6276 9.42188 13.7578ZM8.41406 11.3281C8.41406 11.5156 8.34375 11.6771 8.20312 11.8125C8.06771 11.9427 7.90885 12.0078 7.72656 12.0078H4.07812C3.89583 12.0078 3.73698 11.9427 3.60156 11.8125C3.46615 11.6771 3.39844 11.5156 3.39844 11.3281C3.39844 11.1406 3.46615 10.9818 3.60156 10.8516C3.73698 10.7161 3.89583 10.6484 4.07812 10.6484H7.72656C7.90885 10.6484 8.06771 10.7161 8.20312 10.8516C8.34375 10.9818 8.41406 11.1406 8.41406 11.3281ZM9.42188 8.89844C9.28646 9.03385 9.1224 9.10156 8.92969 9.10156C8.74219 9.09635 8.58333 9.02865 8.45312 8.89844L5.875 6.3125C5.74479 6.18229 5.67969 6.02344 5.67969 5.83594C5.67969 5.64323 5.74479 5.48177 5.875 5.35156C6.00521 5.22135 6.16406 5.15625 6.35156 5.15625C6.54427 5.15625 6.70573 5.22135 6.83594 5.35156L9.42188 7.92969C9.55208 8.0599 9.61719 8.22135 9.61719 8.41406C9.61719 8.60156 9.55208 8.76302 9.42188 8.89844Z" fill="#141414"/>
</svg>
