<svg width="24" height="24" viewBox="0 0 24 24" fill="none" xmlns="http://www.w3.org/2000/svg">
<path d="M4.44531 16.6562C3.6276 16.6562 3.01302 16.4557 2.60156 16.0547C2.19531 15.6484 1.99219 15.0417 1.99219 14.2344V6.86719C1.99219 6.0599 2.19531 5.45573 2.60156 5.05469C3.01302 4.64844 3.6276 4.44531 4.44531 4.44531H15.1172C15.9297 4.44531 16.5417 4.64844 16.9531 5.05469C17.3646 5.46094 17.5703 6.0651 17.5703 6.86719V8.57031H16.3125V6.9375C16.3125 6.53125 16.2057 6.22396 15.9922 6.01562C15.7786 5.80729 15.4792 5.70312 15.0938 5.70312H4.46094C4.07031 5.70312 3.77083 5.80729 3.5625 6.01562C3.35417 6.22396 3.25 6.53125 3.25 6.9375V14.1719C3.25 14.5781 3.35417 14.8854 3.5625 15.0938C3.77083 15.2969 4.07031 15.3984 4.46094 15.3984H6.38281V16.6562H4.44531ZM8.30469 20.2734C7.48698 20.2734 6.8724 20.0703 6.46094 19.6641C6.05469 19.263 5.85156 18.6589 5.85156 17.8516V10.4844C5.85156 9.67708 6.05469 9.07292 6.46094 8.67188C6.8724 8.26562 7.48698 8.0625 8.30469 8.0625H18.9766C19.7891 8.0625 20.401 8.26562 20.8125 8.67188C21.224 9.07812 21.4297 9.68229 21.4297 10.4844V17.8516C21.4297 18.6589 21.224 19.263 20.8125 19.6641C20.401 20.0703 19.7891 20.2734 18.9766 20.2734H8.30469ZM8.32031 19.0156H18.9531C19.3385 19.0156 19.638 18.9115 19.8516 18.7031C20.0651 18.5 20.1719 18.1953 20.1719 17.7891V10.5547C20.1719 10.1484 20.0651 9.84115 19.8516 9.63281C19.638 9.42448 19.3385 9.32031 18.9531 9.32031H8.32031C7.92969 9.32031 7.63021 9.42448 7.42188 9.63281C7.21354 9.84115 7.10938 10.1484 7.10938 10.5547V17.7891C7.10938 18.1953 7.21354 18.5 7.42188 18.7031C7.63021 18.9115 7.92969 19.0156 8.32031 19.0156Z" fill="#141414"/>
</svg>
