<svg width="24" height="24" viewBox="0 0 24 24" fill="none" xmlns="http://www.w3.org/2000/svg">
<path d="M8.30469 20.2734C7.48698 20.2734 6.8724 20.0703 6.46094 19.6641C6.05469 19.263 5.85156 18.6589 5.85156 17.8516V10.4844C5.85156 9.67708 6.05469 9.07292 6.46094 8.67188C6.8724 8.26562 7.48698 8.0625 8.30469 8.0625H18.9766C19.7891 8.0625 20.401 8.26562 20.8125 8.67188C21.224 9.07812 21.4297 9.68229 21.4297 10.4844V17.8516C21.4297 18.6589 21.224 19.263 20.8125 19.6641C20.401 20.0703 19.7891 20.2734 18.9766 20.2734H8.30469ZM8.30469 7C7.5599 7 6.92448 7.13802 6.39844 7.41406C5.8776 7.6849 5.47656 8.08073 5.19531 8.60156C4.91927 9.1224 4.78125 9.75 4.78125 10.4844V16.6562H4.44531C3.6276 16.6562 3.01302 16.4557 2.60156 16.0547C2.19531 15.6484 1.99219 15.0417 1.99219 14.2344V6.86719C1.99219 6.0599 2.19531 5.45573 2.60156 5.05469C3.01302 4.64844 3.6276 4.44531 4.44531 4.44531H15.1172C15.9297 4.44531 16.5417 4.64844 16.9531 5.05469C17.3646 5.46094 17.5703 6.0651 17.5703 6.86719V7H8.30469Z" fill="#141414"/>
</svg>
