<svg width="24" height="24" viewBox="0 0 24 24" fill="none" xmlns="http://www.w3.org/2000/svg">
<path d="M5.41406 20.7422C4.60677 20.7422 4 20.5365 3.59375 20.125C3.19271 19.7188 2.99219 19.1068 2.99219 18.2891V6.4375C2.99219 5.625 3.19271 5.01562 3.59375 4.60938C4 4.19792 4.60677 3.99219 5.41406 3.99219H13.7109C14.5182 3.99219 15.1224 4.19792 15.5234 4.60938C15.9297 5.01562 16.1328 5.625 16.1328 6.4375V11.5781H10.3594C10.151 11.5781 9.97135 11.6562 9.82031 11.8125C9.66927 11.9635 9.59375 12.1458 9.59375 12.3594C9.59375 12.5677 9.66927 12.75 9.82031 12.9062C9.97135 13.0573 10.151 13.1328 10.3594 13.1328H16.1328V18.2891C16.1328 19.1068 15.9297 19.7188 15.5234 20.125C15.1224 20.5365 14.5182 20.7422 13.7109 20.7422H5.41406ZM15.5234 12.3594C15.5234 12.1927 15.5807 12.0469 15.6953 11.9219C15.8151 11.7969 15.9583 11.7344 16.125 11.7344H18.3984L19.5703 11.7891L19.0156 11.2578L17.7578 10.0703C17.6328 9.96094 17.5703 9.81771 17.5703 9.64062C17.5703 9.47917 17.6198 9.34635 17.7188 9.24219C17.8229 9.13281 17.9557 9.07812 18.1172 9.07812C18.2682 9.07812 18.4062 9.14062 18.5312 9.26562L21.0781 11.9062C21.1562 11.9844 21.2083 12.0599 21.2344 12.1328C21.2656 12.2057 21.2812 12.2812 21.2812 12.3594C21.2812 12.4375 21.2656 12.513 21.2344 12.5859C21.2083 12.6589 21.1562 12.7344 21.0781 12.8125L18.5312 15.4531C18.4062 15.5729 18.2682 15.6328 18.1172 15.6328C17.9557 15.6328 17.8229 15.5781 17.7188 15.4688C17.6198 15.3594 17.5703 15.224 17.5703 15.0625C17.5703 14.8906 17.6328 14.75 17.7578 14.6406L19.0156 13.4609L19.5703 12.9297L18.3984 12.9766H16.125C15.9583 12.9766 15.8151 12.9167 15.6953 12.7969C15.5807 12.6719 15.5234 12.526 15.5234 12.3594Z" fill="#141414"/>
</svg>
