<svg width="24" height="24" viewBox="0 0 24 24" fill="none" xmlns="http://www.w3.org/2000/svg">
<path d="M12.3438 20.4609C12.2812 20.4609 12.2031 20.4479 12.1094 20.4219C12.0156 20.3958 11.9193 20.3568 11.8203 20.3047C10.7109 19.6797 9.77344 19.125 9.00781 18.6406C8.2474 18.1562 7.63542 17.6875 7.17188 17.2344C6.70833 16.7812 6.3724 16.2917 6.16406 15.7656C5.95573 15.2396 5.85156 14.6198 5.85156 13.9062V7.92969C5.85156 7.51823 5.9375 7.22396 6.10938 7.04688C6.28646 6.86458 6.53906 6.70573 6.86719 6.57031C7.04948 6.49219 7.30208 6.39062 7.625 6.26562C7.94792 6.14062 8.30469 6.00521 8.69531 5.85938C9.08594 5.71354 9.47396 5.57031 9.85938 5.42969C10.25 5.28385 10.6068 5.15625 10.9297 5.04688C11.2526 4.93229 11.5078 4.84896 11.6953 4.79688C11.7995 4.77083 11.9062 4.74479 12.0156 4.71875C12.125 4.69271 12.2344 4.67969 12.3438 4.67969C12.4531 4.67969 12.5625 4.69271 12.6719 4.71875C12.7865 4.73958 12.8958 4.76562 13 4.79688C13.1823 4.85938 13.4349 4.94792 13.7578 5.0625C14.0807 5.17708 14.4375 5.30469 14.8281 5.44531C15.2188 5.58594 15.6068 5.72917 15.9922 5.875C16.3828 6.01562 16.7396 6.14844 17.0625 6.27344C17.3854 6.39323 17.638 6.49219 17.8203 6.57031C18.1536 6.71094 18.4062 6.86979 18.5781 7.04688C18.75 7.22396 18.8359 7.51823 18.8359 7.92969V13.9062C18.8359 14.6198 18.7318 15.2422 18.5234 15.7734C18.3203 16.2995 17.987 16.7891 17.5234 17.2422C17.0599 17.6953 16.4453 18.1615 15.6797 18.6406C14.9193 19.125 13.9818 19.6797 12.8672 20.3047C12.7682 20.3568 12.6719 20.3958 12.5781 20.4219C12.4844 20.4479 12.4062 20.4609 12.3438 20.4609ZM12.3438 19.0469C12.4062 19.0469 12.474 19.0312 12.5469 19C12.6198 18.974 12.7135 18.9271 12.8281 18.8594C13.7292 18.3125 14.4844 17.8411 15.0938 17.4453C15.7083 17.0495 16.1979 16.6745 16.5625 16.3203C16.9323 15.9661 17.1953 15.5781 17.3516 15.1562C17.513 14.7344 17.5938 14.2214 17.5938 13.6172V8.17188C17.5938 8.04167 17.5755 7.94271 17.5391 7.875C17.5078 7.80729 17.4401 7.75521 17.3359 7.71875C17.0911 7.63542 16.8099 7.53906 16.4922 7.42969C16.1797 7.3151 15.849 7.19531 15.5 7.07031C15.1562 6.94531 14.8099 6.82031 14.4609 6.69531C14.1172 6.5651 13.7891 6.44271 13.4766 6.32812C13.1641 6.20833 12.8906 6.10156 12.6562 6.00781C12.5938 5.98177 12.5365 5.96354 12.4844 5.95312C12.4323 5.94271 12.3854 5.9375 12.3438 5.9375C12.3021 5.9375 12.2552 5.94271 12.2031 5.95312C12.151 5.96354 12.0938 5.98177 12.0312 6.00781C11.7969 6.10156 11.5234 6.20573 11.2109 6.32031C10.8984 6.4349 10.5677 6.55469 10.2188 6.67969C9.86979 6.79948 9.52083 6.92188 9.17188 7.04688C8.82292 7.17188 8.49219 7.29167 8.17969 7.40625C7.86719 7.52083 7.59375 7.625 7.35938 7.71875C7.25 7.76042 7.17708 7.8151 7.14062 7.88281C7.10938 7.94531 7.09375 8.04167 7.09375 8.17188V13.6172C7.09375 14.2214 7.17448 14.7344 7.33594 15.1562C7.4974 15.5781 7.76042 15.9688 8.125 16.3281C8.48958 16.6823 8.97656 17.0573 9.58594 17.4531C10.2005 17.8438 10.9583 18.3125 11.8594 18.8594C11.974 18.9271 12.0677 18.974 12.1406 19C12.2135 19.0312 12.2812 19.0469 12.3438 19.0469Z" fill="#141414"/>
</svg>
