<svg width="24" height="24" viewBox="0 0 24 24" fill="none" xmlns="http://www.w3.org/2000/svg">
<path d="M2.97656 15.5391C2.44531 15.5391 2.04688 15.4037 1.78125 15.1329C1.51562 14.8568 1.38281 14.4376 1.38281 13.8751V10.8829C1.38281 10.3152 1.51562 9.89591 1.78125 9.62508C2.04688 9.34903 2.44531 9.21101 2.97656 9.21101H5.21094C5.28906 9.21101 5.35156 9.18758 5.39844 9.1407L8.92188 6.0157C9.13021 5.83341 9.30469 5.69799 9.44531 5.60945C9.59115 5.52091 9.75781 5.47664 9.94531 5.47664C10.2057 5.47664 10.4193 5.56778 10.5859 5.75008C10.7578 5.92716 10.8438 6.1433 10.8438 6.39851V18.3829C10.8438 18.6329 10.7604 18.8412 10.5938 19.0079C10.4271 19.1746 10.2161 19.2579 9.96094 19.2579C9.77344 19.2579 9.59896 19.2162 9.4375 19.1329C9.28125 19.0548 9.10938 18.9324 8.92188 18.7657L5.39844 15.6095C5.34635 15.5626 5.28385 15.5391 5.21094 15.5391H2.97656ZM3.03125 14.3985H5.53125C5.63021 14.3985 5.72135 14.4141 5.80469 14.4454C5.88802 14.4714 5.97396 14.5235 6.0625 14.6016L9.39844 17.6095C9.4401 17.6511 9.48177 17.672 9.52344 17.672C9.59115 17.672 9.625 17.6329 9.625 17.5548V7.17195C9.625 7.09903 9.59115 7.06258 9.52344 7.06258C9.4974 7.06258 9.47396 7.06778 9.45312 7.0782C9.43229 7.08862 9.41146 7.10424 9.39062 7.12508L6.0625 10.1485C5.97396 10.2318 5.88802 10.2865 5.80469 10.3126C5.72135 10.3386 5.63021 10.3516 5.53125 10.3516H3.03125C2.88542 10.3516 2.77604 10.3881 2.70312 10.461C2.63542 10.5287 2.60156 10.6355 2.60156 10.7813V13.9766C2.60156 14.1225 2.63542 14.2292 2.70312 14.297C2.77604 14.3647 2.88542 14.3985 3.03125 14.3985ZM13.4766 15.6876C13.3203 15.5782 13.2318 15.4376 13.2109 15.2657C13.1901 15.0938 13.2396 14.9246 13.3594 14.7579C13.5833 14.4402 13.7578 14.0756 13.8828 13.6641C14.0078 13.2475 14.0703 12.8126 14.0703 12.3595C14.0703 11.9063 14.0078 11.4714 13.8828 11.0548C13.763 10.6381 13.5885 10.2735 13.3594 9.96101C13.2344 9.79955 13.1823 9.63289 13.2031 9.46101C13.2292 9.28393 13.3203 9.1407 13.4766 9.03133C13.612 8.93758 13.7604 8.90633 13.9219 8.93758C14.0833 8.96883 14.2161 9.05997 14.3203 9.21101C14.6224 9.60685 14.8568 10.0808 15.0234 10.6329C15.1953 11.185 15.2812 11.7605 15.2812 12.3595C15.2812 12.9584 15.1953 13.5339 15.0234 14.086C14.8568 14.6381 14.6224 15.1121 14.3203 15.5079C14.2161 15.6589 14.0833 15.7501 13.9219 15.7813C13.7604 15.8074 13.612 15.7761 13.4766 15.6876ZM16.375 17.7266C16.2344 17.6277 16.1536 17.4975 16.1328 17.336C16.112 17.1693 16.1562 17.0053 16.2656 16.8438C16.6875 16.2345 17.0156 15.5443 17.25 14.7735C17.4896 13.9975 17.6094 13.1928 17.6094 12.3595C17.6094 11.5261 17.4922 10.7214 17.2578 9.94539C17.0234 9.16935 16.6927 8.47924 16.2656 7.87508C16.151 7.71362 16.1042 7.55216 16.125 7.3907C16.151 7.22403 16.2344 7.09122 16.375 6.99226C16.5208 6.8933 16.6745 6.85945 16.8359 6.8907C16.9974 6.92195 17.1302 7.0131 17.2344 7.16414C17.7396 7.84122 18.1302 8.63549 18.4062 9.54695C18.6823 10.4584 18.8203 11.3959 18.8203 12.3595C18.8203 13.323 18.6797 14.2579 18.3984 15.1641C18.1224 16.0704 17.7344 16.8673 17.2344 17.5548C17.1302 17.7058 16.9974 17.797 16.8359 17.8282C16.6745 17.8542 16.5208 17.8204 16.375 17.7266ZM19.3047 19.797C19.1589 19.698 19.0755 19.5626 19.0547 19.3907C19.0339 19.224 19.0781 19.0626 19.1875 18.9063C19.5885 18.3126 19.9349 17.6693 20.2266 16.9766C20.5234 16.2787 20.7526 15.5443 20.9141 14.7735C21.0755 13.9975 21.1562 13.1928 21.1562 12.3595C21.1562 11.5209 21.0755 10.7162 20.9141 9.94539C20.7526 9.16935 20.5234 8.43758 20.2266 7.75008C19.9349 7.05737 19.5885 6.41153 19.1875 5.81258C19.0781 5.65112 19.0339 5.48705 19.0547 5.32039C19.0755 5.15372 19.1589 5.02091 19.3047 4.92195C19.4401 4.82299 19.5911 4.79174 19.7578 4.8282C19.9245 4.85945 20.0599 4.9558 20.1641 5.11726C20.612 5.77872 21 6.49487 21.3281 7.2657C21.6562 8.03133 21.9089 8.84122 22.0859 9.69539C22.263 10.5496 22.3516 11.4376 22.3516 12.3595C22.3516 13.2813 22.263 14.1693 22.0859 15.0235C21.9141 15.8777 21.6641 16.6902 21.3359 17.461C21.013 18.2266 20.6224 18.9402 20.1641 19.6016C20.0599 19.7579 19.9245 19.8542 19.7578 19.8907C19.5911 19.9272 19.4401 19.8959 19.3047 19.797Z" fill="#141414"/>
</svg>
