<svg width="24" height="24" viewBox="0 0 24 24" fill="none" xmlns="http://www.w3.org/2000/svg">
<path d="M7.97656 15.5391C7.44531 15.5391 7.04688 15.4036 6.78125 15.1328C6.51562 14.8568 6.38281 14.4375 6.38281 13.875V10.8828C6.38281 10.3151 6.51562 9.89583 6.78125 9.625C7.04688 9.34896 7.44531 9.21094 7.97656 9.21094H10.2109C10.2891 9.21094 10.3516 9.1875 10.3984 9.14062L13.9219 6.01562C14.1302 5.83333 14.3047 5.69792 14.4453 5.60938C14.5911 5.52083 14.7578 5.47656 14.9453 5.47656C15.2057 5.47656 15.4193 5.56771 15.5859 5.75C15.7578 5.92708 15.8438 6.14323 15.8438 6.39844V18.3828C15.8438 18.6328 15.7604 18.8411 15.5938 19.0078C15.4271 19.1745 15.2161 19.2578 14.9609 19.2578C14.7734 19.2578 14.599 19.2161 14.4375 19.1328C14.2812 19.0547 14.1094 18.9323 13.9219 18.7656L10.3984 15.6094C10.3464 15.5625 10.2839 15.5391 10.2109 15.5391H7.97656ZM8.03125 14.3984H10.5312C10.6302 14.3984 10.7214 14.4141 10.8047 14.4453C10.888 14.4714 10.974 14.5234 11.0625 14.6016L14.3984 17.6094C14.4401 17.651 14.4818 17.6719 14.5234 17.6719C14.5911 17.6719 14.625 17.6328 14.625 17.5547V7.17188C14.625 7.09896 14.5911 7.0625 14.5234 7.0625C14.4974 7.0625 14.474 7.06771 14.4531 7.07812C14.4323 7.08854 14.4115 7.10417 14.3906 7.125L11.0625 10.1484C10.974 10.2318 10.888 10.2865 10.8047 10.3125C10.7214 10.3385 10.6302 10.3516 10.5312 10.3516H8.03125C7.88542 10.3516 7.77604 10.388 7.70312 10.4609C7.63542 10.5286 7.60156 10.6354 7.60156 10.7812V13.9766C7.60156 14.1224 7.63542 14.2292 7.70312 14.2969C7.77604 14.3646 7.88542 14.3984 8.03125 14.3984Z" fill="#141414"/>
</svg>
