<svg width="24" height="24" viewBox="0 0 24 24" fill="none" xmlns="http://www.w3.org/2000/svg">
<path d="M6.97656 15.5391C6.44531 15.5391 6.04688 15.4036 5.78125 15.1328C5.51562 14.8568 5.38281 14.4375 5.38281 13.875V10.8828C5.38281 10.3151 5.51562 9.89583 5.78125 9.625C6.04688 9.34896 6.44531 9.21094 6.97656 9.21094H9.21094C9.28906 9.21094 9.35156 9.1875 9.39844 9.14062L12.9219 6.01562C13.1302 5.83333 13.3047 5.69792 13.4453 5.60938C13.5911 5.52083 13.7552 5.47656 13.9375 5.47656C14.2031 5.47656 14.4193 5.56771 14.5859 5.75C14.7526 5.92708 14.8359 6.14323 14.8359 6.39844V18.3828C14.8359 18.6328 14.7526 18.8411 14.5859 19.0078C14.4193 19.1745 14.2083 19.2578 13.9531 19.2578C13.7708 19.2578 13.599 19.2161 13.4375 19.1328C13.2812 19.0547 13.1094 18.9323 12.9219 18.7656L9.39844 15.6094C9.34635 15.5625 9.28385 15.5391 9.21094 15.5391H6.97656ZM7.03125 14.3984H9.53125C9.63021 14.3984 9.72135 14.4141 9.80469 14.4453C9.88802 14.4714 9.97396 14.5234 10.0625 14.6016L13.3984 17.6094C13.4401 17.651 13.4818 17.6719 13.5234 17.6719C13.5911 17.6719 13.625 17.6328 13.625 17.5547V7.17188C13.625 7.09896 13.5911 7.0625 13.5234 7.0625C13.4974 7.0625 13.474 7.06771 13.4531 7.07812C13.4323 7.08854 13.4115 7.10417 13.3906 7.125L10.0625 10.1484C9.97396 10.2318 9.88802 10.2865 9.80469 10.3125C9.72135 10.3385 9.63021 10.3516 9.53125 10.3516H7.03125C6.88542 10.3516 6.77604 10.388 6.70312 10.4609C6.63542 10.5286 6.60156 10.6354 6.60156 10.7812V13.9766C6.60156 14.1224 6.63542 14.2292 6.70312 14.2969C6.77604 14.3646 6.88542 14.3984 7.03125 14.3984ZM17.4688 15.6953C17.3125 15.5859 17.224 15.4453 17.2031 15.2734C17.1823 15.1016 17.2318 14.9323 17.3516 14.7656C17.5755 14.4479 17.75 14.0833 17.875 13.6719C18 13.2552 18.0625 12.8203 18.0625 12.3672C18.0625 11.9141 18 11.4792 17.875 11.0625C17.7552 10.6458 17.5807 10.2812 17.3516 9.96875C17.2266 9.80729 17.1745 9.64062 17.1953 9.46875C17.2214 9.29167 17.3125 9.14844 17.4688 9.03906C17.6042 8.94531 17.7526 8.91406 17.9141 8.94531C18.0755 8.97656 18.2083 9.06771 18.3125 9.21875C18.6146 9.61458 18.849 10.0885 19.0156 10.6406C19.1875 11.1927 19.2734 11.7682 19.2734 12.3672C19.2734 12.9661 19.1875 13.5417 19.0156 14.0938C18.849 14.6458 18.6146 15.1198 18.3125 15.5156C18.2083 15.6667 18.0755 15.7578 17.9141 15.7891C17.7526 15.8151 17.6042 15.7839 17.4688 15.6953Z" fill="#141414"/>
</svg>
