<svg width="24" height="24" viewBox="0 0 24 24" fill="none" xmlns="http://www.w3.org/2000/svg">
<path d="M7.44531 19.5547C6.6276 19.5547 6.01302 19.3516 5.60156 18.9453C5.19531 18.5443 4.99219 17.9427 4.99219 17.1406V7.59375C4.99219 6.78646 5.19531 6.18229 5.60156 5.78125C6.01302 5.375 6.6276 5.17188 7.44531 5.17188H16.9219C17.7396 5.17188 18.3516 5.375 18.7578 5.78125C19.1693 6.1875 19.375 6.79167 19.375 7.59375V17.1406C19.375 17.9427 19.1693 18.5443 18.7578 18.9453C18.3516 19.3516 17.7396 19.5547 16.9219 19.5547H7.44531ZM7.46094 18.2969H16.9062C17.2917 18.2969 17.5885 18.1953 17.7969 17.9922C18.0104 17.7839 18.1172 17.4766 18.1172 17.0703V7.66406C18.1172 7.25781 18.0104 6.95052 17.7969 6.74219C17.5885 6.53385 17.2917 6.42969 16.9062 6.42969H7.46094C7.07031 6.42969 6.77083 6.53385 6.5625 6.74219C6.35417 6.95052 6.25 7.25781 6.25 7.66406V17.0703C6.25 17.4766 6.35417 17.7839 6.5625 17.9922C6.77083 18.1953 7.07031 18.2969 7.46094 18.2969ZM8.30469 13.9219C8.16406 13.9219 8.04688 13.875 7.95312 13.7812C7.85938 13.6875 7.8125 13.5729 7.8125 13.4375C7.8125 13.3021 7.85938 13.1901 7.95312 13.1016C8.04688 13.0078 8.16406 12.9609 8.30469 12.9609H16C16.1354 12.9609 16.2474 13.0078 16.3359 13.1016C16.4297 13.1901 16.4766 13.3021 16.4766 13.4375C16.4766 13.5729 16.4297 13.6875 16.3359 13.7812C16.2474 13.875 16.1354 13.9219 16 13.9219H8.30469ZM8.30469 16.5938C8.16406 16.5938 8.04688 16.5495 7.95312 16.4609C7.85938 16.3672 7.8125 16.2526 7.8125 16.1172C7.8125 15.9818 7.85938 15.8672 7.95312 15.7734C8.04688 15.6797 8.16406 15.6328 8.30469 15.6328H13.9375C14.0781 15.6328 14.1927 15.6797 14.2812 15.7734C14.375 15.8672 14.4219 15.9818 14.4219 16.1172C14.4219 16.2526 14.375 16.3672 14.2812 16.4609C14.1927 16.5495 14.0781 16.5938 13.9375 16.5938H8.30469ZM7.83594 8.54688C7.83594 8.30208 7.90365 8.11198 8.03906 7.97656C8.17448 7.84115 8.36458 7.77344 8.60938 7.77344H10.5156C10.7604 7.77344 10.9505 7.84115 11.0859 7.97656C11.2214 8.11198 11.2891 8.30208 11.2891 8.54688V10.4531C11.2891 10.6979 11.2214 10.888 11.0859 11.0234C10.9505 11.1589 10.7604 11.2266 10.5156 11.2266H8.60938C8.36458 11.2266 8.17448 11.1589 8.03906 11.0234C7.90365 10.888 7.83594 10.6979 7.83594 10.4531V8.54688Z" fill="#141414"/>
</svg>
