<svg width="24" height="24" viewBox="0 0 24 24" fill="none" xmlns="http://www.w3.org/2000/svg">
<path d="M9.44531 17.8516C9.29948 17.8516 9.18229 17.8099 9.09375 17.7266C9.00521 17.6432 8.95833 17.5312 8.95312 17.3906L8.71875 9.03906C8.71354 8.90365 8.75521 8.79427 8.84375 8.71094C8.9375 8.6224 9.05729 8.57812 9.20312 8.57812C9.34375 8.57812 9.45833 8.61979 9.54688 8.70312C9.64062 8.78646 9.6875 8.89583 9.6875 9.03125L9.92969 17.3906C9.92969 17.526 9.88542 17.638 9.79688 17.7266C9.70833 17.8099 9.59115 17.8516 9.44531 17.8516ZM11.7578 17.8516C11.612 17.8516 11.4922 17.8099 11.3984 17.7266C11.3047 17.638 11.2578 17.526 11.2578 17.3906V9.03906C11.2578 8.90365 11.3047 8.79427 11.3984 8.71094C11.4922 8.6224 11.612 8.57812 11.7578 8.57812C11.9089 8.57812 12.0312 8.6224 12.125 8.71094C12.2188 8.79427 12.2656 8.90365 12.2656 9.03906V17.3906C12.2656 17.526 12.2188 17.638 12.125 17.7266C12.0312 17.8099 11.9089 17.8516 11.7578 17.8516ZM14.0781 17.8516C13.9271 17.8516 13.8073 17.8099 13.7188 17.7266C13.6302 17.638 13.5885 17.526 13.5938 17.3906L13.8281 9.03906C13.8333 8.89844 13.8802 8.78646 13.9688 8.70312C14.0573 8.61979 14.1719 8.57812 14.3125 8.57812C14.4635 8.57812 14.5833 8.6224 14.6719 8.71094C14.7604 8.79427 14.8021 8.90365 14.7969 9.03906L14.5625 17.3906C14.5573 17.5312 14.5104 17.6432 14.4219 17.7266C14.3333 17.8099 14.2188 17.8516 14.0781 17.8516ZM8.32812 6.53906V4.78906C8.32812 4.22656 8.5 3.78385 8.84375 3.46094C9.19271 3.13281 9.66667 2.96875 10.2656 2.96875H13.2344C13.8333 2.96875 14.3047 3.13281 14.6484 3.46094C14.9974 3.78385 15.1719 4.22656 15.1719 4.78906V6.53906H13.9297V4.86719C13.9297 4.64844 13.8568 4.47135 13.7109 4.33594C13.5703 4.20052 13.3828 4.13281 13.1484 4.13281H10.3516C10.1172 4.13281 9.92708 4.20052 9.78125 4.33594C9.64062 4.47135 9.57031 4.64844 9.57031 4.86719V6.53906H8.32812ZM4.78125 7.16406C4.625 7.16406 4.48698 7.10677 4.36719 6.99219C4.2526 6.8724 4.19531 6.73177 4.19531 6.57031C4.19531 6.41406 4.2526 6.27865 4.36719 6.16406C4.48698 6.04427 4.625 5.98438 4.78125 5.98438H18.7422C18.8984 5.98438 19.0339 6.04167 19.1484 6.15625C19.263 6.27083 19.3203 6.40885 19.3203 6.57031C19.3203 6.73177 19.263 6.8724 19.1484 6.99219C19.0391 7.10677 18.9036 7.16406 18.7422 7.16406H4.78125ZM8.17969 20.3672C7.61719 20.3672 7.16146 20.2005 6.8125 19.8672C6.46875 19.5391 6.28385 19.0938 6.25781 18.5312L5.70312 7.01562H6.92969L7.48438 18.3906C7.49479 18.6198 7.57552 18.8099 7.72656 18.9609C7.8776 19.112 8.0651 19.1875 8.28906 19.1875H15.2188C15.4479 19.1875 15.638 19.112 15.7891 18.9609C15.9401 18.8151 16.0208 18.625 16.0312 18.3906L16.5547 7.01562H17.8125L17.2656 18.5234C17.2396 19.0859 17.0521 19.5339 16.7031 19.8672C16.3542 20.2005 15.901 20.3672 15.3438 20.3672H8.17969Z" fill="#141414"/>
</svg>
