<svg width="24" height="24" viewBox="0 0 24 24" fill="none" xmlns="http://www.w3.org/2000/svg">
<path d="M9.375 17.9922C9.52604 17.9922 9.64844 17.9479 9.74219 17.8594C9.83594 17.7708 9.88021 17.6562 9.875 17.5156L9.625 8.90625C9.625 8.76042 9.57812 8.64583 9.48438 8.5625C9.39062 8.47917 9.27083 8.4375 9.125 8.4375C8.96875 8.4375 8.84375 8.48177 8.75 8.57031C8.66146 8.65365 8.61979 8.76823 8.625 8.91406L8.85938 17.5156C8.86979 17.6615 8.91927 17.7786 9.00781 17.8672C9.10156 17.9505 9.22396 17.9922 9.375 17.9922ZM11.7578 17.9922C11.9141 17.9922 12.0391 17.9505 12.1328 17.8672C12.2318 17.7786 12.2812 17.6615 12.2812 17.5156V8.91406C12.2812 8.76823 12.2318 8.65365 12.1328 8.57031C12.0391 8.48177 11.9141 8.4375 11.7578 8.4375C11.6068 8.4375 11.4818 8.48177 11.3828 8.57031C11.2891 8.65365 11.2422 8.76823 11.2422 8.91406V17.5156C11.2422 17.6615 11.2891 17.7786 11.3828 17.8672C11.4818 17.9505 11.6068 17.9922 11.7578 17.9922ZM14.1484 17.9922C14.2995 17.9922 14.4193 17.9505 14.5078 17.8672C14.6016 17.7839 14.651 17.6667 14.6562 17.5156L14.8906 8.91406C14.8958 8.76823 14.8516 8.65365 14.7578 8.57031C14.6693 8.48177 14.5469 8.4375 14.3906 8.4375C14.25 8.4375 14.1328 8.47917 14.0391 8.5625C13.9453 8.64583 13.8958 8.76302 13.8906 8.91406L13.6484 17.5156C13.6432 17.6615 13.6849 17.7786 13.7734 17.8672C13.8672 17.9505 13.9922 17.9922 14.1484 17.9922ZM8.32812 6.53906V4.78906C8.32812 4.22656 8.5 3.78385 8.84375 3.46094C9.19271 3.13281 9.66667 2.96875 10.2656 2.96875H13.2344C13.8333 2.96875 14.3047 3.13281 14.6484 3.46094C14.9974 3.78385 15.1719 4.22656 15.1719 4.78906V6.53906H13.9297V4.86719C13.9297 4.64844 13.8568 4.47135 13.7109 4.33594C13.5703 4.20052 13.3828 4.13281 13.1484 4.13281H10.3516C10.1172 4.13281 9.92708 4.20052 9.78125 4.33594C9.64062 4.47135 9.57031 4.64844 9.57031 4.86719V6.53906H8.32812ZM4.78125 7.16406C4.625 7.16406 4.48698 7.10677 4.36719 6.99219C4.2526 6.8724 4.19531 6.73177 4.19531 6.57031C4.19531 6.41406 4.2526 6.27865 4.36719 6.16406C4.48698 6.04427 4.625 5.98438 4.78125 5.98438H18.7422C18.8984 5.98438 19.0339 6.04167 19.1484 6.15625C19.263 6.27083 19.3203 6.40885 19.3203 6.57031C19.3203 6.73177 19.263 6.8724 19.1484 6.99219C19.0391 7.10677 18.9036 7.16406 18.7422 7.16406H4.78125ZM8.17969 20.3672C7.61719 20.3672 7.16146 20.2005 6.8125 19.8672C6.46875 19.5391 6.28385 19.0938 6.25781 18.5312L5.70312 7H17.8125L17.2656 18.5234C17.2396 19.0859 17.0521 19.5339 16.7031 19.8672C16.3542 20.2005 15.901 20.3672 15.3438 20.3672H8.17969Z" fill="#141414"/>
</svg>
