<svg width="32" height="32" viewBox="0 0 32 32" fill="none" xmlns="http://www.w3.org/2000/svg">
<path d="M8.4375 25.8439C7.88194 25.8439 7.44444 25.7189 7.125 25.4689C6.8125 25.2259 6.65625 24.8891 6.65625 24.4585C6.65625 23.7849 6.85764 23.08 7.26042 22.3439C7.66319 21.6009 8.24653 20.9064 9.01042 20.2606C9.77431 19.6078 10.6944 19.08 11.7708 18.6772C12.8542 18.2675 14.0694 18.0627 15.4167 18.0627C16.7708 18.0627 17.9861 18.2675 19.0625 18.6772C20.1458 19.08 21.066 19.6078 21.8229 20.2606C22.5868 20.9064 23.1701 21.6009 23.5729 22.3439C23.9826 23.08 24.1875 23.7849 24.1875 24.4585C24.1875 24.8891 24.0278 25.2259 23.7083 25.4689C23.3958 25.7189 22.9618 25.8439 22.4062 25.8439H8.4375ZM15.4271 16.1981C14.684 16.1981 13.9965 15.9967 13.3646 15.5939C12.7326 15.1842 12.2222 14.6356 11.8333 13.9481C11.4514 13.2536 11.2604 12.4759 11.2604 11.6147C11.2604 10.7675 11.4514 10.0036 11.8333 9.32308C12.2222 8.64252 12.7326 8.10433 13.3646 7.7085C13.9965 7.31266 14.684 7.11475 15.4271 7.11475C16.1701 7.11475 16.8576 7.30919 17.4896 7.69808C18.1215 8.08697 18.6285 8.62169 19.0104 9.30225C19.3993 9.97586 19.5938 10.7397 19.5938 11.5939C19.5938 12.462 19.3993 13.2432 19.0104 13.9377C18.6285 14.6321 18.1215 15.1842 17.4896 15.5939C16.8576 15.9967 16.1701 16.1981 15.4271 16.1981Z" fill="#141414"/>
</svg>
