<svg width="24" height="24" viewBox="0 0 24 24" fill="none" xmlns="http://www.w3.org/2000/svg">
<path d="M4.95312 18.703C4.16667 18.703 3.55208 18.4842 3.10938 18.0467C2.67188 17.6092 2.45312 16.9972 2.45312 16.2108V8.51546C2.45312 8.3488 2.46615 8.18473 2.49219 8.02327C2.51823 7.86182 2.55208 7.73161 2.59375 7.63265L13.6641 18.703H4.95312ZM13.4219 6.01546C14.2083 6.01546 14.8099 6.23161 15.2266 6.6639C15.6432 7.09619 15.8516 7.70296 15.8516 8.48421V15.5311C15.8516 15.6978 15.8438 15.867 15.8281 16.0389C15.8125 16.2056 15.7917 16.3566 15.7656 16.492L5.28906 6.01546H13.4219ZM16.9141 14.6639V10.0467L19.7578 7.59359C19.8932 7.4738 20.0339 7.38005 20.1797 7.31234C20.3307 7.24463 20.4766 7.21077 20.6172 7.21077C20.9193 7.21077 21.1615 7.31234 21.3438 7.51546C21.5312 7.71338 21.625 7.9738 21.625 8.29671V16.4217C21.625 16.7446 21.5312 17.0076 21.3438 17.2108C21.1615 17.4087 20.9193 17.5076 20.6172 17.5076C20.4766 17.5076 20.3307 17.4738 20.1797 17.4061C20.0339 17.3332 19.8932 17.2394 19.7578 17.1248L16.9141 14.6639ZM16.8047 20.5311L1.36719 5.10921C1.2526 4.99463 1.19531 4.854 1.19531 4.68734C1.19531 4.51546 1.2526 4.37223 1.36719 4.25765C1.48698 4.13786 1.63021 4.08057 1.79688 4.08577C1.96354 4.08577 2.10677 4.14307 2.22656 4.25765L17.6562 19.6795C17.776 19.7993 17.8333 19.9399 17.8281 20.1014C17.8281 20.2681 17.7708 20.4113 17.6562 20.5311C17.5417 20.6509 17.401 20.7108 17.2344 20.7108C17.0677 20.7108 16.9245 20.6509 16.8047 20.5311Z" fill="#141414"/>
</svg>
