<svg width="24" height="24" viewBox="0 0 24 24" fill="none" xmlns="http://www.w3.org/2000/svg">
<path d="M5.41406 18.7811C4.46094 18.7811 3.71354 18.5181 3.17188 17.992C2.63542 17.4608 2.36719 16.7186 2.36719 15.7655V8.51546C2.36719 8.34359 2.36719 8.17171 2.36719 7.99984C2.36719 7.82796 2.36719 7.65348 2.36719 7.4764L3.625 8.74202V15.5858C3.625 16.2629 3.79948 16.7681 4.14844 17.1014C4.4974 17.4347 4.99219 17.6014 5.63281 17.6014H12.5469L13.7188 18.7811H5.41406ZM13.5781 5.93734C14.5312 5.93734 15.276 6.20296 15.8125 6.73421C16.3542 7.26025 16.625 7.99723 16.625 8.94515V15.867C16.625 16.3097 16.5469 16.716 16.3906 17.0858L15.2969 15.992C15.3229 15.9191 15.3411 15.8462 15.3516 15.7733C15.362 15.7004 15.3672 15.617 15.3672 15.5233V9.13265C15.3672 8.45557 15.1927 7.95036 14.8438 7.61702C14.4948 7.27848 14 7.10921 13.3594 7.10921H6.41406L5.24219 5.93734H13.5781ZM16.4375 10.1795L19.5781 7.52327C19.7344 7.39307 19.8958 7.2889 20.0625 7.21077C20.2292 7.12744 20.3932 7.08577 20.5547 7.08577C20.8984 7.08577 21.1745 7.20036 21.3828 7.42952C21.5911 7.65869 21.6953 7.95557 21.6953 8.32015V16.3983C21.6953 16.7629 21.5911 17.0597 21.3828 17.2889C21.1745 17.5181 20.8984 17.6326 20.5547 17.6326C20.3932 17.6326 20.2292 17.5936 20.0625 17.5155C19.8958 17.4321 19.7344 17.3254 19.5781 17.1951L16.4375 14.5389V13.0545L20.1641 16.1326C20.2005 16.1535 20.2318 16.1743 20.2578 16.1951C20.2891 16.2108 20.3203 16.2186 20.3516 16.2186C20.4401 16.2186 20.4844 16.1587 20.4844 16.0389V8.67952C20.4844 8.55452 20.4401 8.49202 20.3516 8.49202C20.3203 8.49202 20.2891 8.50244 20.2578 8.52327C20.2318 8.5389 20.2005 8.55973 20.1641 8.58577L16.4375 11.6639V10.1795ZM16.8047 20.5233L1.36719 5.1014C1.2526 4.98682 1.19531 4.84619 1.19531 4.67952C1.19531 4.50765 1.2526 4.36442 1.36719 4.24984C1.48698 4.13005 1.63021 4.07275 1.79688 4.07796C1.96354 4.07796 2.10677 4.13525 2.22656 4.24984L17.6562 19.6717C17.776 19.7915 17.8333 19.9321 17.8281 20.0936C17.8281 20.2603 17.7708 20.4035 17.6562 20.5233C17.5417 20.6431 17.401 20.703 17.2344 20.703C17.0677 20.703 16.9245 20.6431 16.8047 20.5233Z" fill="#141414"/>
</svg>
