<svg width="24" height="24" viewBox="0 0 24 24" fill="none" xmlns="http://www.w3.org/2000/svg">
<path d="M7.44531 19.5625C6.6276 19.5625 6.01302 19.3594 5.60156 18.9531C5.19531 18.5521 4.99219 17.9479 4.99219 17.1406V7.60156C4.99219 6.79427 5.19531 6.1901 5.60156 5.78906C6.01302 5.38281 6.6276 5.17969 7.44531 5.17969H16.9219C17.7396 5.17969 18.3516 5.38281 18.7578 5.78906C19.1693 6.1901 19.375 6.79427 19.375 7.60156V17.1406C19.375 17.9479 19.1693 18.5521 18.7578 18.9531C18.3516 19.3594 17.7396 19.5625 16.9219 19.5625H7.44531ZM7.46094 18.3047H16.9062C17.2917 18.3047 17.5885 18.2031 17.7969 18C18.0104 17.7917 18.1172 17.4844 18.1172 17.0781V7.66406C18.1172 7.25781 18.0104 6.95312 17.7969 6.75C17.5885 6.54167 17.2917 6.4375 16.9062 6.4375H7.46094C7.07031 6.4375 6.77083 6.54167 6.5625 6.75C6.35417 6.95312 6.25 7.25781 6.25 7.66406V17.0781C6.25 17.4844 6.35417 17.7917 6.5625 18C6.77083 18.2031 7.07031 18.3047 7.46094 18.3047ZM8.74219 12.25C8.59115 12.25 8.46094 12.1979 8.35156 12.0938C8.24219 11.9844 8.1875 11.8542 8.1875 11.7031C8.1875 11.5521 8.24219 11.4219 8.35156 11.3125C8.46094 11.2031 8.59115 11.1484 8.74219 11.1484L9.125 11.1562L10.3203 11.2344L8.21094 9.20312C8.10156 9.09375 8.04427 8.95833 8.03906 8.79688C8.03906 8.63021 8.09375 8.48958 8.20312 8.375C8.31771 8.26042 8.45573 8.20312 8.61719 8.20312C8.78385 8.20312 8.92448 8.26302 9.03906 8.38281L11.0703 10.5078L10.9922 9.26562V8.89062C10.9922 8.73438 11.0443 8.60417 11.1484 8.5C11.2578 8.39062 11.388 8.33594 11.5391 8.33594C11.6953 8.33594 11.8255 8.39062 11.9297 8.5C12.0391 8.60417 12.0938 8.73438 12.0938 8.89062V11.6094C12.0938 11.8385 12.0365 12.0026 11.9219 12.1016C11.8073 12.2005 11.6484 12.25 11.4453 12.25H8.74219ZM12.8359 16.3672C12.6849 16.3672 12.5547 16.3151 12.4453 16.2109C12.3411 16.1016 12.2891 15.9688 12.2891 15.8125V13.0938C12.2891 12.8646 12.3438 12.7005 12.4531 12.6016C12.5677 12.5026 12.7266 12.4531 12.9297 12.4531H15.6406C15.7917 12.4531 15.9193 12.5078 16.0234 12.6172C16.1328 12.7214 16.1875 12.849 16.1875 13C16.1875 13.151 16.1328 13.2812 16.0234 13.3906C15.9193 13.5 15.7917 13.5547 15.6406 13.5547L15.2578 13.5469L14.0625 13.4688L16.1641 15.5C16.2786 15.6094 16.3359 15.7474 16.3359 15.9141C16.3411 16.0755 16.2865 16.2135 16.1719 16.3281C16.0573 16.4427 15.9193 16.5 15.7578 16.5C15.5964 16.5 15.4583 16.4401 15.3438 16.3203L13.3047 14.1953L13.3906 15.4375V15.8125C13.3906 15.9688 13.3359 16.1016 13.2266 16.2109C13.1224 16.3151 12.9922 16.3672 12.8359 16.3672Z" fill="#141414"/>
</svg>
