<svg width="24" height="24" viewBox="0 0 24 24" fill="none" xmlns="http://www.w3.org/2000/svg">
<path d="M7.44531 19.5625C6.6276 19.5625 6.01302 19.3594 5.60156 18.9531C5.19531 18.5521 4.99219 17.9479 4.99219 17.1406V7.60156C4.99219 6.79427 5.19531 6.1901 5.60156 5.78906C6.01302 5.38281 6.6276 5.17969 7.44531 5.17969H16.9219C17.7396 5.17969 18.3516 5.38281 18.7578 5.78906C19.1693 6.1901 19.375 6.79427 19.375 7.60156V17.1406C19.375 17.9479 19.1693 18.5521 18.7578 18.9531C18.3516 19.3594 17.7396 19.5625 16.9219 19.5625H7.44531ZM7.46094 18.3047H16.9062C17.2917 18.3047 17.5885 18.2031 17.7969 18C18.0104 17.7917 18.1172 17.4844 18.1172 17.0781V7.66406C18.1172 7.25781 18.0104 6.95312 17.7969 6.75C17.5885 6.54167 17.2917 6.4375 16.9062 6.4375H7.46094C7.07031 6.4375 6.77083 6.54167 6.5625 6.75C6.35417 6.95312 6.25 7.25781 6.25 7.66406V17.0781C6.25 17.4844 6.35417 17.7917 6.5625 18C6.77083 18.2031 7.07031 18.3047 7.46094 18.3047ZM8.82031 12.3516C8.66406 12.3516 8.53125 12.2995 8.42188 12.1953C8.31771 12.0859 8.26562 11.9531 8.26562 11.7969V9.07812C8.26562 8.84896 8.32031 8.6849 8.42969 8.58594C8.54427 8.48698 8.70312 8.4375 8.90625 8.4375H11.6172C11.7682 8.4375 11.8958 8.49219 12 8.60156C12.1094 8.70573 12.1641 8.83333 12.1641 8.98438C12.1641 9.13542 12.1094 9.26562 12 9.375C11.8958 9.48438 11.7682 9.53906 11.6172 9.53906L11.2344 9.53125L10.0391 9.45312L11.7969 11.1406C11.9115 11.25 11.9688 11.388 11.9688 11.5547C11.974 11.7161 11.9193 11.8542 11.8047 11.9688C11.6901 12.0833 11.5521 12.1406 11.3906 12.1406C11.2292 12.1406 11.0911 12.0807 10.9766 11.9609L9.28906 10.1797L9.36719 11.4219V11.7969C9.36719 11.9531 9.3125 12.0859 9.20312 12.1953C9.09896 12.2995 8.97135 12.3516 8.82031 12.3516ZM12.7656 16.2891C12.6146 16.2891 12.4844 16.237 12.375 16.1328C12.2656 16.0234 12.2109 15.8932 12.2109 15.7422C12.2109 15.5911 12.2656 15.4609 12.375 15.3516C12.4844 15.2422 12.6146 15.1875 12.7656 15.1875L13.1484 15.1953L14.3438 15.2734L12.5859 13.5859C12.4714 13.4766 12.4115 13.3411 12.4062 13.1797C12.4062 13.013 12.4635 12.8724 12.5781 12.7578C12.6927 12.6432 12.8307 12.5859 12.9922 12.5859C13.1536 12.5859 13.2917 12.6458 13.4062 12.7656L15.0938 14.5469L15.0156 13.3047V12.9297C15.0156 12.7734 15.0677 12.6432 15.1719 12.5391C15.2812 12.4297 15.4115 12.375 15.5625 12.375C15.7188 12.375 15.849 12.4297 15.9531 12.5391C16.0625 12.6432 16.1172 12.7734 16.1172 12.9297V15.6484C16.1172 15.8776 16.0599 16.0417 15.9453 16.1406C15.8307 16.2396 15.6719 16.2891 15.4688 16.2891H12.7656Z" fill="#141414"/>
</svg>
