<svg width="32" height="32" viewBox="0 0 32 32" fill="none" xmlns="http://www.w3.org/2000/svg">
    <path d="M21.5418 26.6982C20.5488 26.6982 19.4967 26.4968 18.3856 26.094C17.2814 25.6913 16.1529 25.101 15.0002 24.3232C13.8474 23.5524 12.712 22.6114 11.5939 21.5003C10.4759 20.3822 9.52794 19.2468 8.75016 18.094C7.97933 16.9343 7.39252 15.7989 6.98975 14.6878C6.59391 13.5767 6.396 12.5246 6.396 11.5315C6.396 10.6288 6.52794 9.85793 6.79183 9.21904C7.05572 8.58015 7.4828 7.99682 8.07308 7.46904C8.11475 7.43432 8.15641 7.3996 8.19808 7.36487C8.24669 7.32321 8.29183 7.28154 8.3335 7.23987C9.03489 6.61487 9.71544 6.30932 10.3752 6.32321C10.7502 6.33015 11.1113 6.44473 11.4585 6.66696C11.8057 6.88223 12.1425 7.22251 12.4689 7.68779L14.5731 10.719C14.8995 11.1843 15.0627 11.6774 15.0627 12.1982C15.0696 12.7121 14.8543 13.1878 14.4168 13.6253L13.6252 14.4274C13.5071 14.5454 13.4411 14.66 13.4272 14.7711C13.4134 14.8753 13.4411 14.9864 13.5106 15.1045C13.6495 15.3267 13.8231 15.5697 14.0314 15.8336C14.2467 16.0906 14.4793 16.3579 14.7293 16.6357C14.9863 16.9135 15.2502 17.1878 15.521 17.4586C15.7779 17.7156 16.0627 17.9864 16.3752 18.2711C16.6877 18.5489 16.9863 18.8058 17.271 19.042C17.5627 19.2781 17.8022 19.4552 17.9897 19.5732C18.1078 19.6496 18.2189 19.6808 18.3231 19.667C18.4342 19.6531 18.5488 19.5871 18.6668 19.469L19.4689 18.667C19.9064 18.2364 20.3821 18.0246 20.896 18.0315C21.4168 18.0385 21.9099 18.2017 22.3752 18.5211L25.4064 20.6253C25.8717 20.9447 26.2154 21.2815 26.4377 21.6357C26.6599 21.9829 26.771 22.344 26.771 22.719C26.771 23.0454 26.6946 23.3822 26.5418 23.7295C26.396 24.0697 26.1668 24.4135 25.8543 24.7607C25.8127 24.8024 25.771 24.844 25.7293 24.8857C25.6946 24.9343 25.6564 24.9795 25.6147 25.0211C25.087 25.6183 24.5036 26.0454 23.8647 26.3024C23.2259 26.5663 22.4516 26.6982 21.5418 26.6982ZM21.5522 25.094C22.1286 25.0871 22.6599 24.9829 23.146 24.7815C23.6321 24.5802 24.0522 24.2746 24.4064 23.8649C24.4411 23.8302 24.4689 23.7989 24.4897 23.7711C24.5175 23.7364 24.5453 23.7017 24.5731 23.667C24.8509 23.3475 24.9897 23.0315 24.9897 22.719C24.9897 22.5663 24.955 22.4239 24.8856 22.292C24.8231 22.16 24.7154 22.042 24.5627 21.9378L21.5314 19.917C21.3647 19.8128 21.1946 19.7607 21.021 19.7607C20.8474 19.7607 20.6807 19.844 20.521 20.0107L19.6043 20.9274C19.2432 21.2885 18.8578 21.469 18.4481 21.469C18.0384 21.4621 17.6599 21.3302 17.3127 21.0732C17.0418 20.8718 16.7328 20.6253 16.3856 20.3336C16.0453 20.035 15.7016 19.7295 15.3543 19.417C15.0141 19.0975 14.712 18.8058 14.4481 18.542C14.0453 18.1461 13.6147 17.6878 13.1564 17.167C12.6981 16.6461 12.3196 16.1843 12.021 15.7815C11.7571 15.4343 11.6252 15.0558 11.6252 14.6461C11.6252 14.2295 11.8057 13.844 12.1668 13.4899L13.0835 12.5732C13.2432 12.4135 13.3231 12.2468 13.3231 12.0732C13.33 11.8996 13.2779 11.7295 13.1668 11.5628L11.146 8.53154C10.9585 8.24682 10.7016 8.10446 10.3752 8.10446C10.2224 8.10446 10.0627 8.14265 9.896 8.21904C9.73627 8.28848 9.58002 8.38918 9.42725 8.52112C9.39252 8.5489 9.3578 8.57668 9.32308 8.60446C9.2953 8.62529 9.26405 8.65307 9.22933 8.68779C8.81961 9.04196 8.51405 9.4621 8.31266 9.94821C8.11127 10.4274 8.00364 10.9552 7.98975 11.5315C7.97586 12.4135 8.18072 13.3718 8.60433 14.4065C9.02794 15.4343 9.60433 16.469 10.3335 17.5107C11.0696 18.5454 11.8891 19.5142 12.7918 20.417C13.6946 21.3128 14.6529 22.1183 15.6668 22.8336C16.6807 23.542 17.6946 24.101 18.7085 24.5107C19.7224 24.9204 20.6703 25.1149 21.5522 25.094Z"
          fill="currentColor"/>
</svg>
