<svg width="32" height="32" viewBox="0 0 32 32" fill="none" xmlns="http://www.w3.org/2000/svg">
<path d="M11.6877 21.1979C10.6877 20.1979 9.78836 19.1458 8.98975 18.0417C8.19114 16.9375 7.55919 15.8368 7.09391 14.7396C6.62863 13.6354 6.396 12.5833 6.396 11.5833C6.396 10.9167 6.51058 10.2917 6.73975 9.70833C6.97586 9.11806 7.34738 8.57986 7.85433 8.09375C8.47933 7.48958 9.14947 7.1875 9.86475 7.1875C10.1425 7.1875 10.4064 7.24653 10.6564 7.36458C10.9134 7.47569 11.1286 7.65625 11.3022 7.90625L13.5418 11.0625C13.7224 11.3056 13.8543 11.5312 13.9377 11.7396C14.021 11.9479 14.0627 12.1458 14.0627 12.3333C14.0627 12.5694 13.9967 12.7986 13.8647 13.0208C13.7328 13.2431 13.5522 13.4722 13.3231 13.7083L12.5835 14.4688C12.4793 14.5729 12.4272 14.7014 12.4272 14.8542C12.4272 14.9306 12.4377 15.0069 12.4585 15.0833C12.4863 15.1528 12.5141 15.2153 12.5418 15.2708C12.7085 15.5903 13.0071 16.0035 13.4377 16.5104C13.8682 17.0174 14.337 17.5278 14.8439 18.0417C15.3578 18.5556 15.8682 19.0278 16.3752 19.4583C16.8821 19.8819 17.2988 20.1806 17.6252 20.3542C17.6738 20.375 17.7328 20.3993 17.8022 20.4271C17.8786 20.4549 17.9585 20.4688 18.0418 20.4688C18.2016 20.4688 18.3335 20.4132 18.4377 20.3021L19.1772 19.5729C19.4134 19.3368 19.6425 19.1562 19.8647 19.0312C20.087 18.8993 20.3161 18.8333 20.5522 18.8333C20.7397 18.8333 20.9377 18.875 21.146 18.9583C21.3543 19.0417 21.58 19.1667 21.8231 19.3333L25.021 21.6042C25.2641 21.7778 25.4377 21.9861 25.5418 22.2292C25.6529 22.4653 25.7085 22.7153 25.7085 22.9792C25.7085 23.3333 25.6286 23.684 25.4689 24.0312C25.3092 24.3854 25.0904 24.7153 24.8127 25.0208C24.3404 25.5417 23.8127 25.9236 23.2293 26.1667C22.646 26.4097 22.0175 26.5312 21.3439 26.5312C20.3509 26.5312 19.2988 26.2951 18.1877 25.8229C17.0766 25.3507 15.9654 24.7118 14.8543 23.9062C13.7432 23.1007 12.6877 22.1979 11.6877 21.1979Z" fill="#141414"/>
</svg>
