<svg width="32" height="32" viewBox="0 0 32 32" fill="none" xmlns="http://www.w3.org/2000/svg">
<path d="M10.1772 27.9896C9.87863 27.9896 9.64947 27.8924 9.48975 27.6979C9.33002 27.5035 9.25016 27.2431 9.25016 26.9167V23.8854H8.76058C7.72586 23.8854 6.85433 23.7014 6.146 23.3333C5.43766 22.9653 4.89947 22.4271 4.53141 21.7188C4.1703 21.0104 3.98975 20.1458 3.98975 19.125V11.1458C3.98975 10.125 4.1703 9.26042 4.53141 8.55208C4.89947 7.84375 5.43766 7.30556 6.146 6.9375C6.85433 6.5625 7.72586 6.375 8.76058 6.375H22.1772C23.212 6.375 24.0835 6.5625 24.7918 6.9375C25.5002 7.30556 26.0349 7.84375 26.396 8.55208C26.764 9.26042 26.9481 10.125 26.9481 11.1458V19.125C26.9481 20.1458 26.764 21.0104 26.396 21.7188C26.0349 22.4271 25.5002 22.9653 24.7918 23.3333C24.0835 23.7014 23.212 23.8854 22.1772 23.8854H15.1356L11.3752 27.3229C11.1252 27.5521 10.9134 27.7188 10.7397 27.8229C10.5731 27.934 10.3856 27.9896 10.1772 27.9896ZM9.93766 12.1667H20.8647C21.0384 12.1667 21.1842 12.1076 21.3022 11.9896C21.4272 11.8646 21.4897 11.7153 21.4897 11.5417C21.4897 11.3681 21.4272 11.2222 21.3022 11.1042C21.1842 10.9861 21.0384 10.9271 20.8647 10.9271H9.93766C9.76405 10.9271 9.61475 10.9861 9.48975 11.1042C9.37169 11.2222 9.31266 11.3681 9.31266 11.5417C9.31266 11.7153 9.37169 11.8646 9.48975 11.9896C9.61475 12.1076 9.76405 12.1667 9.93766 12.1667ZM9.93766 15.6562H20.8647C21.0384 15.6562 21.1842 15.5972 21.3022 15.4792C21.4272 15.3611 21.4897 15.2118 21.4897 15.0312C21.4897 14.8646 21.4272 14.7188 21.3022 14.5938C21.1842 14.4688 21.0384 14.4062 20.8647 14.4062H9.93766C9.76405 14.4062 9.61475 14.4688 9.48975 14.5938C9.37169 14.7188 9.31266 14.8646 9.31266 15.0312C9.31266 15.2118 9.37169 15.3611 9.48975 15.4792C9.61475 15.5972 9.76405 15.6562 9.93766 15.6562ZM9.93766 19.1562H17.0418C17.2154 19.1562 17.3613 19.0972 17.4793 18.9792C17.6043 18.8611 17.6668 18.7153 17.6668 18.5417C17.6668 18.3611 17.6043 18.2118 17.4793 18.0938C17.3613 17.9688 17.2154 17.9062 17.0418 17.9062H9.93766C9.76405 17.9062 9.61475 17.9688 9.48975 18.0938C9.37169 18.2118 9.31266 18.3611 9.31266 18.5417C9.31266 18.7153 9.37169 18.8611 9.48975 18.9792C9.61475 19.0972 9.76405 19.1562 9.93766 19.1562Z" fill="#141414"/>
</svg>
