<svg width="32" height="32" viewBox="0 0 32 32" fill="none" xmlns="http://www.w3.org/2000/svg">
<path d="M10.396 27.9271C10.0349 27.9271 9.75363 27.8056 9.55225 27.5625C9.3578 27.3264 9.26058 27.0069 9.26058 26.6042V23.8958H8.76058C7.72586 23.8958 6.85433 23.7118 6.146 23.3438C5.43766 22.9688 4.89947 22.4271 4.53141 21.7188C4.1703 21.0104 3.98975 20.1458 3.98975 19.125V11.1458C3.98975 10.125 4.1703 9.26042 4.53141 8.55208C4.89947 7.84375 5.43766 7.30556 6.146 6.9375C6.85433 6.5625 7.72586 6.375 8.76058 6.375H22.1772C23.212 6.375 24.0835 6.5625 24.7918 6.9375C25.5002 7.30556 26.0349 7.84375 26.396 8.55208C26.764 9.26042 26.9481 10.125 26.9481 11.1458V19.125C26.9481 20.1458 26.764 21.0104 26.396 21.7188C26.0349 22.4271 25.5002 22.9688 24.7918 23.3438C24.0835 23.7118 23.212 23.8958 22.1772 23.8958H15.4897L11.896 27.0938C11.5835 27.3715 11.3196 27.5799 11.1043 27.7188C10.8891 27.8576 10.6529 27.9271 10.396 27.9271ZM10.8231 26.0208L14.1564 22.7083C14.3509 22.5069 14.5384 22.375 14.7189 22.3125C14.8995 22.25 15.1356 22.2188 15.4272 22.2188H22.1772C23.2259 22.2188 24.0036 21.9583 24.5106 21.4375C25.0175 20.9097 25.271 20.1354 25.271 19.1146V11.1458C25.271 10.1319 25.0175 9.36458 24.5106 8.84375C24.0036 8.31597 23.2259 8.05208 22.1772 8.05208H8.76058C7.70502 8.05208 6.92377 8.31597 6.41683 8.84375C5.91683 9.36458 5.66683 10.1319 5.66683 11.1458V19.1146C5.66683 20.1354 5.91683 20.9097 6.41683 21.4375C6.92377 21.9583 7.70502 22.2188 8.76058 22.2188H10.0418C10.3266 22.2188 10.5279 22.2778 10.646 22.3958C10.7641 22.5139 10.8231 22.7153 10.8231 23V26.0208ZM10.1043 12.2604C9.93072 12.2604 9.78488 12.2014 9.66683 12.0833C9.55572 11.9653 9.50016 11.8229 9.50016 11.6562C9.50016 11.4896 9.55572 11.3507 9.66683 11.2396C9.78488 11.1215 9.93072 11.0625 10.1043 11.0625H20.6981C20.8717 11.0625 21.0141 11.1215 21.1252 11.2396C21.2432 11.3507 21.3022 11.4896 21.3022 11.6562C21.3022 11.8229 21.2432 11.9653 21.1252 12.0833C21.0141 12.2014 20.8717 12.2604 20.6981 12.2604H10.1043ZM10.1043 15.6458C9.93072 15.6458 9.78488 15.5903 9.66683 15.4792C9.55572 15.3611 9.50016 15.2153 9.50016 15.0417C9.50016 14.8819 9.55572 14.7431 9.66683 14.625C9.78488 14.5 9.93072 14.4375 10.1043 14.4375H20.6981C20.8717 14.4375 21.0141 14.5 21.1252 14.625C21.2432 14.7431 21.3022 14.8819 21.3022 15.0417C21.3022 15.2153 21.2432 15.3611 21.1252 15.4792C21.0141 15.5903 20.8717 15.6458 20.6981 15.6458H10.1043ZM10.1043 19.0417C9.93072 19.0417 9.78488 18.9861 9.66683 18.875C9.55572 18.7569 9.50016 18.6146 9.50016 18.4479C9.50016 18.2743 9.55572 18.1285 9.66683 18.0104C9.78488 17.8924 9.93072 17.8333 10.1043 17.8333H16.9897C17.1564 17.8333 17.2988 17.8924 17.4168 18.0104C17.5349 18.1285 17.5939 18.2743 17.5939 18.4479C17.5939 18.6146 17.5349 18.7569 17.4168 18.875C17.2988 18.9861 17.1564 19.0417 16.9897 19.0417H10.1043Z" fill="#141414"/>
</svg>
