<svg width="32" height="32" viewBox="0 0 32 32" fill="none" xmlns="http://www.w3.org/2000/svg">
    <path d="M15.1056 24.2801C14.3886 24.2801 13.8843 24.1768 13.5926 23.9702C13.307 23.7697 13.1642 23.4689 13.1642 23.0679C13.1642 22.4785 13.3404 21.8617 13.6929 21.2176C14.0453 20.5674 14.5557 19.9598 15.2241 19.3947C15.8925 18.8235 16.6976 18.3617 17.6395 18.0093C18.5874 17.6508 19.6508 17.4715 20.8296 17.4715C22.0145 17.4715 23.0779 17.6508 24.0197 18.0093C24.9676 18.3617 25.7727 18.8235 26.4351 19.3947C27.1035 19.9598 27.6139 20.5674 27.9663 21.2176C28.3248 21.8617 28.5041 22.4785 28.5041 23.0679C28.5041 23.4689 28.3582 23.7697 28.0666 23.9702C27.7749 24.1768 27.2706 24.2801 26.5535 24.2801H15.1056ZM20.8387 15.84C20.1825 15.84 19.5779 15.6638 19.0249 15.3114C18.472 14.9529 18.0284 14.4728 17.6942 13.8713C17.36 13.2636 17.1929 12.5831 17.1929 11.8296C17.1929 11.0883 17.36 10.4199 17.6942 9.82438C18.0345 9.2289 18.4811 8.75798 19.034 8.41162C19.587 8.06527 20.1885 7.89209 20.8387 7.89209C21.4889 7.89209 22.0904 8.06223 22.6434 8.40251C23.1963 8.74278 23.6399 9.21067 23.9741 9.80615C24.3083 10.3956 24.4754 11.064 24.4754 11.8114C24.4754 12.5709 24.3083 13.2545 23.9741 13.8621C23.6399 14.4698 23.1963 14.9529 22.6434 15.3114C22.0904 15.6638 21.4889 15.84 20.8387 15.84ZM5.26188 24.2801C4.68462 24.2801 4.27143 24.1677 4.0223 23.9429C3.77924 23.7241 3.65771 23.4081 3.65771 22.995C3.65771 22.3691 3.81266 21.7311 4.12256 21.0809C4.43245 20.4246 4.87603 19.8231 5.45329 19.2762C6.03662 18.7293 6.73844 18.2888 7.55876 17.9546C8.38515 17.6143 9.31179 17.4442 10.3387 17.4442C11.1894 17.4442 11.9429 17.5566 12.5991 17.7814C13.2614 18.0002 13.8478 18.2797 14.3582 18.62C13.866 19.0028 13.4316 19.4463 13.0548 19.9507C12.6842 20.4489 12.3925 20.9654 12.1798 21.5002C11.9672 22.0349 11.8548 22.5453 11.8426 23.0314C11.8305 23.5175 11.9429 23.9338 12.1798 24.2801H5.26188ZM10.3387 16.0496C9.7736 16.0496 9.24799 15.8947 8.76188 15.5848C8.28185 15.2749 7.896 14.8556 7.60433 14.327C7.31266 13.7983 7.16683 13.2089 7.16683 12.5588C7.16683 11.9086 7.31266 11.3252 7.60433 10.8088C7.90207 10.2923 8.29096 9.88515 8.771 9.5874C9.25711 9.28358 9.77968 9.13167 10.3387 9.13167C10.9038 9.13167 11.4264 9.28054 11.9064 9.57829C12.3925 9.86995 12.7814 10.274 13.0731 10.7905C13.3647 11.3009 13.5106 11.8843 13.5106 12.5405C13.5106 13.1968 13.3647 13.7923 13.0731 14.327C12.7814 14.8556 12.3956 15.2749 11.9155 15.5848C11.4355 15.8947 10.9099 16.0496 10.3387 16.0496Z"
          fill="currentColor"/>
</svg>
