<svg width="32" height="32" viewBox="0 0 32 32" fill="none" xmlns="http://www.w3.org/2000/svg">
    <path d="M15.3517 24.5262C13.863 24.5262 13.1187 24.0401 13.1187 23.0679C13.1187 22.4724 13.3009 21.8374 13.6655 21.1629C14.0301 20.4884 14.5557 19.8535 15.2423 19.258C15.9351 18.6564 16.7706 18.1673 17.7489 17.7905C18.7332 17.4138 19.8422 17.2254 21.0757 17.2254C22.3153 17.2254 23.4242 17.4138 24.4025 17.7905C25.3869 18.1673 26.2224 18.6564 26.909 19.258C27.6017 19.8535 28.1304 20.4884 28.495 21.1629C28.8595 21.8374 29.0418 22.4724 29.0418 23.0679C29.0418 24.0401 28.2944 24.5262 26.7996 24.5262H15.3517ZM14.9142 23.1499H27.2371C27.3587 23.1499 27.4437 23.1317 27.4923 23.0952C27.547 23.0588 27.5744 22.9919 27.5744 22.8947C27.5744 22.518 27.4316 22.0865 27.146 21.6004C26.8665 21.1143 26.4502 20.6434 25.8973 20.1877C25.3443 19.7319 24.6638 19.3552 23.8556 19.0575C23.0475 18.7536 22.1208 18.6017 21.0757 18.6017C20.0305 18.6017 19.1039 18.7536 18.2957 19.0575C17.4937 19.3552 16.8161 19.7319 16.2632 20.1877C15.7102 20.6434 15.291 21.1143 15.0054 21.6004C14.7259 22.0865 14.5861 22.518 14.5861 22.8947C14.5861 22.9919 14.6104 23.0588 14.659 23.0952C14.7137 23.1317 14.7988 23.1499 14.9142 23.1499ZM21.0848 16.0861C20.3617 16.0861 19.7024 15.8947 19.1069 15.5119C18.5114 15.1291 18.0345 14.6156 17.6759 13.9715C17.3235 13.3213 17.1473 12.6074 17.1473 11.8296C17.1473 11.0579 17.3235 10.3561 17.6759 9.72412C18.0345 9.09218 18.5114 8.58784 19.1069 8.2111C19.7024 7.83436 20.3617 7.646 21.0848 7.646C21.814 7.646 22.4763 7.83133 23.0718 8.20199C23.6673 8.57265 24.1412 9.07395 24.4937 9.70589C24.8461 10.3318 25.0223 11.0336 25.0223 11.8114C25.0223 12.5952 24.843 13.3122 24.4845 13.9624C24.1321 14.6065 23.6581 15.123 23.0627 15.5119C22.4672 15.8947 21.8079 16.0861 21.0848 16.0861ZM21.0848 14.7098C21.5345 14.7098 21.9446 14.5822 22.3153 14.327C22.692 14.0657 22.9928 13.7163 23.2176 13.2788C23.4424 12.8352 23.5548 12.3461 23.5548 11.8114C23.5548 11.2827 23.4424 10.8088 23.2176 10.3895C22.9989 9.96414 22.7011 9.62994 22.3244 9.38688C21.9537 9.14383 21.5405 9.0223 21.0848 9.0223C20.6351 9.0223 20.222 9.14686 19.8452 9.396C19.4746 9.63905 19.1768 9.97325 18.952 10.3986C18.7272 10.8239 18.6147 11.3009 18.6147 11.8296C18.6147 12.3643 18.7272 12.8504 18.952 13.2879C19.1829 13.7254 19.4837 14.0718 19.8543 14.327C20.2311 14.5822 20.6412 14.7098 21.0848 14.7098ZM5.50798 24.5262C4.89426 24.5262 4.43245 24.3986 4.12256 24.1434C3.81266 23.8943 3.65771 23.5145 3.65771 23.0041C3.65771 22.2506 3.83697 21.5275 4.19548 20.8348C4.55398 20.136 5.04921 19.5162 5.68115 18.9754C6.31917 18.4285 7.05442 17.9971 7.88688 17.6812C8.72542 17.3652 9.62169 17.2072 10.5757 17.2072C11.08 17.2072 11.5692 17.2528 12.0431 17.3439C12.5171 17.429 12.9728 17.5596 13.4103 17.7358C13.8539 17.906 14.2732 18.1187 14.6681 18.3739C14.4615 18.5197 14.2732 18.6746 14.103 18.8387C13.9329 18.9967 13.7779 19.1668 13.6382 19.3491C13.3404 19.1729 13.0275 19.0271 12.6994 18.9116C12.3773 18.7962 12.0371 18.7081 11.6785 18.6473C11.3261 18.5865 10.9585 18.5562 10.5757 18.5562C9.82829 18.5562 9.12039 18.6777 8.45199 18.9207C7.78358 19.1577 7.19113 19.4828 6.67464 19.896C6.15815 20.3031 5.75103 20.768 5.45329 21.2905C5.16162 21.8131 5.01579 22.3569 5.01579 22.922C5.01579 23.0132 5.03706 23.077 5.07959 23.1134C5.12212 23.156 5.192 23.1772 5.28923 23.1772H11.9611C11.9307 23.4568 11.9854 23.7211 12.1252 23.9702C12.2649 24.2193 12.4442 24.4047 12.6629 24.5262H5.50798ZM10.5848 16.1681C9.95893 16.1681 9.38775 16.001 8.87126 15.6668C8.35476 15.3266 7.94157 14.8739 7.63167 14.3088C7.32178 13.7437 7.16683 13.1178 7.16683 12.4312C7.16683 11.7567 7.32178 11.143 7.63167 10.59C7.94157 10.031 8.35476 9.5874 8.87126 9.25928C9.38775 8.92508 9.95893 8.75798 10.5848 8.75798C11.2167 8.75798 11.791 8.92204 12.3075 9.25016C12.8239 9.57829 13.2341 10.0188 13.5379 10.5718C13.8478 11.1247 14.0028 11.7384 14.0028 12.4129C14.0028 13.0996 13.8478 13.7285 13.5379 14.2996C13.228 14.8708 12.8148 15.3266 12.2983 15.6668C11.7818 16.001 11.2107 16.1681 10.5848 16.1681ZM10.5848 14.8101C10.9555 14.8101 11.2988 14.7037 11.6147 14.491C11.9307 14.2723 12.1829 13.9837 12.3713 13.6252C12.5596 13.2606 12.6538 12.8565 12.6538 12.4129C12.6538 11.9815 12.5596 11.5926 12.3713 11.2463C12.189 10.8999 11.9398 10.6265 11.6239 10.4259C11.314 10.2193 10.9676 10.116 10.5848 10.116C10.2081 10.116 9.86171 10.2193 9.54574 10.4259C9.23584 10.6325 8.98671 10.9121 8.79834 11.2645C8.61605 11.6108 8.5249 11.9997 8.5249 12.4312C8.5249 12.8687 8.61909 13.2697 8.80745 13.6343C8.99582 13.9928 9.24495 14.2784 9.55485 14.491C9.87082 14.7037 10.2141 14.8101 10.5848 14.8101Z"
          fill="currentColor"/>
</svg>
