<svg width="32" height="32" viewBox="0 0 32 32" fill="none" xmlns="http://www.w3.org/2000/svg">
    <path d="M9.20833 26.1252C7.50694 26.1252 6.65625 25.5696 6.65625 24.4585C6.65625 23.7779 6.86458 23.0522 7.28125 22.2814C7.69792 21.5106 8.29861 20.7849 9.08333 20.1043C9.875 19.4168 10.8299 18.8578 11.9479 18.4272C13.0729 17.9967 14.3437 17.7814 15.7604 17.7814C17.1701 17.7814 18.434 17.9967 19.5521 18.4272C20.6771 18.8578 21.6319 19.4168 22.4167 20.1043C23.2083 20.7849 23.8125 21.5106 24.2292 22.2814C24.6458 23.0522 24.8542 23.7779 24.8542 24.4585C24.8542 25.5696 24.0035 26.1252 22.3021 26.1252H9.20833ZM8.71875 24.5522H22.8021C22.934 24.5522 23.0278 24.5314 23.0833 24.4897C23.1458 24.4481 23.1771 24.3717 23.1771 24.2606C23.1771 23.83 23.0139 23.337 22.6875 22.7814C22.3681 22.2259 21.8924 21.6877 21.2604 21.1668C20.6285 20.646 19.8507 20.2154 18.9271 19.8752C18.0104 19.5279 16.9549 19.3543 15.7604 19.3543C14.566 19.3543 13.5069 19.5279 12.5833 19.8752C11.6597 20.2154 10.8819 20.646 10.25 21.1668C9.61806 21.6877 9.13889 22.2259 8.8125 22.7814C8.49306 23.337 8.33333 23.83 8.33333 24.2606C8.33333 24.3717 8.36111 24.4481 8.41667 24.4897C8.47917 24.5314 8.57986 24.5522 8.71875 24.5522ZM15.7604 16.4793C14.934 16.4793 14.1806 16.2606 13.5 15.8231C12.8194 15.3856 12.2743 14.7988 11.8646 14.0627C11.4618 13.3196 11.2604 12.5036 11.2604 11.6147C11.2604 10.7328 11.4618 9.93072 11.8646 9.2085C12.2743 8.48627 12.8194 7.90988 13.5 7.47933C14.1806 7.04877 14.934 6.8335 15.7604 6.8335C16.5937 6.8335 17.3507 7.0453 18.0312 7.46891C18.7118 7.89252 19.2535 8.46544 19.6562 9.18766C20.059 9.90294 20.2604 10.705 20.2604 11.5939C20.2604 12.4897 20.0556 13.3092 19.6458 14.0522C19.2431 14.7884 18.7014 15.3786 18.0208 15.8231C17.3403 16.2606 16.5868 16.4793 15.7604 16.4793ZM15.7604 14.9064C16.2743 14.9064 16.7431 14.7606 17.1667 14.4689C17.5972 14.1703 17.941 13.771 18.1979 13.271C18.4549 12.7641 18.5833 12.205 18.5833 11.5939C18.5833 10.9897 18.4549 10.4481 18.1979 9.96891C17.9479 9.4828 17.6076 9.10086 17.1771 8.82308C16.7535 8.5453 16.2812 8.40641 15.7604 8.40641C15.2465 8.40641 14.7743 8.54877 14.3437 8.8335C13.9201 9.11127 13.5799 9.49322 13.3229 9.97933C13.066 10.4654 12.9375 11.0106 12.9375 11.6147C12.9375 12.2259 13.066 12.7814 13.3229 13.2814C13.5868 13.7814 13.9306 14.1772 14.3542 14.4689C14.7847 14.7606 15.2535 14.9064 15.7604 14.9064Z"
          fill="currentColor"/>
</svg>
